<?xml version="1.0" encoding="utf-8"?>
<!-- Generator: Adobe Illustrator 27.9.6, SVG Export Plug-In . SVG Version: 9.03 Build 54986)  -->
<svg version="1.2" baseProfile="tiny" id="Layer_1" xmlns="http://www.w3.org/2000/svg" xmlns:xlink="http://www.w3.org/1999/xlink"
	 x="0px" y="0px" viewBox="0 0 24 24" overflow="visible" xml:space="preserve">
<g id="Iconly_x2F_Curved_x2F_Category">
	<g id="Category">
		<path id="Stroke_1" fill="none" stroke="#130F26" stroke-width="1.5" stroke-linecap="round" stroke-linejoin="round" d="
			M21,6.674c0,2.029-1.645,3.674-3.674,3.674s-3.673-1.645-3.673-3.674S15.298,3,17.326,3S21,4.645,21,6.674z"/>
		<path id="Stroke_3" fill="none" stroke="#130F26" stroke-width="1.5" stroke-linecap="round" stroke-linejoin="round" d="
			M10.347,6.674c0,2.029-1.644,3.674-3.674,3.674C4.645,10.348,3,8.702,3,6.674S4.645,3,6.673,3C8.702,3,10.347,4.645,10.347,6.674z
			"/>
		<path id="Stroke_5" fill="none" stroke="#130F26" stroke-width="1.5" stroke-linecap="round" stroke-linejoin="round" d="
			M21,17.262c0,2.029-1.645,3.673-3.674,3.673s-3.673-1.644-3.673-3.673s1.644-3.674,3.673-3.674S21,15.233,21,17.262z"/>
		<path id="Stroke_7" fill="none" stroke="#130F26" stroke-width="1.5" stroke-linecap="round" stroke-linejoin="round" d="
			M10.347,17.262c0,2.029-1.644,3.673-3.674,3.673C4.645,20.935,3,19.291,3,17.262s1.645-3.674,3.673-3.674
			C8.702,13.588,10.347,15.233,10.347,17.262z"/>
	</g>
</g>
</svg>
