<svg width="46" height="31" viewBox="0 0 46 31" fill="none" xmlns="http://www.w3.org/2000/svg">
<path d="M5.94131 5.27348C5.88653 5.25676 5.83302 5.2445 5.777 5.22777C5.58155 5.17091 5.38858 5.12298 5.2006 5.0795C5.01884 5.03825 4.84334 5.00703 4.66781 4.97804C4.55079 4.95797 4.43252 4.93568 4.31799 4.92118C4.21466 4.90892 4.11756 4.90223 4.01672 4.89442C3.86858 4.88216 3.71919 4.87102 3.57728 4.86879C3.50383 4.86767 3.43164 4.86878 3.35944 4.86989C3.19636 4.87324 3.03699 4.88216 2.88512 4.89888C2.84279 4.90334 2.79797 4.9067 2.75564 4.91227C2.56767 4.93903 2.38965 4.97693 2.22035 5.02487C2.18923 5.03379 2.15934 5.04494 2.12822 5.05386C1.95767 5.10849 1.79459 5.17093 1.6452 5.24674L5.98116 2.99019C5.99112 2.98462 6.00232 2.97904 6.01228 2.97347C6.1044 2.92664 6.20025 2.88539 6.30108 2.84748C6.35337 2.82853 6.4094 2.81403 6.46293 2.79731C6.4928 2.78839 6.52393 2.77724 6.55506 2.76832C6.58244 2.76052 6.60734 2.75049 6.63598 2.74269C6.76047 2.71035 6.89117 2.68359 7.02687 2.66241C7.04678 2.66018 7.06793 2.65907 7.0891 2.65572C7.13142 2.65015 7.17625 2.64791 7.21982 2.64233C7.30946 2.6323 7.39786 2.62004 7.49123 2.61447C7.55597 2.61112 7.62692 2.61448 7.69414 2.61336C7.76635 2.61113 7.83729 2.61 7.91198 2.61112C7.95929 2.61223 8.00411 2.60778 8.05266 2.61001C8.14852 2.61335 8.25183 2.62897 8.35143 2.63677C8.45102 2.64457 8.54936 2.65127 8.65144 2.66353C8.68505 2.66799 8.71618 2.66798 8.74855 2.67244C8.83071 2.68359 8.92035 2.70701 9.00252 2.72151C9.1768 2.75049 9.35109 2.7817 9.53409 2.82295C9.5789 2.83298 9.62122 2.83745 9.66728 2.8486C9.81169 2.88428 9.96232 2.92888 10.1117 2.97124C10.1665 2.98685 10.2188 2.99911 10.2735 3.01583C10.5126 3.0883 10.7578 3.16969 11.0068 3.26111C11.0279 3.26891 11.0503 3.28118 11.0715 3.28787C11.4076 3.41385 11.7475 3.55433 12.0961 3.71599L7.76135 5.97252C7.41278 5.81086 7.07044 5.67152 6.7368 5.54442C6.46791 5.44408 6.20149 5.35264 5.94131 5.27348Z" fill="#EEEDEA"/>
<path d="M14.3455 3.12594C14.1202 3.03341 13.8974 2.94422 13.6783 2.86729C13.5986 2.83942 13.5177 2.81266 13.4393 2.78591C13.1878 2.70229 12.9413 2.6287 12.6986 2.56627C12.6575 2.55512 12.6139 2.54173 12.5728 2.5317C12.4284 2.49602 12.2915 2.47597 12.1508 2.44698C11.9852 2.41353 11.8172 2.37562 11.6578 2.3522C11.3877 2.3143 11.1275 2.28978 10.8798 2.28086C10.8462 2.27974 10.8138 2.28308 10.7802 2.28196C10.5711 2.2775 10.3706 2.2842 10.1777 2.30204C10.1279 2.3065 10.0781 2.31095 10.0295 2.31764C9.82413 2.34328 9.62743 2.37786 9.44443 2.42803C9.42203 2.43472 9.40084 2.44252 9.37719 2.44921C9.18423 2.50607 8.99998 2.57519 8.83441 2.66104L13.1704 0.40449C13.1803 0.398915 13.1915 0.393342 13.2015 0.387767C13.2936 0.342056 13.3895 0.299683 13.4891 0.261777C13.5613 0.235019 13.6372 0.214947 13.7119 0.191534C13.7355 0.184845 13.7555 0.177044 13.7791 0.170354C13.7953 0.165895 13.809 0.16032 13.8252 0.15586C13.9522 0.123528 14.0816 0.0967808 14.2186 0.0755978C14.2659 0.0677936 14.3169 0.0655553 14.3642 0.0599809C14.414 0.0544064 14.4626 0.0488405 14.5136 0.0443809C14.5709 0.0399213 14.6244 0.0298801 14.6829 0.0265354C14.8211 0.0187311 14.968 0.0209621 15.1162 0.0243068C15.1498 0.0243068 15.1821 0.0220691 15.2157 0.023184C15.2257 0.0242989 15.2344 0.0220691 15.2431 0.023184C15.4722 0.0321032 15.7087 0.0532938 15.9539 0.0867407C15.9664 0.0889704 15.9801 0.0923193 15.9925 0.0945491C16.1519 0.116847 16.3224 0.155859 16.4868 0.189306C16.615 0.214948 16.7345 0.23056 16.8664 0.261777C16.8801 0.265121 16.8939 0.269575 16.9076 0.272919C16.9499 0.282953 16.9922 0.296347 17.0345 0.30861C17.2748 0.371045 17.5225 0.444618 17.774 0.528235C17.8537 0.553877 17.9333 0.580633 18.013 0.60962C18.0827 0.634148 18.1487 0.65422 18.2197 0.679862C18.3703 0.735607 18.5271 0.804738 18.6815 0.868287C18.7836 0.910653 18.8832 0.947444 18.9865 0.993154C19.3089 1.13363 19.6338 1.28636 19.9675 1.45806C20.4667 1.71671 20.9609 2.00101 21.4315 2.30204L17.0955 4.55746C16.6237 4.25644 16.1307 3.97216 15.6315 3.7135C15.2979 3.54181 14.9717 3.38906 14.6505 3.24858C14.5485 3.20622 14.4476 3.16831 14.3455 3.12594Z" fill="#EEEDEA"/>
<path d="M28.0854 9.92473C28.0779 9.90466 28.0717 9.88347 28.0642 9.8634C28.0219 9.74634 27.9733 9.62705 27.9198 9.50887C27.9098 9.48657 27.8986 9.46315 27.8887 9.43973C27.8327 9.31821 27.7716 9.19669 27.7057 9.07294C27.6957 9.0551 27.6845 9.03727 27.6758 9.02054C27.6148 8.91017 27.5488 8.79868 27.4791 8.68719C27.4617 8.66044 27.4455 8.63256 27.4281 8.60468C27.3472 8.47759 27.26 8.35049 27.1691 8.2234C27.1467 8.19329 27.1231 8.16207 27.0994 8.13085C27.026 8.03163 26.9525 7.93241 26.8729 7.8343C26.8218 7.76963 26.7683 7.70607 26.7147 7.64252C26.655 7.57117 26.594 7.49871 26.5317 7.42736C26.4309 7.31364 26.3263 7.19991 26.2193 7.0873C26.1819 7.04828 26.1458 7.00816 26.1085 6.96914C25.9081 6.764 25.6939 6.56219 25.4736 6.36486C25.4263 6.32249 25.379 6.27901 25.3304 6.23776C25.1686 6.09728 25.003 5.95904 24.8337 5.82413C24.8088 5.80406 24.7851 5.78289 24.759 5.76282C24.5648 5.61008 24.3632 5.46291 24.1578 5.32021C24.1017 5.28118 24.0444 5.24327 23.9872 5.20425C23.8291 5.09722 23.6685 4.99466 23.5054 4.89321C23.4419 4.85418 23.3797 4.81627 23.3174 4.77725C23.0996 4.64792 22.8793 4.52305 22.6552 4.40711C22.4211 4.2867 22.1921 4.17855 21.9655 4.07932C21.892 4.04699 21.8211 4.02024 21.7489 3.99125C21.6094 3.93439 21.4712 3.87975 21.3356 3.83181C21.0492 3.72924 20.7679 3.64006 20.5002 3.57429C20.4081 3.55199 20.3222 3.5386 20.2313 3.52077C20.1056 3.49512 19.9799 3.46614 19.8604 3.44942C19.6699 3.42266 19.4869 3.40593 19.3126 3.40036C19.2865 3.39924 19.2641 3.40147 19.2379 3.40036C19.0923 3.39813 18.9529 3.40259 18.8172 3.41485C18.7823 3.41819 18.7462 3.42153 18.7126 3.42599C18.5682 3.44383 18.4287 3.46837 18.3005 3.50404C18.2831 3.5085 18.2694 3.51407 18.252 3.51964C18.1163 3.55978 17.9868 3.60884 17.871 3.66904L22.2057 1.41249C22.2132 1.40915 22.2207 1.40469 22.2282 1.40135C22.2941 1.36902 22.3614 1.33891 22.4336 1.31216C22.4821 1.2932 22.5356 1.27871 22.5879 1.26422C22.6041 1.25976 22.619 1.25306 22.6352 1.2486C22.6477 1.24525 22.6589 1.2408 22.6701 1.23746C22.7585 1.21516 22.8518 1.1951 22.9465 1.1806C22.9788 1.17614 23.0149 1.17391 23.0473 1.17057C23.0809 1.16611 23.117 1.16277 23.1519 1.15942C23.1929 1.15608 23.2315 1.14939 23.2751 1.14716C23.371 1.14158 23.4718 1.14381 23.5727 1.14493C23.5976 1.14493 23.6212 1.14381 23.6461 1.14381C23.6536 1.14381 23.661 1.14269 23.6697 1.14381C23.8303 1.14938 23.9971 1.165 24.1689 1.18841C24.1776 1.18953 24.1864 1.19175 24.1951 1.19287C24.3159 1.21071 24.4416 1.23969 24.5673 1.26422C24.652 1.28205 24.7317 1.29098 24.8175 1.31328C24.8238 1.31439 24.83 1.31662 24.8349 1.31774C25.1038 1.38352 25.384 1.47269 25.6703 1.57526C25.7014 1.58641 25.7275 1.59087 25.7574 1.60202C25.8645 1.64216 25.9753 1.69123 26.0836 1.73582C26.1571 1.76481 26.2267 1.79156 26.3002 1.82389C26.5268 1.922 26.7558 2.03015 26.9911 2.15056C27.2152 2.26651 27.4355 2.39138 27.6534 2.52182C27.7169 2.55973 27.7779 2.59763 27.8401 2.63666C28.0032 2.737 28.1626 2.84068 28.3207 2.9466C28.3792 2.98562 28.4364 3.02353 28.4937 3.06255C28.6978 3.20526 28.8995 3.35242 29.0937 3.50404C29.1199 3.52523 29.1448 3.54641 29.1709 3.56648C29.3415 3.70138 29.5045 3.83851 29.6651 3.97898C29.69 4.00017 29.7162 4.02023 29.7411 4.04142C29.766 4.0626 29.7859 4.0849 29.8095 4.1072C30.0311 4.30454 30.244 4.50633 30.4444 4.71147C30.4507 4.71704 30.4569 4.72261 30.4619 4.72819C30.4943 4.76164 30.5241 4.7962 30.5552 4.82965C30.6623 4.94225 30.7681 5.05598 30.8677 5.1697C30.8839 5.18865 30.9013 5.20648 30.9188 5.22543C30.9636 5.27783 31.0046 5.33134 31.0482 5.38374C31.103 5.44841 31.1565 5.51196 31.2088 5.57663C31.2237 5.59558 31.2399 5.61454 31.2549 5.6335C31.3171 5.71265 31.3756 5.79292 31.4329 5.87207C31.4566 5.90329 31.4802 5.93451 31.5026 5.96572C31.5076 5.97241 31.5126 5.97911 31.5175 5.9858C31.5922 6.08948 31.6619 6.19317 31.7304 6.29574C31.7416 6.31246 31.7516 6.32919 31.7615 6.34703C31.7802 6.3749 31.7964 6.40277 31.8138 6.43064C31.8437 6.48081 31.8773 6.52986 31.906 6.57892C31.9421 6.64024 31.9756 6.70044 32.0093 6.76176C32.0192 6.78072 32.0305 6.79855 32.0404 6.81639C32.0441 6.82531 32.0504 6.83312 32.0541 6.84204C32.0989 6.92455 32.14 7.00592 32.1811 7.08843C32.1972 7.11964 32.2097 7.15087 32.2234 7.1832C32.2346 7.2055 32.2458 7.23002 32.2557 7.25232C32.267 7.27685 32.2794 7.30249 32.2894 7.32702C32.323 7.40618 32.3553 7.48532 32.384 7.56337C32.3889 7.57786 32.394 7.59125 32.3989 7.60574C32.4064 7.62693 32.4126 7.64699 32.4201 7.66818C32.4363 7.71277 32.4512 7.75737 32.4661 7.80085C32.4861 7.86552 32.501 7.92794 32.5184 7.99149C32.5222 8.00821 32.5284 8.02383 32.5321 8.04055C32.5334 8.04613 32.5359 8.05281 32.5371 8.0595C32.562 8.16207 32.5807 8.26353 32.5956 8.36276C32.5981 8.37948 32.6006 8.3962 32.6018 8.41293L28.2671 10.6695C28.251 10.548 28.2285 10.4231 28.1962 10.296C28.1924 10.2804 28.1874 10.2648 28.1837 10.2492C28.1563 10.1432 28.1227 10.0351 28.0854 9.92473Z" fill="#EEEDEA"/>
<path d="M37.9337 22.6569L42.2697 20.4004L42.2709 20.4015C48.3609 24.0071 45.3645 28.3864 44.4893 29.033C43.3976 29.8391 38.2387 30.9406 38.2387 30.9406L37.9337 22.6569Z" fill="#DCD6D6"/>
<path d="M38.357 19.9207C38.347 19.8828 38.3359 19.8461 38.3271 19.8081C38.2786 19.6353 38.2238 19.4603 38.1566 19.2819C38.1504 19.2652 38.1429 19.2496 38.1354 19.234C38.0632 19.0444 37.9811 18.8538 37.889 18.6609C37.8865 18.6554 37.884 18.6487 37.8802 18.6431C37.7893 18.4547 37.6873 18.264 37.5777 18.0734C37.5603 18.0422 37.5429 18.0109 37.5242 17.9786C37.4171 17.7947 37.3001 17.6096 37.1781 17.4245C37.1482 17.3799 37.1159 17.3342 37.086 17.2885C36.9851 17.1413 36.8793 16.9942 36.7685 16.847C36.725 16.7879 36.6826 16.7288 36.6366 16.6697C36.5357 16.5393 36.4287 16.4088 36.3216 16.2784C36.2581 16.2015 36.1959 16.1234 36.1311 16.0465C36.0614 15.9662 35.988 15.8882 35.917 15.809C35.7838 15.6596 35.6481 15.5102 35.5074 15.3631C35.4464 15.2995 35.3817 15.2371 35.3195 15.1735C35.0568 14.9082 34.7829 14.6462 34.4966 14.3898C34.4555 14.353 34.417 14.3139 34.3746 14.2772C34.112 14.0464 33.8406 13.8223 33.5617 13.6026C33.492 13.548 33.4198 13.4956 33.3488 13.4421C33.1335 13.2771 32.9143 13.1154 32.6915 12.9571C32.5932 12.8891 32.4936 12.8211 32.3952 12.7531C32.1811 12.6093 31.9645 12.4699 31.7454 12.3339C31.6508 12.2748 31.5562 12.2146 31.4603 12.1577C31.1479 11.9715 30.8317 11.7932 30.5092 11.6259C30.1557 11.4431 29.8084 11.2814 29.4648 11.1332C29.3577 11.0863 29.2531 11.0462 29.1473 11.0038C28.851 10.8834 28.5547 10.7652 28.2697 10.6716L32.6044 8.41504C32.7488 8.46298 32.8945 8.51427 33.0438 8.5689C33.187 8.62241 33.3351 8.68818 33.482 8.74839C33.5891 8.79187 33.6936 8.83201 33.8007 8.87884C34.143 9.02712 34.4916 9.18878 34.8452 9.37162C35.1689 9.53886 35.485 9.71835 35.7975 9.90454C35.8934 9.9614 35.9867 10.0205 36.0813 10.0796C36.3017 10.2156 36.5196 10.355 36.7324 10.4999C36.8308 10.5668 36.9291 10.6337 37.0262 10.7028C37.2515 10.8611 37.4707 11.0228 37.6873 11.1889C37.7582 11.2424 37.8279 11.2937 37.8977 11.3483C38.1778 11.568 38.4479 11.7943 38.7106 12.024C38.723 12.0351 38.7367 12.0451 38.7479 12.0552C38.7766 12.0808 38.8014 12.1087 38.8301 12.1343C39.1176 12.3908 39.3915 12.6539 39.6554 12.9203C39.6903 12.956 39.7314 12.9906 39.7675 13.0262C39.7936 13.053 39.8173 13.0809 39.8434 13.1087C39.9866 13.257 40.1223 13.4075 40.2567 13.558C40.3115 13.6194 40.3713 13.6796 40.4248 13.7409C40.4397 13.7576 40.4522 13.7743 40.4659 13.7911C40.5343 13.8702 40.5966 13.9494 40.6626 14.0296C40.7422 14.1278 40.8281 14.2259 40.9053 14.324C40.9277 14.3541 40.9489 14.3842 40.9725 14.4132C41.0186 14.4734 41.0622 14.5336 41.107 14.5938C41.163 14.6685 41.2215 14.7443 41.2763 14.819C41.3261 14.8904 41.3734 14.9617 41.4219 15.0331C41.4531 15.0788 41.4854 15.1245 41.5153 15.1702C41.534 15.1992 41.5552 15.227 41.5738 15.256C41.6597 15.3887 41.7431 15.5225 41.8216 15.654C41.8353 15.6775 41.8477 15.6998 41.8614 15.7243C41.8801 15.7555 41.8962 15.7878 41.9149 15.819C41.9547 15.8893 41.9946 15.9584 42.0332 16.0287C42.0967 16.1468 42.1577 16.265 42.2149 16.381C42.2162 16.3843 42.2174 16.3865 42.2187 16.3888C42.2212 16.3943 42.2236 16.3999 42.2261 16.4066C42.2759 16.5114 42.3245 16.6162 42.3693 16.7188C42.4067 16.8069 42.4403 16.8927 42.4739 16.9797C42.4801 16.9964 42.4876 17.012 42.4938 17.0287C42.4975 17.0376 42.5013 17.0477 42.505 17.0566C42.5473 17.1703 42.5859 17.2829 42.6208 17.3944C42.6382 17.4479 42.6494 17.5014 42.6644 17.5549C42.6756 17.5929 42.6868 17.6296 42.6955 17.6675C42.7029 17.6999 42.7141 17.7333 42.7204 17.7657C42.7552 17.9139 42.7839 18.06 42.8038 18.2038C42.8299 18.3945 42.8436 18.5818 42.8436 18.7635C42.8411 19.4447 42.637 19.9988 42.271 20.4046L37.935 22.6612C38.3022 22.2553 38.5064 21.7012 38.5076 21.02C38.5089 20.8383 38.4952 20.6521 38.469 20.4615C38.4417 20.282 38.4043 20.1025 38.357 19.9207Z" fill="#EEEDEA"/>
<path d="M7.76379 5.97457C7.65797 5.57321 7.59698 5.18411 7.59823 4.81396C7.60694 1.92081 11.2047 1.42802 15.6327 3.7169C16.1307 3.97555 16.6249 4.25986 17.0967 4.56088C17.5909 3.09925 19.8953 2.98331 22.6552 4.41037C25.6006 5.93332 28.0157 8.66146 28.2672 10.6716C28.9792 10.9069 29.7324 11.2268 30.5067 11.6271C34.9335 13.916 38.5176 18.1169 38.5076 21.0156C38.5064 21.6968 38.3022 22.2509 37.935 22.6567C39.8172 24.5955 41.3397 25.5655 41.0198 28.3984C40.9264 29.2257 39.8322 30.5903 38.5723 30.9036C37.1681 31.2526 35.1564 30.6238 32.9853 29.5011C31.7005 28.8366 30.4781 28.0026 29.4025 27.0929C27.3173 27.0438 24.7167 26.3136 21.9057 24.8598C18.6068 23.154 15.6066 20.7592 13.3782 18.2295C12.1557 18.4101 10.5971 18.1481 8.40987 16.7935C4.19964 14.1869 0.399016 10.297 0.40773 7.40497C0.415199 4.65675 3.64942 4.06699 7.76379 5.97457Z" fill="#FBF9F4"/>
</svg>
