<svg width="91" height="162" viewBox="0 0 91 162" fill="none" xmlns="http://www.w3.org/2000/svg">
<path d="M90.701 140.424L54.479 161.5L0 130.241L36.224 109.166L90.701 140.424Z" fill="#737780"/>
<path d="M56.037 44.8981L81.266 30.2371L80.964 136.774L55.735 151.436L56.037 44.8981Z" fill="#8A7562"/>
<path d="M18.995 23.5131L44.225 8.85107L81.266 30.2371L56.037 44.8981L18.995 23.5131Z" fill="#F0E5D3"/>
<path d="M56.037 44.8982L55.735 151.436L18.693 130.049L18.995 23.5132L56.037 44.8982Z" fill="#52627B"/>
<path d="M52.6519 46.153L52.39 138.712L22.033 121.186L22.296 28.626L52.6519 46.153Z" fill="#4D3D3E"/>
<path d="M21.844 121.369L22.159 121.186L25.993 123.399L25.678 123.583L21.844 121.369Z" fill="#F0E5D3"/>
<path d="M26.712 124.179L27.027 123.996L30.861 126.209L30.546 126.393L26.712 124.179Z" fill="#F0E5D3"/>
<path d="M31.574 126.987L31.89 126.803L35.6949 129L35.38 129.184L31.574 126.987Z" fill="#F0E5D3"/>
<path d="M38.442 130.952L38.758 130.768L42.564 132.965L42.248 133.149L38.442 130.952Z" fill="#F0E5D3"/>
<path d="M43.276 133.743L43.592 133.559L47.425 135.773L47.11 135.956L43.276 133.743Z" fill="#F0E5D3"/>
<path d="M48.145 136.553L48.46 136.37L52.293 138.583L51.978 138.766L48.145 136.553Z" fill="#F0E5D3"/>
<path d="M22.106 28.81L22.422 28.626L22.159 121.186L21.844 121.369L22.106 28.81Z" fill="#8A7562"/>
<path d="M26.975 31.62L27.29 31.437L27.027 123.996L26.712 124.179L26.975 31.62Z" fill="#8A7562"/>
<path d="M31.8369 34.4269L32.1519 34.2439L31.89 126.803L31.574 126.987L31.8369 34.4269Z" fill="#8A7562"/>
<path d="M38.705 38.393L39.021 38.209L38.758 130.768L38.442 130.952L38.705 38.393Z" fill="#8A7562"/>
<path d="M43.538 41.183L43.854 41L43.592 133.559L43.276 133.743L43.538 41.183Z" fill="#8A7562"/>
<path d="M48.406 43.994L48.722 43.811L48.46 136.37L48.145 136.553L48.406 43.994Z" fill="#8A7562"/>
<path d="M18.664 23.686L18.98 23.502L56.022 44.888L55.706 45.071L18.664 23.686Z" fill="#F0E5D3"/>
<path d="M18.664 23.686L18.362 130.223L55.404 151.609L55.706 45.072L18.664 23.686ZM25.678 123.583L21.844 121.369L22.107 28.81L25.941 31.023L25.678 123.583ZM30.546 126.393L26.712 124.179L26.975 31.62L30.809 33.833L30.546 126.393ZM35.38 129.184L31.574 126.987L31.837 34.427L35.643 36.624L35.38 129.184ZM42.248 133.149L38.442 130.952L38.705 38.393L42.51 40.59L42.248 133.149ZM47.11 135.956L43.276 133.743L43.538 41.183L47.372 43.396L47.11 135.956ZM51.978 138.766L48.145 136.553L48.407 43.993L52.241 46.206L51.978 138.766Z" fill="#D8C8B8"/>
<path d="M55.706 45.0709L56.022 44.8879L55.72 151.425L55.404 151.608L55.706 45.0709Z" fill="#8A7562"/>
<path d="M51.774 34.278L73.85 21.45L73.832 27.569L51.757 40.3969L51.774 34.278Z" fill="#3E2F12"/>
<path d="M26.429 19.6449L48.504 6.81592L73.85 21.4499L51.774 34.2779L26.429 19.6449Z" fill="#B08E69"/>
<path d="M51.774 34.278L51.757 40.397L26.411 25.764L26.429 19.645L51.774 34.278Z" fill="#836646"/>
<path d="M35.45 11.425L35.478 20.899L50.361 12.305L50.335 2.83203L35.45 11.425Z" fill="#8A7562"/>
<path d="M50.335 2.83203L50.361 12.305L65.149 20.899L65.1219 11.425L50.335 2.83203Z" fill="#D8C8B8"/>
<path d="M35.42 13.4651L50.207 22.0591L65.091 13.4651L50.304 4.87109L35.42 13.4651Z" fill="#B08E69"/>
<path d="M50.229 21.6771L50.256 31.1511L68.012 20.8991L67.985 11.425L50.229 21.6771Z" fill="#8A7562"/>
<path d="M32.587 11.425L32.614 20.898L50.256 31.1511L50.229 21.6771L32.587 11.425Z" fill="#D8C8B8"/>
<path d="M32.587 11.4251L50.229 21.6771L67.986 11.4251L50.344 1.1731L32.587 11.4251ZM35.45 11.4251L50.335 2.83209L65.122 11.4251L50.238 20.0181L35.45 11.4251Z" fill="#F0E5D3"/>
<path d="M54.203 7.30207L54.199 5.76807L54.197 2.37207L48.241 5.81107L48.242 9.22707L48.244 9.22607L48.248 10.7401L54.203 7.30207Z" fill="#3E2F12"/>
<path d="M48.248 10.74L48.244 9.20597L48.242 9.20497L48.241 5.81096L44.159 3.43896L44.16 6.85397L44.164 6.85796L44.168 8.36897L48.248 10.74Z" fill="#836646"/>
<path d="M46.518 9.77888L46.515 6.46489L44.952 5.55688L44.956 8.87089L46.518 9.77888Z" fill="#D8C8B8"/>
<path d="M44.159 3.439L48.241 5.811L54.197 2.372L50.115 0L44.159 3.439Z" fill="#B08E69"/>
<path d="M58.015 51.616L56.545 50.762L56.546 51.18L58.016 52.034L58.015 51.616Z" fill="#D8C8B8"/>
<path d="M60.405 50.2349L58.937 49.3809L56.545 50.7619L58.015 51.6159L60.405 50.2349Z" fill="#F0E5D3"/>
<path d="M58.015 51.6159L58.016 52.0339L60.407 50.6529L60.405 50.2349L58.015 51.6159Z" fill="#A19181"/>
<path d="M56.951 46.7049L56.963 50.7839L59.044 49.5819L59.032 45.5039L56.951 46.7049Z" fill="#3A2E2F"/>
<path d="M59.283 49.5819L58.793 49.2979L56.712 50.4989L57.202 50.7839L59.283 49.5819Z" fill="#F0E5D3"/>
<path d="M59.272 45.504L58.781 45.219L58.793 49.298L59.283 49.582L59.272 45.504Z" fill="#D8C8B8"/>
<path d="M57.034 46.606L56.545 46.322L56.558 50.777L57.047 51.062L57.034 46.606Z" fill="#D8C8B8"/>
<path d="M59.426 45.2259L58.937 44.9409L56.545 46.3219L57.034 46.6059L59.426 45.2259Z" fill="#F0E5D3"/>
<path d="M57.034 46.6058L57.047 51.0618L59.439 49.6818L59.426 45.2258L57.034 46.6058ZM57.191 46.7048L59.272 45.5038L59.284 49.5828L57.203 50.7848L57.191 46.7048Z" fill="#A19181"/>
<path d="M62.261 49.199L60.791 48.345L60.792 48.763L62.262 49.617L62.261 49.199Z" fill="#D8C8B8"/>
<path d="M64.652 47.8179L63.183 46.9639L60.791 48.3449L62.261 49.1989L64.652 47.8179Z" fill="#F0E5D3"/>
<path d="M62.261 49.1989L62.262 49.6169L64.653 48.2359L64.652 47.8179L62.261 49.1989Z" fill="#A19181"/>
<path d="M61.197 44.2879L61.209 48.3669L63.29 47.1649L63.278 43.0859L61.197 44.2879Z" fill="#3A2E2F"/>
<path d="M63.529 47.1649L63.039 46.8799L60.958 48.0819L61.448 48.3669L63.529 47.1649Z" fill="#F0E5D3"/>
<path d="M63.518 43.086L63.027 42.802L63.039 46.88L63.529 47.165L63.518 43.086Z" fill="#D8C8B8"/>
<path d="M61.281 44.189L60.791 43.9041L60.804 48.3601L61.294 48.6451L61.281 44.189Z" fill="#D8C8B8"/>
<path d="M63.673 42.808L63.183 42.5229L60.791 43.904L61.281 44.1889L63.673 42.808Z" fill="#F0E5D3"/>
<path d="M61.281 44.1889L61.294 48.6449L63.685 47.2639L63.673 42.8079L61.281 44.1889ZM61.437 44.2879L63.518 43.0859L63.53 47.1649L61.449 48.3669L61.437 44.2879Z" fill="#A19181"/>
<path d="M66.27 46.8127L64.8 45.9587L64.801 46.3777L66.271 47.2307L66.27 46.8127Z" fill="#D8C8B8"/>
<path d="M68.661 45.4329L67.191 44.5789L64.8 45.9589L66.27 46.8129L68.661 45.4329Z" fill="#F0E5D3"/>
<path d="M66.27 46.8129L66.271 47.2309L68.662 45.8509L68.661 45.4329L66.27 46.8129Z" fill="#A19181"/>
<path d="M65.206 41.9029L65.218 45.9809L67.299 44.7799L67.287 40.7009L65.206 41.9029Z" fill="#3A2E2F"/>
<path d="M67.538 44.7799L67.048 44.4949L64.968 45.6969L65.457 45.9809L67.538 44.7799Z" fill="#F0E5D3"/>
<path d="M67.526 40.701L67.037 40.416L67.048 44.495L67.538 44.78L67.526 40.701Z" fill="#D8C8B8"/>
<path d="M65.29 41.804L64.8 41.519L64.813 45.975L65.303 46.26L65.29 41.804Z" fill="#D8C8B8"/>
<path d="M67.682 40.4229L67.191 40.1379L64.8 41.5189L65.29 41.8039L67.682 40.4229Z" fill="#F0E5D3"/>
<path d="M65.29 41.8039L65.303 46.2599L67.694 44.8789L67.682 40.4229L65.29 41.8039ZM65.445 41.9029L67.526 40.7009L67.538 44.7799L65.457 45.9819L65.445 41.9029Z" fill="#A19181"/>
<path d="M70.384 44.5647L68.915 43.7107L68.916 44.1297L70.386 44.9827L70.384 44.5647Z" fill="#D8C8B8"/>
<path d="M72.775 43.1848L71.307 42.3308L68.915 43.7108L70.384 44.5648L72.775 43.1848Z" fill="#F0E5D3"/>
<path d="M70.384 44.5648L70.386 44.9828L72.777 43.6028L72.775 43.1848L70.384 44.5648Z" fill="#A19181"/>
<path d="M69.321 39.6539L69.333 43.7329L71.414 42.5319L71.402 38.4529L69.321 39.6539Z" fill="#3A2E2F"/>
<path d="M71.653 42.5318L71.163 42.2468L69.082 43.4488L69.572 43.7328L71.653 42.5318Z" fill="#F0E5D3"/>
<path d="M71.642 38.453L71.151 38.168L71.163 42.247L71.653 42.532L71.642 38.453Z" fill="#D8C8B8"/>
<path d="M69.404 39.556L68.915 39.271L68.928 43.727L69.417 44.011L69.404 39.556Z" fill="#D8C8B8"/>
<path d="M71.796 38.1749L71.307 37.8899L68.915 39.2709L69.404 39.5559L71.796 38.1749Z" fill="#F0E5D3"/>
<path d="M69.404 39.5558L69.417 44.0118L71.809 42.6318L71.796 38.1758L69.404 39.5558ZM69.561 39.6548L71.642 38.4528L71.654 42.5318L69.573 43.7338L69.561 39.6548Z" fill="#A19181"/>
<path d="M74.631 42.1479L73.161 41.2939L73.162 41.7119L74.632 42.5659L74.631 42.1479Z" fill="#D8C8B8"/>
<path d="M77.023 40.7678L75.553 39.9128L73.161 41.2938L74.631 42.1478L77.023 40.7678Z" fill="#F0E5D3"/>
<path d="M74.631 42.1478L74.632 42.5658L77.023 41.1858V40.7678L74.631 42.1478Z" fill="#A19181"/>
<path d="M73.567 37.2369L73.579 41.3159L75.66 40.1139L75.648 36.0359L73.567 37.2369Z" fill="#3A2E2F"/>
<path d="M75.899 40.1138L75.409 39.8298L73.328 41.0308L73.818 41.3158L75.899 40.1138Z" fill="#F0E5D3"/>
<path d="M75.888 36.036L75.398 35.751L75.409 39.83L75.899 40.114L75.888 36.036Z" fill="#D8C8B8"/>
<path d="M73.651 37.138L73.161 36.854L73.174 41.31L73.663 41.594L73.651 37.138Z" fill="#D8C8B8"/>
<path d="M76.042 35.7569L75.553 35.4729L73.161 36.8539L73.651 37.1379L76.042 35.7569Z" fill="#F0E5D3"/>
<path d="M73.651 37.1378L73.663 41.5938L76.055 40.2128L76.042 35.7568L73.651 37.1378ZM73.807 37.2368L75.888 36.0348L75.9 40.1138L73.819 41.3158L73.807 37.2368Z" fill="#A19181"/>
<path d="M78.64 39.7629L77.17 38.9089L77.171 39.3269L78.641 40.1809L78.64 39.7629Z" fill="#D8C8B8"/>
<path d="M81.031 38.3818L79.562 37.5278L77.17 38.9088L78.64 39.7628L81.031 38.3818Z" fill="#F0E5D3"/>
<path d="M78.64 39.7628L78.641 40.1808L81.032 38.7998L81.031 38.3818L78.64 39.7628Z" fill="#A19181"/>
<path d="M77.576 34.8519L77.588 38.9309L79.669 37.7289L79.657 33.6499L77.576 34.8519Z" fill="#3A2E2F"/>
<path d="M79.908 37.7288L79.418 37.4438L77.337 38.6458L77.827 38.9308L79.908 37.7288Z" fill="#F0E5D3"/>
<path d="M79.897 33.65L79.406 33.366L79.418 37.444L79.908 37.729L79.897 33.65Z" fill="#D8C8B8"/>
<path d="M77.66 34.753L77.17 34.468L77.183 38.924L77.672 39.209L77.66 34.753Z" fill="#D8C8B8"/>
<path d="M80.051 33.3719L79.562 33.0869L77.17 34.4679L77.66 34.7529L80.051 33.3719Z" fill="#F0E5D3"/>
<path d="M77.66 34.7528L77.673 39.2088L80.064 37.8278L80.051 33.3718L77.66 34.7528ZM77.816 34.8518L79.897 33.6498L79.909 37.7288L77.828 38.9308L77.816 34.8518Z" fill="#A19181"/>
<path d="M58.015 58.6379L56.545 57.7839L56.546 58.2019L58.016 59.0559L58.015 58.6379Z" fill="#D8C8B8"/>
<path d="M60.405 57.2568L58.937 56.4028L56.545 57.7838L58.015 58.6378L60.405 57.2568Z" fill="#F0E5D3"/>
<path d="M58.015 58.6378L58.016 59.0558L60.407 57.6748L60.405 57.2568L58.015 58.6378Z" fill="#A19181"/>
<path d="M56.951 53.7269L56.963 57.8059L59.044 56.6039L59.032 52.5249L56.951 53.7269Z" fill="#3A2E2F"/>
<path d="M59.283 56.6038L58.793 56.3188L56.712 57.5208L57.202 57.8058L59.283 56.6038Z" fill="#F0E5D3"/>
<path d="M59.272 52.525L58.781 52.241L58.793 56.319L59.283 56.604L59.272 52.525Z" fill="#D8C8B8"/>
<path d="M57.034 53.628L56.545 53.343L56.558 57.799L57.047 58.084L57.034 53.628Z" fill="#D8C8B8"/>
<path d="M59.426 52.2469L58.937 51.9619L56.545 53.3429L57.034 53.6279L59.426 52.2469Z" fill="#F0E5D3"/>
<path d="M57.034 53.6278L57.047 58.0838L59.439 56.7028L59.426 52.2468L57.034 53.6278ZM57.191 53.7268L59.272 52.5248L59.284 56.6038L57.203 57.8058L57.191 53.7268Z" fill="#A19181"/>
<path d="M62.261 56.2199L60.791 55.3669L60.792 55.7849L62.262 56.6389L62.261 56.2199Z" fill="#D8C8B8"/>
<path d="M64.652 54.8398L63.183 53.9858L60.791 55.3668L62.261 56.2198L64.652 54.8398Z" fill="#F0E5D3"/>
<path d="M62.261 56.2198L62.262 56.6388L64.653 55.2578L64.652 54.8398L62.261 56.2198Z" fill="#A19181"/>
<path d="M61.197 51.3099L61.209 55.3879L63.29 54.1869L63.278 50.1079L61.197 51.3099Z" fill="#3A2E2F"/>
<path d="M63.529 54.1869L63.039 53.9019L60.958 55.1039L61.448 55.3879L63.529 54.1869Z" fill="#F0E5D3"/>
<path d="M63.518 50.108L63.027 49.823L63.039 53.902L63.529 54.187L63.518 50.108Z" fill="#D8C8B8"/>
<path d="M61.281 51.21L60.791 50.926L60.804 55.382L61.294 55.666L61.281 51.21Z" fill="#D8C8B8"/>
<path d="M63.673 49.8289L63.183 49.5449L60.791 50.9259L61.281 51.2099L63.673 49.8289Z" fill="#F0E5D3"/>
<path d="M61.281 51.2099L61.294 55.6659L63.685 54.2849L63.673 49.8289L61.281 51.2099ZM61.437 51.3099L63.518 50.1089L63.53 54.1869L61.449 55.3889L61.437 51.3099Z" fill="#A19181"/>
<path d="M66.27 53.8347L64.8 52.9807L64.801 53.3987L66.271 54.2527L66.27 53.8347Z" fill="#D8C8B8"/>
<path d="M68.661 52.4538L67.191 51.6008L64.8 52.9808L66.27 53.8348L68.661 52.4538Z" fill="#F0E5D3"/>
<path d="M66.27 53.8349L66.271 54.2529L68.662 52.8719L68.661 52.4539L66.27 53.8349Z" fill="#A19181"/>
<path d="M65.206 48.9239L65.218 53.0029L67.299 51.8009L67.287 47.7229L65.206 48.9239Z" fill="#3A2E2F"/>
<path d="M67.538 51.8008L67.048 51.5168L64.968 52.7178L65.457 53.0028L67.538 51.8008Z" fill="#F0E5D3"/>
<path d="M67.526 47.723L67.037 47.438L67.048 51.517L67.538 51.801L67.526 47.723Z" fill="#D8C8B8"/>
<path d="M65.29 48.825L64.8 48.54L64.813 52.996L65.303 53.281L65.29 48.825Z" fill="#D8C8B8"/>
<path d="M67.682 47.4439L67.191 47.1599L64.8 48.5399L65.29 48.8249L67.682 47.4439Z" fill="#F0E5D3"/>
<path d="M65.29 48.8248L65.303 53.2808L67.694 51.8998L67.682 47.4438L65.29 48.8248ZM65.445 48.9238L67.526 47.7218L67.538 51.8008L65.457 53.0028L65.445 48.9238Z" fill="#A19181"/>
<path d="M70.384 51.5869L68.915 50.7329L68.916 51.1509L70.386 52.0049L70.384 51.5869Z" fill="#D8C8B8"/>
<path d="M72.775 50.2058L71.307 49.3528L68.915 50.7328L70.384 51.5868L72.775 50.2058Z" fill="#F0E5D3"/>
<path d="M70.384 51.5868L70.386 52.0048L72.777 50.6238L72.775 50.2058L70.384 51.5868Z" fill="#A19181"/>
<path d="M69.321 46.6759L69.333 50.7549L71.414 49.5529L71.402 45.4739L69.321 46.6759Z" fill="#3A2E2F"/>
<path d="M71.653 49.5528L71.163 49.2688L69.082 50.4698L69.572 50.7548L71.653 49.5528Z" fill="#F0E5D3"/>
<path d="M71.642 45.4739L71.151 45.1899L71.163 49.2689L71.653 49.5529L71.642 45.4739Z" fill="#D8C8B8"/>
<path d="M69.404 46.577L68.915 46.292L68.928 50.748L69.417 51.033L69.404 46.577Z" fill="#D8C8B8"/>
<path d="M71.796 45.1959L71.307 44.9119L68.915 46.2919L69.404 46.5769L71.796 45.1959Z" fill="#F0E5D3"/>
<path d="M69.404 46.5768L69.417 51.0328L71.809 49.6518L71.796 45.1958L69.404 46.5768ZM69.561 46.6758L71.642 45.4738L71.654 49.5528L69.573 50.7548L69.561 46.6758Z" fill="#A19181"/>
<path d="M74.631 49.1699L73.161 48.3159L73.162 48.7339L74.632 49.5879L74.631 49.1699Z" fill="#D8C8B8"/>
<path d="M77.023 47.7888L75.553 46.9348L73.161 48.3158L74.631 49.1698L77.023 47.7888Z" fill="#F0E5D3"/>
<path d="M74.631 49.1698L74.632 49.5878L77.023 48.2068V47.7888L74.631 49.1698Z" fill="#A19181"/>
<path d="M73.567 44.2589L73.579 48.3369L75.66 47.1359L75.648 43.0569L73.567 44.2589Z" fill="#3A2E2F"/>
<path d="M75.899 47.1358L75.409 46.8518L73.328 48.0528L73.818 48.3368L75.899 47.1358Z" fill="#F0E5D3"/>
<path d="M75.888 43.057L75.398 42.7729L75.409 46.852L75.899 47.136L75.888 43.057Z" fill="#D8C8B8"/>
<path d="M73.651 44.16L73.161 43.875L73.174 48.331L73.663 48.616L73.651 44.16Z" fill="#D8C8B8"/>
<path d="M76.042 42.7789L75.553 42.4949L73.161 43.8749L73.651 44.1599L76.042 42.7789Z" fill="#F0E5D3"/>
<path d="M73.651 44.1598L73.663 48.6158L76.055 47.2348L76.042 42.7788L73.651 44.1598ZM73.807 44.2588L75.888 43.0568L75.9 47.1358L73.819 48.3368L73.807 44.2588Z" fill="#A19181"/>
<path d="M78.64 46.7849L77.17 45.9309L77.171 46.3489L78.641 47.2029L78.64 46.7849Z" fill="#D8C8B8"/>
<path d="M81.031 45.4038L79.562 44.5498L77.17 45.9308L78.64 46.7848L81.031 45.4038Z" fill="#F0E5D3"/>
<path d="M78.64 46.7848L78.641 47.2028L81.032 45.8218L81.031 45.4038L78.64 46.7848Z" fill="#A19181"/>
<path d="M77.576 41.8729L77.588 45.9519L79.669 44.7509L79.657 40.6719L77.576 41.8729Z" fill="#3A2E2F"/>
<path d="M79.908 44.7508L79.418 44.4658L77.337 45.6668L77.827 45.9518L79.908 44.7508Z" fill="#F0E5D3"/>
<path d="M79.897 40.6719L79.406 40.3879L79.418 44.4659L79.908 44.7509L79.897 40.6719Z" fill="#D8C8B8"/>
<path d="M77.66 41.774L77.17 41.49L77.183 45.946L77.672 46.23L77.66 41.774Z" fill="#D8C8B8"/>
<path d="M80.051 40.3939L79.562 40.1089L77.17 41.4899L77.66 41.7739L80.051 40.3939Z" fill="#F0E5D3"/>
<path d="M77.66 41.7738L77.673 46.2298L80.064 44.8488L80.051 40.3928L77.66 41.7738ZM77.816 41.8728L79.897 40.6708L79.909 44.7498L77.828 45.9508L77.816 41.8728Z" fill="#A19181"/>
<path d="M58.015 65.7051L56.545 64.8511L56.546 65.2691L58.016 66.1231L58.015 65.7051Z" fill="#D8C8B8"/>
<path d="M60.405 64.324L58.937 63.47L56.545 64.851L58.015 65.705L60.405 64.324Z" fill="#F0E5D3"/>
<path d="M58.015 65.705L58.016 66.123L60.407 64.742L60.405 64.324L58.015 65.705Z" fill="#A19181"/>
<path d="M56.951 60.794L56.963 64.872L59.044 63.671L59.032 59.593L56.951 60.794Z" fill="#3A2E2F"/>
<path d="M59.283 63.671L58.793 63.387L56.712 64.588L57.202 64.872L59.283 63.671Z" fill="#F0E5D3"/>
<path d="M59.272 59.5931L58.781 59.3081L58.793 63.3871L59.283 63.6711L59.272 59.5931Z" fill="#D8C8B8"/>
<path d="M57.034 60.6951L56.545 60.4111L56.558 64.8661L57.047 65.1511L57.034 60.6951Z" fill="#D8C8B8"/>
<path d="M59.426 59.314L58.937 59.03L56.545 60.411L57.034 60.695L59.426 59.314Z" fill="#F0E5D3"/>
<path d="M57.034 60.695L57.047 65.151L59.439 63.77L59.426 59.314L57.034 60.695ZM57.191 60.794L59.272 59.593L59.284 63.672L57.203 64.873L57.191 60.794Z" fill="#A19181"/>
<path d="M62.261 63.2871L60.791 62.4341L60.792 62.8521L62.262 63.7051L62.261 63.2871Z" fill="#D8C8B8"/>
<path d="M64.652 61.907L63.183 61.053L60.791 62.434L62.261 63.287L64.652 61.907Z" fill="#F0E5D3"/>
<path d="M62.261 63.287L62.262 63.705L64.653 62.325L64.652 61.907L62.261 63.287Z" fill="#A19181"/>
<path d="M61.197 58.3771L61.209 62.4551L63.29 61.2541L63.278 57.175L61.197 58.3771Z" fill="#3A2E2F"/>
<path d="M63.529 61.254L63.039 60.969L60.958 62.171L61.448 62.455L63.529 61.254Z" fill="#F0E5D3"/>
<path d="M63.518 57.1751L63.027 56.8911L63.039 60.9691L63.529 61.2541L63.518 57.1751Z" fill="#D8C8B8"/>
<path d="M61.281 58.2782L60.791 57.9932L60.804 62.4492L61.294 62.7342L61.281 58.2782Z" fill="#D8C8B8"/>
<path d="M63.673 56.8971L63.183 56.6121L60.791 57.9931L61.281 58.2781L63.673 56.8971Z" fill="#F0E5D3"/>
<path d="M61.281 58.278L61.294 62.734L63.685 61.353L63.673 56.897L61.281 58.278ZM61.437 58.377L63.518 57.175L63.53 61.254L61.449 62.456L61.437 58.377Z" fill="#A19181"/>
<path d="M66.27 60.9019L64.8 60.0479L64.801 60.4669L66.271 61.3199L66.27 60.9019Z" fill="#D8C8B8"/>
<path d="M68.661 59.521L67.191 58.668L64.8 60.048L66.27 60.902L68.661 59.521Z" fill="#F0E5D3"/>
<path d="M66.27 60.902L66.271 61.32L68.662 59.94L68.661 59.521L66.27 60.902Z" fill="#A19181"/>
<path d="M65.206 55.992L65.218 60.07L67.299 58.869L67.287 54.79L65.206 55.992Z" fill="#3A2E2F"/>
<path d="M67.538 58.869L67.048 58.584L64.968 59.786L65.457 60.07L67.538 58.869Z" fill="#F0E5D3"/>
<path d="M67.526 54.7901L67.037 54.5051L67.048 58.5841L67.538 58.8691L67.526 54.7901Z" fill="#D8C8B8"/>
<path d="M65.29 55.8932L64.8 55.6082L64.813 60.0641L65.303 60.3492L65.29 55.8932Z" fill="#D8C8B8"/>
<path d="M67.682 54.5121L67.191 54.2271L64.8 55.6081L65.29 55.8931L67.682 54.5121Z" fill="#F0E5D3"/>
<path d="M65.29 55.893L65.303 60.349L67.694 58.968L67.682 54.512L65.29 55.893ZM65.445 55.992L67.526 54.79L67.538 58.869L65.457 60.071L65.445 55.992Z" fill="#A19181"/>
<path d="M70.384 58.6541L68.915 57.8L68.916 58.2181L70.386 59.0721L70.384 58.6541Z" fill="#D8C8B8"/>
<path d="M72.775 57.2729L71.307 56.4189L68.915 57.7999L70.384 58.6539L72.775 57.2729Z" fill="#F0E5D3"/>
<path d="M70.384 58.654L70.386 59.072L72.777 57.692L72.775 57.2729L70.384 58.654Z" fill="#A19181"/>
<path d="M69.321 53.743L69.333 57.822L71.414 56.621L71.402 52.542L69.321 53.743Z" fill="#3A2E2F"/>
<path d="M71.653 56.6209L71.163 56.3359L69.082 57.5369L69.572 57.8219L71.653 56.6209Z" fill="#F0E5D3"/>
<path d="M71.642 52.5421L71.151 52.2571L71.163 56.3361L71.653 56.6211L71.642 52.5421Z" fill="#D8C8B8"/>
<path d="M69.404 53.6451L68.915 53.3601L68.928 57.8151L69.417 58.1001L69.404 53.6451Z" fill="#D8C8B8"/>
<path d="M71.796 52.264L71.307 51.979L68.915 53.36L69.404 53.645L71.796 52.264Z" fill="#F0E5D3"/>
<path d="M69.404 53.6449L69.417 58.0999L71.809 56.7199L71.796 52.2639L69.404 53.6449ZM69.561 53.7429L71.642 52.5419L71.654 56.6209L69.573 57.8229L69.561 53.7429Z" fill="#A19181"/>
<path d="M74.631 56.2371L73.161 55.3831L73.162 55.8011L74.632 56.6551L74.631 56.2371Z" fill="#D8C8B8"/>
<path d="M77.023 54.8559L75.553 54.002L73.161 55.3829L74.631 56.237L77.023 54.8559Z" fill="#F0E5D3"/>
<path d="M74.631 56.237L74.632 56.655L77.023 55.274V54.856L74.631 56.237Z" fill="#A19181"/>
<path d="M73.567 51.326L73.579 55.405L75.66 54.203L75.648 50.124L73.567 51.326Z" fill="#3A2E2F"/>
<path d="M75.899 54.203L75.409 53.918L73.328 55.12L73.818 55.405L75.899 54.203Z" fill="#F0E5D3"/>
<path d="M75.888 50.1241L75.398 49.8401L75.409 53.9181L75.899 54.2031L75.888 50.1241Z" fill="#D8C8B8"/>
<path d="M73.651 51.2269L73.161 50.9419L73.174 55.3979L73.663 55.6829L73.651 51.2269Z" fill="#D8C8B8"/>
<path d="M76.042 49.846L75.553 49.562L73.161 50.942L73.651 51.227L76.042 49.846Z" fill="#F0E5D3"/>
<path d="M73.651 51.2269L73.663 55.6829L76.055 54.3019L76.042 49.8459L73.651 51.2269ZM73.807 51.3259L75.888 50.1239L75.9 54.2029L73.819 55.4049L73.807 51.3259Z" fill="#A19181"/>
<path d="M78.64 53.8521L77.17 52.9971L77.171 53.4161L78.641 54.2701L78.64 53.8521Z" fill="#D8C8B8"/>
<path d="M81.031 52.4709L79.562 51.6169L77.17 52.9969L78.64 53.8519L81.031 52.4709Z" fill="#F0E5D3"/>
<path d="M78.64 53.8519L78.641 54.2699L81.032 52.8889L81.031 52.4709L78.64 53.8519Z" fill="#A19181"/>
<path d="M77.576 48.941L77.588 53.02L79.669 51.818L79.657 47.739L77.576 48.941Z" fill="#3A2E2F"/>
<path d="M79.908 51.818L79.418 51.533L77.337 52.735L77.827 53.02L79.908 51.818Z" fill="#F0E5D3"/>
<path d="M79.897 47.7391L79.406 47.4541L79.418 51.5331L79.908 51.8181L79.897 47.7391Z" fill="#D8C8B8"/>
<path d="M77.66 48.8421L77.17 48.5571L77.183 53.0131L77.672 53.2981L77.66 48.8421Z" fill="#D8C8B8"/>
<path d="M80.051 47.461L79.562 47.176L77.17 48.557L77.66 48.842L80.051 47.461Z" fill="#F0E5D3"/>
<path d="M77.66 48.8419L77.673 53.2979L80.064 51.9169L80.051 47.4609L77.66 48.8419ZM77.816 48.9409L79.897 47.7389L79.909 51.8179L77.828 53.0199L77.816 48.9409Z" fill="#A19181"/>
<path d="M58.015 72.761L56.545 71.907L56.546 72.325L58.016 73.179L58.015 72.761Z" fill="#D8C8B8"/>
<path d="M60.405 71.3799L58.937 70.5259L56.545 71.9069L58.015 72.7609L60.405 71.3799Z" fill="#F0E5D3"/>
<path d="M58.015 72.7609L58.016 73.1789L60.407 71.7979L60.405 71.3799L58.015 72.7609Z" fill="#A19181"/>
<path d="M56.951 67.85L56.963 71.929L59.044 70.728L59.032 66.6479L56.951 67.85Z" fill="#3A2E2F"/>
<path d="M59.283 70.7279L58.793 70.4429L56.712 71.6439L57.202 71.9289L59.283 70.7279Z" fill="#F0E5D3"/>
<path d="M59.272 66.648L58.781 66.364L58.793 70.443L59.283 70.728L59.272 66.648Z" fill="#D8C8B8"/>
<path d="M57.034 67.7508L56.545 67.4658L56.558 71.9218L57.047 72.2068L57.034 67.7508Z" fill="#D8C8B8"/>
<path d="M59.426 66.3709L58.937 66.0859L56.545 67.4659L57.034 67.7509L59.426 66.3709Z" fill="#F0E5D3"/>
<path d="M57.034 67.7509L57.047 72.2069L59.439 70.8259L59.426 66.3699L57.034 67.7509ZM57.191 67.8499L59.272 66.6479L59.284 70.7269L57.203 71.9279L57.191 67.8499Z" fill="#A19181"/>
<path d="M62.261 70.344L60.791 69.49L60.792 69.908L62.262 70.762L62.261 70.344Z" fill="#D8C8B8"/>
<path d="M64.652 68.9629L63.183 68.1089L60.791 69.4899L62.261 70.3439L64.652 68.9629Z" fill="#F0E5D3"/>
<path d="M62.261 70.3439L62.262 70.7619L64.653 69.3809L64.652 68.9629L62.261 70.3439Z" fill="#A19181"/>
<path d="M61.197 65.433L61.209 69.511L63.29 68.31L63.278 64.231L61.197 65.433Z" fill="#3A2E2F"/>
<path d="M63.529 68.3099L63.039 68.0249L60.958 69.2269L61.448 69.5109L63.529 68.3099Z" fill="#F0E5D3"/>
<path d="M63.518 64.231L63.027 63.947L63.039 68.025L63.529 68.31L63.518 64.231Z" fill="#D8C8B8"/>
<path d="M61.281 65.3341L60.791 65.0491L60.804 69.5051L61.294 69.7891L61.281 65.3341Z" fill="#D8C8B8"/>
<path d="M63.673 63.953L63.183 63.668L60.791 65.049L61.281 65.334L63.673 63.953Z" fill="#F0E5D3"/>
<path d="M61.281 65.3339L61.294 69.7899L63.685 68.4099L63.673 63.9539L61.281 65.3339ZM61.437 65.4329L63.518 64.2319L63.53 68.3109L61.449 69.5119L61.437 65.4329Z" fill="#A19181"/>
<path d="M66.27 67.9578L64.8 67.1038L64.801 67.5218L66.271 68.3758L66.27 67.9578Z" fill="#D8C8B8"/>
<path d="M68.661 66.5779L67.191 65.7239L64.8 67.1039L66.27 67.9579L68.661 66.5779Z" fill="#F0E5D3"/>
<path d="M66.27 67.9579L66.271 68.3759L68.662 66.9959L68.661 66.5779L66.27 67.9579Z" fill="#A19181"/>
<path d="M65.206 63.0469L65.218 67.1259L67.299 65.9249L67.287 61.8459L65.206 63.0469Z" fill="#3A2E2F"/>
<path d="M67.538 65.9249L67.048 65.6399L64.968 66.8419L65.457 67.1259L67.538 65.9249Z" fill="#F0E5D3"/>
<path d="M67.526 61.846L67.037 61.562L67.048 65.64L67.538 65.925L67.526 61.846Z" fill="#D8C8B8"/>
<path d="M65.29 62.9481L64.8 62.6641L64.813 67.1201L65.303 67.4041L65.29 62.9481Z" fill="#D8C8B8"/>
<path d="M67.682 61.568L67.191 61.283L64.8 62.664L65.29 62.948L67.682 61.568Z" fill="#F0E5D3"/>
<path d="M65.29 62.9489L65.303 67.4039L67.694 66.0239L67.682 61.5679L65.29 62.9489ZM65.445 63.0469L67.526 61.8459L67.538 65.9249L65.457 67.1259L65.445 63.0469Z" fill="#A19181"/>
<path d="M70.384 65.7097L68.915 64.8557L68.916 65.2737L70.386 66.1277L70.384 65.7097Z" fill="#D8C8B8"/>
<path d="M72.775 64.3288L71.307 63.4758L68.915 64.8558L70.384 65.7098L72.775 64.3288Z" fill="#F0E5D3"/>
<path d="M70.384 65.7099L70.386 66.1279L72.777 64.7469L72.775 64.3289L70.384 65.7099Z" fill="#A19181"/>
<path d="M69.321 60.7989L69.333 64.8779L71.414 63.6769L71.402 59.5979L69.321 60.7989Z" fill="#3A2E2F"/>
<path d="M71.653 63.6768L71.163 63.3918L69.082 64.5928L69.572 64.8778L71.653 63.6768Z" fill="#F0E5D3"/>
<path d="M71.642 59.598L71.151 59.313L71.163 63.392L71.653 63.677L71.642 59.598Z" fill="#D8C8B8"/>
<path d="M69.404 60.7L68.915 60.415L68.928 64.871L69.417 65.156L69.404 60.7Z" fill="#D8C8B8"/>
<path d="M71.796 59.3199L71.307 59.0349L68.915 60.4149L69.404 60.6999L71.796 59.3199Z" fill="#F0E5D3"/>
<path d="M69.404 60.6998L69.417 65.1558L71.809 63.7748L71.796 59.3198L69.404 60.6998ZM69.561 60.7988L71.642 59.5978L71.654 63.6768L69.573 64.8778L69.561 60.7988Z" fill="#A19181"/>
<path d="M74.631 63.2927L73.161 62.4387L73.162 62.8567L74.632 63.7107L74.631 63.2927Z" fill="#D8C8B8"/>
<path d="M77.023 61.9118L75.553 61.0588L73.161 62.4388L74.631 63.2928L77.023 61.9118Z" fill="#F0E5D3"/>
<path d="M74.631 63.2929L74.632 63.7109L77.023 62.3299V61.9119L74.631 63.2929Z" fill="#A19181"/>
<path d="M73.567 58.3819L73.579 62.4609L75.66 61.2589L75.648 57.1809L73.567 58.3819Z" fill="#3A2E2F"/>
<path d="M75.899 61.2589L75.409 60.9739L73.328 62.1759L73.818 62.4609L75.899 61.2589Z" fill="#F0E5D3"/>
<path d="M75.888 57.181L75.398 56.896L75.409 60.974L75.899 61.259L75.888 57.181Z" fill="#D8C8B8"/>
<path d="M73.651 58.283L73.161 57.998L73.174 62.454L73.663 62.739L73.651 58.283Z" fill="#D8C8B8"/>
<path d="M76.042 56.9019L75.553 56.6179L73.161 57.9979L73.651 58.2829L76.042 56.9019Z" fill="#F0E5D3"/>
<path d="M73.651 58.2829L73.663 62.7389L76.055 61.3579L76.042 56.9019L73.651 58.2829ZM73.807 58.3819L75.888 57.1809L75.9 61.2599L73.819 62.4619L73.807 58.3819Z" fill="#A19181"/>
<path d="M78.64 60.908L77.17 60.054L77.171 60.472L78.641 61.326L78.64 60.908Z" fill="#D8C8B8"/>
<path d="M81.031 59.5269L79.562 58.6729L77.17 60.0539L78.64 60.9079L81.031 59.5269Z" fill="#F0E5D3"/>
<path d="M78.64 60.9079L78.641 61.3259L81.032 59.9449L81.031 59.5269L78.64 60.9079Z" fill="#A19181"/>
<path d="M77.576 55.9959L77.588 60.0759L79.669 58.8739L79.657 54.7949L77.576 55.9959Z" fill="#3A2E2F"/>
<path d="M79.908 58.8739L79.418 58.5889L77.337 59.7899L77.827 60.0759L79.908 58.8739Z" fill="#F0E5D3"/>
<path d="M79.897 54.795L79.406 54.511L79.418 58.589L79.908 58.874L79.897 54.795Z" fill="#D8C8B8"/>
<path d="M77.66 55.898L77.17 55.613L77.183 60.069L77.672 60.354L77.66 55.898Z" fill="#D8C8B8"/>
<path d="M80.051 54.5169L79.562 54.2319L77.17 55.6129L77.66 55.8979L80.051 54.5169Z" fill="#F0E5D3"/>
<path d="M77.66 55.8978L77.673 60.3538L80.064 58.9728L80.051 54.5168L77.66 55.8978ZM77.816 55.9958L79.897 54.7948L79.909 58.8738L77.828 60.0758L77.816 55.9958Z" fill="#A19181"/>
<path d="M58.015 80.0181L56.545 79.165L56.546 79.583L58.016 80.4361L58.015 80.0181Z" fill="#D8C8B8"/>
<path d="M60.405 78.6379L58.937 77.7839L56.545 79.1649L58.015 80.0179L60.405 78.6379Z" fill="#F0E5D3"/>
<path d="M58.015 80.0179L58.016 80.4359L60.407 79.0559L60.405 78.6379L58.015 80.0179Z" fill="#A19181"/>
<path d="M56.951 75.107L56.963 79.186L59.044 77.985L59.032 73.906L56.951 75.107Z" fill="#3A2E2F"/>
<path d="M59.283 77.985L58.793 77.7L56.712 78.901L57.202 79.186L59.283 77.985Z" fill="#F0E5D3"/>
<path d="M59.272 73.9061L58.781 73.6221L58.793 77.7001L59.283 77.9851L59.272 73.9061Z" fill="#D8C8B8"/>
<path d="M57.034 75.0081L56.545 74.7241L56.558 79.1801L57.047 79.4641L57.034 75.0081Z" fill="#D8C8B8"/>
<path d="M59.426 73.627L58.937 73.343L56.545 74.724L57.034 75.008L59.426 73.627Z" fill="#F0E5D3"/>
<path d="M57.034 75.0079L57.047 79.464L59.439 78.0829L59.426 73.627L57.034 75.0079ZM57.191 75.1069L59.272 73.905L59.284 77.9839L57.203 79.185L57.191 75.1069Z" fill="#A19181"/>
<path d="M62.261 77.6011L60.791 76.7471L60.792 77.1651L62.262 78.0191L62.261 77.6011Z" fill="#D8C8B8"/>
<path d="M64.652 76.22L63.183 75.366L60.791 76.747L62.261 77.601L64.652 76.22Z" fill="#F0E5D3"/>
<path d="M62.261 77.601L62.262 78.019L64.653 76.638L64.652 76.22L62.261 77.601Z" fill="#A19181"/>
<path d="M61.197 72.69L61.209 76.768L63.29 75.567L63.278 71.489L61.197 72.69Z" fill="#3A2E2F"/>
<path d="M63.529 75.567L63.039 75.283L60.958 76.4839L61.448 76.768L63.529 75.567Z" fill="#F0E5D3"/>
<path d="M63.518 71.4891L63.027 71.2041L63.039 75.2831L63.529 75.5671L63.518 71.4891Z" fill="#D8C8B8"/>
<path d="M61.281 72.5911L60.791 72.3071L60.804 76.7621L61.294 77.0471L61.281 72.5911Z" fill="#D8C8B8"/>
<path d="M63.673 71.21L63.183 70.926L60.791 72.307L61.281 72.591L63.673 71.21Z" fill="#F0E5D3"/>
<path d="M61.281 72.5909L61.294 77.0469L63.685 75.6669L63.673 71.2109L61.281 72.5909ZM61.437 72.6899L63.518 71.4889L63.53 75.5679L61.449 76.7689L61.437 72.6899Z" fill="#A19181"/>
<path d="M66.27 75.2161L64.8 74.3621L64.801 74.7801L66.271 75.6341L66.27 75.2161Z" fill="#D8C8B8"/>
<path d="M68.661 73.8349L67.191 72.981L64.8 74.362L66.27 75.216L68.661 73.8349Z" fill="#F0E5D3"/>
<path d="M66.27 75.216L66.271 75.634L68.662 74.253L68.661 73.835L66.27 75.216Z" fill="#A19181"/>
<path d="M65.206 70.305L65.218 74.383L67.299 73.182L67.287 69.104L65.206 70.305Z" fill="#3A2E2F"/>
<path d="M67.538 73.182L67.048 72.897L64.968 74.099L65.457 74.383L67.538 73.182Z" fill="#F0E5D3"/>
<path d="M67.526 69.1041L67.037 68.8191L67.048 72.8971L67.538 73.1821L67.526 69.1041Z" fill="#D8C8B8"/>
<path d="M65.29 70.2051L64.8 69.9211L64.813 74.3771L65.303 74.6621L65.29 70.2051Z" fill="#D8C8B8"/>
<path d="M67.682 68.825L67.191 68.54L64.8 69.921L65.29 70.205L67.682 68.825Z" fill="#F0E5D3"/>
<path d="M65.29 70.205L65.303 74.661L67.694 73.28L67.682 68.824L65.29 70.205ZM65.445 70.305L67.526 69.104L67.538 73.183L65.457 74.384L65.445 70.305Z" fill="#A19181"/>
<path d="M70.384 72.968L68.915 72.114L68.916 72.532L70.386 73.386L70.384 72.968Z" fill="#D8C8B8"/>
<path d="M72.775 71.5869L71.307 70.7329L68.915 72.1139L70.384 72.9679L72.775 71.5869Z" fill="#F0E5D3"/>
<path d="M70.384 72.9679L70.386 73.3859L72.777 72.0049L72.775 71.5869L70.384 72.9679Z" fill="#A19181"/>
<path d="M69.321 68.057L69.333 72.135L71.414 70.934L71.402 66.855L69.321 68.057Z" fill="#3A2E2F"/>
<path d="M71.653 70.9339L71.163 70.6489L69.082 71.8509L69.572 72.1349L71.653 70.9339Z" fill="#F0E5D3"/>
<path d="M71.642 66.855L71.151 66.571L71.163 70.649L71.653 70.934L71.642 66.855Z" fill="#D8C8B8"/>
<path d="M69.404 67.9571L68.915 67.6731L68.928 72.1291L69.417 72.4131L69.404 67.9571Z" fill="#D8C8B8"/>
<path d="M71.796 66.577L71.307 66.292L68.915 67.673L69.404 67.957L71.796 66.577Z" fill="#F0E5D3"/>
<path d="M69.404 67.9569L69.417 72.4129L71.809 71.0319L71.796 66.5759L69.404 67.9569ZM69.561 68.0569L71.642 66.8559L71.654 70.9349L69.573 72.1359L69.561 68.0569Z" fill="#A19181"/>
<path d="M74.631 70.55L73.161 69.696L73.162 70.114L74.632 70.968L74.631 70.55Z" fill="#D8C8B8"/>
<path d="M77.023 69.1689L75.553 68.3149L73.161 69.6959L74.631 70.5499L77.023 69.1689Z" fill="#F0E5D3"/>
<path d="M74.631 70.5499L74.632 70.9679L77.023 69.5869V69.1689L74.631 70.5499Z" fill="#A19181"/>
<path d="M73.567 65.639L73.579 69.718L75.66 68.517L75.648 64.438L73.567 65.639Z" fill="#3A2E2F"/>
<path d="M75.899 68.5169L75.409 68.2319L73.328 69.4339L73.818 69.7179L75.899 68.5169Z" fill="#F0E5D3"/>
<path d="M75.888 64.4381L75.398 64.1531L75.409 68.2321L75.899 68.5171L75.888 64.4381Z" fill="#D8C8B8"/>
<path d="M73.651 65.5401L73.161 65.2561L73.174 69.7111L73.663 69.9961L73.651 65.5401Z" fill="#D8C8B8"/>
<path d="M76.042 64.16L75.553 63.875L73.161 65.256L73.651 65.54L76.042 64.16Z" fill="#F0E5D3"/>
<path d="M73.651 65.5399L73.663 69.9959L76.055 68.6159L76.042 64.1599L73.651 65.5399ZM73.807 65.6389L75.888 64.4379L75.9 68.5169L73.819 69.7179L73.807 65.6389Z" fill="#A19181"/>
<path d="M78.64 68.165L77.17 67.311L77.171 67.729L78.641 68.583L78.64 68.165Z" fill="#D8C8B8"/>
<path d="M81.031 66.7839L79.562 65.9299L77.17 67.3109L78.64 68.1649L81.031 66.7839Z" fill="#F0E5D3"/>
<path d="M78.64 68.1649L78.641 68.5829L81.032 67.2019L81.031 66.7839L78.64 68.1649Z" fill="#A19181"/>
<path d="M77.576 63.254L77.588 67.332L79.669 66.131L79.657 62.053L77.576 63.254Z" fill="#3A2E2F"/>
<path d="M79.908 66.1309L79.418 65.8469L77.337 67.0479L77.827 67.3319L79.908 66.1309Z" fill="#F0E5D3"/>
<path d="M79.897 62.0531L79.406 61.7681L79.418 65.8471L79.908 66.1311L79.897 62.0531Z" fill="#D8C8B8"/>
<path d="M77.66 63.1551L77.17 62.8711L77.183 67.3261L77.672 67.6111L77.66 63.1551Z" fill="#D8C8B8"/>
<path d="M80.051 61.774L79.562 61.49L77.17 62.871L77.66 63.155L80.051 61.774Z" fill="#F0E5D3"/>
<path d="M77.66 63.1549L77.673 67.6109L80.064 66.2309L80.051 61.7749L77.66 63.1549ZM77.816 63.2539L79.897 62.0529L79.909 66.1319L77.828 67.3329L77.816 63.2539Z" fill="#A19181"/>
<path d="M58.015 87.2971L56.545 86.4431L56.546 86.8611L58.016 87.7151L58.015 87.2971Z" fill="#D8C8B8"/>
<path d="M60.405 85.916L58.937 85.062L56.545 86.443L58.015 87.297L60.405 85.916Z" fill="#F0E5D3"/>
<path d="M58.015 87.297L58.016 87.715L60.407 86.334L60.405 85.916L58.015 87.297Z" fill="#A19181"/>
<path d="M56.951 82.3861L56.963 86.4651L59.044 85.2631L59.032 81.1841L56.951 82.3861Z" fill="#3A2E2F"/>
<path d="M59.283 85.263L58.793 84.979L56.712 86.18L57.202 86.465L59.283 85.263Z" fill="#F0E5D3"/>
<path d="M59.272 81.1842L58.781 80.9001L58.793 84.9792L59.283 85.2632L59.272 81.1842Z" fill="#D8C8B8"/>
<path d="M57.034 82.287L56.545 82.002L56.558 86.4579L57.047 86.743L57.034 82.287Z" fill="#D8C8B8"/>
<path d="M59.426 80.9061L58.937 80.6221L56.545 82.0021L57.034 82.2871L59.426 80.9061Z" fill="#F0E5D3"/>
<path d="M57.034 82.287L57.047 86.743L59.439 85.362L59.426 80.906L57.034 82.287ZM57.191 82.386L59.272 81.184L59.284 85.263L57.203 86.465L57.191 82.386Z" fill="#A19181"/>
<path d="M62.261 84.8801L60.791 84.0261L60.792 84.4441L62.262 85.2981L62.261 84.8801Z" fill="#D8C8B8"/>
<path d="M64.652 83.499L63.183 82.645L60.791 84.026L62.261 84.88L64.652 83.499Z" fill="#F0E5D3"/>
<path d="M62.261 84.88L62.262 85.298L64.653 83.917L64.652 83.499L62.261 84.88Z" fill="#A19181"/>
<path d="M61.197 79.9691L61.209 84.0471L63.29 82.8461L63.278 78.7681L61.197 79.9691Z" fill="#3A2E2F"/>
<path d="M63.529 82.846L63.039 82.561L60.958 83.763L61.448 84.047L63.529 82.846Z" fill="#F0E5D3"/>
<path d="M63.518 78.7682L63.027 78.4832L63.039 82.5612L63.529 82.8461L63.518 78.7682Z" fill="#D8C8B8"/>
<path d="M61.281 79.8702L60.791 79.5852L60.804 84.0412L61.294 84.3262L61.281 79.8702Z" fill="#D8C8B8"/>
<path d="M63.673 78.4891L63.183 78.2041L60.791 79.5851L61.281 79.8701L63.673 78.4891Z" fill="#F0E5D3"/>
<path d="M61.281 79.87L61.294 84.326L63.685 82.945L63.673 78.489L61.281 79.87ZM61.437 79.969L63.518 78.768L63.53 82.847L61.449 84.048L61.437 79.969Z" fill="#A19181"/>
<path d="M66.27 82.4951L64.8 81.6411L64.801 82.0591L66.271 82.9131L66.27 82.4951Z" fill="#D8C8B8"/>
<path d="M68.661 81.114L67.191 80.26L64.8 81.641L66.27 82.495L68.661 81.114Z" fill="#F0E5D3"/>
<path d="M66.27 82.495L66.271 82.913L68.662 81.532L68.661 81.114L66.27 82.495Z" fill="#A19181"/>
<path d="M65.206 77.5831L65.218 81.6621L67.299 80.4611L67.287 76.3821L65.206 77.5831Z" fill="#3A2E2F"/>
<path d="M67.538 80.461L67.048 80.176L64.968 81.377L65.457 81.662L67.538 80.461Z" fill="#F0E5D3"/>
<path d="M67.526 76.3822L67.037 76.0981L67.048 80.1761L67.538 80.4612L67.526 76.3822Z" fill="#D8C8B8"/>
<path d="M65.29 77.4842L64.8 77.2002L64.813 81.6562L65.303 81.9402L65.29 77.4842Z" fill="#D8C8B8"/>
<path d="M67.682 76.1041L67.191 75.8191L64.8 77.2001L65.29 77.4841L67.682 76.1041Z" fill="#F0E5D3"/>
<path d="M65.29 77.484L65.303 81.94L67.694 80.559L67.682 76.103L65.29 77.484ZM65.445 77.583L67.526 76.382L67.538 80.461L65.457 81.662L65.445 77.583Z" fill="#A19181"/>
<path d="M70.384 80.2471L68.915 79.3931L68.916 79.8111L70.386 80.6651L70.384 80.2471Z" fill="#D8C8B8"/>
<path d="M72.775 78.866L71.307 78.012L68.915 79.393L70.384 80.247L72.775 78.866Z" fill="#F0E5D3"/>
<path d="M70.384 80.247L70.386 80.665L72.777 79.284L72.775 78.866L70.384 80.247Z" fill="#A19181"/>
<path d="M69.321 75.335L69.333 79.414L71.414 78.213L71.402 74.134L69.321 75.335Z" fill="#3A2E2F"/>
<path d="M71.653 78.213L71.163 77.928L69.082 79.129L69.572 79.414L71.653 78.213Z" fill="#F0E5D3"/>
<path d="M71.642 74.1341L71.151 73.8491L71.163 77.9281L71.653 78.2131L71.642 74.1341Z" fill="#D8C8B8"/>
<path d="M69.404 75.2361L68.915 74.9521L68.928 79.4082L69.417 79.6922L69.404 75.2361Z" fill="#D8C8B8"/>
<path d="M71.796 73.855L71.307 73.571L68.915 74.952L69.404 75.236L71.796 73.855Z" fill="#F0E5D3"/>
<path d="M69.404 75.236L69.417 79.692L71.809 78.311L71.796 73.855L69.404 75.236ZM69.561 75.335L71.642 74.133L71.654 78.212L69.573 79.413L69.561 75.335Z" fill="#A19181"/>
<path d="M74.631 77.8291L73.161 76.9751L73.162 77.3931L74.632 78.2471L74.631 77.8291Z" fill="#D8C8B8"/>
<path d="M77.023 76.448L75.553 75.594L73.161 76.975L74.631 77.829L77.023 76.448Z" fill="#F0E5D3"/>
<path d="M74.631 77.829L74.632 78.247L77.023 76.866V76.448L74.631 77.829Z" fill="#A19181"/>
<path d="M73.567 72.918L73.579 76.997L75.66 75.795L75.648 71.717L73.567 72.918Z" fill="#3A2E2F"/>
<path d="M75.899 75.795L75.409 75.511L73.328 76.712L73.818 76.997L75.899 75.795Z" fill="#F0E5D3"/>
<path d="M75.888 71.7171L75.398 71.4321L75.409 75.5111L75.899 75.7951L75.888 71.7171Z" fill="#D8C8B8"/>
<path d="M73.651 72.8192L73.161 72.5352L73.174 76.9902L73.663 77.2751L73.651 72.8192Z" fill="#D8C8B8"/>
<path d="M76.042 71.438L75.553 71.1541L73.161 72.5351L73.651 72.8191L76.042 71.438Z" fill="#F0E5D3"/>
<path d="M73.651 72.819L73.663 77.275L76.055 75.894L76.042 71.438L73.651 72.819ZM73.807 72.918L75.888 71.717L75.9 75.796L73.819 76.997L73.807 72.918Z" fill="#A19181"/>
<path d="M78.64 75.4441L77.17 74.5901L77.171 75.0081L78.641 75.8621L78.64 75.4441Z" fill="#D8C8B8"/>
<path d="M81.031 74.063L79.562 73.209L77.17 74.59L78.64 75.444L81.031 74.063Z" fill="#F0E5D3"/>
<path d="M78.64 75.444L78.641 75.862L81.032 74.481L81.031 74.063L78.64 75.444Z" fill="#A19181"/>
<path d="M77.576 70.5331L77.588 74.611L79.669 73.4101L79.657 69.3311L77.576 70.5331Z" fill="#3A2E2F"/>
<path d="M79.908 73.41L79.418 73.125L77.337 74.327L77.827 74.611L79.908 73.41Z" fill="#F0E5D3"/>
<path d="M79.897 69.3311L79.406 69.0471L79.418 73.1251L79.908 73.4101L79.897 69.3311Z" fill="#D8C8B8"/>
<path d="M77.66 70.4339L77.17 70.1489L77.183 74.6049L77.672 74.8899L77.66 70.4339Z" fill="#D8C8B8"/>
<path d="M80.051 69.053L79.562 68.769L77.17 70.149L77.66 70.434L80.051 69.053Z" fill="#F0E5D3"/>
<path d="M77.66 70.434L77.673 74.89L80.064 73.5099L80.051 69.054L77.66 70.434ZM77.816 70.533L79.897 69.332L79.909 73.4109L77.828 74.612L77.816 70.533Z" fill="#A19181"/>
<path d="M58.015 94.3191L56.545 93.4651L56.546 93.8831L58.016 94.7371L58.015 94.3191Z" fill="#D8C8B8"/>
<path d="M60.405 92.938L58.937 92.084L56.545 93.465L58.015 94.319L60.405 92.938Z" fill="#F0E5D3"/>
<path d="M58.015 94.319L58.016 94.737L60.407 93.356L60.405 92.938L58.015 94.319Z" fill="#A19181"/>
<path d="M56.951 89.4081L56.963 93.4861L59.044 92.2851L59.032 88.2061L56.951 89.4081Z" fill="#3A2E2F"/>
<path d="M59.283 92.285L58.793 92L56.712 93.202L57.202 93.486L59.283 92.285Z" fill="#F0E5D3"/>
<path d="M59.272 88.2061L58.781 87.9221L58.793 92.0001L59.283 92.2851L59.272 88.2061Z" fill="#D8C8B8"/>
<path d="M57.034 89.3092L56.545 89.0242L56.558 93.4802L57.047 93.7652L57.034 89.3092Z" fill="#D8C8B8"/>
<path d="M59.426 87.9281L58.937 87.6431L56.545 89.0241L57.034 89.3091L59.426 87.9281Z" fill="#F0E5D3"/>
<path d="M57.034 89.309L57.047 93.765L59.439 92.384L59.426 87.928L57.034 89.309ZM57.191 89.408L59.272 88.207L59.284 92.286L57.203 93.487L57.191 89.408Z" fill="#A19181"/>
<path d="M62.261 91.9009L60.791 91.0469L60.792 91.4649L62.262 92.3189L62.261 91.9009Z" fill="#D8C8B8"/>
<path d="M64.652 90.52L63.183 89.667L60.791 91.047L62.261 91.901L64.652 90.52Z" fill="#F0E5D3"/>
<path d="M62.261 91.901L62.262 92.319L64.653 90.938L64.652 90.52L62.261 91.901Z" fill="#A19181"/>
<path d="M61.197 86.9901L61.209 91.0691L63.29 89.8681L63.278 85.7891L61.197 86.9901Z" fill="#3A2E2F"/>
<path d="M63.529 89.868L63.039 89.583L60.958 90.785L61.448 91.069L63.529 89.868Z" fill="#F0E5D3"/>
<path d="M63.518 85.7892L63.027 85.5042L63.039 89.5831L63.529 89.8681L63.518 85.7892Z" fill="#D8C8B8"/>
<path d="M61.281 86.8912L60.791 86.6072L60.804 91.0632L61.294 91.3472L61.281 86.8912Z" fill="#D8C8B8"/>
<path d="M63.673 85.5111L63.183 85.2261L60.791 86.6071L61.281 86.8911L63.673 85.5111Z" fill="#F0E5D3"/>
<path d="M61.281 86.891L61.294 91.347L63.685 89.967L63.673 85.511L61.281 86.891ZM61.437 86.99L63.518 85.789L63.53 89.868L61.449 91.069L61.437 86.99Z" fill="#A19181"/>
<path d="M66.27 89.5161L64.8 88.6621L64.801 89.0801L66.271 89.9341L66.27 89.5161Z" fill="#D8C8B8"/>
<path d="M68.661 88.135L67.191 87.281L64.8 88.662L66.27 89.516L68.661 88.135Z" fill="#F0E5D3"/>
<path d="M66.27 89.516L66.271 89.934L68.662 88.553L68.661 88.135L66.27 89.516Z" fill="#A19181"/>
<path d="M65.206 84.6051L65.218 88.6841L67.299 87.4821L67.287 83.4041L65.206 84.6051Z" fill="#3A2E2F"/>
<path d="M67.538 87.482L67.048 87.198L64.968 88.399L65.457 88.684L67.538 87.482Z" fill="#F0E5D3"/>
<path d="M67.526 83.4041L67.037 83.1191L67.048 87.1981L67.538 87.4821L67.526 83.4041Z" fill="#D8C8B8"/>
<path d="M65.29 84.5062L64.8 84.2222L64.813 88.6772L65.303 88.9622L65.29 84.5062Z" fill="#D8C8B8"/>
<path d="M67.682 83.1251L67.191 82.8411L64.8 84.2221L65.29 84.5061L67.682 83.1251Z" fill="#F0E5D3"/>
<path d="M65.29 84.506L65.303 88.962L67.694 87.582L67.682 83.126L65.29 84.506ZM65.445 84.605L67.526 83.404L67.538 87.483L65.457 88.684L65.445 84.605Z" fill="#A19181"/>
<path d="M70.384 87.2681L68.915 86.4141L68.916 86.8321L70.386 87.6861L70.384 87.2681Z" fill="#D8C8B8"/>
<path d="M72.775 85.8869L71.307 85.033L68.915 86.414L70.384 87.268L72.775 85.8869Z" fill="#F0E5D3"/>
<path d="M70.384 87.268L70.386 87.686L72.777 86.305L72.775 85.887L70.384 87.268Z" fill="#A19181"/>
<path d="M69.321 82.357L69.333 86.436L71.414 85.234L71.402 81.156L69.321 82.357Z" fill="#3A2E2F"/>
<path d="M71.653 85.2339L71.163 84.95L69.082 86.151L69.572 86.436L71.653 85.2339Z" fill="#F0E5D3"/>
<path d="M71.642 81.1561L71.151 80.8711L71.163 84.9501L71.653 85.2341L71.642 81.1561Z" fill="#D8C8B8"/>
<path d="M69.404 82.2579L68.915 81.9729L68.928 86.4289L69.417 86.7139L69.404 82.2579Z" fill="#D8C8B8"/>
<path d="M71.796 80.877L71.307 80.593L68.915 81.973L69.404 82.258L71.796 80.877Z" fill="#F0E5D3"/>
<path d="M69.404 82.2579L69.417 86.7139L71.809 85.3339L71.796 80.8779L69.404 82.2579ZM69.561 82.3569L71.642 81.1559L71.654 85.2349L69.573 86.4359L69.561 82.3569Z" fill="#A19181"/>
<path d="M74.631 84.8501L73.161 83.9971L73.162 84.4151L74.632 85.2681L74.631 84.8501Z" fill="#D8C8B8"/>
<path d="M77.023 83.47L75.553 82.616L73.161 83.997L74.631 84.85L77.023 83.47Z" fill="#F0E5D3"/>
<path d="M74.631 84.85L74.632 85.268L77.023 83.888V83.47L74.631 84.85Z" fill="#A19181"/>
<path d="M73.567 79.939L73.579 84.0181L75.66 82.817L75.648 78.738L73.567 79.939Z" fill="#3A2E2F"/>
<path d="M75.899 82.817L75.409 82.532L73.328 83.734L73.818 84.018L75.899 82.817Z" fill="#F0E5D3"/>
<path d="M75.888 78.7381L75.398 78.4541L75.409 82.5321L75.899 82.8171L75.888 78.7381Z" fill="#D8C8B8"/>
<path d="M73.651 79.8412L73.161 79.5562L73.174 84.0121L73.663 84.2971L73.651 79.8412Z" fill="#D8C8B8"/>
<path d="M76.042 78.46L75.553 78.175L73.161 79.556L73.651 79.841L76.042 78.46Z" fill="#F0E5D3"/>
<path d="M73.651 79.841L73.663 84.297L76.055 82.916L76.042 78.46L73.651 79.841ZM73.807 79.939L75.888 78.738L75.9 82.817L73.819 84.019L73.807 79.939Z" fill="#A19181"/>
<path d="M78.64 82.4651L77.17 81.6111L77.171 82.0301L78.641 82.8831L78.64 82.4651Z" fill="#D8C8B8"/>
<path d="M81.031 81.084L79.562 80.23L77.17 81.611L78.64 82.465L81.031 81.084Z" fill="#F0E5D3"/>
<path d="M78.64 82.465L78.641 82.883L81.032 81.502L81.031 81.084L78.64 82.465Z" fill="#A19181"/>
<path d="M77.576 77.554L77.588 81.633L79.669 80.432L79.657 76.353L77.576 77.554Z" fill="#3A2E2F"/>
<path d="M79.908 80.432L79.418 80.147L77.337 81.349L77.827 81.633L79.908 80.432Z" fill="#F0E5D3"/>
<path d="M79.897 76.3531L79.406 76.0681L79.418 80.1471L79.908 80.4321L79.897 76.3531Z" fill="#D8C8B8"/>
<path d="M77.66 77.4561L77.17 77.1711L77.183 81.6271L77.672 81.9111L77.66 77.4561Z" fill="#D8C8B8"/>
<path d="M80.051 76.075L79.562 75.79L77.17 77.1711L77.66 77.456L80.051 76.075Z" fill="#F0E5D3"/>
<path d="M77.66 77.4562L77.673 81.9122L80.064 80.5322L80.051 76.0762L77.66 77.4562ZM77.816 77.5542L79.897 76.3532L79.909 80.4322L77.828 81.6342L77.816 77.5542Z" fill="#A19181"/>
<path d="M58.015 101.386L56.545 100.532L56.546 100.95L58.016 101.804L58.015 101.386Z" fill="#D8C8B8"/>
<path d="M60.405 100.005L58.937 99.1509L56.545 100.532L58.015 101.386L60.405 100.005Z" fill="#F0E5D3"/>
<path d="M58.015 101.386L58.016 101.804L60.407 100.423L60.405 100.005L58.015 101.386Z" fill="#A19181"/>
<path d="M56.951 96.475L56.963 100.554L59.044 99.352L59.032 95.2729L56.951 96.475Z" fill="#3A2E2F"/>
<path d="M59.283 99.3519L58.793 99.0669L56.712 100.269L57.202 100.554L59.283 99.3519Z" fill="#F0E5D3"/>
<path d="M59.272 95.273L58.781 94.989L58.793 99.067L59.283 99.352L59.272 95.273Z" fill="#D8C8B8"/>
<path d="M57.034 96.3761L56.545 96.0911L56.558 100.547L57.047 100.832L57.034 96.3761Z" fill="#D8C8B8"/>
<path d="M59.426 94.995L58.937 94.71L56.545 96.091L57.034 96.376L59.426 94.995Z" fill="#F0E5D3"/>
<path d="M57.034 96.3759L57.047 100.832L59.439 99.4509L59.426 94.9949L57.034 96.3759ZM57.191 96.4749L59.272 95.2729L59.284 99.3519L57.203 100.554L57.191 96.4749Z" fill="#A19181"/>
<path d="M62.261 98.969L60.791 98.115L60.792 98.533L62.262 99.387L62.261 98.969Z" fill="#D8C8B8"/>
<path d="M64.652 97.5879L63.183 96.7339L60.791 98.1149L62.261 98.9689L64.652 97.5879Z" fill="#F0E5D3"/>
<path d="M62.261 98.9689L62.262 99.3869L64.653 98.0059L64.652 97.5879L62.261 98.9689Z" fill="#A19181"/>
<path d="M61.197 94.058L61.209 98.136L63.29 96.935L63.278 92.856L61.197 94.058Z" fill="#3A2E2F"/>
<path d="M63.529 96.9349L63.039 96.6499L60.958 97.8519L61.448 98.1359L63.529 96.9349Z" fill="#F0E5D3"/>
<path d="M63.518 92.856L63.027 92.572L63.039 96.65L63.529 96.935L63.518 92.856Z" fill="#D8C8B8"/>
<path d="M61.281 93.9581L60.791 93.6741L60.804 98.1301L61.294 98.4151L61.281 93.9581Z" fill="#D8C8B8"/>
<path d="M63.673 92.578L63.183 92.293L60.791 93.674L61.281 93.958L63.673 92.578Z" fill="#F0E5D3"/>
<path d="M61.281 93.9579L61.294 98.4139L63.685 97.0329L63.673 92.5769L61.281 93.9579ZM61.437 94.0579L63.518 92.8569L63.53 96.9359L61.449 98.1369L61.437 94.0579Z" fill="#A19181"/>
<path d="M66.27 96.583L64.8 95.729L64.801 96.147L66.271 97.001L66.27 96.583Z" fill="#D8C8B8"/>
<path d="M68.661 95.2029L67.191 94.3489L64.8 95.7289L66.27 96.5829L68.661 95.2029Z" fill="#F0E5D3"/>
<path d="M66.27 96.5829L66.271 97.0009L68.662 95.6209L68.661 95.2029L66.27 96.5829Z" fill="#A19181"/>
<path d="M65.206 91.672L65.218 95.7509L67.299 94.55L67.287 90.4709L65.206 91.672Z" fill="#3A2E2F"/>
<path d="M67.538 94.5499L67.048 94.2649L64.968 95.4659L65.457 95.7509L67.538 94.5499Z" fill="#F0E5D3"/>
<path d="M67.526 90.471L67.037 90.186L67.048 94.265L67.538 94.55L67.526 90.471Z" fill="#D8C8B8"/>
<path d="M65.29 91.5728L64.8 91.2878L64.813 95.7448L65.303 96.0288L65.29 91.5728Z" fill="#D8C8B8"/>
<path d="M67.682 90.1929L67.191 89.908L64.8 91.2879L65.29 91.573L67.682 90.1929Z" fill="#F0E5D3"/>
<path d="M65.29 91.5729L65.303 96.0289L67.694 94.6479L67.682 90.1919L65.29 91.5729ZM65.445 91.6719L67.526 90.4709L67.538 94.5499L65.457 95.7509L65.445 91.6719Z" fill="#A19181"/>
<path d="M70.384 94.3349L68.915 93.481L68.916 93.899L70.386 94.753L70.384 94.3349Z" fill="#D8C8B8"/>
<path d="M72.775 92.9538L71.307 92.0999L68.915 93.4809L70.384 94.3348L72.775 92.9538Z" fill="#F0E5D3"/>
<path d="M70.384 94.3349L70.386 94.7529L72.777 93.3719L72.775 92.9539L70.384 94.3349Z" fill="#A19181"/>
<path d="M69.321 89.4239L69.333 93.5029L71.414 92.3009L71.402 88.2229L69.321 89.4239Z" fill="#3A2E2F"/>
<path d="M71.653 92.3008L71.163 92.0168L69.082 93.2178L69.572 93.5029L71.653 92.3008Z" fill="#F0E5D3"/>
<path d="M71.642 88.223L71.151 87.938L71.163 92.017L71.653 92.301L71.642 88.223Z" fill="#D8C8B8"/>
<path d="M69.404 89.3248L68.915 89.0398L68.928 93.4968L69.417 93.7808L69.404 89.3248Z" fill="#D8C8B8"/>
<path d="M71.796 87.9439L71.307 87.6599L68.915 89.0399L69.404 89.3249L71.796 87.9439Z" fill="#F0E5D3"/>
<path d="M69.404 89.3248L69.417 93.7809L71.809 92.3998L71.796 87.9438L69.404 89.3248ZM69.561 89.4238L71.642 88.2218L71.654 92.3008L69.573 93.5029L69.561 89.4238Z" fill="#A19181"/>
<path d="M74.631 91.918L73.161 91.064L73.162 91.482L74.632 92.336L74.631 91.918Z" fill="#D8C8B8"/>
<path d="M77.023 90.5369L75.553 89.6829L73.161 91.0639L74.631 91.9179L77.023 90.5369Z" fill="#F0E5D3"/>
<path d="M74.631 91.9179L74.632 92.3359L77.023 90.9549V90.5369L74.631 91.9179Z" fill="#A19181"/>
<path d="M73.567 87.0069L73.579 91.0849L75.66 89.8839L75.648 85.8059L73.567 87.0069Z" fill="#3A2E2F"/>
<path d="M75.899 89.8839L75.409 89.5999L73.328 90.8008L73.818 91.0848L75.899 89.8839Z" fill="#F0E5D3"/>
<path d="M75.888 85.806L75.398 85.521L75.409 89.6L75.899 89.884L75.888 85.806Z" fill="#D8C8B8"/>
<path d="M73.651 86.9081L73.161 86.623L73.174 91.079L73.663 91.364L73.651 86.9081Z" fill="#D8C8B8"/>
<path d="M76.042 85.5269L75.553 85.2429L73.161 86.6229L73.651 86.9079L76.042 85.5269Z" fill="#F0E5D3"/>
<path d="M73.651 86.9079L73.663 91.3639L76.055 89.9829L76.042 85.5269L73.651 86.9079ZM73.807 87.0069L75.888 85.8059L75.9 89.8849L73.819 91.0859L73.807 87.0069Z" fill="#A19181"/>
<path d="M78.64 89.533L77.17 88.679L77.171 89.097L78.641 89.951L78.64 89.533Z" fill="#D8C8B8"/>
<path d="M81.031 88.1518L79.562 87.2979L77.17 88.6788L78.64 89.5329L81.031 88.1518Z" fill="#F0E5D3"/>
<path d="M78.64 89.5329L78.641 89.9509L81.032 88.5699L81.031 88.1519L78.64 89.5329Z" fill="#A19181"/>
<path d="M77.576 84.6219L77.588 88.6999L79.669 87.4989L79.657 83.4199L77.576 84.6219Z" fill="#3A2E2F"/>
<path d="M79.908 87.4989L79.418 87.2139L77.337 88.4149L77.827 88.6999L79.908 87.4989Z" fill="#F0E5D3"/>
<path d="M79.897 83.42L79.406 83.136L79.418 87.214L79.908 87.499L79.897 83.42Z" fill="#D8C8B8"/>
<path d="M77.66 84.522L77.17 84.238L77.183 88.694L77.672 88.979L77.66 84.522Z" fill="#D8C8B8"/>
<path d="M80.051 83.1419L79.562 82.8569L77.17 84.2379L77.66 84.5219L80.051 83.1419Z" fill="#F0E5D3"/>
<path d="M77.66 84.5219L77.673 88.9779L80.064 87.5969L80.051 83.1409L77.66 84.5219ZM77.816 84.6219L79.897 83.4209L79.909 87.4999L77.828 88.7009L77.816 84.6219Z" fill="#A19181"/>
<path d="M58.015 108.442L56.545 107.588L56.546 108.006L58.016 108.86L58.015 108.442Z" fill="#D8C8B8"/>
<path d="M60.405 107.061L58.937 106.208L56.545 107.588L58.015 108.442L60.405 107.061Z" fill="#F0E5D3"/>
<path d="M58.015 108.442L58.016 108.86L60.407 107.479L60.405 107.061L58.015 108.442Z" fill="#A19181"/>
<path d="M56.951 103.531L56.963 107.61L59.044 106.408L59.032 102.329L56.951 103.531Z" fill="#3A2E2F"/>
<path d="M59.283 106.408L58.793 106.124L56.712 107.325L57.202 107.61L59.283 106.408Z" fill="#F0E5D3"/>
<path d="M59.272 102.329L58.781 102.045L58.793 106.124L59.283 106.408L59.272 102.329Z" fill="#D8C8B8"/>
<path d="M57.034 103.432L56.545 103.147L56.558 107.604L57.047 107.888L57.034 103.432Z" fill="#D8C8B8"/>
<path d="M59.426 102.051L58.937 101.766L56.545 103.147L57.034 103.432L59.426 102.051Z" fill="#F0E5D3"/>
<path d="M57.034 103.432L57.047 107.888L59.439 106.507L59.426 102.051L57.034 103.432ZM57.191 103.531L59.272 102.329L59.284 106.408L57.203 107.61L57.191 103.531Z" fill="#A19181"/>
<path d="M62.261 106.025L60.791 105.171L60.792 105.589L62.262 106.443L62.261 106.025Z" fill="#D8C8B8"/>
<path d="M64.652 104.644L63.183 103.79L60.791 105.171L62.261 106.025L64.652 104.644Z" fill="#F0E5D3"/>
<path d="M62.261 106.025L62.262 106.443L64.653 105.062L64.652 104.644L62.261 106.025Z" fill="#A19181"/>
<path d="M61.197 101.114L61.209 105.192L63.29 103.991L63.278 99.9121L61.197 101.114Z" fill="#3A2E2F"/>
<path d="M63.529 103.991L63.039 103.706L60.958 104.908L61.448 105.192L63.529 103.991Z" fill="#F0E5D3"/>
<path d="M63.518 99.9122L63.027 99.6272L63.039 103.706L63.529 103.991L63.518 99.9122Z" fill="#D8C8B8"/>
<path d="M61.281 101.015L60.791 100.73L60.804 105.186L61.294 105.471L61.281 101.015Z" fill="#D8C8B8"/>
<path d="M63.673 99.6341L63.183 99.3491L60.791 100.73L61.281 101.015L63.673 99.6341Z" fill="#F0E5D3"/>
<path d="M61.281 101.015L61.294 105.471L63.685 104.09L63.673 99.634L61.281 101.015ZM61.437 101.114L63.518 99.912L63.53 103.991L61.449 105.193L61.437 101.114Z" fill="#A19181"/>
<path d="M66.27 103.639L64.8 102.786L64.801 103.204L66.271 104.057L66.27 103.639Z" fill="#D8C8B8"/>
<path d="M68.661 102.259L67.191 101.405L64.8 102.786L66.27 103.639L68.661 102.259Z" fill="#F0E5D3"/>
<path d="M66.27 103.639L66.271 104.057L68.662 102.677L68.661 102.259L66.27 103.639Z" fill="#A19181"/>
<path d="M65.206 98.7291L65.218 102.807L67.299 101.605L67.287 97.5271L65.206 98.7291Z" fill="#3A2E2F"/>
<path d="M67.538 101.605L67.048 101.321L64.968 102.522L65.457 102.807L67.538 101.605Z" fill="#F0E5D3"/>
<path d="M67.526 97.5272L67.037 97.2422L67.048 101.321L67.538 101.605L67.526 97.5272Z" fill="#D8C8B8"/>
<path d="M65.29 98.6292L64.8 98.3452L64.813 102.801L65.303 103.085L65.29 98.6292Z" fill="#D8C8B8"/>
<path d="M67.682 97.2491L67.191 96.9641L64.8 98.3451L65.29 98.6291L67.682 97.2491Z" fill="#F0E5D3"/>
<path d="M65.29 98.629L65.303 103.085L67.694 101.704L67.682 97.248L65.29 98.629ZM65.445 98.729L67.526 97.527L67.538 101.606L65.457 102.808L65.445 98.729Z" fill="#A19181"/>
<path d="M70.384 101.391L68.915 100.538L68.916 100.956L70.386 101.809L70.384 101.391Z" fill="#D8C8B8"/>
<path d="M72.775 100.01L71.307 99.157L68.915 100.538L70.384 101.391L72.775 100.01Z" fill="#F0E5D3"/>
<path d="M70.384 101.391L70.386 101.809L72.777 100.429L72.775 100.01L70.384 101.391Z" fill="#A19181"/>
<path d="M69.321 96.4801L69.333 100.559L71.414 99.3571L71.402 95.2791L69.321 96.4801Z" fill="#3A2E2F"/>
<path d="M71.653 99.357L71.163 99.073L69.082 100.274L69.572 100.559L71.653 99.357Z" fill="#F0E5D3"/>
<path d="M71.642 95.2791L71.151 94.9941L71.163 99.0731L71.653 99.3571L71.642 95.2791Z" fill="#D8C8B8"/>
<path d="M69.404 96.3812L68.915 96.0972L68.928 100.553L69.417 100.837L69.404 96.3812Z" fill="#D8C8B8"/>
<path d="M71.796 95.0001L71.307 94.7161L68.915 96.0971L69.404 96.3811L71.796 95.0001Z" fill="#F0E5D3"/>
<path d="M69.404 96.381L69.417 100.837L71.809 99.456L71.796 95L69.404 96.381ZM69.561 96.48L71.642 95.278L71.654 99.357L69.573 100.559L69.561 96.48Z" fill="#A19181"/>
<path d="M74.631 98.9741L73.161 98.1201L73.162 98.5381L74.632 99.3921L74.631 98.9741Z" fill="#D8C8B8"/>
<path d="M77.023 97.593L75.553 96.739L73.161 98.12L74.631 98.974L77.023 97.593Z" fill="#F0E5D3"/>
<path d="M74.631 98.974L74.632 99.392L77.023 98.011V97.593L74.631 98.974Z" fill="#A19181"/>
<path d="M73.567 94.0631L73.579 98.1411L75.66 96.9401L75.648 92.8611L73.567 94.0631Z" fill="#3A2E2F"/>
<path d="M75.899 96.94L75.409 96.656L73.328 97.857L73.818 98.141L75.899 96.94Z" fill="#F0E5D3"/>
<path d="M75.888 92.8611L75.398 92.5771L75.409 96.6562L75.899 96.9402L75.888 92.8611Z" fill="#D8C8B8"/>
<path d="M73.651 93.9642L73.161 93.6792L73.174 98.1352L73.663 98.4202L73.651 93.9642Z" fill="#D8C8B8"/>
<path d="M76.042 92.5831L75.553 92.2981L73.161 93.6791L73.651 93.9641L76.042 92.5831Z" fill="#F0E5D3"/>
<path d="M73.651 93.964L73.663 98.42L76.055 97.039L76.042 92.583L73.651 93.964ZM73.807 94.063L75.888 92.861L75.9 96.94L73.819 98.141L73.807 94.063Z" fill="#A19181"/>
<path d="M78.64 96.5881L77.17 95.7351L77.171 96.1531L78.641 97.0071L78.64 96.5881Z" fill="#D8C8B8"/>
<path d="M81.031 95.208L79.562 94.354L77.17 95.735L78.64 96.588L81.031 95.208Z" fill="#F0E5D3"/>
<path d="M78.64 96.588L78.641 97.007L81.032 95.626L81.031 95.208L78.64 96.588Z" fill="#A19181"/>
<path d="M77.576 91.6781L77.588 95.7561L79.669 94.5551L79.657 90.4761L77.576 91.6781Z" fill="#3A2E2F"/>
<path d="M79.908 94.555L79.418 94.27L77.337 95.472L77.827 95.756L79.908 94.555Z" fill="#F0E5D3"/>
<path d="M79.897 90.4762L79.406 90.1912L79.418 94.2702L79.908 94.5552L79.897 90.4762Z" fill="#D8C8B8"/>
<path d="M77.66 91.5792L77.17 91.2942L77.183 95.7502L77.672 96.0352L77.66 91.5792Z" fill="#D8C8B8"/>
<path d="M80.051 90.1981L79.562 89.9131L77.17 91.2941L77.66 91.5791L80.051 90.1981Z" fill="#F0E5D3"/>
<path d="M77.66 91.579L77.673 96.035L80.064 94.654L80.051 90.198L77.66 91.579ZM77.816 91.678L79.897 90.476L79.909 94.555L77.828 95.756L77.816 91.678Z" fill="#A19181"/>
<path d="M58.015 115.699L56.545 114.845L56.546 115.263L58.016 116.117L58.015 115.699Z" fill="#D8C8B8"/>
<path d="M60.405 114.318L58.937 113.464L56.545 114.845L58.015 115.699L60.405 114.318Z" fill="#F0E5D3"/>
<path d="M58.015 115.699L58.016 116.117L60.407 114.736L60.405 114.318L58.015 115.699Z" fill="#A19181"/>
<path d="M56.951 110.788L56.963 114.867L59.044 113.665L59.032 109.587L56.951 110.788Z" fill="#3A2E2F"/>
<path d="M59.283 113.665L58.793 113.381L56.712 114.583L57.202 114.867L59.283 113.665Z" fill="#F0E5D3"/>
<path d="M59.272 109.587L58.781 109.302L58.793 113.381L59.283 113.665L59.272 109.587Z" fill="#D8C8B8"/>
<path d="M57.034 110.689L56.545 110.405L56.558 114.86L57.047 115.145L57.034 110.689Z" fill="#D8C8B8"/>
<path d="M59.426 109.309L58.937 109.024L56.545 110.405L57.034 110.689L59.426 109.309Z" fill="#F0E5D3"/>
<path d="M57.034 110.689L57.047 115.145L59.439 113.765L59.426 109.309L57.034 110.689ZM57.191 110.788L59.272 109.587L59.284 113.666L57.203 114.868L57.191 110.788Z" fill="#A19181"/>
<path d="M62.261 113.282L60.791 112.428L60.792 112.846L62.262 113.7L62.261 113.282Z" fill="#D8C8B8"/>
<path d="M64.652 111.901L63.183 111.047L60.791 112.428L62.261 113.282L64.652 111.901Z" fill="#F0E5D3"/>
<path d="M62.261 113.282L62.262 113.7L64.653 112.319L64.652 111.901L62.261 113.282Z" fill="#A19181"/>
<path d="M61.197 108.371L61.209 112.45L63.29 111.248L63.278 107.169L61.197 108.371Z" fill="#3A2E2F"/>
<path d="M63.529 111.248L63.039 110.963L60.958 112.165L61.448 112.45L63.529 111.248Z" fill="#F0E5D3"/>
<path d="M63.518 107.169L63.027 106.885L63.039 110.963L63.529 111.248L63.518 107.169Z" fill="#D8C8B8"/>
<path d="M61.281 108.272L60.791 107.987L60.804 112.443L61.294 112.728L61.281 108.272Z" fill="#D8C8B8"/>
<path d="M63.673 106.891L63.183 106.606L60.791 107.987L61.281 108.272L63.673 106.891Z" fill="#F0E5D3"/>
<path d="M61.281 108.272L61.294 112.728L63.685 111.347L63.673 106.891L61.281 108.272ZM61.437 108.371L63.518 107.169L63.53 111.248L61.449 112.45L61.437 108.371Z" fill="#A19181"/>
<path d="M66.27 110.896L64.8 110.042L64.801 110.461L66.271 111.314L66.27 110.896Z" fill="#D8C8B8"/>
<path d="M68.661 109.516L67.191 108.662L64.8 110.042L66.27 110.896L68.661 109.516Z" fill="#F0E5D3"/>
<path d="M66.27 110.896L66.271 111.314L68.662 109.934L68.661 109.516L66.27 110.896Z" fill="#A19181"/>
<path d="M65.206 105.986L65.218 110.064L67.299 108.863L67.287 104.784L65.206 105.986Z" fill="#3A2E2F"/>
<path d="M67.538 108.863L67.048 108.578L64.968 109.78L65.457 110.064L67.538 108.863Z" fill="#F0E5D3"/>
<path d="M67.526 104.784L67.037 104.499L67.048 108.578L67.538 108.863L67.526 104.784Z" fill="#D8C8B8"/>
<path d="M65.29 105.887L64.8 105.602L64.813 110.058L65.303 110.343L65.29 105.887Z" fill="#D8C8B8"/>
<path d="M67.682 104.506L67.191 104.221L64.8 105.602L65.29 105.887L67.682 104.506Z" fill="#F0E5D3"/>
<path d="M65.29 105.887L65.303 110.343L67.694 108.962L67.682 104.506L65.29 105.887ZM65.445 105.986L67.526 104.784L67.538 108.863L65.457 110.065L65.445 105.986Z" fill="#A19181"/>
<path d="M70.384 108.648L68.915 107.794L68.916 108.213L70.386 109.066L70.384 108.648Z" fill="#D8C8B8"/>
<path d="M72.775 107.268L71.307 106.414L68.915 107.794L70.384 108.648L72.775 107.268Z" fill="#F0E5D3"/>
<path d="M70.384 108.648L70.386 109.066L72.777 107.686L72.775 107.268L70.384 108.648Z" fill="#A19181"/>
<path d="M69.321 103.738L69.333 107.816L71.414 106.615L71.402 102.536L69.321 103.738Z" fill="#3A2E2F"/>
<path d="M71.653 106.615L71.163 106.33L69.082 107.532L69.572 107.816L71.653 106.615Z" fill="#F0E5D3"/>
<path d="M71.642 102.536L71.151 102.251L71.163 106.33L71.653 106.615L71.642 102.536Z" fill="#D8C8B8"/>
<path d="M69.404 103.639L68.915 103.354L68.928 107.81L69.417 108.094L69.404 103.639Z" fill="#D8C8B8"/>
<path d="M71.796 102.258L71.307 101.973L68.915 103.354L69.404 103.639L71.796 102.258Z" fill="#F0E5D3"/>
<path d="M69.404 103.639L69.417 108.095L71.809 106.715L71.796 102.259L69.404 103.639ZM69.561 103.738L71.642 102.536L71.654 106.615L69.573 107.817L69.561 103.738Z" fill="#A19181"/>
<path d="M74.631 106.231L73.161 105.377L73.162 105.795L74.632 106.649L74.631 106.231Z" fill="#D8C8B8"/>
<path d="M77.023 104.85L75.553 103.997L73.161 105.377L74.631 106.231L77.023 104.85Z" fill="#F0E5D3"/>
<path d="M74.631 106.231L74.632 106.649L77.023 105.268V104.85L74.631 106.231Z" fill="#A19181"/>
<path d="M73.567 101.32L73.579 105.399L75.66 104.197L75.648 100.119L73.567 101.32Z" fill="#3A2E2F"/>
<path d="M75.899 104.197L75.409 103.913L73.328 105.114L73.818 105.399L75.899 104.197Z" fill="#F0E5D3"/>
<path d="M75.888 100.119L75.398 99.834L75.409 103.913L75.899 104.197L75.888 100.119Z" fill="#D8C8B8"/>
<path d="M73.651 101.221L73.161 100.936L73.174 105.393L73.663 105.677L73.651 101.221Z" fill="#D8C8B8"/>
<path d="M76.042 99.8399L75.553 99.5559L73.161 100.936L73.651 101.221L76.042 99.8399Z" fill="#F0E5D3"/>
<path d="M73.651 101.221L73.663 105.677L76.055 104.296L76.042 99.8398L73.651 101.221ZM73.807 101.32L75.888 100.118L75.9 104.197L73.819 105.399L73.807 101.32Z" fill="#A19181"/>
<path d="M78.64 103.846L77.17 102.992L77.171 103.41L78.641 104.264L78.64 103.846Z" fill="#D8C8B8"/>
<path d="M81.031 102.465L79.562 101.611L77.17 102.992L78.64 103.846L81.031 102.465Z" fill="#F0E5D3"/>
<path d="M78.64 103.846L78.641 104.264L81.032 102.883L81.031 102.465L78.64 103.846Z" fill="#A19181"/>
<path d="M77.576 98.9349L77.588 103.014L79.669 101.812L79.657 97.7329L77.576 98.9349Z" fill="#3A2E2F"/>
<path d="M79.908 101.812L79.418 101.527L77.337 102.729L77.827 103.014L79.908 101.812Z" fill="#F0E5D3"/>
<path d="M79.897 97.733L79.406 97.449L79.418 101.527L79.908 101.812L79.897 97.733Z" fill="#D8C8B8"/>
<path d="M77.66 98.836L77.17 98.551L77.183 103.007L77.672 103.292L77.66 98.836Z" fill="#D8C8B8"/>
<path d="M80.051 97.4549L79.562 97.1699L77.17 98.5509L77.66 98.8359L80.051 97.4549Z" fill="#F0E5D3"/>
<path d="M77.66 98.8358L77.673 103.292L80.064 101.911L80.051 97.4548L77.66 98.8358ZM77.816 98.9348L79.897 97.7328L79.909 101.812L77.828 103.014L77.816 98.9348Z" fill="#A19181"/>
<path d="M58.015 123.206L56.545 122.352L56.546 122.77L58.016 123.624L58.015 123.206Z" fill="#D8C8B8"/>
<path d="M60.405 121.825L58.937 120.972L56.545 122.352L58.015 123.206L60.405 121.825Z" fill="#F0E5D3"/>
<path d="M58.015 123.206L58.016 123.624L60.407 122.243L60.405 121.825L58.015 123.206Z" fill="#A19181"/>
<path d="M56.951 118.295L56.963 122.374L59.044 121.172L59.032 117.094L56.951 118.295Z" fill="#3A2E2F"/>
<path d="M59.283 121.172L58.793 120.888L56.712 122.089L57.202 122.374L59.283 121.172Z" fill="#F0E5D3"/>
<path d="M59.272 117.094L58.781 116.809L58.793 120.888L59.283 121.172L59.272 117.094Z" fill="#D8C8B8"/>
<path d="M57.034 118.196L56.545 117.912L56.558 122.368L57.047 122.652L57.034 118.196Z" fill="#D8C8B8"/>
<path d="M59.426 116.815L58.937 116.531L56.545 117.912L57.034 118.196L59.426 116.815Z" fill="#F0E5D3"/>
<path d="M57.034 118.196L57.047 122.652L59.439 121.272L59.426 116.816L57.034 118.196ZM57.191 118.295L59.272 117.094L59.284 121.173L57.203 122.374L57.191 118.295Z" fill="#A19181"/>
<path d="M62.261 120.788L60.791 119.935L60.792 120.353L62.262 121.207L62.261 120.788Z" fill="#D8C8B8"/>
<path d="M64.652 119.408L63.183 118.554L60.791 119.935L62.261 120.788L64.652 119.408Z" fill="#F0E5D3"/>
<path d="M62.261 120.788L62.262 121.207L64.653 119.826L64.652 119.408L62.261 120.788Z" fill="#A19181"/>
<path d="M61.197 115.878L61.209 119.956L63.29 118.755L63.278 114.676L61.197 115.878Z" fill="#3A2E2F"/>
<path d="M63.529 118.755L63.039 118.47L60.958 119.672L61.448 119.956L63.529 118.755Z" fill="#F0E5D3"/>
<path d="M63.518 114.676L63.027 114.391L63.039 118.47L63.529 118.755L63.518 114.676Z" fill="#D8C8B8"/>
<path d="M61.281 115.779L60.791 115.494L60.804 119.95L61.294 120.235L61.281 115.779Z" fill="#D8C8B8"/>
<path d="M63.673 114.398L63.183 114.113L60.791 115.494L61.281 115.779L63.673 114.398Z" fill="#F0E5D3"/>
<path d="M61.281 115.779L61.294 120.235L63.685 118.854L63.673 114.398L61.281 115.779ZM61.437 115.878L63.518 114.676L63.53 118.755L61.449 119.957L61.437 115.878Z" fill="#A19181"/>
<path d="M66.27 118.403L64.8 117.549L64.801 117.968L66.271 118.822L66.27 118.403Z" fill="#D8C8B8"/>
<path d="M68.661 117.023L67.191 116.169L64.8 117.549L66.27 118.403L68.661 117.023Z" fill="#F0E5D3"/>
<path d="M66.27 118.403L66.271 118.822L68.662 117.441L68.661 117.023L66.27 118.403Z" fill="#A19181"/>
<path d="M65.206 113.493L65.218 117.571L67.299 116.37L67.287 112.291L65.206 113.493Z" fill="#3A2E2F"/>
<path d="M67.538 116.37L67.048 116.085L64.968 117.287L65.457 117.571L67.538 116.37Z" fill="#F0E5D3"/>
<path d="M67.526 112.291L67.037 112.006L67.048 116.085L67.538 116.37L67.526 112.291Z" fill="#D8C8B8"/>
<path d="M65.29 113.393L64.8 113.109L64.813 117.565L65.303 117.85L65.29 113.393Z" fill="#D8C8B8"/>
<path d="M67.682 112.013L67.191 111.728L64.8 113.109L65.29 113.393L67.682 112.013Z" fill="#F0E5D3"/>
<path d="M65.29 113.393L65.303 117.849L67.694 116.468L67.682 112.012L65.29 113.393ZM65.445 113.493L67.526 112.291L67.538 116.37L65.457 117.572L65.445 113.493Z" fill="#A19181"/>
<path d="M70.384 116.155L68.915 115.301L68.916 115.719L70.386 116.573L70.384 116.155Z" fill="#D8C8B8"/>
<path d="M72.775 114.774L71.307 113.92L68.915 115.301L70.384 116.155L72.775 114.774Z" fill="#F0E5D3"/>
<path d="M70.384 116.155L70.386 116.573L72.777 115.193L72.775 114.774L70.384 116.155Z" fill="#A19181"/>
<path d="M69.321 111.244L69.333 115.323L71.414 114.122L71.402 110.043L69.321 111.244Z" fill="#3A2E2F"/>
<path d="M71.653 114.122L71.163 113.837L69.082 115.038L69.572 115.323L71.653 114.122Z" fill="#F0E5D3"/>
<path d="M71.642 110.043L71.151 109.758L71.163 113.837L71.653 114.122L71.642 110.043Z" fill="#D8C8B8"/>
<path d="M69.404 111.145L68.915 110.861L68.928 115.317L69.417 115.602L69.404 111.145Z" fill="#D8C8B8"/>
<path d="M71.796 109.765L71.307 109.48L68.915 110.861L69.404 111.145L71.796 109.765Z" fill="#F0E5D3"/>
<path d="M69.404 111.145L69.417 115.601L71.809 114.22L71.796 109.764L69.404 111.145ZM69.561 111.244L71.642 110.043L71.654 114.122L69.573 115.324L69.561 111.244Z" fill="#A19181"/>
<path d="M74.631 113.738L73.161 112.884L73.162 113.302L74.632 114.156L74.631 113.738Z" fill="#D8C8B8"/>
<path d="M77.023 112.357L75.553 111.503L73.161 112.884L74.631 113.738L77.023 112.357Z" fill="#F0E5D3"/>
<path d="M74.631 113.738L74.632 114.156L77.023 112.775V112.357L74.631 113.738Z" fill="#A19181"/>
<path d="M73.567 108.827L73.579 112.906L75.66 111.704L75.648 107.625L73.567 108.827Z" fill="#3A2E2F"/>
<path d="M75.899 111.704L75.409 111.419L73.328 112.621L73.818 112.906L75.899 111.704Z" fill="#F0E5D3"/>
<path d="M75.888 107.625L75.398 107.341L75.409 111.419L75.899 111.704L75.888 107.625Z" fill="#D8C8B8"/>
<path d="M73.651 108.728L73.161 108.443L73.174 112.899L73.663 113.184L73.651 108.728Z" fill="#D8C8B8"/>
<path d="M76.042 107.347L75.553 107.062L73.161 108.443L73.651 108.728L76.042 107.347Z" fill="#F0E5D3"/>
<path d="M73.651 108.728L73.663 113.184L76.055 111.803L76.042 107.347L73.651 108.728ZM73.807 108.827L75.888 107.625L75.9 111.704L73.819 112.905L73.807 108.827Z" fill="#A19181"/>
<path d="M78.64 111.352L77.17 110.499L77.171 110.917L78.641 111.771L78.64 111.352Z" fill="#D8C8B8"/>
<path d="M81.031 109.972L79.562 109.118L77.17 110.499L78.64 111.352L81.031 109.972Z" fill="#F0E5D3"/>
<path d="M78.64 111.352L78.641 111.771L81.032 110.39L81.031 109.972L78.64 111.352Z" fill="#A19181"/>
<path d="M77.576 106.442L77.588 110.52L79.669 109.319L79.657 105.24L77.576 106.442Z" fill="#3A2E2F"/>
<path d="M79.908 109.319L79.418 109.034L77.337 110.236L77.827 110.52L79.908 109.319Z" fill="#F0E5D3"/>
<path d="M79.897 105.24L79.406 104.956L79.418 109.034L79.908 109.319L79.897 105.24Z" fill="#D8C8B8"/>
<path d="M77.66 106.343L77.17 106.058L77.183 110.514L77.672 110.799L77.66 106.343Z" fill="#D8C8B8"/>
<path d="M80.051 104.962L79.562 104.677L77.17 106.058L77.66 106.343L80.051 104.962Z" fill="#F0E5D3"/>
<path d="M77.66 106.343L77.673 110.799L80.064 109.418L80.051 104.962L77.66 106.343ZM77.816 106.442L79.897 105.24L79.909 109.319L77.828 110.521L77.816 106.442Z" fill="#A19181"/>
<path d="M58.015 130.227L56.545 129.374L56.546 129.792L58.016 130.646L58.015 130.227Z" fill="#D8C8B8"/>
<path d="M60.405 128.847L58.937 127.993L56.545 129.374L58.015 130.227L60.405 128.847Z" fill="#F0E5D3"/>
<path d="M58.015 130.227L58.016 130.646L60.407 129.265L60.405 128.847L58.015 130.227Z" fill="#A19181"/>
<path d="M56.951 125.317L56.963 129.395L59.044 128.194L59.032 124.115L56.951 125.317Z" fill="#3A2E2F"/>
<path d="M59.283 128.194L58.793 127.909L56.712 129.111L57.202 129.395L59.283 128.194Z" fill="#F0E5D3"/>
<path d="M59.272 124.115L58.781 123.831L58.793 127.909L59.283 128.194L59.272 124.115Z" fill="#D8C8B8"/>
<path d="M57.034 125.218L56.545 124.933L56.558 129.389L57.047 129.674L57.034 125.218Z" fill="#D8C8B8"/>
<path d="M59.426 123.837L58.937 123.552L56.545 124.933L57.034 125.218L59.426 123.837Z" fill="#F0E5D3"/>
<path d="M57.034 125.218L57.047 129.674L59.439 128.293L59.426 123.837L57.034 125.218ZM57.191 125.317L59.272 124.115L59.284 128.194L57.203 129.396L57.191 125.317Z" fill="#A19181"/>
<path d="M62.261 127.811L60.791 126.956L60.792 127.374L62.262 128.229L62.261 127.811Z" fill="#D8C8B8"/>
<path d="M64.652 126.43L63.183 125.576L60.791 126.956L62.261 127.811L64.652 126.43Z" fill="#F0E5D3"/>
<path d="M62.261 127.811L62.262 128.229L64.653 126.848L64.652 126.43L62.261 127.811Z" fill="#A19181"/>
<path d="M61.197 122.899L61.209 126.978L63.29 125.777L63.278 121.698L61.197 122.899Z" fill="#3A2E2F"/>
<path d="M63.529 125.777L63.039 125.492L60.958 126.693L61.448 126.978L63.529 125.777Z" fill="#F0E5D3"/>
<path d="M63.518 121.698L63.027 121.413L63.039 125.492L63.529 125.777L63.518 121.698Z" fill="#D8C8B8"/>
<path d="M61.281 122.8L60.791 122.516L60.804 126.972L61.294 127.256L61.281 122.8Z" fill="#D8C8B8"/>
<path d="M63.673 121.419L63.183 121.135L60.791 122.516L61.281 122.8L63.673 121.419Z" fill="#F0E5D3"/>
<path d="M61.281 122.8L61.294 127.256L63.685 125.875L63.673 121.419L61.281 122.8ZM61.437 122.899L63.518 121.697L63.53 125.776L61.449 126.977L61.437 122.899Z" fill="#A19181"/>
<path d="M66.27 125.425L64.8 124.571L64.801 124.989L66.271 125.843L66.27 125.425Z" fill="#D8C8B8"/>
<path d="M68.661 124.044L67.191 123.19L64.8 124.571L66.27 125.425L68.661 124.044Z" fill="#F0E5D3"/>
<path d="M66.27 125.425L66.271 125.843L68.662 124.462L68.661 124.044L66.27 125.425Z" fill="#A19181"/>
<path d="M65.206 120.514L65.218 124.593L67.299 123.391L67.287 119.312L65.206 120.514Z" fill="#3A2E2F"/>
<path d="M67.538 123.391L67.048 123.107L64.968 124.308L65.457 124.593L67.538 123.391Z" fill="#F0E5D3"/>
<path d="M67.526 119.312L67.037 119.028L67.048 123.107L67.538 123.391L67.526 119.312Z" fill="#D8C8B8"/>
<path d="M65.29 120.415L64.8 120.13L64.813 124.586L65.303 124.871L65.29 120.415Z" fill="#D8C8B8"/>
<path d="M67.682 119.034L67.191 118.749L64.8 120.13L65.29 120.415L67.682 119.034Z" fill="#F0E5D3"/>
<path d="M65.29 120.415L65.303 124.871L67.694 123.49L67.682 119.034L65.29 120.415ZM65.445 120.514L67.526 119.312L67.538 123.391L65.457 124.593L65.445 120.514Z" fill="#A19181"/>
<path d="M70.384 123.177L68.915 122.323L68.916 122.741L70.386 123.595L70.384 123.177Z" fill="#D8C8B8"/>
<path d="M72.775 121.796L71.307 120.942L68.915 122.323L70.384 123.177L72.775 121.796Z" fill="#F0E5D3"/>
<path d="M70.384 123.177L70.386 123.595L72.777 122.214L72.775 121.796L70.384 123.177Z" fill="#A19181"/>
<path d="M69.321 118.266L69.333 122.345L71.414 121.143L71.402 117.064L69.321 118.266Z" fill="#3A2E2F"/>
<path d="M71.653 121.143L71.163 120.859L69.082 122.06L69.572 122.345L71.653 121.143Z" fill="#F0E5D3"/>
<path d="M71.642 117.064L71.151 116.78L71.163 120.859L71.653 121.143L71.642 117.064Z" fill="#D8C8B8"/>
<path d="M69.404 118.167L68.915 117.882L68.928 122.338L69.417 122.623L69.404 118.167Z" fill="#D8C8B8"/>
<path d="M71.796 116.786L71.307 116.501L68.915 117.882L69.404 118.167L71.796 116.786Z" fill="#F0E5D3"/>
<path d="M69.404 118.167L69.417 122.623L71.809 121.242L71.796 116.786L69.404 118.167ZM69.561 118.266L71.642 117.064L71.654 121.143L69.573 122.345L69.561 118.266Z" fill="#A19181"/>
<path d="M74.631 120.76L73.161 119.906L73.162 120.324L74.632 121.178L74.631 120.76Z" fill="#D8C8B8"/>
<path d="M77.023 119.379L75.553 118.525L73.161 119.906L74.631 120.76L77.023 119.379Z" fill="#F0E5D3"/>
<path d="M74.631 120.76L74.632 121.178L77.023 119.797V119.379L74.631 120.76Z" fill="#A19181"/>
<path d="M73.567 115.849L73.579 119.927L75.66 118.726L75.648 114.647L73.567 115.849Z" fill="#3A2E2F"/>
<path d="M75.899 118.726L75.409 118.441L73.328 119.643L73.818 119.927L75.899 118.726Z" fill="#F0E5D3"/>
<path d="M75.888 114.647L75.398 114.363L75.409 118.441L75.899 118.726L75.888 114.647Z" fill="#D8C8B8"/>
<path d="M73.651 115.749L73.161 115.465L73.174 119.921L73.663 120.206L73.651 115.749Z" fill="#D8C8B8"/>
<path d="M76.042 114.369L75.553 114.084L73.161 115.465L73.651 115.749L76.042 114.369Z" fill="#F0E5D3"/>
<path d="M73.651 115.749L73.663 120.205L76.055 118.824L76.042 114.368L73.651 115.749ZM73.807 115.849L75.888 114.648L75.9 118.727L73.819 119.928L73.807 115.849Z" fill="#A19181"/>
<path d="M78.64 118.374L77.17 117.52L77.171 117.938L78.641 118.792L78.64 118.374Z" fill="#D8C8B8"/>
<path d="M81.031 116.994L79.562 116.14L77.17 117.52L78.64 118.374L81.031 116.994Z" fill="#F0E5D3"/>
<path d="M78.64 118.374L78.641 118.792L81.032 117.412L81.031 116.994L78.64 118.374Z" fill="#A19181"/>
<path d="M77.576 113.463L77.588 117.542L79.669 116.341L79.657 112.262L77.576 113.463Z" fill="#3A2E2F"/>
<path d="M79.908 116.341L79.418 116.056L77.337 117.257L77.827 117.542L79.908 116.341Z" fill="#F0E5D3"/>
<path d="M79.897 112.262L79.406 111.977L79.418 116.056L79.908 116.341L79.897 112.262Z" fill="#D8C8B8"/>
<path d="M77.66 113.364L77.17 113.079L77.183 117.536L77.672 117.82L77.66 113.364Z" fill="#D8C8B8"/>
<path d="M80.051 111.984L79.562 111.699L77.17 113.079L77.66 113.364L80.051 111.984Z" fill="#F0E5D3"/>
<path d="M77.66 113.364L77.673 117.82L80.064 116.439L80.051 111.983L77.66 113.364ZM77.816 113.463L79.897 112.262L79.909 116.341L77.828 117.542L77.816 113.463Z" fill="#A19181"/>
<path d="M58.015 137.295L56.545 136.441L56.546 136.859L58.016 137.713L58.015 137.295Z" fill="#D8C8B8"/>
<path d="M60.405 135.914L58.937 135.06L56.545 136.441L58.015 137.295L60.405 135.914Z" fill="#F0E5D3"/>
<path d="M58.015 137.295L58.016 137.713L60.407 136.333L60.405 135.914L58.015 137.295Z" fill="#A19181"/>
<path d="M56.951 132.384L56.963 136.463L59.044 135.261L59.032 131.183L56.951 132.384Z" fill="#3A2E2F"/>
<path d="M59.283 135.261L58.793 134.977L56.712 136.178L57.202 136.463L59.283 135.261Z" fill="#F0E5D3"/>
<path d="M59.272 131.183L58.781 130.898L58.793 134.977L59.283 135.261L59.272 131.183Z" fill="#D8C8B8"/>
<path d="M57.034 132.285L56.545 132L56.558 136.456L57.047 136.741L57.034 132.285Z" fill="#D8C8B8"/>
<path d="M59.426 130.904L58.937 130.62L56.545 132L57.034 132.285L59.426 130.904Z" fill="#F0E5D3"/>
<path d="M57.034 132.285L57.047 136.741L59.439 135.361L59.426 130.905L57.034 132.285ZM57.191 132.384L59.272 131.183L59.284 135.262L57.203 136.464L57.191 132.384Z" fill="#A19181"/>
<path d="M62.261 134.877L60.791 134.023L60.792 134.442L62.262 135.295L62.261 134.877Z" fill="#D8C8B8"/>
<path d="M64.652 133.497L63.183 132.643L60.791 134.023L62.261 134.877L64.652 133.497Z" fill="#F0E5D3"/>
<path d="M62.261 134.877L62.262 135.295L64.653 133.915L64.652 133.497L62.261 134.877Z" fill="#A19181"/>
<path d="M61.197 129.967L61.209 134.045L63.29 132.844L63.278 128.765L61.197 129.967Z" fill="#3A2E2F"/>
<path d="M63.529 132.844L63.039 132.559L60.958 133.761L61.448 134.045L63.529 132.844Z" fill="#F0E5D3"/>
<path d="M63.518 128.765L63.027 128.48L63.039 132.559L63.529 132.844L63.518 128.765Z" fill="#D8C8B8"/>
<path d="M61.281 129.868L60.791 129.583L60.804 134.039L61.294 134.324L61.281 129.868Z" fill="#D8C8B8"/>
<path d="M63.673 128.487L63.183 128.202L60.791 129.583L61.281 129.868L63.673 128.487Z" fill="#F0E5D3"/>
<path d="M61.281 129.868L61.294 134.324L63.685 132.943L63.673 128.487L61.281 129.868ZM61.437 129.967L63.518 128.765L63.53 132.844L61.449 134.046L61.437 129.967Z" fill="#A19181"/>
<path d="M66.27 132.492L64.8 131.638L64.801 132.057L66.271 132.91L66.27 132.492Z" fill="#D8C8B8"/>
<path d="M68.661 131.111L67.191 130.258L64.8 131.638L66.27 132.492L68.661 131.111Z" fill="#F0E5D3"/>
<path d="M66.27 132.492L66.271 132.91L68.662 131.53L68.661 131.111L66.27 132.492Z" fill="#A19181"/>
<path d="M65.206 127.581L65.218 131.66L67.299 130.458L67.287 126.38L65.206 127.581Z" fill="#3A2E2F"/>
<path d="M67.538 130.458L67.048 130.174L64.968 131.375L65.457 131.66L67.538 130.458Z" fill="#F0E5D3"/>
<path d="M67.526 126.38L67.037 126.095L67.048 130.174L67.538 130.458L67.526 126.38Z" fill="#D8C8B8"/>
<path d="M65.29 127.482L64.8 127.198L64.813 131.654L65.303 131.938L65.29 127.482Z" fill="#D8C8B8"/>
<path d="M67.682 126.102L67.191 125.817L64.8 127.198L65.29 127.482L67.682 126.102Z" fill="#F0E5D3"/>
<path d="M65.29 127.482L65.303 131.938L67.694 130.557L67.682 126.101L65.29 127.482ZM65.445 127.581L67.526 126.379L67.538 130.458L65.457 131.66L65.445 127.581Z" fill="#A19181"/>
<path d="M70.384 130.244L68.915 129.39L68.916 129.808L70.386 130.662L70.384 130.244Z" fill="#D8C8B8"/>
<path d="M72.775 128.863L71.307 128.01L68.915 129.39L70.384 130.244L72.775 128.863Z" fill="#F0E5D3"/>
<path d="M70.384 130.244L70.386 130.662L72.777 129.281L72.775 128.863L70.384 130.244Z" fill="#A19181"/>
<path d="M69.321 125.333L69.333 129.412L71.414 128.21L71.402 124.132L69.321 125.333Z" fill="#3A2E2F"/>
<path d="M71.653 128.21L71.163 127.926L69.082 129.127L69.572 129.412L71.653 128.21Z" fill="#F0E5D3"/>
<path d="M71.642 124.132L71.151 123.847L71.163 127.926L71.653 128.21L71.642 124.132Z" fill="#D8C8B8"/>
<path d="M69.404 125.234L68.915 124.95L68.928 129.406L69.417 129.69L69.404 125.234Z" fill="#D8C8B8"/>
<path d="M71.796 123.854L71.307 123.569L68.915 124.95L69.404 125.234L71.796 123.854Z" fill="#F0E5D3"/>
<path d="M69.404 125.234L69.417 129.69L71.809 128.31L71.796 123.854L69.404 125.234ZM69.561 125.333L71.642 124.131L71.654 128.21L69.573 129.411L69.561 125.333Z" fill="#A19181"/>
<path d="M74.631 127.827L73.161 126.973L73.162 127.391L74.632 128.245L74.631 127.827Z" fill="#D8C8B8"/>
<path d="M77.023 126.446L75.553 125.592L73.161 126.973L74.631 127.827L77.023 126.446Z" fill="#F0E5D3"/>
<path d="M74.631 127.827L74.632 128.245L77.023 126.864V126.446L74.631 127.827Z" fill="#A19181"/>
<path d="M73.567 122.916L73.579 126.995L75.66 125.793L75.648 121.714L73.567 122.916Z" fill="#3A2E2F"/>
<path d="M75.899 125.793L75.409 125.509L73.328 126.71L73.818 126.995L75.899 125.793Z" fill="#F0E5D3"/>
<path d="M75.888 121.714L75.398 121.43L75.409 125.509L75.899 125.793L75.888 121.714Z" fill="#D8C8B8"/>
<path d="M73.651 122.817L73.161 122.532L73.174 126.988L73.663 127.273L73.651 122.817Z" fill="#D8C8B8"/>
<path d="M76.042 121.436L75.553 121.151L73.161 122.532L73.651 122.817L76.042 121.436Z" fill="#F0E5D3"/>
<path d="M73.651 122.817L73.663 127.273L76.055 125.892L76.042 121.436L73.651 122.817ZM73.807 122.916L75.888 121.714L75.9 125.793L73.819 126.995L73.807 122.916Z" fill="#A19181"/>
<path d="M78.64 125.441L77.17 124.588L77.171 125.006L78.641 125.86L78.64 125.441Z" fill="#D8C8B8"/>
<path d="M81.031 124.061L79.562 123.207L77.17 124.588L78.64 125.441L81.031 124.061Z" fill="#F0E5D3"/>
<path d="M78.64 125.441L78.641 125.86L81.032 124.479L81.031 124.061L78.64 125.441Z" fill="#A19181"/>
<path d="M77.576 120.531L77.588 124.609L79.669 123.408L79.657 119.329L77.576 120.531Z" fill="#3A2E2F"/>
<path d="M79.908 123.408L79.418 123.123L77.337 124.325L77.827 124.609L79.908 123.408Z" fill="#F0E5D3"/>
<path d="M79.897 119.329L79.406 119.044L79.418 123.123L79.908 123.408L79.897 119.329Z" fill="#D8C8B8"/>
<path d="M77.66 120.432L77.17 120.147L77.183 124.603L77.672 124.888L77.66 120.432Z" fill="#D8C8B8"/>
<path d="M80.051 119.051L79.562 118.766L77.17 120.147L77.66 120.432L80.051 119.051Z" fill="#F0E5D3"/>
<path d="M77.66 120.432L77.673 124.888L80.064 123.507L80.051 119.051L77.66 120.432ZM77.816 120.531L79.897 119.329L79.909 123.408L77.828 124.61L77.816 120.531Z" fill="#A19181"/>
<path d="M58.015 144.351L56.545 143.497L56.546 143.915L58.016 144.769L58.015 144.351Z" fill="#D8C8B8"/>
<path d="M60.405 142.97L58.937 142.116L56.545 143.497L58.015 144.351L60.405 142.97Z" fill="#F0E5D3"/>
<path d="M58.015 144.351L58.016 144.769L60.407 143.388L60.405 142.97L58.015 144.351Z" fill="#A19181"/>
<path d="M56.951 139.44L56.963 143.518L59.044 142.317L59.032 138.239L56.951 139.44Z" fill="#3A2E2F"/>
<path d="M59.283 142.317L58.793 142.033L56.712 143.234L57.202 143.518L59.283 142.317Z" fill="#F0E5D3"/>
<path d="M59.272 138.239L58.781 137.954L58.793 142.033L59.283 142.317L59.272 138.239Z" fill="#D8C8B8"/>
<path d="M57.034 139.341L56.545 139.056L56.558 143.512L57.047 143.797L57.034 139.341Z" fill="#D8C8B8"/>
<path d="M59.426 137.96L58.937 137.676L56.545 139.056L57.034 139.341L59.426 137.96Z" fill="#F0E5D3"/>
<path d="M57.034 139.341L57.047 143.797L59.439 142.416L59.426 137.96L57.034 139.341ZM57.191 139.44L59.272 138.239L59.284 142.318L57.203 143.519L57.191 139.44Z" fill="#A19181"/>
<path d="M62.261 141.934L60.791 141.079L60.792 141.497L62.262 142.352L62.261 141.934Z" fill="#D8C8B8"/>
<path d="M64.652 140.553L63.183 139.699L60.791 141.079L62.261 141.934L64.652 140.553Z" fill="#F0E5D3"/>
<path d="M62.261 141.934L62.262 142.352L64.653 140.971L64.652 140.553L62.261 141.934Z" fill="#A19181"/>
<path d="M61.197 137.022L61.209 141.102L63.29 139.9L63.278 135.821L61.197 137.022Z" fill="#3A2E2F"/>
<path d="M63.529 139.9L63.039 139.615L60.958 140.817L61.448 141.102L63.529 139.9Z" fill="#F0E5D3"/>
<path d="M63.518 135.821L63.027 135.537L63.039 139.615L63.529 139.9L63.518 135.821Z" fill="#D8C8B8"/>
<path d="M61.281 136.924L60.791 136.639L60.804 141.095L61.294 141.38L61.281 136.924Z" fill="#D8C8B8"/>
<path d="M63.673 135.543L63.183 135.258L60.791 136.639L61.281 136.924L63.673 135.543Z" fill="#F0E5D3"/>
<path d="M61.281 136.924L61.294 141.38L63.685 139.999L63.673 135.543L61.281 136.924ZM61.437 137.022L63.518 135.821L63.53 139.9L61.449 141.102L61.437 137.022Z" fill="#A19181"/>
<path d="M66.27 139.548L64.8 138.694L64.801 139.112L66.271 139.966L66.27 139.548Z" fill="#D8C8B8"/>
<path d="M68.661 138.167L67.191 137.313L64.8 138.694L66.27 139.548L68.661 138.167Z" fill="#F0E5D3"/>
<path d="M66.27 139.548L66.271 139.966L68.662 138.585L68.661 138.167L66.27 139.548Z" fill="#A19181"/>
<path d="M65.206 134.637L65.218 138.716L67.299 137.515L67.287 133.436L65.206 134.637Z" fill="#3A2E2F"/>
<path d="M67.538 137.515L67.048 137.23L64.968 138.432L65.457 138.716L67.538 137.515Z" fill="#F0E5D3"/>
<path d="M67.526 133.436L67.037 133.151L67.048 137.23L67.538 137.515L67.526 133.436Z" fill="#D8C8B8"/>
<path d="M65.29 134.538L64.8 134.254L64.813 138.71L65.303 138.994L65.29 134.538Z" fill="#D8C8B8"/>
<path d="M67.682 133.158L67.191 132.873L64.8 134.254L65.29 134.538L67.682 133.158Z" fill="#F0E5D3"/>
<path d="M65.29 134.538L65.303 138.994L67.694 137.614L67.682 133.158L65.29 134.538ZM65.445 134.637L67.526 133.436L67.538 137.515L65.457 138.717L65.445 134.637Z" fill="#A19181"/>
<path d="M70.384 137.3L68.915 136.446L68.916 136.864L70.386 137.718L70.384 137.3Z" fill="#D8C8B8"/>
<path d="M72.775 135.919L71.307 135.065L68.915 136.446L70.384 137.3L72.775 135.919Z" fill="#F0E5D3"/>
<path d="M70.384 137.3L70.386 137.718L72.777 136.337L72.775 135.919L70.384 137.3Z" fill="#A19181"/>
<path d="M69.321 132.389L69.333 136.468L71.414 135.266L71.402 131.188L69.321 132.389Z" fill="#3A2E2F"/>
<path d="M71.653 135.266L71.163 134.982L69.082 136.183L69.572 136.468L71.653 135.266Z" fill="#F0E5D3"/>
<path d="M71.642 131.188L71.151 130.903L71.163 134.982L71.653 135.266L71.642 131.188Z" fill="#D8C8B8"/>
<path d="M69.404 132.29L68.915 132.006L68.928 136.461L69.417 136.746L69.404 132.29Z" fill="#D8C8B8"/>
<path d="M71.796 130.91L71.307 130.625L68.915 132.006L69.404 132.29L71.796 130.91Z" fill="#F0E5D3"/>
<path d="M69.404 132.29L69.417 136.746L71.809 135.365L71.796 130.909L69.404 132.29ZM69.561 132.389L71.642 131.188L71.654 135.267L69.573 136.468L69.561 132.389Z" fill="#A19181"/>
<path d="M74.631 134.883L73.161 134.029L73.162 134.447L74.632 135.301L74.631 134.883Z" fill="#D8C8B8"/>
<path d="M77.023 133.502L75.553 132.648L73.161 134.029L74.631 134.883L77.023 133.502Z" fill="#F0E5D3"/>
<path d="M74.631 134.883L74.632 135.301L77.023 133.92V133.502L74.631 134.883Z" fill="#A19181"/>
<path d="M73.567 129.972L73.579 134.051L75.66 132.849L75.648 128.77L73.567 129.972Z" fill="#3A2E2F"/>
<path d="M75.899 132.849L75.409 132.564L73.328 133.766L73.818 134.051L75.899 132.849Z" fill="#F0E5D3"/>
<path d="M75.888 128.77L75.398 128.486L75.409 132.564L75.899 132.849L75.888 128.77Z" fill="#D8C8B8"/>
<path d="M73.651 129.873L73.161 129.588L73.174 134.044L73.663 134.329L73.651 129.873Z" fill="#D8C8B8"/>
<path d="M76.042 128.492L75.553 128.208L73.161 129.588L73.651 129.873L76.042 128.492Z" fill="#F0E5D3"/>
<path d="M73.651 129.873L73.663 134.329L76.055 132.949L76.042 128.493L73.651 129.873ZM73.807 129.972L75.888 128.77L75.9 132.849L73.819 134.051L73.807 129.972Z" fill="#A19181"/>
<path d="M78.64 132.497L77.17 131.643L77.171 132.061L78.641 132.915L78.64 132.497Z" fill="#D8C8B8"/>
<path d="M81.031 131.117L79.562 130.263L77.17 131.643L78.64 132.497L81.031 131.117Z" fill="#F0E5D3"/>
<path d="M78.64 132.497L78.641 132.915L81.032 131.535L81.031 131.117L78.64 132.497Z" fill="#A19181"/>
<path d="M77.576 127.586L77.588 131.665L79.669 130.464L79.657 126.385L77.576 127.586Z" fill="#3A2E2F"/>
<path d="M79.908 130.464L79.418 130.179L77.337 131.381L77.827 131.665L79.908 130.464Z" fill="#F0E5D3"/>
<path d="M79.897 126.385L79.406 126.1L79.418 130.179L79.908 130.464L79.897 126.385Z" fill="#D8C8B8"/>
<path d="M77.66 127.488L77.17 127.203L77.183 131.659L77.672 131.944L77.66 127.488Z" fill="#D8C8B8"/>
<path d="M80.051 126.107L79.562 125.822L77.17 127.203L77.66 127.488L80.051 126.107Z" fill="#F0E5D3"/>
<path d="M77.66 127.488L77.673 131.944L80.064 130.563L80.051 126.107L77.66 127.488ZM77.816 127.586L79.897 126.385L79.909 130.464L77.828 131.666L77.816 127.586Z" fill="#A19181"/>
</svg>
