<svg width="94" height="90" viewBox="0 0 94 90" fill="none" xmlns="http://www.w3.org/2000/svg">
<path d="M44.003 19.5439L54.508 13.4399L54.395 53.1459L43.891 59.2499L44.003 19.5439Z" fill="#928A6B"/>
<path d="M26.697 9.55301L37.201 3.448L54.508 13.44L44.003 19.544L26.697 9.55301Z" fill="#FFFCF0"/>
<path d="M44.003 19.544L43.891 59.25L26.585 49.258L26.697 9.55298L44.003 19.544Z" fill="#C2BA9B"/>
<path d="M44.003 19.638L43.892 58.829L26.586 48.838L26.696 9.64697L44.003 19.638Z" fill="#182C4D"/>
<path d="M26.972 43.998L27.672 43.5911L27.659 47.942L26.959 48.3501L26.972 43.998Z" fill="#928A6B"/>
<path d="M26.959 48.3499L27.659 47.9419L31.522 50.1739L30.822 50.5799L26.959 48.3499Z" fill="#FFFCF0"/>
<path d="M31.2031 46.4409L31.9031 46.0339L31.8911 50.3859L31.1901 50.7929L31.2031 46.4409Z" fill="#928A6B"/>
<path d="M31.1901 50.793L31.8911 50.386L35.7541 52.616L35.054 53.023L31.1901 50.793Z" fill="#FFFCF0"/>
<path d="M26.987 38.523L27.688 38.116L27.675 42.473L26.975 42.879L26.987 38.523Z" fill="#928A6B"/>
<path d="M26.975 42.8789L27.675 42.4729L31.538 44.7029L30.838 45.1089L26.975 42.8789Z" fill="#FFFCF0"/>
<path d="M35.438 48.886L36.1381 48.479L36.1251 52.83L35.425 53.237L35.438 48.886Z" fill="#928A6B"/>
<path d="M35.425 53.2371L36.1251 52.8301L39.9881 55.0611L39.2881 55.4681L35.425 53.2371Z" fill="#FFFCF0"/>
<path d="M31.2191 40.9671L31.9191 40.5601L31.9061 44.9151L31.2061 45.3221L31.2191 40.9671Z" fill="#928A6B"/>
<path d="M31.2061 45.322L31.9061 44.915L35.7701 47.146L35.0691 47.553L31.2061 45.322Z" fill="#FFFCF0"/>
<path d="M27.003 33.053L27.703 32.646L27.69 36.998L26.99 37.404L27.003 33.053Z" fill="#928A6B"/>
<path d="M26.99 37.4041L27.69 36.998L31.554 39.2291L30.853 39.6351L26.99 37.4041Z" fill="#FFFCF0"/>
<path d="M39.6721 51.33L40.3721 50.9241L40.3591 55.2751L39.6591 55.6831L39.6721 51.33Z" fill="#928A6B"/>
<path d="M39.6591 55.6829L40.3591 55.2749L44.2231 57.5059L43.5221 57.9129L39.6591 55.6829Z" fill="#FFFCF0"/>
<path d="M35.4531 43.4109L36.1531 43.0039L36.1411 47.3589L35.4401 47.7669L35.4531 43.4109Z" fill="#928A6B"/>
<path d="M35.4401 47.7669L36.1411 47.3589L40.0041 49.5909L39.304 49.9969L35.4401 47.7669Z" fill="#FFFCF0"/>
<path d="M31.2331 35.4959L31.9341 35.0889L31.9221 39.4399L31.222 39.8479L31.2331 35.4959Z" fill="#928A6B"/>
<path d="M31.222 39.8479L31.9221 39.4399L35.7851 41.6709L35.0851 42.0779L31.222 39.8479Z" fill="#FFFCF0"/>
<path d="M27.018 27.5779L27.719 27.1719L27.706 31.5229L27.006 31.9309L27.018 27.5779Z" fill="#928A6B"/>
<path d="M27.006 31.9309L27.706 31.5229L31.569 33.7539L30.869 34.1609L27.006 31.9309Z" fill="#FFFCF0"/>
<path d="M39.688 45.857L40.3881 45.449L40.3751 49.805L39.675 50.212L39.688 45.857Z" fill="#928A6B"/>
<path d="M39.675 50.2119L40.3751 49.8049L44.2381 52.0349L43.5381 52.4419L39.675 50.2119Z" fill="#FFFCF0"/>
<path d="M35.4691 37.94L36.1691 37.533L36.1561 41.886L35.4561 42.292L35.4691 37.94Z" fill="#928A6B"/>
<path d="M35.4561 42.292L36.1561 41.886L40.0201 44.116L39.3191 44.522L35.4561 42.292Z" fill="#FFFCF0"/>
<path d="M31.2491 30.022L31.9491 29.614L31.938 33.966L31.2371 34.373L31.2491 30.022Z" fill="#928A6B"/>
<path d="M31.2371 34.373L31.938 33.9661L35.8011 36.1961L35.1011 36.6041L31.2371 34.373Z" fill="#FFFCF0"/>
<path d="M27.033 22.1079L27.733 21.7009L27.722 26.0529L27.021 26.4599L27.033 22.1079Z" fill="#928A6B"/>
<path d="M27.021 26.46L27.722 26.053L31.585 28.283L30.885 28.69L27.021 26.46Z" fill="#FFFCF0"/>
<path d="M39.7031 40.386L40.4031 39.979L40.3911 44.33L39.6901 44.737L39.7031 40.386Z" fill="#928A6B"/>
<path d="M39.6901 44.7371L40.3911 44.3301L44.2541 46.5611L43.554 46.9681L39.6901 44.7371Z" fill="#FFFCF0"/>
<path d="M35.4831 32.4661L36.1841 32.0601L36.1721 36.4111L35.472 36.8181L35.4831 32.4661Z" fill="#928A6B"/>
<path d="M35.472 36.8181L36.1721 36.4111L40.0351 38.6421L39.3351 39.0491L35.472 36.8181Z" fill="#FFFCF0"/>
<path d="M31.2651 24.551L31.9651 24.144L31.9531 28.495L31.2531 28.902L31.2651 24.551Z" fill="#928A6B"/>
<path d="M31.2531 28.9021L31.9531 28.4951L35.8161 30.7261L35.1161 31.1331L31.2531 28.9021Z" fill="#FFFCF0"/>
<path d="M27.049 16.6341L27.749 16.2271L27.737 20.5781L27.037 20.985L27.049 16.6341Z" fill="#928A6B"/>
<path d="M27.037 20.9851L27.737 20.5781L31.601 22.8091L30.9 23.2161L27.037 20.9851Z" fill="#FFFCF0"/>
<path d="M39.7191 34.9109L40.4191 34.5039L40.4061 38.8549L39.7061 39.2629L39.7191 34.9109Z" fill="#928A6B"/>
<path d="M39.7061 39.263L40.4061 38.855L44.2701 41.086L43.5691 41.493L39.7061 39.263Z" fill="#FFFCF0"/>
<path d="M35.4991 26.9949L36.1991 26.5889L36.188 30.9399L35.4871 31.3479L35.4991 26.9949Z" fill="#928A6B"/>
<path d="M35.4871 31.3479L36.188 30.9399L40.0511 33.1709L39.3511 33.5779L35.4871 31.3479Z" fill="#FFFCF0"/>
<path d="M31.2801 19.0759L31.9801 18.6689L31.9691 23.0219L31.2681 23.4279L31.2801 19.0759Z" fill="#928A6B"/>
<path d="M31.2681 23.428L31.9691 23.022L35.8321 25.252L35.132 25.658L31.2681 23.428Z" fill="#FFFCF0"/>
<path d="M27.053 15.5149L27.753 15.1079L31.616 17.3379L30.916 17.7449L27.053 15.5149Z" fill="#FFFCF0"/>
<path d="M26.697 9.55301L27.397 9.146L27.769 9.35901L27.068 9.767L26.697 9.55301Z" fill="#FFFCF0"/>
<path d="M27.068 9.76688L27.769 9.35889L27.753 15.1079L27.053 15.5149L27.068 9.76688Z" fill="#928A6B"/>
<path d="M39.7331 29.44L40.4341 29.033L40.4221 33.385L39.722 33.792L39.7331 29.44Z" fill="#928A6B"/>
<path d="M39.722 33.792L40.4221 33.385L44.2851 35.615L43.5851 36.022L39.722 33.792Z" fill="#FFFCF0"/>
<path d="M35.5151 21.522L36.2151 21.114L36.2031 25.466L35.5031 25.873L35.5151 21.522Z" fill="#928A6B"/>
<path d="M35.5031 25.873L36.2031 25.4661L40.0661 27.6961L39.3661 28.1041L35.5031 25.873Z" fill="#FFFCF0"/>
<path d="M31.283 17.957L31.983 17.551L35.848 19.781L35.146 20.188L31.283 17.957Z" fill="#FFFCF0"/>
<path d="M31.3 12.21L32 11.803L31.983 17.551L31.283 17.957L31.3 12.21Z" fill="#928A6B"/>
<path d="M30.932 11.9971L31.632 11.5901L32 11.8031L31.3 12.2101L30.932 11.9971Z" fill="#FFFCF0"/>
<path d="M39.7491 23.9661L40.4491 23.5591L40.438 27.9101L39.7371 28.3171L39.7491 23.9661Z" fill="#928A6B"/>
<path d="M39.7371 28.3169L40.438 27.9099L44.3011 30.1419L43.6011 30.5479L39.7371 28.3169Z" fill="#FFFCF0"/>
<path d="M35.5181 20.4021L36.2191 19.9951L40.0821 22.2261L39.3811 22.6331L35.5181 20.4021Z" fill="#FFFCF0"/>
<path d="M35.163 14.44L35.863 14.033L36.234 14.247L35.534 14.654L35.163 14.44Z" fill="#FFFCF0"/>
<path d="M35.5341 14.6541L36.2341 14.2471L36.2191 19.9951L35.5181 20.4021L35.5341 14.6541Z" fill="#928A6B"/>
<path d="M39.7531 22.8469L40.4531 22.4399L44.3161 24.6709L43.6161 25.0769L39.7531 22.8469Z" fill="#FFFCF0"/>
<path d="M39.7691 17.0999L40.4691 16.6919L40.4531 22.4399L39.7531 22.8469L39.7691 17.0999Z" fill="#928A6B"/>
<path d="M39.397 16.885L40.098 16.478L40.469 16.692L39.769 17.1L39.397 16.885Z" fill="#FFFCF0"/>
<path d="M43.632 19.3301L44.332 18.9231L44.703 19.1371L44.003 19.5441L43.632 19.3301Z" fill="#FFFCF0"/>
<path d="M43.632 19.33L43.616 25.077L39.753 22.847L39.769 17.1L39.398 16.885L39.381 22.633L35.518 20.403L35.535 14.655L35.164 14.441L35.147 20.188L31.284 17.958L31.301 12.211L30.933 11.998L30.917 17.746L27.054 15.516L27.07 9.76797L26.699 9.55396L26.587 49.259L43.893 59.251L44.005 19.545L43.632 19.33ZM30.822 50.58L26.959 48.35L26.972 43.998L30.835 46.228L30.822 50.58ZM30.838 45.109L26.975 42.879L26.988 38.524L30.851 40.754L30.838 45.109ZM30.853 39.635L26.99 37.405L27.003 33.053L30.866 35.283L30.853 39.635ZM30.869 34.161L27.006 31.931L27.019 27.578L30.882 29.808L30.869 34.161ZM30.885 28.69L27.022 26.46L27.034 22.108L30.897 24.338L30.885 28.69ZM30.9 23.216L27.037 20.986L27.049 16.634L30.912 18.864L30.9 23.216ZM35.054 53.023L31.191 50.793L31.204 46.441L35.067 48.671L35.054 53.023ZM35.069 47.553L31.206 45.323L31.219 40.968L35.082 43.198L35.069 47.553ZM35.085 42.078L31.222 39.848L31.234 35.496L35.098 37.726L35.085 42.078ZM35.101 36.604L31.238 34.374L31.25 30.022L35.113 32.252L35.101 36.604ZM35.116 31.133L31.253 28.903L31.265 24.551L35.128 26.781L35.116 31.133ZM35.132 25.658L31.268 23.428L31.281 19.076L35.144 21.306L35.132 25.658ZM39.288 55.468L35.425 53.238L35.438 48.886L39.301 51.116L39.288 55.468ZM39.304 49.997L35.441 47.767L35.454 43.412L39.317 45.642L39.304 49.997ZM39.319 44.522L35.456 42.292L35.469 37.94L39.332 40.17L39.319 44.522ZM39.335 39.049L35.472 36.819L35.484 32.467L39.347 34.697L39.335 39.049ZM39.351 33.578L35.488 31.348L35.5 26.996L39.363 29.226L39.351 33.578ZM39.366 28.104L35.503 25.874L35.515 21.522L39.378 23.752L39.366 28.104ZM43.522 57.913L39.659 55.683L39.672 51.33L43.535 53.56L43.522 57.913ZM43.538 52.442L39.675 50.212L39.688 45.857L43.551 48.087L43.538 52.442ZM43.554 46.968L39.691 44.738L39.704 40.386L43.567 42.616L43.554 46.968ZM43.569 41.493L39.706 39.263L39.719 34.911L43.582 37.141L43.569 41.493ZM43.585 36.022L39.722 33.792L39.734 29.44L43.597 31.67L43.585 36.022ZM43.601 30.548L39.738 28.318L39.75 23.966L43.613 26.196L43.601 30.548Z" fill="#C2BA9B"/>
<path d="M44.003 19.544L44.703 19.137L44.591 58.843L43.891 59.25L44.003 19.544Z" fill="#928A6B"/>
<path d="M43.653 17.3219L54.508 11.0139L54.5 13.4409L43.646 19.7489L43.653 17.3219Z" fill="#928A6B"/>
<path d="M25.335 6.74597L36.189 0.438965L54.508 11.014L43.653 17.322L25.335 6.74597Z" fill="#FFFCF0"/>
<path d="M43.653 17.3221L43.646 19.7491L25.328 9.1741L25.335 6.74609L43.653 17.3221Z" fill="#C2BA9B"/>
<path d="M18.135 36.3541L32.141 28.2141L32.069 53.1441L18.063 61.2831L18.135 36.3541Z" fill="#928A6B"/>
<path d="M0.669983 26.2711L14.676 18.1311L32.141 28.2141L18.135 36.3541L0.669983 26.2711Z" fill="#FFFCF0"/>
<path d="M18.135 36.354L18.063 61.283L0.599976 51.2L0.669983 26.271L18.135 36.354Z" fill="#C2BA9B"/>
<path d="M13.96 38.7271L13.455 39.0201L13.467 34.9322L13.972 34.6392L13.96 38.7271Z" fill="#928A6B"/>
<path d="M17.518 40.7811L17.014 41.0741L13.455 39.0201L13.96 38.7271L17.518 40.7811Z" fill="#FFFCF0"/>
<path d="M13.96 38.7271L13.972 34.6392L17.529 36.6921L17.518 40.7812L13.96 38.7271Z" fill="#203A66"/>
<path d="M13.946 43.4002L13.442 43.6932L13.453 39.6042L13.958 39.3123L13.946 43.4002Z" fill="#928A6B"/>
<path d="M17.505 45.4542L17 45.7481L13.442 43.6931L13.946 43.4001L17.505 45.4542Z" fill="#FFFCF0"/>
<path d="M13.946 43.4002L13.958 39.3123L17.517 41.3662L17.505 45.4543L13.946 43.4002Z" fill="#203A66"/>
<path d="M13.934 48.0731L13.429 48.3661L13.44 44.2771L13.944 43.9841L13.934 48.0731Z" fill="#928A6B"/>
<path d="M17.491 50.1282L16.987 50.4212L13.429 48.3662L13.934 48.0732L17.491 50.1282Z" fill="#FFFCF0"/>
<path d="M13.934 48.0731L13.944 43.9841L17.503 46.0391L17.491 50.1281L13.934 48.0731Z" fill="#203A66"/>
<path d="M13.92 52.7432L13.416 53.0362L13.427 48.9512L13.932 48.6582L13.92 52.7432Z" fill="#928A6B"/>
<path d="M17.478 54.7971L16.974 55.0912L13.416 53.0362L13.92 52.7432L17.478 54.7971Z" fill="#FFFCF0"/>
<path d="M13.92 52.7432L13.932 48.6582L17.49 50.7122L17.478 54.7972L13.92 52.7432Z" fill="#203A66"/>
<path d="M13.907 57.4161L13.402 57.7091L13.414 53.6211L13.918 53.3281L13.907 57.4161Z" fill="#928A6B"/>
<path d="M17.465 59.471L16.961 59.764L13.402 57.709L13.907 57.416L17.465 59.471Z" fill="#FFFCF0"/>
<path d="M13.907 57.4161L13.918 53.3281L17.477 55.3821L17.465 59.4711L13.907 57.4161Z" fill="#203A66"/>
<path d="M9.89297 36.3793L9.38898 36.6723L9.39996 32.5833L9.90396 32.2903L9.89297 36.3793Z" fill="#928A6B"/>
<path d="M13.451 38.4334L12.946 38.7274L9.38898 36.6724L9.89297 36.3794L13.451 38.4334Z" fill="#FFFCF0"/>
<path d="M9.89294 36.3793L9.90393 32.2903L13.463 34.3453L13.4509 38.4333L9.89294 36.3793Z" fill="#203A66"/>
<path d="M9.88 41.0521L9.375 41.3451L9.38699 37.2571L9.89099 36.9631L9.88 41.0521Z" fill="#928A6B"/>
<path d="M13.438 43.1072L12.934 43.4002L9.375 41.3452L9.88 41.0522L13.438 43.1072Z" fill="#FFFCF0"/>
<path d="M9.88 41.0521L9.89099 36.9631L13.449 39.0181L13.438 43.1071L9.88 41.0521Z" fill="#203A66"/>
<path d="M9.86597 45.7262L9.36096 46.0192L9.37296 41.9302L9.87796 41.6372L9.86597 45.7262Z" fill="#928A6B"/>
<path d="M13.425 47.7793L12.92 48.0723L9.36096 46.0193L9.86597 45.7263L13.425 47.7793Z" fill="#FFFCF0"/>
<path d="M9.86597 45.7262L9.87796 41.6372L13.436 43.6902L13.425 47.7792L9.86597 45.7262Z" fill="#203A66"/>
<path d="M9.853 50.3951L9.349 50.6891L9.35999 46.6031L9.86401 46.3101L9.853 50.3951Z" fill="#928A6B"/>
<path d="M13.411 52.449L12.907 52.742L9.349 50.689L9.853 50.395L13.411 52.449Z" fill="#FFFCF0"/>
<path d="M9.85303 50.3951L9.86404 46.3101L13.423 48.3641L13.411 52.4491L9.85303 50.3951Z" fill="#203A66"/>
<path d="M9.83997 55.0682L9.33496 55.3612L9.34695 51.2722L9.85196 50.9792L9.83997 55.0682Z" fill="#928A6B"/>
<path d="M13.398 57.1234L12.894 57.4164L9.33496 55.3614L9.83997 55.0684L13.398 57.1234Z" fill="#FFFCF0"/>
<path d="M9.83997 55.0682L9.85196 50.9792L13.409 53.0342L13.398 57.1232L9.83997 55.0682Z" fill="#203A66"/>
<path d="M5.82898 34.0321L5.32397 34.3251L5.33597 30.2371L5.84097 29.9431L5.82898 34.0321Z" fill="#928A6B"/>
<path d="M9.38696 36.0872L8.88297 36.3802L5.32397 34.3252L5.82898 34.0322L9.38696 36.0872Z" fill="#FFFCF0"/>
<path d="M5.82898 34.0321L5.84097 29.9431L9.39798 31.9981L9.38696 36.0871L5.82898 34.0321Z" fill="#203A66"/>
<path d="M5.81497 38.7062L5.31097 38.9992L5.32297 34.9102L5.82697 34.6172L5.81497 38.7062Z" fill="#928A6B"/>
<path d="M9.37396 40.7601L8.86896 41.0531L5.31097 38.9991L5.81497 38.7061L9.37396 40.7601Z" fill="#FFFCF0"/>
<path d="M5.81494 38.7062L5.82693 34.6172L9.38593 36.6712L9.37393 40.7602L5.81494 38.7062Z" fill="#203A66"/>
<path d="M5.80298 43.3793L5.29797 43.6723L5.30997 39.5833L5.81396 39.2903L5.80298 43.3793Z" fill="#928A6B"/>
<path d="M9.35995 45.4344L8.85596 45.7274L5.29797 43.6724L5.80298 43.3794L9.35995 45.4344Z" fill="#FFFCF0"/>
<path d="M5.80298 43.3793L5.81396 39.2903L9.37198 41.3453L9.35995 45.4343L5.80298 43.3793Z" fill="#203A66"/>
<path d="M5.78897 48.0491L5.28497 48.3421L5.29596 44.2571L5.80096 43.9641L5.78897 48.0491Z" fill="#928A6B"/>
<path d="M9.34796 50.1031L8.84296 50.3971L5.28497 48.3421L5.78897 48.0491L9.34796 50.1031Z" fill="#FFFCF0"/>
<path d="M5.78894 48.0491L5.80093 43.9641L9.35895 46.0181L9.34793 50.1031L5.78894 48.0491Z" fill="#203A66"/>
<path d="M5.77499 52.7223L5.271 53.0153L5.28299 48.9273L5.78699 48.6333L5.77499 52.7223Z" fill="#928A6B"/>
<path d="M9.33401 54.7762L8.82999 55.0692L5.271 53.0152L5.77499 52.7222L9.33401 54.7762Z" fill="#FFFCF0"/>
<path d="M5.77502 52.7223L5.78702 48.6333L9.34604 50.6883L9.33405 54.7763L5.77502 52.7223Z" fill="#203A66"/>
<path d="M1.76193 31.6852L1.25793 31.9782L1.26993 27.8892L1.77295 27.5962L1.76193 31.6852Z" fill="#928A6B"/>
<path d="M5.31995 33.7381L4.81494 34.0321L1.25793 31.9781L1.76193 31.6851L5.31995 33.7381Z" fill="#FFFCF0"/>
<path d="M1.76196 31.6852L1.77298 27.5962L5.33197 29.6502L5.31998 33.7382L1.76196 31.6852Z" fill="#203A66"/>
<path d="M1.74896 36.3583L1.24396 36.6503L1.25598 32.5633L1.76096 32.2693L1.74896 36.3583Z" fill="#928A6B"/>
<path d="M5.30698 38.4124L4.80298 38.7054L1.24396 36.6504L1.74896 36.3584L5.30698 38.4124Z" fill="#FFFCF0"/>
<path d="M1.74896 36.3583L1.76096 32.2693L5.31796 34.3233L5.30698 38.4123L1.74896 36.3583Z" fill="#203A66"/>
<path d="M1.73495 41.0312L1.23096 41.3242L1.24197 37.2351L1.74698 36.9421L1.73495 41.0312Z" fill="#928A6B"/>
<path d="M5.29398 43.0852L4.78897 43.3782L1.23096 41.3242L1.73495 41.0312L5.29398 43.0852Z" fill="#FFFCF0"/>
<path d="M1.73499 41.0312L1.74701 36.9421L5.306 38.9962L5.29401 43.0851L1.73499 41.0312Z" fill="#203A66"/>
<path d="M1.72296 45.7003L1.21796 45.9942L1.22897 41.9082L1.73297 41.6152L1.72296 45.7003Z" fill="#928A6B"/>
<path d="M5.27997 47.7552L4.77496 48.0482L1.21796 45.9942L1.72296 45.7002L5.27997 47.7552Z" fill="#FFFCF0"/>
<path d="M1.72296 45.7003L1.73297 41.6152L5.29196 43.6703L5.27997 47.7552L1.72296 45.7003Z" fill="#203A66"/>
<path d="M1.70898 50.3741L1.20398 50.6671L1.21597 46.5782L1.72098 46.2852L1.70898 50.3741Z" fill="#928A6B"/>
<path d="M5.26797 52.428L4.76297 52.722L1.20398 50.667L1.70898 50.374L5.26797 52.428Z" fill="#FFFCF0"/>
<path d="M1.70898 50.3741L1.72098 46.2852L5.27798 48.3401L5.26797 52.4282L1.70898 50.3741Z" fill="#203A66"/>
<path d="M4.21497 24.391L13.956 18.729L28.172 26.937L18.431 32.598L4.21497 24.391Z" fill="#C2BA9B"/>
<path d="M18.431 32.5981L18.42 34.5811L4.20398 26.3731L4.21497 24.3911L18.431 32.5981Z" fill="#C2BA9B"/>
<path d="M14.2469 19.0029L14.2439 20.1299L6.55994 24.5959L6.56293 23.4689L14.2469 19.0029Z" fill="#928A6B"/>
<path d="M25.838 25.6949L25.835 26.821L14.244 20.1299L14.247 19.0029L25.838 25.6949Z" fill="#C2BA9B"/>
<path d="M18.438 31.5191L18.435 32.6461L4.21497 24.4351L4.21796 23.3091L18.438 31.5191Z" fill="#C2BA9B"/>
<path d="M28.184 25.855L18.438 31.519L18.435 32.596L18.431 32.598L18.42 34.581L28.162 28.92L28.172 26.987L28.18 26.983L28.184 25.855Z" fill="#928A6B"/>
<path d="M13.963 17.646L4.21796 23.309L18.439 31.519L28.184 25.856L13.963 17.646ZM18.153 30.161L6.56198 23.469L14.247 19.003L25.838 25.695L18.153 30.161Z" fill="#FFFCF0"/>
<path d="M9.48401 22.065L15.278 18.698L23.734 23.58L17.94 26.947L9.48401 22.065Z" fill="#FFFCF0"/>
<path d="M17.94 26.9469L17.934 28.9659L9.47797 24.0829L9.48398 22.0649L17.94 26.9469Z" fill="#C2BA9B"/>
<path d="M15.451 18.8608L15.449 19.5309L10.879 22.1878L10.881 21.5168L15.451 18.8608Z" fill="#C2BA9B"/>
<path d="M22.346 22.8419L22.344 23.5118L15.449 19.5309L15.451 18.8608L22.346 22.8419Z" fill="#C2BA9B"/>
<path d="M17.944 26.3049L17.942 26.9759L9.48401 22.0919L9.48599 21.4219L17.944 26.3049Z" fill="#C2BA9B"/>
<path d="M23.74 22.937L17.944 26.305L17.942 26.945L17.94 26.947L17.934 28.966L23.728 25.599L23.734 23.609L23.739 23.607L23.74 22.937Z" fill="#928A6B"/>
<path d="M15.282 18.054L9.48596 21.422L17.944 26.305L23.74 22.937L15.282 18.054ZM17.775 25.498L10.88 21.516L15.45 18.861L22.345 22.841L17.775 25.498Z" fill="#FFFCF0"/>
<path d="M68.1539 68.065L89.1619 55.855L89.1049 76.047L68.0969 88.256L68.1539 68.065Z" fill="#2E7D84"/>
<path d="M31.236 46.75L52.245 34.541L89.162 55.855L68.154 68.065L31.236 46.75Z" fill="#348C93"/>
<path d="M68.1539 68.065L68.0969 88.256L31.1799 66.941L31.2359 46.75L68.1539 68.065Z" fill="#203A66"/>
<path d="M32.079 63.8419L32.604 63.5359L32.593 67.7939L32.067 68.0989L32.079 63.8419Z" fill="#7B7B7B"/>
<path d="M30.684 61.9149L31.209 61.6099L32.157 62.1569L31.632 62.4629L30.684 61.9149Z" fill="#FFFCF0"/>
<path d="M30.6949 57.6729L31.2209 57.3669L32.1689 57.9149L31.644 58.2209L30.6949 57.6729Z" fill="#FFFCF0"/>
<path d="M32.093 58.9791L32.618 58.675L32.607 62.4181L32.082 62.7231L32.093 58.9791Z" fill="#7B7B7B"/>
<path d="M32.082 62.723L32.607 62.418L38.47 65.802L37.944 66.108L32.082 62.723Z" fill="#FFFCF0"/>
<path d="M37.9439 66.108L38.4699 65.802L38.4659 66.921L37.9399 67.226L37.9439 66.108Z" fill="#7B7B7B"/>
<path d="M32.107 53.961L32.633 53.656L32.62 58.175L32.095 58.48L32.107 53.961Z" fill="#7B7B7B"/>
<path d="M30.7109 52.3221L31.2359 52.0181L32.1849 52.5651L31.6589 52.8701L30.7109 52.3221Z" fill="#FFFCF0"/>
<path d="M32.122 48.64L32.647 48.334L32.635 52.825L32.109 53.13L32.122 48.64Z" fill="#7B7B7B"/>
<path d="M31.672 48.38L32.197 48.074L32.647 48.334L32.122 48.64L31.672 48.38Z" fill="#FFFCF0"/>
<path d="M40.043 58.5431L40.568 58.2371L40.56 61.0001L40.035 61.3061L40.043 58.5431Z" fill="#7B7B7B"/>
<path d="M32.109 53.1299L32.635 52.825L40.124 57.1479L39.599 57.4539L32.109 53.1299Z" fill="#FFFCF0"/>
<path d="M40.059 53.222L40.584 52.916L40.571 57.406L40.046 57.712L40.059 53.222Z" fill="#7B7B7B"/>
<path d="M39.611 52.963L40.137 52.658L40.584 52.916L40.059 53.222L39.611 52.963Z" fill="#FFFCF0"/>
<path d="M48.512 63.433L49.037 63.127L49.029 66.0179L48.504 66.3219L48.512 63.433Z" fill="#7B7B7B"/>
<path d="M57.217 78.3541L57.741 78.05L57.729 82.3071L57.204 82.6121L57.217 78.3541Z" fill="#7B7B7B"/>
<path d="M40.046 57.712L40.571 57.406L48.59 62.036L48.064 62.342L40.046 57.712Z" fill="#FFFCF0"/>
<path d="M55.082 76.002L55.607 75.696L57.294 76.671L56.77 76.976L55.082 76.002Z" fill="#FFFCF0"/>
<path d="M32.095 58.4801L32.62 58.175L57.307 72.4281L56.781 72.7331L32.095 58.4801Z" fill="#FFFCF0"/>
<path d="M57.23 73.492L57.756 73.188L57.745 76.931L57.22 77.236L57.23 73.492Z" fill="#7B7B7B"/>
<path d="M48.077 57.8509L48.602 57.5459L49.053 57.8059L48.527 58.1109L48.077 57.8509Z" fill="#FFFCF0"/>
<path d="M48.527 58.1109L49.053 57.8059L49.04 62.2959L48.515 62.6019L48.527 58.1109Z" fill="#7B7B7B"/>
<path d="M57.22 77.2359L57.745 76.9309L65.078 81.1639L64.553 81.4699L57.22 77.2359Z" fill="#FFFCF0"/>
<path d="M64.5529 81.4701L65.0779 81.1641L65.075 82.2831L64.5499 82.5891L64.5529 81.4701Z" fill="#7B7B7B"/>
<path d="M57.244 68.4739L57.77 68.1689L57.757 72.6889L57.231 72.993L57.244 68.4739Z" fill="#7B7B7B"/>
<path d="M48.515 62.6019L49.04 62.2959L57.321 67.0779L56.797 67.3829L48.515 62.6019Z" fill="#FFFCF0"/>
<path d="M57.231 72.993L57.757 72.689L65.09 76.922L64.565 77.228L57.231 72.993Z" fill="#FFFCF0"/>
<path d="M64.565 77.2279L65.09 76.9219L65.089 77.4219L64.563 77.7269L64.565 77.2279Z" fill="#7B7B7B"/>
<path d="M56.809 62.8929L57.334 62.5869L57.785 62.8479L57.26 63.1519L56.809 62.8929Z" fill="#FFFCF0"/>
<path d="M57.2599 63.1519L57.7849 62.8479L57.7719 67.3379L57.2469 67.6429L57.2599 63.1519Z" fill="#7B7B7B"/>
<path d="M57.2469 67.6429L57.7719 67.3379L65.1049 71.5709L64.5799 71.8769L57.2469 67.6429Z" fill="#FFFCF0"/>
<path d="M64.578 72.7079L64.58 71.8769L57.247 67.6429L57.26 63.1529L56.809 62.8929L56.797 67.3829L48.515 62.6019L48.528 58.1119L48.078 57.8509L48.065 62.3419L40.046 57.7119L40.059 53.2219L39.612 52.9629L39.599 57.4529L32.11 53.1299L32.123 48.6399L31.673 48.3799L31.66 52.8699L30.712 52.3219L30.71 53.1529L31.658 53.7009L31.644 58.2209L30.696 57.6729L30.695 58.1719L31.643 58.7199L31.632 62.4629L30.684 61.9149L30.681 63.0339L31.629 63.5819L31.617 67.8389L32.067 68.0989L32.079 63.8419L37.94 67.2259L37.944 66.1079L32.082 62.7229L32.093 58.9799L56.779 73.2329L56.769 76.9759L55.081 76.0019L55.077 77.1199L56.765 78.0949L56.753 82.3519L57.203 82.6129L57.216 78.3549L64.549 82.5889L64.552 81.4699L57.219 77.2369L57.23 73.4929L64.563 77.7269L64.565 77.2279L57.231 72.9939L57.244 68.4739L64.578 72.7079ZM56.781 72.7329L32.094 58.4799L32.107 53.9599L39.595 58.2829L39.587 61.0459L40.034 61.3049L40.042 58.5419L48.06 63.1709L48.052 66.0619L48.502 66.3219L48.51 63.4319L56.792 68.2129L56.781 72.7329Z" fill="#C2BA9B"/>
<path d="M64.58 71.877L65.105 71.571L65.103 72.402L64.578 72.708L64.58 71.877Z" fill="#7B7B7B"/>
<path d="M29.951 37.587L54.461 23.343L88.33 42.897L63.82 57.142L29.951 37.587Z" fill="#FFFCF0"/>
<path d="M68.581 59.89L68.552 70.229L68.496 89.69L93.007 75.445L93.061 55.986L93.091 45.647L68.581 59.89Z" fill="#928A6B"/>
<path d="M63.82 57.142L88.33 42.897L93.091 45.647L68.581 59.89L63.82 57.142Z" fill="#FFFCF0"/>
<path d="M68.581 59.8899L68.552 70.2289L68.496 89.6899L63.735 86.9399L63.791 67.4819L29.922 47.9269L29.951 37.5869L63.82 57.1419L68.581 59.8899Z" fill="#C2BA9B"/>
<path d="M65.4309 53.9138L86.4389 41.7048L86.4339 43.7498L65.4249 55.9579L65.4309 53.9138Z" fill="#707070"/>
<path d="M36.522 37.2239L57.531 25.0149L86.439 41.7049L65.431 53.9139L36.522 37.2239Z" fill="#A9A9A9"/>
<path d="M65.431 53.9139L65.425 55.9579L36.517 39.2689L36.522 37.2239L65.431 53.9139Z" fill="#8D8D8D"/>
<path d="M39.8159 63.401L40.8669 62.791L40.8399 72.522L39.7889 73.133L39.8159 63.401Z" fill="#A9A9A9"/>
<path d="M56.7669 67.7082L56.752 73.1791L56.7239 82.9102L57.7739 82.2992L57.8019 72.5671L57.8169 67.0981L56.7669 67.7082Z" fill="#928A6B"/>
<path d="M53.0569 64.349L40.8829 57.32L36.1219 54.571L35.0709 55.182L39.8319 57.931L52.0059 64.959L56.7669 67.708L57.8169 67.098L53.0569 64.349Z" fill="#FFFCF0"/>
<path d="M56.7669 67.7081L56.752 73.1791L56.7239 82.9101L51.963 80.1611L51.9899 70.4301L39.8159 63.4011L39.7889 73.1331L35.028 70.3841L35.0559 60.6521L35.071 55.1821L39.8319 57.9311L52.006 64.9591L56.7669 67.7081Z" fill="#C2BA9B"/>
<path d="M41.38 67.1141L41.923 66.7991L41.904 73.1311L41.361 73.4461L41.38 67.1141Z" fill="#928A6B"/>
<path d="M41.388 64.232L41.931 63.915L41.925 66.128L41.382 66.443L41.388 64.232Z" fill="#928A6B"/>
<path d="M40.3539 63.6351L40.8969 63.3191L41.9309 63.9151L41.3879 64.2321L40.3539 63.6351Z" fill="#BFBFBF"/>
<path d="M46.4739 70.056L47.0169 69.74L46.9989 76.072L46.4559 76.388L46.4739 70.056Z" fill="#928A6B"/>
<path d="M41.382 66.4432L41.925 66.1282L51.388 71.5922L50.845 71.9072L41.382 66.4432Z" fill="#BFBFBF"/>
<path d="M51.8839 70.291L52.4269 69.9761L52.4009 79.1911L51.8569 79.507L51.8839 70.291Z" fill="#928A6B"/>
<path d="M50.851 69.6942L51.394 69.3792L52.4269 69.9762L51.8839 70.2911L50.851 69.6942Z" fill="#BFBFBF"/>
<path d="M51.8839 70.291L51.8569 79.507L50.8239 78.91L50.8429 72.578L46.4739 70.056L46.4559 76.388L45.8719 76.051L45.89 69.719L41.3799 67.114L41.3609 73.446L40.3279 72.85L40.3539 63.635L41.3879 64.232L41.3819 66.443L50.8449 71.907L50.851 69.694L51.8839 70.291Z" fill="#928A6B"/>
<path d="M38.7249 68.8018L39.2499 68.4968L39.2369 72.7538L38.7119 73.0588L38.7249 68.8018Z" fill="#C2BA9B"/>
<path d="M35.0199 66.6629L35.5449 66.3579L39.2499 68.4969L38.7249 68.8019L35.0199 66.6629Z" fill="#F0F5FF"/>
<path d="M38.7249 68.8018L38.7119 73.0588L35.0079 70.9199L35.0199 66.6628L38.7249 68.8018Z" fill="#E6E6E6"/>
<path d="M38.7379 63.9369L39.2639 63.6309L39.2509 67.8878L38.7269 68.1928L38.7379 63.9369Z" fill="#C2BA9B"/>
<path d="M35.033 61.7969L35.559 61.4919L39.264 63.631L38.738 63.937L35.033 61.7969Z" fill="#F0F5FF"/>
<path d="M38.7379 63.9369L38.7269 68.1929L35.0209 66.0549L35.0329 61.7969L38.7379 63.9369Z" fill="#E6E6E6"/>
<path d="M55.6589 78.5789L56.1849 78.2749L56.1719 82.5309L55.6469 82.8359L55.6589 78.5789Z" fill="#C2BA9B"/>
<path d="M51.9539 76.44L52.4789 76.135L56.1849 78.275L55.6589 78.579L51.9539 76.44Z" fill="#F0F5FF"/>
<path d="M55.6589 78.5789L55.6469 82.8359L51.9419 80.6969L51.9539 76.4399L55.6589 78.5789Z" fill="#E6E6E6"/>
<path d="M55.6729 73.714L56.1979 73.408L56.1849 77.665L55.6609 77.971L55.6729 73.714Z" fill="#C2BA9B"/>
<path d="M51.9679 71.574L52.4929 71.27L56.1979 73.408L55.6729 73.714L51.9679 71.574Z" fill="#F0F5FF"/>
<path d="M55.6729 73.714L55.6609 77.971L51.9559 75.832L51.9679 71.574L55.6729 73.714Z" fill="#E6E6E6"/>
<path d="M38.7519 59.0699L39.2769 58.7659L39.2649 63.0219L38.7399 63.3269L38.7519 59.0699Z" fill="#C2BA9B"/>
<path d="M35.0469 56.932L35.5719 56.626L39.2769 58.766L38.7519 59.07L35.0469 56.932Z" fill="#F0F5FF"/>
<path d="M38.7519 59.0699L38.7399 63.3269L35.0349 61.1889L35.0469 56.9319L38.7519 59.0699Z" fill="#E6E6E6"/>
<path d="M42.9859 61.516L43.5119 61.21L43.4999 65.467L42.9749 65.772L42.9859 61.516Z" fill="#C2BA9B"/>
<path d="M39.2809 59.376L39.8069 59.071L43.5119 61.21L42.9859 61.516L39.2809 59.376Z" fill="#F0F5FF"/>
<path d="M42.9859 61.516L42.9749 65.772L39.2699 63.634L39.2809 59.376L42.9859 61.516Z" fill="#E6E6E6"/>
<path d="M47.2209 63.9598L47.7459 63.6538L47.7339 67.9118L47.2089 68.2168L47.2209 63.9598Z" fill="#C2BA9B"/>
<path d="M43.5159 61.8209L44.0409 61.5159L47.7459 63.6539L47.2209 63.9599L43.5159 61.8209Z" fill="#F0F5FF"/>
<path d="M47.2209 63.9598L47.2089 68.2168L43.5039 66.0778L43.5159 61.8208L47.2209 63.9598Z" fill="#E6E6E6"/>
<path d="M51.4549 66.4038L51.9799 66.0999L51.9689 70.3568L51.4429 70.6618L51.4549 66.4038Z" fill="#C2BA9B"/>
<path d="M47.7509 64.2659L48.2749 63.9609L51.9799 66.0999L51.4549 66.4039L47.7509 64.2659Z" fill="#F0F5FF"/>
<path d="M51.4549 66.4039L51.4429 70.6619L47.7379 68.5219L47.7509 64.2659L51.4549 66.4039Z" fill="#E6E6E6"/>
<path d="M55.6859 68.848L56.2119 68.542L56.2 72.8L55.6749 73.104L55.6859 68.848Z" fill="#C2BA9B"/>
<path d="M51.981 66.7091L52.507 66.4031L56.212 68.5421L55.686 68.8481L51.981 66.7091Z" fill="#F0F5FF"/>
<path d="M55.686 68.848L55.675 73.104L51.97 70.966L51.981 66.709L55.686 68.848Z" fill="#E6E6E6"/>
<path d="M33.457 45.6568L33.982 45.3528L33.97 49.6088L33.445 49.9138L33.457 45.6568Z" fill="#C2BA9B"/>
<path d="M29.752 43.5189L30.277 43.2129L33.982 45.3529L33.457 45.6569L29.752 43.5189Z" fill="#F0F5FF"/>
<path d="M33.457 45.6568L33.445 49.9138L29.74 47.7748L29.752 43.5188L33.457 45.6568Z" fill="#E6E6E6"/>
<path d="M33.471 40.7918L33.996 40.4858L33.984 44.7429L33.459 45.0489L33.471 40.7918Z" fill="#C2BA9B"/>
<path d="M29.766 38.6529L30.291 38.3479L33.996 40.4859L33.471 40.7919L29.766 38.6529Z" fill="#F0F5FF"/>
<path d="M33.471 40.7918L33.459 45.0488L29.754 42.9098L29.766 38.6528L33.471 40.7918Z" fill="#E6E6E6"/>
<path d="M37.6909 48.1029L38.2169 47.7969L38.2049 52.0539L37.6799 52.3589L37.6909 48.1029Z" fill="#C2BA9B"/>
<path d="M33.986 45.963L34.512 45.658L38.217 47.797L37.691 48.103L33.986 45.963Z" fill="#F0F5FF"/>
<path d="M37.691 48.1029L37.68 52.3589L33.975 50.2209L33.986 45.9629L37.691 48.1029Z" fill="#E6E6E6"/>
<path d="M37.705 43.2361L38.23 42.9321L38.219 47.1891L37.693 47.4931L37.705 43.2361Z" fill="#C2BA9B"/>
<path d="M34.001 41.098L34.525 40.792L38.23 42.932L37.705 43.236L34.001 41.098Z" fill="#F0F5FF"/>
<path d="M37.705 43.2359L37.693 47.4929L33.988 45.3539L34.001 41.0979L37.705 43.2359Z" fill="#E6E6E6"/>
<path d="M41.9259 50.5469L42.4509 50.2419L42.4389 54.4989L41.9139 54.8039L41.9259 50.5469Z" fill="#C2BA9B"/>
<path d="M38.2209 48.408L38.7459 48.103L42.4509 50.242L41.9259 50.547L38.2209 48.408Z" fill="#F0F5FF"/>
<path d="M41.926 50.547L41.914 54.804L38.209 52.665L38.221 48.408L41.926 50.547Z" fill="#E6E6E6"/>
<path d="M41.939 45.6817L42.465 45.3757L42.453 49.6327L41.928 49.9387L41.939 45.6817Z" fill="#C2BA9B"/>
<path d="M38.235 43.5418L38.76 43.2368L42.465 45.3758L41.939 45.6818L38.235 43.5418Z" fill="#F0F5FF"/>
<path d="M41.939 45.6818L41.928 49.9388L38.223 47.7997L38.235 43.5417L41.939 45.6818Z" fill="#E6E6E6"/>
<path d="M46.16 52.9918L46.685 52.6868L46.674 56.9427L46.148 57.2487L46.16 52.9918Z" fill="#C2BA9B"/>
<path d="M42.456 50.8528L42.98 50.5479L46.685 52.6869L46.16 52.9919L42.456 50.8528Z" fill="#F0F5FF"/>
<path d="M46.16 52.9918L46.148 57.2488L42.443 55.1088L42.456 50.8528L46.16 52.9918Z" fill="#E6E6E6"/>
<path d="M46.174 48.1258L46.699 47.8208L46.688 52.0778L46.162 52.3828L46.174 48.1258Z" fill="#C2BA9B"/>
<path d="M42.47 45.9869L42.995 45.6819L46.699 47.8209L46.174 48.1259L42.47 45.9869Z" fill="#F0F5FF"/>
<path d="M46.174 48.1258L46.162 52.3828L42.457 50.2438L42.47 45.9868L46.174 48.1258Z" fill="#E6E6E6"/>
<path d="M50.392 55.4349L50.917 55.1299L50.905 59.3869L50.38 59.6909L50.392 55.4349Z" fill="#C2BA9B"/>
<path d="M46.688 53.296L47.212 52.99L50.917 55.13L50.392 55.435L46.688 53.296Z" fill="#F0F5FF"/>
<path d="M50.392 55.4349L50.38 59.6909L46.675 57.5529L46.688 53.2959L50.392 55.4349Z" fill="#E6E6E6"/>
<path d="M50.405 50.5689L50.931 50.2639L50.919 54.5209L50.394 54.8259L50.405 50.5689Z" fill="#C2BA9B"/>
<path d="M46.701 48.43L47.226 48.125L50.931 50.264L50.405 50.569L46.701 48.43Z" fill="#F0F5FF"/>
<path d="M50.405 50.5689L50.394 54.8259L46.688 52.6879L46.701 48.4299L50.405 50.5689Z" fill="#E6E6E6"/>
<path d="M54.626 57.88L55.151 57.574L55.14 61.831L54.614 62.137L54.626 57.88Z" fill="#C2BA9B"/>
<path d="M50.922 55.74L51.446 55.436L55.151 57.574L54.626 57.88L50.922 55.74Z" fill="#F0F5FF"/>
<path d="M54.626 57.88L54.614 62.137L50.909 59.998L50.922 55.74L54.626 57.88Z" fill="#E6E6E6"/>
<path d="M54.64 53.014L55.1649 52.709L55.153 56.966L54.6279 57.271L54.64 53.014Z" fill="#C2BA9B"/>
<path d="M50.9349 50.8748L51.4609 50.5688L55.1649 52.7089L54.64 53.0139L50.9349 50.8748Z" fill="#F0F5FF"/>
<path d="M54.64 53.0138L54.628 57.2708L50.923 55.1317L50.935 50.8748L54.64 53.0138Z" fill="#E6E6E6"/>
<path d="M58.86 60.3238L59.386 60.0198L59.374 64.2758L58.849 64.5808L58.86 60.3238Z" fill="#C2BA9B"/>
<path d="M55.156 58.1859L55.681 57.8799L59.386 60.0199L58.86 60.3239L55.156 58.1859Z" fill="#F0F5FF"/>
<path d="M58.86 60.3238L58.849 64.5808L55.144 62.4418L55.156 58.1858L58.86 60.3238Z" fill="#E6E6E6"/>
<path d="M58.8739 55.4588L59.3989 55.1528L59.3879 59.4098L58.8619 59.7158L58.8739 55.4588Z" fill="#C2BA9B"/>
<path d="M55.17 53.3189L55.695 53.0149L59.399 55.1529L58.874 55.4589L55.17 53.3189Z" fill="#F0F5FF"/>
<path d="M58.874 55.4589L58.862 59.7159L55.157 57.5758L55.17 53.3188L58.874 55.4589Z" fill="#E6E6E6"/>
<path d="M63.095 62.7699L63.62 62.4639L63.608 66.7209L63.083 67.0259L63.095 62.7699Z" fill="#C2BA9B"/>
<path d="M59.391 60.6299L59.916 60.325L63.62 62.4639L63.095 62.7699L59.391 60.6299Z" fill="#F0F5FF"/>
<path d="M63.095 62.7699L63.083 67.0259L59.378 64.8869L59.391 60.6299L63.095 62.7699Z" fill="#E6E6E6"/>
<path d="M63.109 57.9029L63.634 57.5979L63.622 61.8549L63.097 62.1599L63.109 57.9029Z" fill="#C2BA9B"/>
<path d="M59.404 55.765L59.93 55.459L63.634 57.598L63.109 57.903L59.404 55.765Z" fill="#F0F5FF"/>
<path d="M63.109 57.9029L63.097 62.1599L59.393 60.0219L59.404 55.7649L63.109 57.9029Z" fill="#E6E6E6"/>
<path d="M67.271 84.6707L67.797 84.3657L67.784 88.6227L67.259 88.9287L67.271 84.6707Z" fill="#C2BA9B"/>
<path d="M63.566 82.5318L64.092 82.2268L67.797 84.3658L67.271 84.6708L63.566 82.5318Z" fill="#F0F5FF"/>
<path d="M67.271 84.6707L67.259 88.9287L63.555 86.7887L63.566 82.5317L67.271 84.6707Z" fill="#E6E6E6"/>
<path d="M67.285 79.8058L67.81 79.4998L67.798 83.7578L67.273 84.0627L67.285 79.8058Z" fill="#C2BA9B"/>
<path d="M63.58 77.6668L64.105 77.3608L67.81 79.4998L67.285 79.8058L63.58 77.6668Z" fill="#F0F5FF"/>
<path d="M67.285 79.8058L67.273 84.0627L63.568 81.9238L63.58 77.6667L67.285 79.8058Z" fill="#E6E6E6"/>
<path d="M67.299 74.9398L67.824 74.6348L67.813 78.8918L67.287 79.1967L67.299 74.9398Z" fill="#C2BA9B"/>
<path d="M63.594 72.8008L64.119 72.4958L67.824 74.6349L67.299 74.9398L63.594 72.8008Z" fill="#F0F5FF"/>
<path d="M67.299 74.9398L67.287 79.1968L63.582 77.0578L63.594 72.8008L67.299 74.9398Z" fill="#E6E6E6"/>
<path d="M67.313 70.0777L67.838 69.7717L67.826 74.0247L67.301 74.3307L67.313 70.0777Z" fill="#C2BA9B"/>
<path d="M63.607 67.9388L64.133 67.6338L67.838 69.7718L67.313 70.0778L63.607 67.9388Z" fill="#F0F5FF"/>
<path d="M67.313 70.0777L67.301 74.3307L63.596 72.1917L63.607 67.9387L67.313 70.0777Z" fill="#E6E6E6"/>
<path d="M67.326 65.2118L67.852 64.9058L67.84 69.1638L67.314 69.4688L67.326 65.2118Z" fill="#C2BA9B"/>
<path d="M63.622 63.0728L64.146 62.7678L67.852 64.9058L67.326 65.2118L63.622 63.0728Z" fill="#F0F5FF"/>
<path d="M67.326 65.2118L67.314 69.4688L63.609 67.3297L63.622 63.0728L67.326 65.2118Z" fill="#E6E6E6"/>
<path d="M67.34 60.3468L67.865 60.0408L67.853 64.2978L67.328 64.6038L67.34 60.3468Z" fill="#C2BA9B"/>
<path d="M63.636 58.2068L64.161 57.9019L67.865 60.0408L67.34 60.3468L63.636 58.2068Z" fill="#F0F5FF"/>
<path d="M67.34 60.3468L67.328 64.6038L63.623 62.4648L63.636 58.2068L67.34 60.3468Z" fill="#E6E6E6"/>
<path d="M89.2409 53.361L88.3279 52.821L88.3199 50.188L89.2339 50.728L89.2409 53.361Z" fill="#C9CACE"/>
<path d="M89.2339 50.7279L88.3199 50.1879L91.7219 48.2239L92.6359 48.7639L89.2339 50.7279Z" fill="#FCFCFC"/>
<path d="M92.6359 48.7639L89.2339 50.7279L89.2409 53.3609L92.6429 51.3969L92.6359 48.7639Z" fill="#D1D2D4"/>
<path d="M90.4449 50.3438C89.9289 50.6408 89.5119 51.3638 89.5139 51.9548C89.5159 52.5478 89.9349 52.7869 90.4509 52.4889C90.9669 52.1909 91.3839 51.4689 91.3819 50.8769C91.3809 50.2849 90.9609 50.0458 90.4449 50.3438ZM90.4489 51.9189C90.2079 52.0589 90.0109 51.9469 90.0099 51.6689C90.0089 51.3919 90.2039 51.0528 90.4459 50.9128C90.6879 50.7728 90.8849 50.8858 90.8849 51.1638C90.8869 51.4408 90.6909 51.7789 90.4489 51.9189Z" fill="black"/>
</svg>
