<svg xmlns="http://www.w3.org/2000/svg" width="240" height="240" fill="none" viewBox="0 0 240 240">
  <path fill="url(#a)" d="M118 1.155a4 4 0 0 1 4 0l99.923 57.69a4 4 0 0 1 2 3.464v115.382a4 4 0 0 1-2 3.464L122 238.845a3.998 3.998 0 0 1-4 0l-99.923-57.69a4 4 0 0 1-2-3.464V62.309a4 4 0 0 1 2-3.464L118 1.155Z"/>
  <path fill="#fff" d="M118.5 60.866a3 3 0 0 1 3 0l48.962 28.268a3 3 0 0 1 1.5 2.598v56.536a3 3 0 0 1-1.5 2.598L121.5 179.134a3 3 0 0 1-3 0l-48.962-28.268a3 3 0 0 1-1.5-2.598V91.732a3 3 0 0 1 1.5-2.598L118.5 60.866Z"/>
  <path fill="url(#b)" d="M118.5 90.866a3 3 0 0 1 3 0l22.981 13.268a3 3 0 0 1 1.5 2.598v26.536a3 3 0 0 1-1.5 2.598L121.5 149.134a3 3 0 0 1-3 0l-22.98-13.268a3 3 0 0 1-1.5-2.598v-26.536a3 3 0 0 1 1.5-2.598l22.98-13.268Z"/>
  <path fill="#fff" d="M68 36.637 95 21v55L68 92.5V36.637Z"/>
  <defs>
    <radialGradient id="a" cx="0" cy="0" r="1" gradientTransform="rotate(90 0 120) scale(120)" gradientUnits="userSpaceOnUse">
      <stop stop-color="#1A6BAE" stop-opacity=".92"/>
      <stop offset="1" stop-color="#0C3557"/>
    </radialGradient>
    <radialGradient id="b" cx="0" cy="0" r="1" gradientTransform="rotate(90 0 120) scale(30)" gradientUnits="userSpaceOnUse">
      <stop stop-color="#01FFDC"/>
      <stop offset="1" stop-color="#008C79" stop-opacity=".98"/>
    </radialGradient>
  </defs>
</svg>
