<svg xmlns="http://www.w3.org/2000/svg" width="92" height="106" fill="none" viewBox="0 0 92 106">
  <path fill="url(#a)" d="M2 25.272a4 4 0 0 0-2 3.464v48.235a4 4 0 0 0 2 3.464l41.772 24.117a3.998 3.998 0 0 0 4 0l41.772-24.117a4 4 0 0 0 2-3.464V28.736a4 4 0 0 0-2-3.464L47.772 1.155a4 4 0 0 0-4 0L2 25.272Z"/>
  <path fill="#fff" d="M38.182 46.375a7.651 7.651 0 0 0-1.006-2.199 6.208 6.208 0 0 0-1.585-1.636 6.797 6.797 0 0 0-2.114-1.04c-.784-.239-1.653-.358-2.608-.358-1.784 0-3.352.443-4.704 1.33-1.341.886-2.387 2.176-3.137 3.869-.75 1.682-1.125 3.739-1.125 6.17 0 2.432.37 4.5 1.108 6.205.739 1.704 1.785 3.006 3.137 3.903 1.352.887 2.949 1.33 4.79 1.33 1.67 0 3.096-.296 4.278-.886 1.193-.603 2.102-1.45 2.727-2.54.637-1.091.955-2.381.955-3.87l1.5.222h-9v-5.557h14.608v4.398c0 3.068-.648 5.704-1.944 7.909-1.295 2.193-3.079 3.886-5.352 5.08-2.273 1.181-4.875 1.772-7.807 1.772-3.272 0-6.147-.721-8.625-2.165-2.477-1.454-4.409-3.516-5.795-6.187-1.375-2.682-2.063-5.864-2.063-9.545 0-2.83.41-5.353 1.228-7.569.83-2.227 1.988-4.113 3.477-5.659a15.024 15.024 0 0 1 5.199-3.528c1.977-.807 4.12-1.21 6.426-1.21 1.977 0 3.818.29 5.523.869 1.704.568 3.216 1.375 4.534 2.42a13.105 13.105 0 0 1 3.255 3.733c.841 1.432 1.381 3.012 1.62 4.739h-7.5ZM51.55 70V35.09h13.772c2.648 0 4.904.507 6.767 1.518 1.864 1 3.285 2.392 4.262 4.176.989 1.773 1.483 3.818 1.483 6.136 0 2.319-.5 4.364-1.5 6.137-1 1.773-2.45 3.153-4.347 4.142-1.886.989-4.17 1.483-6.852 1.483h-8.779v-5.915h7.586c1.42 0 2.59-.244 3.511-.733.932-.5 1.625-1.187 2.08-2.062.466-.887.698-1.904.698-3.052 0-1.159-.232-2.17-.698-3.034-.455-.875-1.148-1.55-2.08-2.028-.932-.489-2.114-.733-3.545-.733H58.93V70h-7.38Z"/>
  <path stroke="#fff" stroke-miterlimit="10" stroke-width="2" d="M5.148 27.09a4 4 0 0 0-2 3.464v44.599a4 4 0 0 0 2 3.464l38.624 22.299a3.998 3.998 0 0 0 4 0l38.624-22.3a4 4 0 0 0 2-3.463V30.554a4 4 0 0 0-2-3.464L47.772 4.79a4 4 0 0 0-4 0L5.148 27.09Z"/>
  <defs>
    <linearGradient id="a" x1="45.772" x2="45.772" y1="0" y2="105.707" gradientUnits="userSpaceOnUse">
      <stop stop-color="#017DA3"/>
    </linearGradient>
  </defs>
</svg>
