<svg xmlns="http://www.w3.org/2000/svg" width="971" height="240" fill="none" viewBox="0 0 971 240">
  <path fill="#125F9F" d="M118 1.155a4 4 0 0 1 4 0l99.923 57.69a4 4 0 0 1 2 3.464v115.382a4 4 0 0 1-2 3.464L122 238.845a3.998 3.998 0 0 1-4 0l-99.923-57.69a4 4 0 0 1-2-3.464V62.309a4 4 0 0 1 2-3.464L118 1.155Z"/>
  <path fill="#fff" d="M118.5 45.866a3 3 0 0 1 3 0l61.952 35.768a3 3 0 0 1 1.5 2.598v71.536a3 3 0 0 1-1.5 2.598L121.5 194.134a3 3 0 0 1-3 0l-61.952-35.768a3 3 0 0 1-1.5-2.598V84.232a3 3 0 0 1 1.5-2.598L118.5 45.866Z"/>
  <path fill="#00BFA5" stroke="#fff" d="M118.25 80.299a2.5 2.5 0 0 1 2.5 0l32.074 18.518a2.498 2.498 0 0 1 1.25 2.165v37.036a2.5 2.5 0 0 1-1.25 2.165l-32.074 18.518a2.5 2.5 0 0 1-2.353.078l-.147-.078-32.074-18.518a2.501 2.501 0 0 1-1.25-2.165v-37.036a2.5 2.5 0 0 1 1.25-2.165L118.25 80.3Z"/>
  <path fill="#fff" d="M55 42.75 85 25v77L55 90.373V42.749Z"/>
  <path fill="#125F9F" d="M240.663 195V73.91h28.539V195h-28.539Zm14.348-138.277c-4.52 0-8.409-1.498-11.667-4.494-3.259-3.048-4.888-6.7-4.888-10.958 0-4.31 1.629-7.962 4.888-10.958 3.258-3.048 7.147-4.572 11.667-4.572 4.573 0 8.462 1.524 11.668 4.572 3.259 2.996 4.888 6.649 4.888 10.958 0 4.257-1.629 7.91-4.888 10.958-3.206 2.996-7.095 4.494-11.668 4.494ZM296.971 195v-18.132l62.438-78.283V97.56h-60.388V73.91h95.312v19.47l-59.442 76.944v1.024h61.492V195h-99.412ZM451.745 33.545V195h-28.539V33.545h28.539Zm82.954 163.82c-12.141 0-22.626-2.523-31.455-7.568-8.777-5.098-15.531-12.298-20.261-21.601-4.73-9.355-7.095-20.366-7.095-33.032 0-12.456 2.365-23.388 7.095-32.795 4.783-9.46 11.458-16.819 20.024-22.074 8.567-5.308 18.632-7.963 30.194-7.963 7.463 0 14.506 1.21 21.128 3.627 6.675 2.365 12.561 6.044 17.659 11.037 5.151 4.993 9.198 11.352 12.141 19.078 2.943 7.673 4.415 16.818 4.415 27.435v8.75H489.29v-19.236h71.898c-.053-5.465-1.235-10.327-3.548-14.584-2.312-4.31-5.545-7.7-9.697-10.17-4.099-2.47-8.882-3.705-14.348-3.705-5.833 0-10.958 1.419-15.373 4.257-4.414 2.786-7.857 6.465-10.327 11.037-2.418 4.52-3.653 9.486-3.705 14.9v16.792c0 7.042 1.287 13.086 3.863 18.132 2.575 4.993 6.175 8.829 10.8 11.51 4.625 2.628 10.039 3.942 16.24 3.942 4.152 0 7.91-.579 11.274-1.735 3.363-1.209 6.28-2.969 8.75-5.282 2.471-2.312 4.336-5.177 5.598-8.593l26.646 2.996c-1.682 7.042-4.888 13.192-9.618 18.447-4.677 5.203-10.669 9.25-17.974 12.141-7.306 2.838-15.662 4.257-25.07 4.257ZM717.38 73.909 674.257 195h-31.534L599.6 73.91h30.431l27.828 89.95h1.262l27.907-89.95h30.352Zm69.237 123.456c-12.141 0-22.626-2.523-31.455-7.568-8.777-5.098-15.531-12.298-20.261-21.601-4.73-9.355-7.095-20.366-7.095-33.032 0-12.456 2.365-23.388 7.095-32.795 4.783-9.46 11.457-16.819 20.024-22.074 8.567-5.308 18.632-7.963 30.194-7.963 7.463 0 14.506 1.21 21.128 3.627 6.675 2.365 12.561 6.044 17.659 11.037 5.151 4.993 9.198 11.352 12.141 19.078 2.943 7.673 4.414 16.818 4.414 27.435v8.75h-99.253v-19.236h71.898c-.053-5.465-1.235-10.327-3.548-14.584-2.312-4.31-5.545-7.7-9.697-10.17-4.099-2.47-8.882-3.705-14.348-3.705-5.833 0-10.958 1.419-15.373 4.257-4.414 2.786-7.857 6.465-10.327 11.037-2.418 4.52-3.653 9.486-3.705 14.9v16.792c0 7.042 1.287 13.086 3.863 18.132 2.575 4.993 6.175 8.829 10.8 11.51 4.625 2.628 10.038 3.942 16.24 3.942 4.152 0 7.91-.579 11.274-1.735 3.363-1.209 6.28-2.969 8.75-5.282 2.471-2.312 4.336-5.177 5.598-8.593l26.646 2.996c-1.682 7.042-4.888 13.192-9.618 18.447-4.678 5.203-10.669 9.25-17.974 12.141-7.306 2.838-15.662 4.257-25.07 4.257Zm106.526-163.82V195h-28.538V33.545h28.538Z"/>
</svg>
