<?xml version="1.0" encoding="utf-8"?>
<!-- Generator: Adobe Illustrator 27.9.6, SVG Export Plug-In . SVG Version: 9.03 Build 54986)  -->
<svg version="1.2" baseProfile="tiny" id="Layer_1" xmlns="http://www.w3.org/2000/svg" xmlns:xlink="http://www.w3.org/1999/xlink"
	 x="0px" y="0px" viewBox="0 0 1024 1024" overflow="visible" xml:space="preserve">
<g id="_x23_10bbfdfd">
	<path fill="#10BBFD" d="M500.08,281.04c-1.95-7.93,6.2-15.85,14.08-13.79c6.52,0.75,10.79,7.61,9.81,13.87
		c11.56,6.63,22.71,13.94,34.23,20.64c25.11,14.74,50.49,29.04,75.44,44.05c2.56-1.48,5.26-3.14,8.36-2.79
		c8.15-0.4,14.43,9.5,10.76,16.72c-1.31,3.48-4.58,5.52-7.7,7.18c0.38,42.26,0.02,84.52,0.26,126.79c4.96,2.08,8.34,6.91,8.61,12.29
		c-0.43,5.12-3.7,10.25-8.95,11.46c-3.73,1.32-7.48-0.04-10.81-1.69c-34.53,20.85-69.72,40.58-104.6,60.83
		c-1.83,1.15-3.85,2.08-5.38,3.63c-0.29,2.5-0.15,5.19-1.69,7.36c-4.12,7.26-16.11,7.47-20.51,0.43c-1.63-2.33-1.82-5.21-2.18-7.92
		c-2.98-2.53-6.83-3.79-10.11-5.9c-33.28-19.6-66.63-39.07-99.9-58.68c-5.03,3.64-12.56,3.06-16.68-1.7
		c-5.14-5.06-4.04-14.81,2.33-18.37c1.13-0.94,3.5-1.44,2.94-3.43c0.04-41.71,0.12-83.42-0.04-125.12
		c-2.24-1.83-5.44-2.69-6.68-5.56c-3.92-6.14-0.94-15.34,6.03-17.71c4.49-1.99,9.37-0.05,12.98,2.8c4.04-3.03,8.52-5.4,12.89-7.92
		c18.61-11.05,37.28-21.99,55.87-33.09C472.85,297.07,486.4,288.95,500.08,281.04 M455.1,316.13c17.67-0.06,35.35-0.05,53.02-0.05
		c-0.15-8.39,0.04-16.77-0.08-25.16c-1.69-1.07-3.37-2.14-5.03-3.23C487.08,297.23,470.58,305.87,455.1,316.13 M516.11,290.96
		c-0.47,8.35-0.04,16.74-0.21,25.11c17.43-0.08,34.86,0.24,52.29-0.16c-5.26-4.38-11.47-7.33-17.23-10.95
		c-9.98-5.66-19.72-11.79-29.92-17.01C519.36,288.87,517.68,289.85,516.11,290.96 M448.05,321.78
		c-9.35,16.14-18.42,32.44-27.68,48.64c-0.44,1.08-1.6,2.05-1.31,3.31c11.08,6.38,22.18,12.77,33.3,19.1
		c4.25-3.29,10.18-3.77,14.69-0.71c10.63-5.66,20.94-11.96,31.71-17.39c2.33-0.89,1.14-3.88,1.81-5.76c0.5-3.93,4.05-6.19,7.24-7.89
		c0.63-13.02,0.01-26.13,0.29-39.18C488.09,321.81,468.07,322.02,448.05,321.78 M515.81,321.93c0.25,13,0.08,26.02,0.12,39.03
		c5.37,2.02,9.06,7.27,8.18,13.12c11.17,5.68,21.94,12.11,32.73,18.48c2.51-1.44,5.25-2.85,8.26-2.46c2.46-0.11,4.41,1.98,6.83,1.94
		c11.17-6.35,22.48-12.47,33.58-18.93c-9.9-17.03-19.24-34.39-29.36-51.3C556.04,322.06,535.93,321.75,515.81,321.93 M417.57,337.74
		c-7.77,5.27-16.47,9.06-24,14.66c0.64,2.16,0.46,4.4,0.24,6.61c6.34,3.96,12.85,7.62,19.21,11.54
		c9.13-15.03,17.81-30.39,26.4-45.75C432.01,328.9,425.04,333.74,417.57,337.74 M584.94,324.96c6.62,10.56,12.25,21.7,18.62,32.41
		c2.53,4.2,4.55,8.79,7.6,12.63c6.52-2.98,12.66-7.07,18.84-10.8c-0.2-2.68-0.18-5.36-0.08-8.04c-12.87-7.86-25.9-15.47-38.9-23.12
		C589.03,326.95,587.26,325.26,584.94,324.96 M384.78,367.95c-0.21,17.32-0.14,34.65,0.02,51.97c8.63-13.75,16.04-28.27,24.39-42.2
		l0.01-0.77c-6.71-4.08-13.77-7.58-20.31-11.93C387.54,365.94,384.46,365.74,384.78,367.95 M632.93,366.08
		c-5.86,4.26-12.76,7.02-18.28,11.7c0.67,0.85,1.33,1.73,1.96,2.64c7.58,12.94,14.5,26.29,22.33,39.07
		c0.23-17.71,0.24-35.43-0.05-53.14C636.92,365.8,634.68,364.14,632.93,366.08 M575.9,399.22c-0.02,3.09,0.13,6.44-1.58,9.17
		c-1.37,2.38-3.89,3.68-6.13,5.1c0.71,12.11-0.04,24.26,0.6,36.37c5.59,1.71,8.09,7.85,6.95,13.29c11.1,6.2,22.02,12.71,33.02,19.08
		c10.3-16.84,19.23-34.5,29.43-51.41c-9.75-16.83-19.16-33.85-28.73-50.79C598.29,386.47,587.24,393.08,575.9,399.22 M385.83,430.94
		c3.04,4.22,5.03,9.08,7.85,13.44c7.07,12.7,14.35,25.28,21.26,38.07c10.93-6.33,21.94-12.54,32.82-18.96
		c0.91-2.05,0.02-4.59,0.93-6.71c1.25-3.29,4.11-5.55,7.13-7.14c-0.02-12.07-0.32-24.15,0.04-36.22c-3.26-1.73-6.54-4.47-6.91-8.4
		c-0.37-1.69,0.16-3.61-0.58-5.17c-11.06-6.7-22.67-12.52-33.5-19.57C405.21,397.18,395.28,413.92,385.83,430.94 M471.28,399.21
		c1.6,5.82-1.54,12.13-7.23,14.2c-0.2,11.53,0.05,23.07-0.07,34.6c-0.48,2.43,2.53,2.8,3.79,4.25c3.2,2.6,3.59,6.9,3.32,10.73
		c10.63,6.51,21.64,12.38,32.37,18.71c2.57-0.64,4.69-3.06,7.59-2.9c3.69-0.61,6.87,1.4,9.91,3.12
		c10.62-5.98,21.15-12.18,31.75-18.2c0.82-2.75-0.25-5.96,1.48-8.5c1.13-2.58,3.58-4.1,5.91-5.46c0.53-12.07-0.11-24.17,0.51-36.25
		c-2.78-1.47-5.67-3.33-6.77-6.43c-1.17-2.37-0.67-5.09-1.13-7.6c-10.9-6.12-21.68-12.47-32.62-18.54
		c-4.11,4.3-11.1,3.97-15.43,0.18l-0.68-0.01C492.95,386.91,482.41,393.59,471.28,399.21 M384.75,441.17
		c-0.01,17.32-0.21,34.66,0.13,51.99c1.76,1.56,3.97,2.61,6.05,3.71c5.93-4.33,12.54-7.59,18.76-11.47
		C401.16,470.78,393.21,455.81,384.75,441.17 M635.27,448.35c-7.21,12.26-14.25,24.63-21.05,37.13c6.33,4.01,12.99,7.5,19.35,11.48
		c1.66-1.28,3.49-2.33,5.38-3.25c0.34-17.3-0.18-34.61,0.32-51.91C637.32,443.55,636.63,446.19,635.27,448.35 M451.32,470.34
		c-3.28,2.55-7.06,4.31-10.62,6.42c-7.34,4.01-14.41,8.49-21.9,12.23c6.52,12.09,13.51,23.94,20.12,35.98
		c3.52,5.58,6.16,11.71,10.12,17.02c19.71,0.08,39.42,0.08,59.13,0.07c-0.15-13.25,0.15-26.5-0.13-39.74
		c-5.69-1.6-8.57-7.48-8.22-13.08c-10.72-6.56-21.82-12.56-32.68-18.93C462.54,473.7,455.9,473.78,451.32,470.34 M556.95,470.81
		c-10.13,5.95-20.23,11.95-30.52,17.62c-2.16,0.71-1.66,3.28-2.13,5.04c-0.47,4.36-4.02,7.85-8.17,8.9
		c-0.39,13.22-0.11,26.46-0.12,39.69c19.64,0.05,39.29-0.03,58.93,0.01c10.53-17.48,20.41-35.34,30.33-53.17
		c-11.17-6.12-22.14-12.61-33.24-18.87C567.9,473.96,561.59,473.54,556.95,470.81 M394.92,502.72c-0.01,2.54-0.23,5.1-1.06,7.53
		c12.33,8.24,25.56,15.03,38.1,22.93c1.98,1.3,4.1,2.38,6.36,3.14c-7.95-14.98-16.91-29.41-24.85-44.39
		C407.24,495.45,401.29,499.45,394.92,502.72 M584.86,537.41c15.33-8.46,30.26-17.64,45.3-26.61c-0.47-2.62-0.61-5.27-0.82-7.9
		c-6.05-3.94-12.64-6.99-18.54-11.14C601.96,506.87,593.46,522.17,584.86,537.41 M457.92,547.59c2.32,2.31,5.42,3.56,8.1,5.39
		c11.96,6.99,23.88,14.04,35.95,20.84c1.73-1.74,3.85-3,6.05-4.06c0.22-7.33-0.08-14.67,0.28-21.99
		C491.5,547.8,474.7,547.92,457.92,547.59 M515.86,547.85c0.16,7.41-0.01,14.82,0.11,22.24c2.18,0.82,4.24,2,5.71,3.86
		c5.41-3.47,11.14-6.37,16.6-9.74c9.42-5.27,18.49-11.18,28.23-15.85c-0.25-0.2-0.75-0.6-1-0.81
		C548.97,548.01,532.41,547.68,515.86,547.85z"/>
</g>
<g>
	<path d="M233.947,742.026V632.157h37.654c12.425,0,21.883,2.49,28.373,7.47c6.489,4.98,9.734,12.401,9.734,22.261
		c0,5.031-1.358,9.559-4.075,13.583c-2.716,4.025-6.691,7.144-11.922,9.356c5.935,1.611,10.526,4.641,13.771,9.093
		c3.245,4.452,4.867,9.798,4.867,16.035c0,10.313-3.308,18.236-9.923,23.77c-6.616,5.535-16.085,8.301-28.41,8.301H233.947z
		 M253.038,678.413h18.714c5.935,0,10.576-1.345,13.922-4.037c3.345-2.69,5.018-6.501,5.018-11.432
		c0-5.433-1.547-9.357-4.641-11.771c-3.094-2.415-7.912-3.622-14.451-3.622h-18.562V678.413z M253.038,692.449v34.333h21.204
		c5.986,0,10.665-1.482,14.036-4.451c3.37-2.968,5.056-7.094,5.056-12.376c0-11.419-5.836-17.254-17.506-17.506H253.038z"/>
	<path d="M329.705,639.175c0-2.816,0.892-5.156,2.679-7.018c1.785-1.86,4.339-2.792,7.659-2.792c3.32,0,5.886,0.932,7.697,2.792
		c1.811,1.861,2.716,4.201,2.716,7.018c0,2.768-0.905,5.068-2.716,6.904c-1.811,1.837-4.377,2.754-7.697,2.754
		c-3.32,0-5.874-0.917-7.659-2.754C330.597,644.243,329.705,641.943,329.705,639.175z M349.173,742.026h-18.336v-81.646h18.336
		V742.026z"/>
	<path d="M388.713,727.387h43.465v14.639h-66.253v-11.998l41.427-54.858h-40.672v-14.79h63.914v11.62L388.713,727.387z"/>
	<path d="M467.719,726.782h49.878v15.243h-68.97V632.157h19.091V726.782z"/>
	<path d="M566.419,743.534c-11.62,0-21.041-3.659-28.259-10.979c-7.22-7.32-10.829-17.066-10.829-29.241v-2.264
		c0-8.149,1.572-15.431,4.717-21.845c3.144-6.414,7.558-11.406,13.243-14.979c5.684-3.571,12.022-5.358,19.016-5.358
		c11.117,0,19.706,3.547,25.769,10.64c6.062,7.094,9.094,17.13,9.094,30.108v7.396h-53.35c0.553,6.741,2.804,12.073,6.753,15.997
		s8.916,5.886,14.903,5.886c8.4,0,15.243-3.396,20.525-10.187l9.885,9.432c-3.271,4.881-7.635,8.666-13.092,11.356
		C579.335,742.189,573.211,743.534,566.419,743.534z M564.23,673.584c-5.03,0-9.093,1.762-12.187,5.282
		c-3.094,3.521-5.068,8.427-5.923,14.715h34.938v-1.358c-0.403-6.137-2.038-10.778-4.905-13.923
		C573.286,675.157,569.312,673.584,564.23,673.584z"/>
	<path d="M641.124,718.784l17.28-58.405h18.939l-28.297,81.646h-15.922l-28.523-81.646h19.016L641.124,718.784z"/>
	<path d="M723.676,743.534c-11.62,0-21.041-3.659-28.259-10.979c-7.22-7.32-10.829-17.066-10.829-29.241v-2.264
		c0-8.149,1.572-15.431,4.717-21.845c3.144-6.414,7.558-11.406,13.243-14.979c5.684-3.571,12.022-5.358,19.016-5.358
		c11.117,0,19.706,3.547,25.769,10.64c6.062,7.094,9.094,17.13,9.094,30.108v7.396h-53.35c0.553,6.741,2.804,12.073,6.753,15.997
		s8.916,5.886,14.903,5.886c8.4,0,15.243-3.396,20.525-10.187l9.885,9.432c-3.271,4.881-7.635,8.666-13.092,11.356
		C736.592,742.189,730.468,743.534,723.676,743.534z M721.487,673.584c-5.03,0-9.093,1.762-12.187,5.282
		c-3.094,3.521-5.068,8.427-5.923,14.715h34.938v-1.358c-0.403-6.137-2.038-10.778-4.905-13.923
		C730.543,675.157,726.568,673.584,721.487,673.584z"/>
	<path d="M790.155,742.026h-18.336V626.12h18.336V742.026z"/>
</g>
</svg>
