<svg xmlns="http://www.w3.org/2000/svg" width="974" height="240" fill="none" viewBox="0 0 974 240">
  <path fill="url(#a)" d="M118 1.155a4 4 0 0 1 4 0l99.923 57.69a4 4 0 0 1 2 3.464v115.382a4 4 0 0 1-2 3.464L122 238.845a3.998 3.998 0 0 1-4 0l-99.923-57.69a4 4 0 0 1-2-3.464V62.309a4 4 0 0 1 2-3.464L118 1.155Z"/>
  <path fill="#fff" d="M118.5 60.866a3 3 0 0 1 3 0l48.962 28.268a3 3 0 0 1 1.5 2.598v56.536a3 3 0 0 1-1.5 2.598L121.5 179.134a3 3 0 0 1-3 0l-48.962-28.268a3 3 0 0 1-1.5-2.598V91.732a3 3 0 0 1 1.5-2.598L118.5 60.866Z"/>
  <path fill="url(#b)" d="M118.5 90.866a3 3 0 0 1 3 0l22.981 13.268a3 3 0 0 1 1.5 2.598v26.536a3 3 0 0 1-1.5 2.598L121.5 149.134a3 3 0 0 1-3 0l-22.98-13.268a3 3 0 0 1-1.5-2.598v-26.536a3 3 0 0 1 1.5-2.598l22.98-13.268Z"/>
  <path fill="#fff" d="M68 36.637 95 21v55L68 92.5V36.637Z"/>
  <path fill="#1C5687" d="M242.54 178V66.182h26.353V178H242.54Zm13.25-127.688c-4.174 0-7.765-1.383-10.774-4.15-3.009-2.815-4.514-6.188-4.514-10.119 0-3.98 1.505-7.352 4.514-10.119 3.009-2.814 6.6-4.222 10.774-4.222 4.222 0 7.813 1.407 10.774 4.222 3.009 2.767 4.513 6.14 4.513 10.12 0 3.93-1.504 7.303-4.513 10.118-2.961 2.767-6.552 4.15-10.774 4.15ZM294.537 178v-16.744l57.656-72.288v-.947h-55.764v-21.84h88.014v17.982l-54.89 71.051v.947h56.782V178h-91.798ZM437.458 28.91V178h-26.353V28.91h26.353Zm76.602 151.274c-11.211 0-20.893-2.33-29.047-6.989-8.104-4.707-14.341-11.356-18.709-19.946-4.368-8.639-6.552-18.807-6.552-30.503 0-11.502 2.184-21.597 6.552-30.284 4.417-8.736 10.58-15.53 18.491-20.383 7.911-4.902 17.205-7.353 27.882-7.353 6.891 0 13.395 1.116 19.51 3.349 6.163 2.183 11.599 5.58 16.307 10.191 4.756 4.61 8.493 10.483 11.21 17.617 2.718 7.086 4.077 15.531 4.077 25.334v8.081h-91.653v-17.763h66.392c-.048-5.047-1.14-9.536-3.276-13.468-2.135-3.98-5.12-7.11-8.954-9.39-3.785-2.282-8.202-3.422-13.249-3.422-5.387 0-10.119 1.31-14.196 3.931-4.077 2.572-7.255 5.97-9.536 10.192-2.233 4.174-3.373 8.76-3.422 13.759v15.506c0 6.503 1.189 12.084 3.567 16.743 2.378 4.611 5.703 8.154 9.973 10.629 4.271 2.427 9.27 3.64 14.997 3.64 3.834 0 7.304-.534 10.41-1.602 3.106-1.116 5.8-2.742 8.081-4.877 2.281-2.136 4.004-4.781 5.168-7.935l24.606 2.766c-1.553 6.503-4.513 12.182-8.881 17.035-4.32 4.805-9.852 8.542-16.598 11.211-6.746 2.621-14.463 3.931-23.15 3.931ZM682.752 66.182 642.931 178h-29.119L573.991 66.182h28.1l25.698 83.063h1.165l25.77-83.063h28.028Zm63.935 114.002c-11.211 0-20.893-2.33-29.047-6.989-8.105-4.707-14.341-11.356-18.709-19.946-4.368-8.639-6.552-18.807-6.552-30.503 0-11.502 2.184-21.597 6.552-30.284 4.417-8.736 10.58-15.53 18.491-20.383 7.911-4.902 17.205-7.353 27.882-7.353 6.891 0 13.395 1.116 19.51 3.349 6.163 2.183 11.599 5.58 16.306 10.191 4.757 4.61 8.494 10.483 11.211 17.617 2.718 7.086 4.077 15.531 4.077 25.334v8.081h-91.653v-17.763h66.392c-.048-5.047-1.14-9.536-3.276-13.468-2.135-3.98-5.12-7.11-8.954-9.39-3.786-2.282-8.202-3.422-13.249-3.422-5.387 0-10.119 1.31-14.196 3.931-4.077 2.572-7.256 5.97-9.537 10.192-2.232 4.174-3.373 8.76-3.421 13.759v15.506c0 6.503 1.189 12.084 3.567 16.743 2.378 4.611 5.703 8.154 9.973 10.629 4.271 2.427 9.27 3.64 14.997 3.64 3.834 0 7.304-.534 10.41-1.602 3.106-1.116 5.8-2.742 8.081-4.877 2.281-2.136 4.004-4.781 5.168-7.935l24.606 2.766c-1.553 6.503-4.513 12.182-8.881 17.035-4.32 4.805-9.852 8.542-16.598 11.211-6.746 2.621-14.463 3.931-23.15 3.931Zm98.369-151.275V178h-26.353V28.91h26.353Z"/>
  <defs>
    <radialGradient id="a" cx="0" cy="0" r="1" gradientTransform="rotate(90 0 120) scale(120)" gradientUnits="userSpaceOnUse">
      <stop stop-color="#1A6BAE" stop-opacity=".92"/>
      <stop offset="1" stop-color="#0C3557"/>
    </radialGradient>
    <radialGradient id="b" cx="0" cy="0" r="1" gradientTransform="rotate(90 0 120) scale(30)" gradientUnits="userSpaceOnUse">
      <stop stop-color="#01FFDC"/>
      <stop offset="1" stop-color="#008C79" stop-opacity=".98"/>
    </radialGradient>
  </defs>
</svg>
