<?xml version="1.0" encoding="utf-8"?>
<!-- Generator: Adobe Illustrator 27.9.6, SVG Export Plug-In . SVG Version: 9.03 Build 54986)  -->
<svg version="1.1" baseProfile="tiny" xmlns="http://www.w3.org/2000/svg" xmlns:xlink="http://www.w3.org/1999/xlink" x="0px"
	 y="0px" viewBox="0 0 1536 1024" overflow="visible" xml:space="preserve">
<g id="Layer_1">
	<path fill="#293859" d="M1216.9,873.2L1382,873h66.6c6.7,0,24.5-1.5,29,1.7c1.2,2.5,0.9,1.4,0.4,4.3c-3.8,3.5-17.4,2.1-23.5,2.1
		l-190.3,0.1c-20.2,0-46.9,0.5-67.5-0.5c-1.8-0.1-2.7-1.3-3.4-2.7c0.4-2.2,0.6-2.3,2.2-4C1200.2,872.6,1211.7,873.2,1216.9,873.2z"
		/>
	<path fill="#293859" d="M599.7,903.2l105.8,0.2c7.9,0,46.7-2.3,50.4,2.6c-1.1,7.9-21.9,5.2-28.1,5.2l-54,0.1h-152
		c-3.6,0-3.6-0.1-5.6-2.1c-0.4-2.7-0.6-1.6,0.7-4.2c3.3-2.6,23.7-1.6,28.9-1.6L599.7,903.2z"/>
	<path fill="#293859" d="M28.9,875.9c13.6-0.5,30.4-0.1,44.2-0.1H158h43.1c5.8,0,19.7-1.5,23,2.6c0.5,2.6,0,3.1-1,5.7
		c-12.3,0.7-30.8,0.2-43.5,0.2H95H50.1c-5.6,0-19.4,1.5-22.4-2.7C27.5,878.9,27.9,878.5,28.9,875.9z"/>
	<path fill="#293859" d="M107,917.1h100.7c13.2,0,28-0.2,41.4,0.2c1.7,0.1,2.5,1.3,3.4,2.5c0.3,2.8-0.1,3-1.7,5.5
		c-43.2,1.9-88.8-1.1-132.2,0.1c-4.4,0.1-11,0.8-13.4-3C105,919.8,105.5,919.4,107,917.1z"/>
	<path fill="#293859" d="M571.7,934.3c31.7,0,85.1-0.5,118.7,0.4c1.1,0,1.7,1.5,2.1,2.3c-0.1,2.7-0.5,3-2.2,5.1l-82.3,0.3
		c-10.8,0-23.5,0.3-34.3-0.4c-2.1-0.1-2.6-1.1-3.6-2.5C569.9,936.9,570.2,936.5,571.7,934.3z"/>
	<path fill="#293859" d="M1297.9,904.3l82.4-0.3c10.1,0,22.5-0.3,32.7,0.4c2.1,0.2,2.7,1.3,3.6,2.7c-0.3,3.2,0,2-2.2,4.9
		c-34.9,1.3-71.1-0.5-106.1,0.4c-4.3,0.1-9.7,0.8-12.3-2.9C1295.9,906.9,1296.3,906.5,1297.9,904.3z"/>
	<path fill="#293859" d="M1101.2,925.4c14.3,0.5,29-0.7,43.3,0.4c3.2,0.2,4.9,0.7,6.3,3.7c-0.8,3-0.2,1.9-2.6,4.3
		c-14.6-0.2-30,0.6-44.6-0.5c-2.9-0.2-4.6-0.9-5.7-3.6C1098.9,926.8,1098.4,927.9,1101.2,925.4z"/>
	<path fill="#293859" d="M170.4,947.9c7.8-0.4,36.5-2.4,41.2,2.7c0.1,3.2,0.3,2-1.4,5.3c-8.4,0-36.8,2.5-41.4-3.1
		C168.8,949.7,168.6,950.9,170.4,947.9z"/>
	<path fill="#293859" d="M360.2,936c6.3-0.6,32.9-2.1,36.9,2.2c0.7,2.4,0.3,2.7-0.6,5.2c-7.2,0.1-32.5,2-36.7-2.3
		C359.1,938.1,359.2,939.2,360.2,936z"/>
</g>
<g id="Layer_3">
	<path fill="#94ABB9" d="M69.7,790.8c0,0-37-2.8-38.8-13.7c-1.8-10.9-3.9-29.5,4.4-40.4c8.3-10.9-5.4-24.9-0.8-33.9
		s40.1-28.7,57-17.9s39.8,53.1,34.5,62.7c-5.3,9.6-24.4,31.1-28.6,33.2S80.1,792.1,69.7,790.8z"/>
	<path fill="#293859" d="M120.5,714.7c-6.5-11.9-17-26.9-26.9-33.3c-6.7-4.3-16.3-5-27.7-1.9c-14.8,4-31.2,13.9-35,21.3
		c-2.8,5.5-0.9,11.5,0.9,17.3c2.3,7.2,3.4,11.9,0.3,16c-6.9,9-8.5,23.2-5.2,43.5c2.1,12.6,31.6,16.2,41.8,17v35.2h7.6V809l0.2,0.8
		v-15.3c7.7-1.4,15.3-5.9,19.9-8.6c1.2-0.7,2.2-1.3,2.8-1.6c5.5-2.7,25-25.2,30.3-34.8C133.8,741.5,125.7,724.3,120.5,714.7z
		 M122.5,745.6c-5.1,9.4-23.7,29.7-26.8,31.5c-0.9,0.4-1.9,1-3.3,1.8c-3.8,2.2-10,5.9-15.9,7.3V779c0-22.6,23.6-35.1,23.8-35.2
		l-1.8-3.6l-1.8-3.6c-0.8,0.4-14.4,7.6-22.4,21.4c-3.1-15.6-8.2-30.2-8.5-31l-7.5,2.7c0.1,0.2,4.9,14.1,8,28.8
		c-3.1-3.8-7-7.6-12-10.6l-4.1,6.9c13.9,8.3,18.5,25,18.6,25.2l0.1,0.3v6.4c-17.2-1.5-33.2-6.3-33.9-10.3c-3-17.7-1.7-30.3,3.6-37.3
		c5.9-7.7,3.2-16.3,1-23.2c-1.4-4.5-2.7-8.7-1.4-11.3c2.2-4.3,15.8-13.5,30-17.3c3.3-0.9,7.2-1.6,11.1-1.6c3.7,0,7.3,0.7,10.2,2.6
		c7.1,4.6,16.6,16.5,24.2,30.4C122.5,735,123.4,743.9,122.5,745.6z"/>
	<path fill="#94ABB9" d="M1114.7,776.1c0,0,41.5-3.9,43.5-18.9c2-15,4.4-40.7-4.9-55.7c-9.3-15,6.1-34.3,0.9-46.8
		s-45-39.6-63.8-24.6c-18.9,15-44.6,73.2-38.7,86.4c5.9,13.2,27.4,42.9,32,45.7C1088.3,765,1103,777.9,1114.7,776.1z"/>
	<path fill="#293859" d="M1057.7,671.2c7.3-16.4,19-37.1,30.1-45.9c7.5-6,18.2-6.9,31-2.7c16.6,5.5,35,19.2,39.2,29.4
		c3.2,7.6,1.1,15.9-1,23.9c-2.5,10-3.8,16.4-0.3,22.1c7.7,12.4,9.6,32,5.8,60c-2.4,17.4-35.4,22.3-46.8,23.4V830h-8.5v-28.8l-0.2,1
		v-21.2c-8.6-2-17.2-8.1-22.3-11.8c-1.3-0.9-2.4-1.8-3.1-2.2c-6.1-3.8-28-34.7-33.9-48C1042.8,708.1,1051.9,684.4,1057.7,671.2z
		 M1055.5,713.8c5.8,12.9,26.5,41,30.1,43.4c1,0.6,2.2,1.4,3.7,2.5c4.3,3.1,11.2,8.1,17.8,10.1v-10c0-31.2-26.4-48.3-26.7-48.5
		l2-4.9l2-4.9c0.9,0.6,16.2,10.4,25.1,29.5c3.4-21.5,9.2-41.6,9.5-42.8l8.5,3.7c-0.1,0.3-5.5,19.5-8.9,39.8
		c3.5-5.3,7.9-10.5,13.4-14.6l4.6,9.5c-15.6,11.5-20.8,34.5-20.8,34.7l-0.1,0.3v8.8c19.3-2.1,37.2-8.7,37.9-14.2
		c3.3-24.4,1.9-41.8-4.1-51.5c-6.6-10.6-3.5-22.5-1.1-32c1.6-6.2,3-12,1.6-15.6c-2.5-6-17.7-18.6-33.6-23.8
		c-3.7-1.2-8.1-2.2-12.4-2.2c-4.1,0-8.2,0.9-11.4,3.5c-8,6.3-18.6,22.8-27.1,41.9C1055.5,699.1,1054.5,711.4,1055.5,713.8z"/>
	<path fill="#293859" d="M732.1,829.5H0v9.1h740C736.1,836.1,733.2,833.1,732.1,829.5z"/>
	<path fill="#94ABB9" d="M761.6,798.7l5.3-8.8c6.4,3.8,11.4,8.6,15.4,13.6c-3.9-19-10.2-36.9-10.3-37.2l9.7-3.4
		c0.4,1.1,7,20,10.9,40c10.3-17.8,27.9-27,28.9-27.5l2.3,4.6l2.4,4.6c-0.3,0.2-30.4,16.1-30.7,45h20.9c1.5-0.9,2.8-1.6,3.8-2.1
		c4.1-2.3,28-28.5,34.6-40.6c1.2-2.2,0-13.7-11.6-34.8c-9.8-17.9-22-33.2-31.2-39.2c-3.8-2.4-8.4-3.3-13.1-3.3c-5,0-10.1,1-14.3,2.1
		c-18.3,4.9-35.7,16.7-38.6,22.3c-1.7,3.3,0,8.8,1.8,14.5c2.8,8.9,6.3,20-1.3,29.9c-6.9,9.1-8.5,25.3-4.7,48.1c0.2,1,1.1,2,2.6,3
		H785C783.2,824.2,776.6,807.7,761.6,798.7z"/>
	<path fill="#94ABB9" d="M795.6,839.2c0.6-0.2,1.3-0.3,1.9-0.5h-1.9V839.2z"/>
	<path fill="#293859" d="M736.9,827.3c-2.3-14-5-38,5.7-52.1c10.7-14-7-32-1-43.7c6-11.7,51.7-37,73.4-23
		c21.7,14,51.2,68.4,44.5,80.8c-5.8,10.6-24.9,32.6-33.5,40.2h7.5c10.4-10.3,25.5-28.6,30.6-37.8c5.6-10.3-4.8-32.4-11.6-44.7
		c-8.4-15.3-21.9-34.6-34.6-42.9c-8.6-5.6-21-6.4-35.7-2.5c-19.1,5.1-40.2,18-45.1,27.5c-3.6,7.1-1.2,14.8,1.1,22.3
		c2.9,9.3,4.4,15.3,0.4,20.6c-8.8,11.6-11,29.9-6.7,56c0.1,0.5,0.2,0.9,0.3,1.3h5.5C737.3,828.8,737,828.1,736.9,827.3z"/>
	<path fill="#293859" d="M859.4,789.3c6.8-12.3-22.8-66.7-44.5-80.8c-21.7-14-67.4,11.3-73.4,23c-6,11.7,11.7,29.7,1,43.7
		c-10.7,14-8,38-5.7,52.1c0.1,0.8,0.4,1.5,0.8,2.2h6.9c-1.5-1-2.4-2.1-2.6-3c-3.8-22.8-2.2-39,4.7-48.1c7.5-9.9,4.1-21,1.3-29.9
		c-1.8-5.8-3.5-11.2-1.8-14.5c2.9-5.6,20.3-17.4,38.6-22.3c4.2-1.1,9.3-2.1,14.3-2.1c4.7,0,9.4,0.9,13.1,3.3
		c9.2,5.9,21.4,21.3,31.2,39.2c11.6,21.1,12.8,32.6,11.6,34.8c-6.6,12.1-30.5,38.3-34.6,40.6c-1,0.5-2.3,1.2-3.8,2.1h9.4
		C834.5,821.9,853.6,799.9,859.4,789.3z"/>
	<path fill="#293859" d="M826.3,784.5l-2.4-4.6l-2.3-4.6c-1,0.5-18.6,9.7-28.9,27.5c-4-20-10.5-38.9-10.9-40l-9.7,3.4
		c0.1,0.3,6.4,18.2,10.3,37.2c-4-4.9-9.1-9.8-15.4-13.6l-5.3,8.8c15,9,21.6,25.6,23.4,30.8h10.7C795.9,800.6,826,784.7,826.3,784.5z
		"/>
	<path fill="#94ABB9" d="M13.2,762.1c0-15.6-6.6-27.7-13.2-35.9v39c3.9,2.6,8.7,5.5,13.2,6.9V762.1z"/>
	<path fill="#94ABB9" d="M15.8,733.2c3.4-21.5,9.2-41.6,9.5-42.8l8.5,3.7c-0.1,0.3-5.5,19.5-8.9,39.8c3.5-5.3,7.9-10.5,13.4-14.6
		l4.6,9.5c-15.6,11.5-20.8,34.5-20.8,34.7l-0.1,0.3v8.8c19.3-2.1,37.2-8.7,37.9-14.2c3.3-24.4,1.9-41.8-4.1-51.5
		c-6.6-10.6-3.5-22.5-1.1-32c1.6-6.2,3-12,1.6-15.6c-2.5-6-17.7-18.6-33.6-23.8c-3.7-1.2-8.1-2.2-12.4-2.2c-3.6,0-7.2,0.7-10.3,2.7
		v75.3C5.1,716.3,11.3,723.6,15.8,733.2z"/>
	<path fill="#293859" d="M63,700.3c-3.5-5.7-2.2-12.1,0.3-22.1c2-8,4.1-16.3,1-23.9c-4.3-10.2-22.6-24-39.2-29.4
		c-9.7-3.2-18.2-3.4-25-0.8v5.8c19.9-9.6,55.3,15.1,60.3,26.9c5.2,12.5-10.2,31.8-0.9,46.8c9.3,15,7,40.7,4.9,55.7
		c-2,15-43.5,18.9-43.5,18.9c-6.7,1-14.5-2.8-20.8-6.9v6.2c4,2.4,8.6,4.7,13.2,5.7v21.2l0.2-1v28.8H22v-48.5
		c11.4-1.2,44.4-6,46.8-23.4C72.5,732.3,70.6,712.7,63,700.3z"/>
	<path fill="#293859" d="M10.3,633.3c4.3,0,8.7,1,12.4,2.2c15.9,5.2,31.1,17.9,33.6,23.8c1.5,3.5,0,9.4-1.6,15.6
		c-2.4,9.6-5.4,21.4,1.1,32c6,9.7,7.4,27,4.1,51.5c-0.7,5.5-18.6,12.1-37.9,14.2v-8.8l0.1-0.3c0-0.2,5.2-23.2,20.8-34.7l-4.6-9.5
		c-5.5,4.1-9.9,9.3-13.4,14.6c3.4-20.3,8.8-39.5,8.9-39.8l-8.5-3.7c-0.3,1.2-6.1,21.4-9.5,42.8c-4.5-9.6-10.7-16.9-15.8-21.8v14.8
		c6.6,8.2,13.2,20.3,13.2,35.9v10c-4.6-1.4-9.3-4.2-13.2-6.9v6.3c6.3,4,14.1,7.9,20.8,6.9c0,0,41.5-3.9,43.5-18.9
		c2-15,4.4-40.7-4.9-55.7c-9.3-15,6.1-34.3,0.9-46.8C55.4,645.1,19.9,620.4,0,630v6.1C3.1,634,6.7,633.3,10.3,633.3z"/>
	<path fill="none" d="M1506,801.7l-0.4-1v28.8h30.4v-58.1c-8.2,3.5-19,7.6-30,9.2V801.7z"/>
	<polygon fill="#EEEEEC" points="0,838.6 0,1023.5 1536,1023.5 1536,893.1 1536,838.6 821.3,838.6 	"/>
	<path fill="#293859" d="M833.4,829.5H0H833.4C833.4,829.5,833.4,829.5,833.4,829.5z"/>
	<path fill="#293859" d="M824.9,836.6c1.8-0.9,4.8-3.5,8.4-7L0,829.5v9.1h821.3C822.8,837.8,824.1,837,824.9,836.6z"/>
	<path fill="#94ABB9" d="M1529.1,634.1c-5.3-2.6-11.8-3.5-18.4-3.5c-7,0-14.1,1-20,2.2c-25.6,5.2-50.1,17.9-54.1,23.8
		c-2.4,3.5,0,9.4,2.5,15.6c3.9,9.6,8.8,21.4-1.8,32c-9.7,9.7-11.9,27-6.6,51.5c1.2,5.5,30,12.1,61.2,14.2v-8.8l-0.1-0.3
		c-0.1-0.2-8.4-23.2-33.5-34.7l7.4-9.5c8.9,4.1,16,9.3,21.6,14.6c-5.5-20.3-14.2-39.5-14.4-39.8l13.6-3.7
		c0.6,1.2,9.8,21.4,15.3,42.8c10.2-13.5,25.5-22.3,34.1-26.6v-65.7C1533.6,636.6,1531.3,635.2,1529.1,634.1z"/>
	<path fill="#94ABB9" d="M1506,759.3v10c10.6-2,21.8-7,28.7-10.1c0.5-0.2,0.9-0.4,1.3-0.6v-41.1C1523.3,725.2,1506,739.4,1506,759.3
		z"/>
	<path fill="#293859" d="M1493.8,775.6c0,0-66.9-3.9-70.2-18.9c-3.3-15-7-40.7,8-55.7c15-15-9.8-34.3-1.4-46.8
		c8.4-12.5,72.5-39.6,102.9-24.6c1,0.5,1.9,1,2.9,1.6v-6.6c-12-5.5-28.9-6.3-49-2.2c-26.8,5.5-56.4,19.2-63.2,29.4
		c-5.1,7.6-1.7,15.9,1.6,23.9c4.1,10,6.1,16.4,0.5,22.1c-12.4,12.4-15.4,32-9.3,60c3.8,17.4,57,22.3,75.4,23.4v48.5h13.7v-28.8
		l0.4,1v-21.2c11-1.6,21.8-5.7,30-9.2V765C1525.3,769.8,1508,776.9,1493.8,775.6z"/>
	<path fill="#293859" d="M1430.1,654.1c-8.4,12.5,16.4,31.8,1.4,46.8c-15,15-11.2,40.7-8,55.7c3.3,15,70.2,18.9,70.2,18.9
		c14.3,1.4,31.5-5.8,42.2-10.5v-6.4c-0.4,0.2-0.8,0.4-1.3,0.6c-6.9,3.1-18.1,8.1-28.7,10.1v-10c0-19.9,17.4-34.1,30-41.8v-13.6
		c-8.6,4.2-23.9,13.1-34.1,26.6c-5.5-21.5-14.8-41.6-15.3-42.8l-13.6,3.7c0.1,0.3,8.9,19.5,14.4,39.8c-5.6-5.3-12.7-10.5-21.6-14.6
		l-7.4,9.5c25.1,11.5,33.5,34.5,33.5,34.7l0.1,0.3v8.8c-31.1-2.1-60-8.7-61.2-14.2c-5.3-24.4-3.1-41.8,6.6-51.5
		c10.6-10.6,5.7-22.5,1.8-32c-2.5-6.2-4.9-12-2.5-15.6c4-6,28.5-18.6,54.1-23.8c5.9-1.2,13-2.2,20-2.2c6.6,0,13.1,0.9,18.4,3.5
		c2.2,1.1,4.5,2.4,6.9,4.1V631c-1-0.6-2-1.1-2.9-1.6C1502.7,614.5,1438.6,641.6,1430.1,654.1z"/>
	<path fill="#293859" d="M1491.9,829.5H833.4c0,0,0,0-0.1,0.1l702.7,0v-0.1h-30.4H1491.9z"/>
	<path fill="#293859" d="M833.3,829.6c-3.6,3.5-6.6,6.1-8.4,7c-0.8,0.4-2.1,1.2-3.6,2H1536v-9L833.3,829.6z"/>
	<path fill="#293859" d="M1222.4,889.4l165.1-0.2l66.6,0c6.7,0,24.5-1.5,29,1.7c1.2,2.5,0.9,1.4,0.4,4.3c-3.8,3.5-17.4,2.1-23.5,2.1
		l-190.3,0.1c-20.2,0-46.9,0.5-67.5-0.5c-1.8-0.1-2.7-1.3-3.4-2.7c0.4-2.2,0.6-2.3,2.2-4C1205.6,888.8,1217.2,889.3,1222.4,889.4z"
		/>
	<path fill="#293859" d="M605.2,919.3l105.8,0.2c7.9,0,46.7-2.3,50.4,2.6c-1.1,7.9-21.9,5.2-28.1,5.2l-54,0.1l-152,0
		c-3.6,0-3.6-0.1-5.6-2.1c-0.4-2.7-0.6-1.6,0.7-4.2c3.3-2.6,23.7-1.6,28.9-1.6L605.2,919.3z"/>
	<path fill="#293859" d="M34.4,892.1c13.6-0.5,30.4-0.1,44.2-0.1l84.9,0l43.1,0c5.8,0,19.7-1.5,23,2.6c0.5,2.6,0,3.1-1,5.7
		c-12.3,0.7-30.8,0.2-43.5,0.2l-84.6,0l-44.9,0c-5.6,0-19.4,1.5-22.4-2.7C32.9,895.1,33.3,894.6,34.4,892.1z"/>
	<path fill="#293859" d="M112.4,933.2l100.7,0c13.2,0,28-0.2,41.4,0.2c1.7,0.1,2.5,1.3,3.4,2.5c0.3,2.8-0.1,3-1.7,5.5
		c-43.2,1.9-88.8-1.1-132.2,0.1c-4.4,0.1-11,0.8-13.4-3C110.5,935.9,111,935.5,112.4,933.2z"/>
	<path fill="#293859" d="M577.1,950.4c31.7,0,85.1-0.5,118.7,0.4c1.1,0,1.7,1.5,2.1,2.3c-0.1,2.7-0.5,3-2.2,5.1l-82.3,0.3
		c-10.8,0-23.5,0.3-34.3-0.4c-2.1-0.1-2.6-1.1-3.6-2.5C575.4,953.1,575.7,952.7,577.1,950.4z"/>
	<path fill="#293859" d="M1303.3,920.5l82.4-0.3c10.1,0,22.5-0.3,32.7,0.4c2.1,0.2,2.7,1.3,3.6,2.7c-0.3,3.2,0,2-2.2,4.9
		c-34.9,1.3-71.1-0.5-106.1,0.4c-4.3,0.1-9.7,0.8-12.3-2.9C1301.4,923,1301.7,922.7,1303.3,920.5z"/>
	<path fill="#293859" d="M1106.6,941.6c14.3,0.5,29-0.7,43.3,0.4c3.2,0.2,4.9,0.7,6.3,3.7c-0.8,3-0.2,1.9-2.6,4.3
		c-14.6-0.2-30,0.6-44.6-0.5c-2.9-0.2-4.6-0.9-5.7-3.6C1104.4,942.9,1103.9,944,1106.6,941.6z"/>
	<path fill="#293859" d="M175.9,964.1c7.8-0.4,36.5-2.4,41.2,2.7c0.1,3.2,0.3,2-1.4,5.3c-8.4,0-36.8,2.5-41.4-3.1
		C174.3,965.9,174.1,967.1,175.9,964.1z"/>
	<path fill="#293859" d="M365.6,952.1c6.3-0.6,32.9-2.1,36.9,2.2c0.7,2.4,0.3,2.7-0.6,5.2c-7.2,0.1-32.5,2-36.7-2.3
		C364.6,954.2,364.7,955.4,365.6,952.1z"/>
</g>
</svg>
