<svg xmlns="http://www.w3.org/2000/svg" width="95" height="68" fill="none" viewBox="0 0 95 68">
  <path fill="#6A6967" fill-opacity=".5" d="M52.278 3.913 95 31.662 42.16 68 0 40.25 52.278 3.914Z"/>
  <path fill="#57892B" d="m50.338 37.68-15.91 10.633 10.58 7.082 15.909-10.632-10.58-7.082Z"/>
  <path fill="#999" d="m85.786 29.267-9.788 6.585-5.427-3.634-4.624 3.113 10.055 6.733 14.414-9.697-4.63-3.1Z"/>
  <path fill="#0094B0" d="m57.758 40.062 15.53-10.483V17.111l-5.678-.282-9.852 10.762v12.47Z"/>
  <path fill="#005371" d="M57.758 40.062 33.694 23.707V11.236L57.758 27.59v12.47Z"/>
  <path fill="#14CAE2" d="m37.342 16.78-2.58-1.755v-1.337l2.58 1.755v1.337Z"/>
  <path fill="#005371" d="M34.916 14.91v-1.124l2.426 1.657v1.122l-2.426-1.656Z"/>
  <path fill="#14CAE2" d="m40.812 19.138-2.582-1.755v-1.339l2.582 1.755v1.339Z"/>
  <path fill="#005371" d="M38.386 17.265v-1.123l2.426 1.657v1.122l-2.426-1.656Z"/>
  <path fill="#14CAE2" d="m44.28 21.494-2.58-1.755V18.4l2.581 1.755v1.339Z"/>
  <path fill="#005371" d="M41.855 19.62V18.5l2.425 1.655v1.122l-2.425-1.657Z"/>
  <path fill="#14CAE2" d="m47.749 23.85-2.58-1.755v-1.339l2.58 1.756v1.338Z"/>
  <path fill="#005371" d="M45.324 21.976v-1.12l2.425 1.656v1.121l-2.425-1.657Z"/>
  <path fill="#14CAE2" d="m37.342 18.858-2.58-1.755v-1.339l2.58 1.755v1.339Z"/>
  <path fill="#005371" d="M34.916 16.985v-1.122l2.426 1.656v1.122l-2.426-1.656Z"/>
  <path fill="#14CAE2" d="m36.197 23.581-1.419-.961v-1.377l1.419.962v1.377Z"/>
  <path fill="#005371" d="M34.938 22.498v-1.154l1.259.86v1.154l-1.26-.86Z"/>
  <path fill="#14CAE2" d="m38.34 25.028-1.42-.961v-1.379l1.42.963v1.377Z"/>
  <path fill="#005371" d="M37.081 23.944V22.79l1.26.86v1.155l-1.26-.862Z"/>
  <path fill="#14CAE2" d="m40.485 26.477-1.42-.964v-1.378l1.42.963v1.379Z"/>
  <path fill="#005371" d="M39.227 25.392v-1.154l1.258.86v1.155l-1.258-.861Z"/>
  <path fill="#14CAE2" d="m42.629 27.922-1.42-.962v-1.377l1.42.964v1.375Z"/>
  <path fill="#005371" d="M41.37 26.839v-1.154l1.259.862V27.7l-1.258-.861Z"/>
  <path fill="#14CAE2" d="m44.773 29.37-1.42-.962V27.03l1.42.964v1.375Z"/>
  <path fill="#005371" d="M43.513 28.287v-1.155l1.26.862v1.153l-1.26-.86Z"/>
  <path fill="#14CAE2" d="m46.917 30.817-1.42-.963v-1.377l1.42.964v1.376Z"/>
  <path fill="#005371" d="M45.657 29.733v-1.155l1.26.863v1.154l-1.26-.862Z"/>
  <path fill="#14CAE2" d="m49.06 32.263-1.42-.962v-1.375l1.42.962v1.375Z"/>
  <path fill="#005371" d="M47.801 31.18v-1.154l1.26.861v1.155l-1.26-.861Z"/>
  <path fill="#14CAE2" d="M40.812 21.214 38.23 19.46v-1.338l2.582 1.753v1.339Z"/>
  <path fill="#005371" d="M38.386 19.341V18.22l2.426 1.656v1.123l-2.426-1.657Z"/>
  <path fill="#14CAE2" d="m44.28 23.57-2.58-1.755v-1.339l2.581 1.758v1.336Z"/>
  <path fill="#005371" d="M41.855 21.697v-1.12l2.425 1.657v1.12l-2.425-1.657Z"/>
  <path fill="#14CAE2" d="m47.748 25.926-2.58-1.755v-1.336l2.58 1.753v1.338Z"/>
  <path fill="#005371" d="M45.324 24.055v-1.122l2.425 1.655v1.122l-2.425-1.655Z"/>
  <path fill="#FFC690" d="m68.845 17.309 4.707-.45L49.166.285 43.412 0l25.433 17.309Z"/>
  <path fill="#D89A73" d="m67.799 16.574-9.984 10.907L33.62 10.995 43.412 0 67.8 16.574Z"/>
  <path fill="#FFCBA1" d="m67.725 16.524 5.828.336v.786l-5.754-.286-9.984 10.907v-.786l9.91-10.957Z"/>
  <path fill="#D89A73" d="m33.429 11.738.165-.719 24.221 16.462v.786L33.43 11.737Z"/>
  <path fill="#14CAE2" d="m70.829 22.793 1.607-1.092v-1.556l-1.608 1.087v1.56Z"/>
  <path fill="#005371" d="M72.254 21.565v-1.307l-1.425.974v1.308l1.425-.975Z"/>
  <path fill="#14CAE2" d="m68.402 24.431 1.607-1.091v-1.558l-1.607 1.09v1.56Z"/>
  <path fill="#005371" d="M69.828 23.204v-1.307l-1.426.975v1.305l1.426-.973Z"/>
  <path fill="#14CAE2" d="m65.974 26.068 1.608-1.09v-1.56l-1.608 1.091v1.56Z"/>
  <path fill="#005371" d="M67.4 24.84v-1.306l-1.426.975v1.308l1.426-.976Z"/>
  <path fill="#14CAE2" d="m63.548 27.706 1.606-1.09v-1.558l-1.606 1.09v1.558Z"/>
  <path fill="#005371" d="M64.972 26.48v-1.308l-1.424.976v1.306l1.424-.975Z"/>
  <path fill="#14CAE2" d="m61.12 29.344 1.607-1.089v-1.558l-1.606 1.09v1.557Z"/>
  <path fill="#005371" d="M62.546 28.118V26.81l-1.425.976v1.307l1.425-.975Z"/>
  <path fill="#14CAE2" d="m58.693 30.984 1.608-1.09v-1.56l-1.608 1.09v1.56Z"/>
  <path fill="#005371" d="M60.119 29.756V28.45l-1.426.975v1.305l1.426-.974Z"/>
  <path fill="#BF7E5A" d="M73.646 23.118v.734l-15.53 10.483v-.736l15.53-10.481Z"/>
  <path fill="#D89A73" d="M58.117 33.566v.769l-.36-.246v-.766l.36.243Z"/>
  <path fill="#FFC690" d="m73.646 23.118-.359-.276-15.53 10.48.36.277 15.529-10.481Z"/>
  <path fill="#005371" d="M25.03 50.485 9.498 40.005V27.534l5.677-.28 9.853 10.762v12.469Z"/>
  <path fill="#0094B0" d="m25.03 50.485 24.062-16.353v-12.47L25.029 38.016v12.469Z"/>
  <path fill="#FFCBA1" d="M22.407 52.256v.302l26.685-18.141v-.285L22.407 52.255Z"/>
  <path fill="#14CAE2" d="m45.444 27.491 2.582-1.754v-1.339l-2.582 1.755v1.338Z"/>
  <path fill="#005371" d="M47.87 25.62v-1.124l-2.426 1.657v1.122l2.426-1.656Z"/>
  <path fill="#14CAE2" d="m41.974 29.848 2.583-1.755v-1.337l-2.583 1.754v1.337Z"/>
  <path fill="#005371" d="M44.401 27.975v-1.12l-2.427 1.655v1.122l2.428-1.657Z"/>
  <path fill="#14CAE2" d="m38.507 32.203 2.581-1.754v-1.336l-2.581 1.753v1.337Z"/>
  <path fill="#005371" d="M40.932 30.332V29.21l-2.425 1.657v1.12l2.425-1.654Z"/>
  <path fill="#14CAE2" d="m35.038 34.56 2.58-1.754V31.47l-2.58 1.753v1.339Z"/>
  <path fill="#005371" d="M37.463 32.688v-1.121l-2.425 1.655v1.124l2.425-1.657Z"/>
  <path fill="#14CAE2" d="m31.568 36.917 2.581-1.755v-1.338l-2.58 1.754v1.339Z"/>
  <path fill="#005371" d="M33.994 35.045v-1.122l-2.426 1.655v1.124l2.426-1.657Z"/>
  <path fill="#14CAE2" d="m45.444 29.569 2.582-1.756v-1.336l-2.582 1.755v1.337Z"/>
  <path fill="#005371" d="M47.87 27.696v-1.122l-2.426 1.657v1.121l2.426-1.656Z"/>
  <path fill="#14CAE2" d="m46.59 34.293 1.418-.962v-1.377l-1.419.962v1.377Z"/>
  <path fill="#005371" d="M47.847 33.21v-1.156l-1.258.862v1.155l1.258-.862Z"/>
  <path fill="#14CAE2" d="m44.445 35.74 1.42-.962V33.4l-1.42.962v1.377Z"/>
  <path fill="#005371" d="M45.705 34.656v-1.154l-1.26.86v1.156l1.26-.862Z"/>
  <path fill="#14CAE2" d="m42.301 37.188 1.42-.963v-1.379l-1.42.964v1.378Z"/>
  <path fill="#005371" d="M43.56 36.103v-1.154l-1.259.86v1.156l1.26-.862Z"/>
  <path fill="#14CAE2" d="m40.159 38.635 1.418-.963v-1.379l-1.418.965v1.377Z"/>
  <path fill="#005371" d="M41.417 37.55v-1.154l-1.258.862v1.153l1.258-.861Z"/>
  <path fill="#14CAE2" d="m38.014 40.082 1.418-.964v-1.377l-1.419.962v1.379Z"/>
  <path fill="#005371" d="M39.273 38.997v-1.154l-1.26.86v1.155l1.26-.861Z"/>
  <path fill="#14CAE2" d="m35.87 41.529 1.418-.962v-1.379l-1.418.964v1.377Z"/>
  <path fill="#005371" d="M37.129 40.445V39.29l-1.26.862v1.153l1.26-.86Z"/>
  <path fill="#14CAE2" d="m33.726 42.976 1.42-.964v-1.377l-1.42.964v1.377Z"/>
  <path fill="#005371" d="M34.985 41.892v-1.154l-1.26.86v1.154l1.26-.86Z"/>
  <path fill="#14CAE2" d="m31.582 44.422 1.42-.961v-1.379l-1.42.963v1.377Z"/>
  <path fill="#005371" d="M32.84 43.339v-1.155l-1.258.861V44.2l1.259-.861Z"/>
  <path fill="#14CAE2" d="m41.974 31.926 2.583-1.756v-1.337l-2.583 1.755v1.338Z"/>
  <path fill="#005371" d="M44.401 30.054V28.93l-2.427 1.656v1.121l2.428-1.654Z"/>
  <path fill="#14CAE2" d="m38.507 34.28 2.581-1.753v-1.34l-2.58 1.756v1.338Z"/>
  <path fill="#005371" d="M40.932 32.41v-1.123l-2.425 1.657v1.121l2.425-1.655Z"/>
  <path fill="#14CAE2" d="m35.038 36.638 2.58-1.755v-1.338l-2.58 1.755v1.338Z"/>
  <path fill="#005371" d="M37.463 34.766v-1.123L35.038 35.3v1.121l2.425-1.655Z"/>
  <path fill="#14CAE2" d="m31.568 38.994 2.581-1.755v-1.338l-2.58 1.756v1.337Z"/>
  <path fill="#005371" d="M33.994 37.12v-1.119l-2.426 1.656v1.122l2.426-1.659Z"/>
  <path fill="#F4971E" d="m25.602 50.093 5.032-3.418V41.36l-5.032 3.419v5.315Z"/>
  <path fill="#D37F05" d="M30.447 46.579v-5.093l-4.845 3.292v5.093l4.845-3.292Z"/>
  <path fill="#E88815" d="m26.507 44.95-.649.44v1.875l.066.034.65-2.315-.067-.034Z"/>
  <path fill="#F4971E" d="m26.574 44.984-.65.441V47.3l.65-.44v-1.875Z"/>
  <path fill="#005371" d="m25.992 45.473.506-.345v1.689l-.506.346v-1.69Z"/>
  <path fill="#D37F05" d="M26.438 45.169v1.62l-.446.304v.07l.506-.346v-1.689l-.06.041Z"/>
  <path fill="#E88815" d="m27.388 44.37-.65.44v1.876l.069.033.648-2.315-.067-.034Z"/>
  <path fill="#F4971E" d="m27.454 44.404-.647.441v1.874l.648-.44v-1.875Z"/>
  <path fill="#005371" d="m26.873 44.892.506-.344v1.69l-.506.342v-1.688Z"/>
  <path fill="#D37F05" d="M27.32 44.59v1.619l-.447.304v.067l.506-.342v-1.69l-.06.042Z"/>
  <path fill="#E88815" d="m28.258 43.775-.65.441v1.874l.068.036.649-2.317-.067-.034Z"/>
  <path fill="#F4971E" d="m28.325 43.81-.65.44v1.876l.65-.44v-1.877Z"/>
  <path fill="#005371" d="m27.743 44.298.506-.343v1.688l-.506.344v-1.689Z"/>
  <path fill="#D37F05" d="M28.19 43.996v1.618l-.447.304v.069l.506-.344v-1.688l-.06.04Z"/>
  <path fill="#E88815" d="m29.149 43.183-.651.441v1.874l.068.034.649-2.313-.066-.036Z"/>
  <path fill="#F4971E" d="m29.215 43.219-.649.44v1.873l.649-.44V43.22Z"/>
  <path fill="#005371" d="m28.634 43.708.506-.345v1.688l-.506.345v-1.688Z"/>
  <path fill="#D37F05" d="M29.079 43.404v1.62l-.445.302v.07l.506-.345v-1.688l-.061.04Z"/>
  <path fill="#E88815" d="m30.018 42.59-.649.44v1.875l.066.034.65-2.315-.067-.034Z"/>
  <path fill="#F4971E" d="m30.085 42.624-.65.44v1.875l.65-.44v-1.875Z"/>
  <path fill="#005371" d="m29.503 43.112.506-.343v1.69l-.506.344v-1.691Z"/>
  <path fill="#D37F05" d="M29.95 42.809v1.62l-.447.304v.07l.506-.345V42.77l-.059.04Z"/>
  <path fill="#BF7E5A" d="m13.94 28.021-4.706-.45L33.62 10.995l15.533-7.093-35.212 24.12Z"/>
  <path fill="#FFC690" d="m14.988 27.285 9.984 10.908L49.357 21.62l-.204-17.717-34.165 23.383Z"/>
  <path fill="#D89A73" d="m15.06 27.236-5.826.335v.785l5.754-.284 9.984 10.908v-.787l-9.911-10.956Z"/>
  <path fill="#FFCBA1" d="M49.357 22.449v-.83L24.972 38.193v.787l24.385-16.531Z"/>
  <path fill="#14CAE2" d="m11.958 33.502-1.608-1.088v-1.56l1.608 1.09v1.558Z"/>
  <path fill="#0094B0" d="M10.532 32.276V30.97l1.426.974v1.308l-1.426-.975Z"/>
  <path fill="#14CAE2" d="m14.385 35.141-1.607-1.09v-1.56l1.607 1.09v1.56Z"/>
  <path fill="#0094B0" d="M12.96 33.913v-1.306l1.425.975v1.308l-1.426-.977Z"/>
  <path fill="#14CAE2" d="m16.812 36.78-1.608-1.09v-1.558l1.608 1.088v1.56Z"/>
  <path fill="#0094B0" d="M15.387 35.552v-1.308l1.425.976v1.307l-1.425-.975Z"/>
  <path fill="#14CAE2" d="m19.24 38.418-1.608-1.09v-1.56l1.607 1.09v1.56Z"/>
  <path fill="#0094B0" d="M17.814 37.19v-1.305l1.425.974v1.307l-1.425-.975Z"/>
  <path fill="#14CAE2" d="m21.667 40.055-1.608-1.088v-1.56l1.608 1.09v1.558Z"/>
  <path fill="#0094B0" d="M20.241 38.829v-1.307l1.426.975v1.307l-1.426-.975Z"/>
  <path fill="#14CAE2" d="m24.093 41.694-1.607-1.09v-1.558l1.607 1.09v1.558Z"/>
  <path fill="#0094B0" d="M22.669 40.468v-1.309l1.424.977v1.307l-1.424-.975Zm-.258 7.029v4.756l2.635-1.783v-4.878l-2.635 1.905Z"/>
  <path fill="#005371" d="M6.883 37.024 22.41 47.507v4.746L6.883 41.773v-4.749Z"/>
  <path fill="#D89A73" d="m6.886 37.068 2.255-2.099 15.888 9.834v.835l-2.614 1.912L6.886 37.068Z"/>
  <path fill="#BF7E5A" d="M9.141 33.829v.736l15.53 10.48v-.733L9.14 33.829Z"/>
  <path fill="#D89A73" d="M24.67 44.277v.768l.36-.242v-.768l-.36.242Z"/>
  <path fill="#FFC690" d="m9.141 33.829.358-.276 15.53 10.482-.358.277L9.14 33.829Zm-2.255 2.833 2.255-2.097 15.53 10.48-2.256 2.1L6.886 36.662Z"/>
  <path fill="#BF7E5A" d="M6.886 37.068v-.406l15.53 10.483v.405L6.885 37.068Z"/>
  <path fill="#D37F05" d="M23.602 48.467v2.981l.805-.545v-3.017l-.805.581Z"/>
  <path fill="#F4971E" d="M24.299 47.964v2.88l-.697.47v.134l.805-.545v-3.017l-.108.078Z"/>
  <path fill="#14CAE2" d="M9.491 40.612 7.164 39.03v-1.207l2.327 1.582v1.207Z"/>
  <path fill="#0094B0" d="M7.304 38.924v-1.013l2.187 1.494v1.011l-2.187-1.492Z"/>
  <path fill="#14CAE2" d="m12.62 42.736-2.329-1.583v-1.205l2.329 1.582v1.206Z"/>
  <path fill="#0094B0" d="M10.432 41.049v-1.014l2.188 1.495v1.012l-2.188-1.493Z"/>
  <path fill="#14CAE2" d="M15.749 44.862 13.42 43.28v-1.207l2.329 1.584v1.206Z"/>
  <path fill="#0094B0" d="M13.56 43.172v-1.01l2.189 1.494v1.01l-2.188-1.494Z"/>
  <path fill="#14CAE2" d="m18.878 46.986-2.329-1.582v-1.206l2.329 1.581v1.207Z"/>
  <path fill="#0094B0" d="M16.69 45.299v-1.013l2.188 1.493v1.014l-2.187-1.494Z"/>
  <path fill="#14CAE2" d="m22.006 49.112-2.328-1.583v-1.206l2.328 1.581v1.208Z"/>
  <path fill="#0094B0" d="M19.819 47.423v-1.01l2.187 1.491v1.014l-2.188-1.495Z"/>
  <path fill="#D89A73" d="m36.958 19.196-5.888 4.002v4.592l5.888-4.002v-4.592Z"/>
  <path fill="#BF7E5A" d="M26.952 20.423v2.765l4.112 4.576v-4.566l-4.112-2.775Z"/>
  <path fill="#FFD5B6" d="m36.958 19.196-5.888 4.002-4.118-2.775 5.888-4.003 4.118 2.776Z"/>
  <path fill="#FFC690" d="m28.274 20.42 4.567-3.105 2.795 1.885-4.568 3.102-2.794-1.881Z"/>
  <path fill="#BF7E5A" d="m32.84 17.904 2.36 1.59.436-.294-2.795-1.884-4.567 3.105.435.29 4.132-2.807Z"/>
  <path fill="#D89A73" d="m32.84 17.904 2.36 1.59.436-.294-2.795-1.884v.588Zm-1.77 6.844-3.9 2.652v3.042l3.9-2.652v-3.042Z"/>
  <path fill="#BF7E5A" d="M24.44 25.56v1.832l2.726 3.033V27.4l-2.726-1.84Z"/>
  <path fill="#FFD5B6" d="m31.07 24.748-3.9 2.652-2.73-1.84 3.901-2.651 2.73 1.84Z"/>
  <path fill="#FFC690" d="m25.317 25.558 3.026-2.055 1.85 1.247-3.025 2.057-1.85-1.249Z"/>
  <path fill="#BF7E5A" d="m28.343 23.893 1.562 1.052.288-.195-1.85-1.247-3.026 2.055.287.196 2.739-1.86Z"/>
  <path fill="#D89A73" d="m28.343 23.893 1.562 1.052.288-.195-1.85-1.247v.39Z"/>
  <path fill="#F4971E" d="m60.218 38.396 4.578-3.11v-4.835l-4.578 3.11v4.835Z"/>
  <path fill="#D37F05" d="M64.626 35.198v-4.633l-4.408 2.996v4.632l4.408-2.995Z"/>
  <path fill="#E88815" d="m61.04 33.717-.59.401v1.705l.061.032.59-2.107-.06-.031Z"/>
  <path fill="#F4971E" d="m61.101 33.748-.59.402v1.705l.59-.4v-1.707Z"/>
  <path fill="#005371" d="m60.572 34.192.46-.312v1.537l-.46.312v-1.537Z"/>
  <path fill="#D37F05" d="M60.978 33.916v1.475l-.406.277v.061l.46-.312V33.88l-.054.036Z"/>
  <path fill="#E88815" d="m61.842 33.19-.59.4v1.706l.06.031.591-2.107-.06-.03Z"/>
  <path fill="#F4971E" d="m61.903 33.22-.59.401v1.706l.59-.401V33.22Z"/>
  <path fill="#005371" d="m61.375 33.665.46-.313v1.537l-.46.313v-1.537Z"/>
  <path fill="#D37F05" d="M61.78 33.389v1.473l-.405.276v.064l.46-.313v-1.537l-.054.037Z"/>
  <path fill="#E88815" d="m62.634 32.649-.59.4v1.705l.06.033.59-2.108-.06-.03Z"/>
  <path fill="#F4971E" d="m62.694 32.68-.59.402v1.705l.59-.4v-1.708Z"/>
  <path fill="#005371" d="m62.165 33.126.461-.313v1.536l-.461.312v-1.535Z"/>
  <path fill="#D37F05" d="M62.57 32.85v1.472l-.405.276v.063l.461-.312v-1.536l-.055.037Z"/>
  <path fill="#E88815" d="m63.443 32.11-.59.401v1.705l.06.032.59-2.106-.06-.032Z"/>
  <path fill="#F4971E" d="m63.504 32.142-.59.401v1.705l.59-.4v-1.706Z"/>
  <path fill="#005371" d="m62.975 32.587.46-.315v1.537l-.46.315v-1.537Z"/>
  <path fill="#D37F05" d="M63.381 32.31v1.475l-.406.275v.063l.46-.314v-1.537l-.054.039Z"/>
  <path fill="#E88815" d="m64.235 31.57-.59.401v1.706l.06.032.59-2.108-.06-.03Z"/>
  <path fill="#F4971E" d="m64.295 31.601-.59.402v1.706l.59-.4V31.6Z"/>
  <path fill="#005371" d="m63.766 32.045.46-.313v1.537l-.46.313v-1.537Z"/>
  <path fill="#D37F05" d="M64.172 31.77v1.473l-.406.278v.06l.46-.312v-1.537l-.054.038Z"/>
  <path fill="#F4971E" d="m66.984 33.81 4.577-3.109v-4.835l-4.577 3.11v4.834Z"/>
  <path fill="#D37F05" d="M71.393 30.613V25.98l-4.409 2.994v4.632l4.409-2.994Z"/>
  <path fill="#E88815" d="m67.806 29.131-.59.4v1.707l.062.03.59-2.105-.062-.032Z"/>
  <path fill="#F4971E" d="m67.868 29.163-.59.402v1.703l.59-.4v-1.705Z"/>
  <path fill="#005371" d="m67.339 29.608.46-.314v1.537l-.46.314v-1.537Z"/>
  <path fill="#D37F05" d="M67.746 29.332v1.473l-.407.277v.063l.46-.314v-1.537l-.053.038Z"/>
  <path fill="#E88815" d="m68.609 28.603-.59.401v1.706l.06.032.59-2.108-.06-.031Z"/>
  <path fill="#F4971E" d="m68.67 28.634-.59.4v1.708l.59-.402v-1.706Z"/>
  <path fill="#005371" d="m68.141 29.078.46-.311v1.535l-.46.313v-1.537Z"/>
  <path fill="#D37F05" d="M68.547 28.804v1.473l-.406.275v.063l.46-.313v-1.535l-.054.037Z"/>
  <path fill="#E88815" d="m69.4 28.062-.59.4v1.708l.061.032.59-2.108-.06-.032Z"/>
  <path fill="#F4971E" d="m69.461 28.094-.59.402v1.706l.59-.402v-1.706Z"/>
  <path fill="#005371" d="m68.932 28.538.46-.313v1.537l-.46.313v-1.537Z"/>
  <path fill="#D37F05" d="M69.338 28.262v1.474l-.406.277v.062l.46-.313v-1.537l-.054.037Z"/>
  <path fill="#E88815" d="m70.21 27.524-.59.402v1.705l.062.033.59-2.108-.062-.032Z"/>
  <path fill="#F4971E" d="m70.272 27.556-.59.402v1.706l.59-.402v-1.706Z"/>
  <path fill="#005371" d="m69.742 28 .46-.312v1.537l-.46.312V28Z"/>
  <path fill="#D37F05" d="M70.148 27.725V29.2l-.406.276v.062l.46-.312v-1.537l-.054.037Z"/>
  <path fill="#E88815" d="m71.001 26.984-.59.402v1.704l.061.032.59-2.106-.06-.032Z"/>
  <path fill="#F4971E" d="m71.062 27.016-.59.402v1.704l.59-.399v-1.707Z"/>
  <path fill="#005371" d="m70.533 27.461.46-.314v1.536l-.46.315V27.46Z"/>
  <path fill="#D37F05" d="M70.939 27.185v1.473l-.406.276v.064l.46-.315v-1.536l-.054.038Z"/>
  <path fill="#BF7E5A" d="M22.407 52.256v.302L6.883 42.06v-.287l15.524 10.483Z"/>
  <path fill="#FFCBA1" d="m73.287 29.513-15.53 10.549v.301l15.53-10.556v-.294Z"/>
  <path fill="#BF7E5A" d="M57.758 40.062v.301l-8.666-5.946v-.285l8.666 5.93Z"/>
  <path fill="#1E1406" d="m39.666 57.615 2.246-1.51v-1.648l-2.246 1.51v1.648Z"/>
  <path fill="#1C1C1C" d="M40.57 58.762c.024 0 .271-.172.316-.223a.352.352 0 0 0 .072-.196c.043-.345-.156-.811-.436-1.02a.398.398 0 0 0-.234-.094c-.02 0-.06 0-.1.03-.04.031-.268.192-.268.192-.043.347.33.838.61 1.044.104.08-.01.267.04.267Z"/>
  <path fill="#2D2D2D" d="M40.51 58.771c.04 0 .162 0 .193-.245.042-.348-.157-.814-.437-1.022a.399.399 0 0 0-.233-.094c-.04 0-.163 0-.195.248-.043.346.158.812.438 1.02a.4.4 0 0 0 .233.093Z"/>
  <path fill="#6A6967" d="m40.51 58.593.017-.001s.017-.017.026-.093c.035-.273-.14-.676-.366-.844-.081-.06-.135-.068-.154-.068-.006 0-.015 0-.017.002 0 0-.018.017-.027.092-.035.274.141.677.367.846.08.06.134.066.153.066Z"/>
  <path fill="#1E1406" d="m35.732 55.028 2.246-1.51v-1.647l-2.246 1.51v1.647Z"/>
  <path fill="#1C1C1C" d="M36.636 56.176c.024 0 .271-.172.316-.223a.364.364 0 0 0 .072-.196c.043-.347-.157-.814-.436-1.021a.389.389 0 0 0-.234-.093c-.02 0-.06 0-.1.03-.04.03-.268.191-.268.191-.043.346.331.84.61 1.045.104.078-.01.267.04.267Z"/>
  <path fill="#2D2D2D" d="M36.575 56.184c.04 0 .162 0 .194-.246.043-.346-.157-.812-.436-1.02a.399.399 0 0 0-.234-.094c-.042 0-.164 0-.195.248-.042.344.158.81.437 1.018a.403.403 0 0 0 .233.094Z"/>
  <path fill="#6A6967" d="m36.575 56.007.017-.001s.017-.019.028-.093c.033-.275-.142-.678-.368-.845-.081-.061-.134-.066-.153-.066h-.018s-.018.018-.026.093c-.035.274.14.677.367.845.08.06.133.067.153.067Z"/>
  <path fill="#D36623" d="m39.224 57.375 2.247-1.508v-3.942l-2.247 1.51v3.94Z"/>
  <path fill="#006E8C" d="m41.492 58.855 2.247-1.508v-1.65l-2.247 1.51v1.648Z"/>
  <path fill="#999" d="m39.427 55.804 2.246-1.51 2.066 1.404-2.247 1.509-2.065-1.403Z"/>
  <path fill="#006E8C" d="m41.492 57.207 2.248-1.51-.436-1.939-2.246 1.51.434 1.939Z"/>
  <path fill="#5B5A59" d="m43.65 55.656-.394-1.763-2.11 1.418.394 1.761 2.11-1.416Z"/>
  <path fill="#005371" d="M39.427 54.156v1.648l2.065 1.403-.434-1.94-1.631-1.111Z"/>
  <path fill="#818181" d="m40.993 55.325-1.49-1.016v1.443l1.87 1.271-.38-1.698Z"/>
  <path fill="#0094B0" d="m39.427 54.156 2.246-1.51 1.631 1.112-2.246 1.51-1.631-1.112Z"/>
  <path fill="#fff" d="m43.265 56.554.474-.317v.526l-.474.318v-.527Zm-1.23.827v.528l-.543.363v-.526l.543-.365Z"/>
  <path fill="#5B5A59" d="m42.102 58.448 1.109-.746v-1.128l-1.109.744v1.13Z"/>
  <path fill="#005371" d="M41.492 57.207v1.648l-.554-.377c-.018-.408-.296-.912-.636-1.148-.345-.24-.624-.11-.636.285l-.24-.162v-1.65l2.066 1.404Z"/>
  <path fill="#A23717" d="M39.224 53.434v3.942l-2.219-1.492c-.015-.408-.293-.918-.635-1.156-.35-.243-.634-.107-.638.301l-.407-.273v-3.94l3.9 2.618Z"/>
  <path fill="#FFC690" d="m35.325 50.815 2.247-1.509 3.899 2.62-2.247 1.508-3.899-2.619Z"/>
  <path fill="#6A6967" d="M36.444 61.254v-.366L34.8 59.786v.368l1.644 1.1Z"/>
  <path fill="#999" d="m36.444 60.888 1.72-1.15-1.645-1.101-1.719 1.15 1.644 1.101Z"/>
  <path fill="#1E1E1D" d="m35.309 59.786 1.21-.808 1.14.76-1.214.81-1.136-.762Z"/>
  <path fill="#A23717" d="M36.605 53.95h-.271v5.87h.27v-5.87Z"/>
  <path fill="#57892B" d="M38.246 56.843c.203 1.331-.44 2.351-1.361 1.499l-.728-.673c-.728-.672-1.142-2.408-1.02-3.221l.455-2.997c.05-.316.372-.42.745-.252l.353.158c.418.188.825.658.89 1.081l.666 4.405Z"/>
  <path fill="#48751D" d="M34.774 56.843c-.2 1.331.442 2.351 1.363 1.499l.727-.673c.728-.672 1.143-2.408 1.02-3.221l-.454-2.997c-.047-.316-.37-.42-.745-.252l-.354.158c-.418.188-.825.658-.888 1.081l-.669 4.405Z"/>
  <path fill="#57892B" d="m36.69 51.358-.188-.083-.007 6.708.39.359c.92.854 1.564-.168 1.361-1.498l-.666-4.405c-.064-.422-.471-.894-.89-1.08Z"/>
  <path fill="#6CA035" d="m36.583 51.358-.085-.083-.003 6.708.178.359c.42.854.714-.168.622-1.498l-.305-4.405c-.03-.422-.215-.894-.407-1.08Z"/>
  <path fill="#57892B" d="m36.389 51.358.101-.083.005 6.708-.213.359c-.5.854-.85-.168-.74-1.498l.362-4.405c.036-.422.256-.894.485-1.08Z"/>
  <path fill="#8E8E8E" d="M36.444 61.254v-.366l1.72-1.15v.368l-1.72 1.148Z"/>
  <path fill="#6A6967" d="M45.004 55.501v-.367l-1.645-1.101v.367l1.645 1.101Z"/>
  <path fill="#999" d="m45.004 55.134 1.719-1.149-1.645-1.102-1.719 1.15 1.645 1.1Z"/>
  <path fill="#1E1E1D" d="m43.866 54.034 1.212-.81 1.138.761-1.212.81-1.138-.76Z"/>
  <path fill="#A23717" d="M45.164 48.195h-.271v5.87h.27v-5.87Z"/>
  <path fill="#57892B" d="M46.805 51.089c.203 1.33-.44 2.35-1.36 1.5l-.729-.674c-.727-.673-1.143-2.408-1.02-3.222l.455-2.997c.048-.316.37-.42.745-.252l.353.158c.418.19.825.659.89 1.083l.666 4.404Z"/>
  <path fill="#48751D" d="M43.333 51.089c-.2 1.33.442 2.35 1.362 1.5l.727-.674c.729-.673 1.143-2.408 1.02-3.222l-.454-2.997c-.047-.316-.371-.42-.745-.252l-.352.158c-.42.19-.826.659-.89 1.083l-.668 4.404Z"/>
  <path fill="#57892B" d="m45.248 45.604-.188-.084-.008 6.708.392.36c.92.85 1.562-.169 1.36-1.5l-.667-4.402c-.064-.424-.47-.893-.889-1.082Z"/>
  <path fill="#6CA035" d="m45.142 45.604-.085-.084-.004 6.708.18.36c.42.85.714-.169.62-1.5l-.304-4.402c-.03-.424-.216-.893-.407-1.082Z"/>
  <path fill="#57892B" d="m44.947 45.604.1-.084.005 6.708-.21.36c-.501.85-.85-.169-.74-1.5l.361-4.402c.036-.424.257-.893.484-1.082Z"/>
  <path fill="#8E8E8E" d="M45.004 55.501v-.367l1.719-1.149v.366l-1.719 1.15Z"/>
  <path fill="#6A6967" d="M59.079 45.88v-.366l-1.645-1.1v.365l1.645 1.1Z"/>
  <path fill="#999" d="m59.079 45.514 1.719-1.148-1.644-1.102-1.72 1.15 1.645 1.1Z"/>
  <path fill="#1E1E1D" d="m57.942 44.414 1.212-.81 1.137.762-1.212.81-1.137-.762Z"/>
  <path fill="#A23717" d="M59.24 38.575h-.272v5.872h.271v-5.872Z"/>
  <path fill="#57892B" d="M60.88 41.47c.202 1.33-.44 2.35-1.362 1.499l-.728-.673c-.727-.674-1.142-2.41-1.019-3.221l.453-2.996c.049-.317.371-.421.746-.254l.354.159c.418.188.825.657.89 1.082l.667 4.403Z"/>
  <path fill="#48751D" d="M57.408 41.47c-.201 1.33.44 2.35 1.361 1.499l.729-.673c.727-.674 1.142-2.41 1.019-3.221l-.454-2.996c-.047-.317-.37-.421-.744-.254l-.353.159c-.418.188-.825.657-.889 1.082l-.669 4.403Z"/>
  <path fill="#57892B" d="m59.324 35.984-.188-.084-.008 6.707.39.36c.921.853 1.564-.169 1.363-1.5l-.668-4.402c-.064-.424-.471-.893-.89-1.08Z"/>
  <path fill="#6CA035" d="m59.218 35.984-.087-.084-.003 6.707.179.36c.42.853.715-.169.623-1.5l-.306-4.402c-.03-.424-.215-.893-.406-1.08Z"/>
  <path fill="#57892B" d="m59.021 35.984.103-.084.004 6.707-.212.36c-.502.853-.85-.169-.74-1.5l.362-4.402c.036-.424.256-.893.483-1.08Z"/>
  <path fill="#8E8E8E" d="M59.079 45.88v-.366l1.719-1.148v.366l-1.72 1.148Z"/>
  <path fill="#6A6967" d="M76.017 34.28v-.368l-1.644-1.1v.367l1.644 1.102Z"/>
  <path fill="#999" d="m76.017 33.912 1.719-1.15-1.644-1.1-1.719 1.15 1.644 1.1Z"/>
  <path fill="#1E1E1D" d="M74.879 32.813 76.092 32l1.137.762-1.211.81-1.139-.76Z"/>
  <path fill="#A23717" d="M76.177 26.974h-.272v5.872h.272v-5.872Z"/>
  <path fill="#57892B" d="M77.819 29.869c.201 1.329-.442 2.35-1.363 1.5l-.728-.674c-.727-.673-1.142-2.408-1.019-3.222l.454-2.996c.048-.315.371-.42.745-.252l.354.159c.418.187.824.656.89 1.08l.667 4.405Z"/>
  <path fill="#48751D" d="M74.347 29.869c-.202 1.329.441 2.35 1.362 1.5l.728-.674c.728-.673 1.142-2.408 1.02-3.222l-.454-2.996c-.049-.315-.371-.42-.746-.252l-.354.159c-.418.187-.825.656-.889 1.08l-.667 4.405Z"/>
  <path fill="#57892B" d="m76.263 24.384-.188-.085-.008 6.707.39.361c.921.851 1.563-.17 1.363-1.5l-.668-4.404c-.065-.423-.47-.893-.889-1.08Z"/>
  <path fill="#6CA035" d="m76.156 24.384-.085-.085-.004 6.707.178.361c.422.851.715-.17.623-1.5l-.305-4.404c-.03-.423-.216-.893-.407-1.08Z"/>
  <path fill="#57892B" d="m75.96 24.384.103-.085.004 6.707-.212.361c-.5.851-.849-.17-.741-1.5l.363-4.404c.034-.423.257-.893.484-1.08Z"/>
  <path fill="#8E8E8E" d="M76.017 34.28v-.368l1.719-1.15v.37l-1.72 1.149Z"/>
  <path fill="#6A6967" d="M83.979 28.794v-.366l-1.645-1.102v.368l1.645 1.1Z"/>
  <path fill="#999" d="m83.979 28.428 1.72-1.15-1.645-1.1-1.72 1.148 1.645 1.102Z"/>
  <path fill="#1E1E1D" d="m82.842 27.328 1.212-.81 1.137.76-1.212.81-1.137-.76Z"/>
  <path fill="#A23717" d="M84.138 21.49h-.27v5.87h.27v-5.87Z"/>
  <path fill="#57892B" d="M85.781 24.384c.201 1.33-.442 2.35-1.362 1.5l-.728-.675c-.726-.67-1.141-2.407-1.019-3.22l.455-2.998c.047-.314.37-.419.744-.252l.353.158c.42.19.825.658.89 1.082l.667 4.405Z"/>
  <path fill="#48751D" d="M82.31 24.384c-.202 1.33.44 2.35 1.36 1.5l.73-.675c.727-.67 1.141-2.407 1.019-3.22l-.454-2.998c-.047-.314-.372-.419-.746-.252l-.353.158c-.419.19-.825.658-.889 1.082l-.668 4.405Z"/>
  <path fill="#57892B" d="m84.224 18.897-.188-.083-.008 6.707.39.36c.92.852 1.563-.17 1.362-1.5l-.668-4.403c-.063-.423-.47-.892-.888-1.08Z"/>
  <path fill="#6CA035" d="m84.118 18.897-.086-.083-.004 6.707.179.36c.42.852.714-.17.622-1.5l-.305-4.403c-.03-.423-.215-.892-.406-1.08Z"/>
  <path fill="#57892B" d="m83.921 18.897.102-.083.005 6.707-.212.36c-.5.852-.849-.17-.74-1.5l.362-4.403c.035-.423.256-.892.483-1.08Z"/>
  <path fill="#8E8E8E" d="M83.979 28.794v-.366l1.72-1.15v.368l-1.72 1.148Z"/>
</svg>
