<svg xmlns="http://www.w3.org/2000/svg" width="80" height="109" fill="none" viewBox="0 0 80 109">
  <path fill="#737780" fill-opacity=".35" d="m79.646 87.44-36.073 18.178-36.13-17.791 36.072-18.178 36.131 17.792Z"/>
  <path fill="#D8C9B6" d="m27.811 59.78-9.889-4.887.113 33.453 9.887 4.887-.11-33.454Z"/>
  <path fill="#F0E5D3" d="M55.558 46.155 45.67 41.27 17.922 54.893l9.89 4.886 27.746-13.624Z"/>
  <path fill="#ABBFDD" d="m27.811 59.78.11 33.453 27.75-13.624-.113-33.454L27.81 59.78Z"/>
  <path fill="#A74C00" d="m31.5 33.625-10.294-5.044.081 24.437 10.294 5.044-.082-24.437Z"/>
  <path fill="#BD6836" d="m52.66 23.128-10.141-5.011L21.206 28.58 31.5 33.625l21.16-10.497Z"/>
  <path fill="#D8C9B6" d="m33.708 13.441-8.533-4.217.06 18.149 8.533 4.217-.06-18.149Z"/>
  <path fill="#F0E5D3" d="M48.822 6.02 40.29 1.802 25.175 9.224l8.533 4.217L48.822 6.02Z"/>
  <path fill="#0D3767" d="m28.63 59.984.073 21.778 25.119-12.335-.072-21.776-25.12 12.333Z"/>
  <path fill="#D8C9B6" d="m37.72 64.634-9.888-4.886.111 33.452 9.887 4.886-.11-33.452Z"/>
  <path fill="#F0E5D3" d="m65.467 51.01-9.887-4.887-27.748 13.625 9.887 4.886L65.468 51.01Z"/>
  <path fill="#412608" d="m37.72 64.634.11 33.452 27.749-13.624-.112-33.452L37.72 64.634Z"/>
  <path fill="#5D4D51" d="m39.256 65.098.072 21.776 25.119-12.333-.072-21.777-25.119 12.334Z"/>
  <path fill="#F0E5D3" d="m64.452 74.528-.247-.122-3.144 1.543.247.123 3.144-1.544Z"/>
  <path fill="#D8C9B6" d="m64.44 71.307-.245-.122.01 3.22.247.123-.011-3.22Z"/>
  <path fill="#F0E5D3" d="m60.909 76.268-.246-.123-3.297 1.618.248.123 3.295-1.618Z"/>
  <path fill="#D8C9B6" d="m64.43 67.894-.248-.122.01 3.028.248.122-.01-3.028Z"/>
  <path fill="#F0E5D3" d="m64.44 70.922-.248-.122-3.143 1.543.247.123 3.144-1.544Z"/>
  <path fill="#D8C9B6" d="m60.9 73.047-.249-.123.011 3.221.247.123-.01-3.221Zm-.012-3.414-.247-.122.009 3.028.247.123-.01-3.029Z"/>
  <path fill="#F0E5D3" d="m57.22 78.08-.248-.122-3.3 1.62.247.122 3.3-1.62Z"/>
  <path fill="#D8C9B6" d="m57.209 74.858-.247-.121.01 3.22.247.122-.01-3.22Z"/>
  <path fill="#F0E5D3" d="m60.897 72.662-.247-.123-3.296 1.618.247.123 3.296-1.618Z"/>
  <path fill="#D8C9B6" d="m64.418 64.09-.249-.12.01 3.027.248.122-.01-3.028Z"/>
  <path fill="#F0E5D3" d="m64.427 67.12-.247-.123-3.144 1.543.247.123 3.144-1.544Z"/>
  <path fill="#D8C9B6" d="m57.197 71.445-.248-.123.01 3.03.249.121-.01-3.028Z"/>
  <path fill="#F0E5D3" d="m53.525 79.894-.248-.123-3.296 1.619.247.121 3.297-1.617Z"/>
  <path fill="#D8C9B6" d="m53.514 76.672-.247-.121.01 3.22.248.123-.01-3.222Z"/>
  <path fill="#F0E5D3" d="m57.208 74.473-.248-.121-3.3 1.62.247.122 3.3-1.62Z"/>
  <path fill="#D8C9B6" d="m64.405 60.677-.246-.122.01 3.028.247.123-.01-3.029Z"/>
  <path fill="#F0E5D3" d="m64.416 63.706-.248-.123-3.143 1.544.247.122 3.144-1.543Z"/>
  <path fill="#D8C9B6" d="m60.874 65.83-.247-.122.01 3.029.248.122-.01-3.029Z"/>
  <path fill="#F0E5D3" d="m60.885 68.859-.248-.122-3.295 1.618.247.122 3.296-1.618Z"/>
  <path fill="#D8C9B6" d="m53.503 73.259-.248-.123.01 3.029.248.122-.01-3.028Zm7.36-10.842-.247-.123.01 3.029.247.122-.01-3.028Z"/>
  <path fill="#F0E5D3" d="m49.834 81.706-.247-.123-3.3 1.621.247.122 3.3-1.62Z"/>
  <path fill="#D8C9B6" d="m49.824 78.485-.248-.123.01 3.221.248.123-.01-3.221Z"/>
  <path fill="#F0E5D3" d="m53.513 76.287-.248-.122-3.296 1.619.247.121 3.297-1.618Z"/>
  <path fill="#D8C9B6" d="m57.185 67.642-.247-.123.01 3.029.246.122-.01-3.028Z"/>
  <path fill="#F0E5D3" d="m60.873 65.445-.247-.122-3.296 1.619.247.121 3.296-1.618Zm-3.679 5.225-.246-.122-3.301 1.62.247.123 3.3-1.62Z"/>
  <path fill="#D8C9B6" d="m64.393 56.874-.248-.122.01 3.028.248.123-.01-3.029Z"/>
  <path fill="#F0E5D3" d="m64.403 59.903-.247-.123-3.144 1.544.247.122 3.144-1.543Z"/>
  <path fill="#D8C9B6" d="m49.812 75.071-.247-.122.01 3.028.246.123-.009-3.029Zm7.36-10.843-.246-.122.01 3.028.247.123-.01-3.029Z"/>
  <path fill="#F0E5D3" d="m46.14 83.52-.248-.123-3.295 1.618.246.123 3.296-1.618Z"/>
  <path fill="#D8C9B6" d="m46.129 80.299-.247-.123.01 3.221.247.123-.01-3.221Z"/>
  <path fill="#F0E5D3" d="m49.822 78.1-.247-.123-3.301 1.621.247.122 3.3-1.62Z"/>
  <path fill="#D8C9B6" d="m53.49 69.456-.247-.123.01 3.029.246.123-.01-3.03Z"/>
  <path fill="#F0E5D3" d="m57.183 67.257-.246-.123-3.3 1.621.245.123 3.3-1.621Z"/>
  <path fill="#D8C9B6" d="m64.381 53.456-.247-.122.01 3.028.248.123-.01-3.029Zm-3.53 5.158-.248-.123.01 3.029.247.121-.009-3.027Z"/>
  <path fill="#F0E5D3" d="m64.392 56.485-.248-.123L61 57.907l.249.121 3.143-1.543ZM53.5 72.484l-.247-.122-3.297 1.619.248.122 3.295-1.619Zm7.36-10.843-.246-.121-3.297 1.618.248.122 3.295-1.619Zm-18.41 23.69-.247-.122-3.121 1.533.246.121 3.122-1.532Z"/>
  <path fill="#D8C9B6" d="m46.117 76.885-.247-.122.01 3.028.247.123-.01-3.029Zm7.361-10.843-.247-.122.01 3.028.247.123-.01-3.029Zm7.361-10.846-.246-.123.009 3.029.247.122-.01-3.028ZM42.438 82.11l-.247-.121.012 3.22.247.122-.012-3.22Z"/>
  <path fill="#F0E5D3" d="m46.127 79.914-.246-.123-3.297 1.618.248.123 3.295-1.618Z"/>
  <path fill="#D8C9B6" d="m49.8 71.268-.248-.122.01 3.028.248.123-.01-3.029Z"/>
  <path fill="#F0E5D3" d="m53.488 69.07-.246-.121-3.296 1.618.247.122 3.295-1.618Z"/>
  <path fill="#D8C9B6" d="m57.16 60.425-.247-.121.01 3.027.247.123-.01-3.029Z"/>
  <path fill="#F0E5D3" d="m60.85 58.224-.248-.122-3.296 1.618.247.122 3.296-1.618ZM49.81 74.297l-.248-.123-3.3 1.62.248.123 3.3-1.62Zm7.36-10.843-.247-.123-3.3 1.621.247.123 3.3-1.621ZM42.437 81.725l-.247-.122-3.12 1.533.246.122 3.121-1.533Z"/>
  <path fill="#D8C9B6" d="m42.428 78.697-.248-.123.01 3.029.247.122-.009-3.028Zm7.36-10.842-.247-.123.01 3.029.248.121-.01-3.027Zm7.362-10.848-.248-.121.01 3.027.248.123-.01-3.029ZM46.105 73.081l-.247-.121.01 3.028.247.123-.01-3.03Z"/>
  <path fill="#F0E5D3" d="m49.799 70.882-.248-.121-3.3 1.62.247.123 3.3-1.622Z"/>
  <path fill="#D8C9B6" d="m53.466 62.24-.248-.122.01 3.027.247.123-.009-3.029Z"/>
  <path fill="#F0E5D3" d="m57.16 60.036-.248-.123-3.3 1.621.247.123 3.3-1.621ZM46.115 76.11l-.247-.121-3.296 1.617.247.123 3.296-1.618Zm7.36-10.842-.247-.123-3.296 1.618.247.124 3.296-1.62Z"/>
  <path fill="#D8C9B6" d="m46.093 69.669-.247-.123.01 3.029.248.121-.01-3.027Zm7.362-10.848-.247-.121.009 3.027.248.123-.01-3.029Z"/>
  <path fill="#F0E5D3" d="m42.425 77.922-.247-.122-3.122 1.533.248.122 3.12-1.533Z"/>
  <path fill="#D8C9B6" d="m42.414 74.894-.246-.123.01 3.029.247.122-.01-3.028Z"/>
  <path fill="#F0E5D3" d="m46.104 72.696-.247-.121-3.297 1.618.248.122 3.296-1.619Z"/>
  <path fill="#D8C9B6" d="m49.776 64.052-.248-.123.01 3.029.247.121-.01-3.027Z"/>
  <path fill="#F0E5D3" d="m53.465 61.85-.248-.123-3.296 1.62.247.121 3.297-1.618Zm-3.68 5.23-.246-.122-3.302 1.62.248.122 3.3-1.62Zm-7.372 7.429-.246-.123-3.123 1.533.248.122 3.121-1.532Z"/>
  <path fill="#D8C9B6" d="m42.403 71.48-.246-.121.01 3.027.246.123-.01-3.029Zm7.361-10.846-.248-.123.01 3.029.249.121-.01-3.027Zm-3.683 5.232-.247-.123.01 3.029.246.121-.009-3.027Z"/>
  <path fill="#F0E5D3" d="m49.775 63.661-.249-.121-3.3 1.62.248.122 3.3-1.62Zm-3.685 5.233-.246-.122-3.296 1.618.247.122 3.295-1.618Z"/>
  <path fill="#D8C9B6" d="m46.07 62.448-.247-.123.009 3.028.248.123-.01-3.028Z"/>
  <path fill="#F0E5D3" d="m42.4 70.706-.246-.123-3.121 1.533.246.123 3.122-1.533Z"/>
  <path fill="#D8C9B6" d="m42.39 67.677-.247-.122.01 3.028.248.123-.01-3.029Z"/>
  <path fill="#F0E5D3" d="m46.08 65.476-.248-.123-3.296 1.619.247.122 3.297-1.618Zm-3.69 1.812-.248-.123-3.12 1.533.245.123 3.122-1.533Z"/>
  <path fill="#D8C9B6" d="m42.38 64.26-.248-.123.01 3.028.247.123-.009-3.029Zm-4.445.498-.246-.123.08 23.777.246.123-.08-23.777Z"/>
  <path fill="#8B7867" d="m37.935 64.758.08 23.777 27.751-13.627-.079-23.777-27.752 13.627Zm23.362 8.093 3.144-1.544.011 3.221-3.144 1.544-.011-3.221Zm-.01-3.414 3.143-1.543.01 3.028-3.143 1.544-.01-3.029Zm-.014-3.803 3.145-1.543.01 3.028-3.145 1.544-.01-3.029Zm-.012-3.413 3.144-1.544.01 3.029-3.143 1.543-.01-3.028Zm-.011-3.803 3.144-1.544.01 3.029-3.144 1.543-.01-3.028ZM61.238 55l3.144-1.544.01 3.029-3.143 1.543-.01-3.028Zm-3.635 19.665 3.296-1.618.01 3.22-3.294 1.619-.012-3.221Zm-.011-3.414 3.296-1.619.01 3.029-3.296 1.618-.01-3.028Zm-.014-3.803 3.296-1.619.01 3.029-3.295 1.618-.01-3.028Zm-.011-3.413 3.296-1.62.01 3.03-3.296 1.618-.01-3.028Zm-.012-3.803 3.296-1.618.01 3.028-3.295 1.62-.01-3.03Zm-.011-3.418 3.295-1.618.01 3.028-3.295 1.62-.01-3.03Zm-3.637 19.665 3.3-1.62.012 3.22-3.3 1.621-.012-3.221Zm-.01-3.413 3.3-1.621.01 3.028-3.3 1.621-.01-3.028Zm-.014-3.803 3.302-1.621.01 3.028-3.301 1.621-.01-3.028Zm-.011-3.414 3.3-1.62.01 3.028-3.3 1.62-.01-3.028Zm-.011-3.803 3.3-1.62.01 3.028-3.3 1.62-.01-3.028Zm-.012-3.418 3.3-1.62.01 3.028-3.3 1.62-.01-3.028ZM50.217 78.29l3.296-1.618.012 3.222-3.297 1.617-.011-3.22Zm-.01-3.413 3.296-1.618.01 3.028-3.296 1.618-.01-3.028Zm-.013-3.802 3.295-1.62.01 3.03-3.295 1.618-.01-3.028Zm-.012-3.414 3.296-1.618.01 3.028-3.295 1.618-.01-3.028Zm-.013-3.803 3.296-1.618.01 3.029-3.296 1.619-.01-3.03Zm-.01-3.419 3.296-1.618.01 3.029-3.296 1.618-.01-3.029Zm-3.637 19.666 3.302-1.621.01 3.22-3.3 1.622-.012-3.221Zm-.01-3.414 3.3-1.62.01 3.028-3.3 1.62-.01-3.028Zm-.013-3.802 3.3-1.62.011 3.028-3.3 1.62-.01-3.028Zm-.011-3.414 3.3-1.62.01 3.028-3.3 1.62-.01-3.028Zm-.013-3.803 3.3-1.621.011 3.028-3.3 1.621-.01-3.029Zm-.011-3.418 3.3-1.621.01 3.028-3.3 1.621-.01-3.028Zm-3.631 19.663 3.296-1.618.01 3.22-3.296 1.619-.01-3.221Zm-.01-3.414 3.294-1.619.011 3.029-3.295 1.618-.01-3.028Zm-.014-3.803 3.296-1.619.01 3.029-3.296 1.618-.01-3.028Zm-.012-3.413 3.297-1.618.01 3.028-3.296 1.617-.01-3.027Zm-.012-3.803 3.295-1.618.01 3.028-3.295 1.62-.01-3.03Zm-.012-3.418 3.296-1.618.011 3.028-3.296 1.62-.01-3.03Zm-3.456 19.577 3.121-1.533.01 3.221-3.12 1.532-.01-3.22Zm-.01-3.413 3.12-1.533.01 3.028-3.12 1.532-.01-3.027Zm-.014-3.803 3.121-1.533.01 3.028-3.12 1.533-.01-3.028Zm-.01-3.414 3.12-1.533.01 3.029-3.12 1.533-.01-3.029Zm-.014-3.803 3.122-1.533.01 3.029-3.122 1.533-.01-3.029Zm-.01-3.418 3.121-1.533.01 3.029-3.121 1.532-.01-3.028Z"/>
  <path fill="#F0E5D3" d="m65.687 51.131-.246-.121-27.752 13.625.246.123L65.687 51.13Z"/>
  <path fill="#A74C00" d="m40.442 38.045-9.328-4.61.082 24.436 9.327 4.61-.081-24.436Z"/>
  <path fill="#BD6836" d="m61.755 27.58-9.328-4.61-21.313 10.464 9.328 4.61L61.755 27.58Z"/>
  <path fill="#ABBFDD" d="m40.442 38.045.081 24.436 21.313-10.464-.081-24.437-21.313 10.465Z"/>
  <path fill="#5D4D51" d="m41.754 39.014.073 21.872 18.73-9.196-.073-21.873-18.73 9.197Z"/>
  <path fill="#A74C00" d="m60.793 48.508-.26-.128.01 2.99.26.13-.01-2.992Z"/>
  <path fill="#BD6836" d="m60.803 51.5-.26-.13-3.38 1.66.26.128 3.38-1.659Z"/>
  <path fill="#A74C00" d="m60.78 44.926-.258-.129.01 3.175.259.128-.01-3.174Zm-3.785 5.447-.26-.128.01 2.991.26.128-.01-2.991Z"/>
  <path fill="#BD6836" d="m60.79 48.1-.258-.128-3.38 1.659.26.129 3.379-1.66Zm-3.786 5.264-.258-.128-3.455 1.696.26.128 3.453-1.696Z"/>
  <path fill="#A74C00" d="m56.983 46.79-.26-.128.011 3.175.259.128-.01-3.175Zm-3.857 5.482-.259-.128.01 2.99.26.13-.011-2.992Z"/>
  <path fill="#BD6836" d="m56.993 49.965-.259-.128-3.455 1.696.26.128 3.454-1.696Z"/>
  <path fill="#A74C00" d="m60.768 40.944-.259-.129.01 3.175.258.129-.01-3.175Z"/>
  <path fill="#BD6836" d="m60.777 44.119-.258-.129-3.38 1.66.259.128 3.38-1.66Zm-7.641 11.144-.258-.128-3.455 1.697.259.127 3.454-1.696Z"/>
  <path fill="#A74C00" d="m53.116 48.689-.26-.128.01 3.174.259.129-.01-3.175Zm7.639-11.329-.258-.127.01 3.174.26.128-.012-3.174ZM49.254 54.174l-.26-.129.01 2.991.26.13-.01-2.992Z"/>
  <path fill="#BD6836" d="m53.125 51.864-.259-.129-3.454 1.697.258.129 3.455-1.697Z"/>
  <path fill="#A74C00" d="m56.97 42.808-.26-.128.012 3.175.258.128-.01-3.175Z"/>
  <path fill="#BD6836" d="m60.767 40.535-.26-.128-3.38 1.66.26.128 3.38-1.66Zm-3.787 5.448-.258-.128-3.456 1.696.259.128 3.455-1.696Zm-7.717 11.182-.258-.129-3.455 1.697.259.128 3.454-1.696Z"/>
  <path fill="#A74C00" d="m49.243 50.59-.26-.127.011 3.174.259.129-.01-3.175Zm7.714-11.365-.258-.127.01 3.174.26.127-.012-3.174ZM45.386 56.073l-.26-.128.01 2.99.26.13-.01-2.992Z"/>
  <path fill="#BD6836" d="m49.253 53.766-.259-.129-3.456 1.697.26.128 3.455-1.696Z"/>
  <path fill="#A74C00" d="m53.102 44.708-.26-.129.012 3.175.258.128-.01-3.174Z"/>
  <path fill="#BD6836" d="m56.969 42.4-.26-.128-3.455 1.697.26.127L56.97 42.4Z"/>
  <path fill="#A74C00" d="m60.742 33.38-.259-.13.01 3.176.26.127-.011-3.174Z"/>
  <path fill="#BD6836" d="m45.396 59.064-.26-.128-3.318 1.63.26.128 3.318-1.63Zm7.716-11.182-.258-.128-3.456 1.696.259.129 3.455-1.697Zm7.641-11.329-.26-.127-3.38 1.659.26.128 3.38-1.66Z"/>
  <path fill="#A74C00" d="m45.374 52.49-.259-.128.01 3.174.26.13-.011-3.176Z"/>
  <path fill="#BD6836" d="m45.385 55.665-.26-.129-3.319 1.63.26.129 3.32-1.63Z"/>
  <path fill="#A74C00" d="m53.09 41.125-.26-.129.011 3.175.259.129-.01-3.175Zm7.64-11.329-.258-.128.01 3.175.259.127-.01-3.174ZM49.229 46.61l-.26-.129.012 3.175.258.128-.01-3.174Z"/>
  <path fill="#BD6836" d="m53.1 44.3-.259-.129-3.456 1.697.26.128L53.1 44.3Z"/>
  <path fill="#A74C00" d="m56.945 35.244-.259-.129.01 3.175.258.128-.01-3.174Z"/>
  <path fill="#BD6836" d="m60.74 32.97-.258-.127-3.38 1.66.259.127 3.38-1.66Zm-11.5 16.814-.26-.128-3.455 1.696.259.128 3.456-1.696Zm7.714-11.366-.258-.128-3.455 1.697.26.127 3.453-1.696Z"/>
  <path fill="#A74C00" d="m49.217 43.027-.26-.128.011 3.174.259.128-.01-3.174Zm7.715-11.366-.258-.129.01 3.175.26.128-.012-3.174ZM45.36 48.508l-.259-.128.01 3.174.26.129-.01-3.175Z"/>
  <path fill="#BD6836" d="m49.227 46.2-.259-.127-3.455 1.696.26.128 3.454-1.696Zm-3.855 5.483-.26-.129-3.32 1.63.26.129 3.32-1.63Z"/>
  <path fill="#A74C00" d="m53.077 37.142-.26-.127.01 3.175.26.127-.01-3.175Z"/>
  <path fill="#BD6836" d="m56.944 34.835-.26-.128-3.455 1.697.259.128 3.456-1.697Zm-3.858 5.482-.258-.127-3.455 1.696.259.128 3.454-1.697Z"/>
  <path fill="#A74C00" d="m45.349 44.926-.26-.129.011 3.175.26.128-.011-3.174Z"/>
  <path fill="#BD6836" d="m45.36 48.1-.26-.128-3.319 1.63.26.128 3.318-1.63Z"/>
  <path fill="#A74C00" d="m53.065 33.56-.26-.128.011 3.175.26.127-.011-3.174Zm-3.861 5.484-.26-.127.01 3.174.26.127-.01-3.174Z"/>
  <path fill="#BD6836" d="m53.076 36.734-.26-.127-3.456 1.696.26.128 3.456-1.697Zm-3.863 5.484-.258-.127-3.455 1.697.26.128 3.453-1.698Z"/>
  <path fill="#A74C00" d="m49.191 35.461-.258-.127.01 3.174.26.128-.012-3.175Zm-3.855 5.483-.26-.129.01 3.175.26.129-.01-3.175Z"/>
  <path fill="#BD6836" d="m49.203 38.636-.26-.128-3.456 1.697.26.128 3.456-1.697Zm-3.856 5.483-.26-.129-3.32 1.63.26.127 3.32-1.628Z"/>
  <path fill="#A74C00" d="m45.324 37.36-.26-.127.011 3.174.26.129-.011-3.175Z"/>
  <path fill="#BD6836" d="m45.334 40.536-.259-.129-3.319 1.63.259.128 3.32-1.63Zm16.682-12.828-.258-.128-21.309 10.462.26.128 21.307-10.462Z"/>
  <path fill="#642305" d="m40.709 38.17.081 24.442L62.098 52.15l-.081-24.442L40.709 38.17Zm16.704 11.998 3.38-1.66.01 2.991-3.38 1.66-.01-2.991Zm-.012-3.583 3.38-1.66.01 3.175-3.38 1.66-.01-3.175Zm-.014-3.982 3.38-1.66.01 3.175-3.38 1.66-.01-3.175Zm-.011-3.583 3.38-1.66.01 3.175-3.379 1.66-.011-3.175Zm-.014-3.982 3.38-1.66.011 3.175-3.38 1.66-.01-3.175Zm-.012-3.582 3.38-1.66.01 3.175-3.379 1.66-.011-3.175ZM53.54 52.07l3.456-1.696.01 2.991-3.455 1.697-.01-2.992Zm-.012-3.582 3.456-1.696.01 3.175-3.456 1.696-.01-3.175Zm-.013-3.983 3.456-1.696.01 3.175-3.455 1.696-.01-3.175Zm-.012-3.582 3.456-1.697.01 3.174-3.455 1.697-.011-3.174Zm-.014-3.982 3.456-1.696.01 3.175-3.454 1.696-.012-3.175Zm-.011-3.583 3.453-1.697.012 3.175-3.456 1.697-.01-3.175Zm-3.806 20.611 3.454-1.696.01 2.991-3.455 1.696-.009-2.99Zm-.012-3.582 3.456-1.697.01 3.175-3.455 1.697-.011-3.175Zm-.014-3.982 3.456-1.696.01 3.174-3.455 1.697-.01-3.175Zm-.011-3.582 3.456-1.697.01 3.175-3.456 1.697-.01-3.175Zm-.014-3.983 3.456-1.697.01 3.175-3.455 1.697-.01-3.175Zm-.012-3.582 3.456-1.697.011 3.174-3.456 1.697-.011-3.174Zm-3.81 20.613 3.454-1.696.01 2.991-3.455 1.697-.009-2.992Zm-.012-3.582 3.456-1.697.01 3.175-3.456 1.697-.01-3.175Zm-.013-3.982 3.456-1.696.01 3.175-3.455 1.696-.01-3.175Zm-.012-3.583 3.455-1.697.01 3.175-3.456 1.696-.01-3.174Zm-.014-3.982 3.456-1.697.01 3.175-3.453 1.697-.013-3.175Zm-.01-3.583 3.453-1.697.012 3.175-3.456 1.697-.01-3.175Zm-3.67 20.544 3.318-1.63.01 2.991-3.319 1.63-.01-2.991Zm-.013-3.582 3.319-1.63.011 3.175-3.319 1.63-.011-3.175Zm-.013-3.982 3.32-1.63.01 3.175-3.319 1.63-.01-3.175Zm-.013-3.582 3.32-1.63.011 3.175-3.319 1.63-.011-3.175Zm-.012-3.983 3.32-1.63.01 3.176-3.32 1.63-.01-3.176Zm-.013-3.583 3.32-1.63.01 3.176-3.32 1.63-.01-3.176Z"/>
  <path fill="#A74C00" d="m40.709 38.17-.26-.128.082 24.442.26.128-.082-24.442Z"/>
  <path fill="#D8C9B6" d="m42.241 17.656-8.533-4.218.06 18.149 8.534 4.217-.06-18.148Z"/>
  <path fill="#F0E5D3" d="m57.355 10.234-8.533-4.217-15.114 7.421 8.533 4.218 15.114-7.422Z"/>
  <path fill="#ABBFDD" d="m42.241 17.656.06 18.148 15.114-7.42-.06-18.15-15.114 7.422Z"/>
  <path fill="#5D4D51" d="m43.324 18.449.054 16.089 12.806-6.288-.055-16.088-12.805 6.287Z"/>
  <path fill="#D8C9B6" d="m56.347 24.481-.285-.141.013 3.666.285.14-.013-3.665Z"/>
  <path fill="#F0E5D3" d="m56.36 28.146-.285-.14-3.793 1.862.285.14 3.793-1.861Z"/>
  <path fill="#D8C9B6" d="m56.335 20.553-.285-.141.011 3.485.284.14-.01-3.484Z"/>
  <path fill="#F0E5D3" d="m56.345 24.037-.284-.14-3.792 1.862.284.14 3.792-1.862Z"/>
  <path fill="#D8C9B6" d="m52.096 26.568-.284-.14.011 3.666.285.14-.012-3.666Z"/>
  <path fill="#F0E5D3" d="m52.108 30.234-.285-.14-3.791 1.862.283.14 3.793-1.862Z"/>
  <path fill="#D8C9B6" d="m52.082 22.64-.284-.14.013 3.485.283.14-.012-3.485Zm-4.232 6.013-.285-.14.013 3.665.285.141-.013-3.666Z"/>
  <path fill="#F0E5D3" d="m52.094 26.125-.283-.14-3.794 1.862.285.14 3.792-1.862Zm-4.231 6.195-.285-.142-3.8 1.865.287.141 3.798-1.865Z"/>
  <path fill="#D8C9B6" d="m56.319 16.177-.284-.141.012 3.484.285.141-.013-3.484Z"/>
  <path fill="#F0E5D3" d="m56.331 19.661-.284-.14-3.793 1.862.285.14 3.792-1.862Z"/>
  <path fill="#D8C9B6" d="m47.837 24.725-.284-.14.01 3.484.285.14-.011-3.484Zm8.469-12.482-.284-.14.012 3.485.284.14-.011-3.485Z"/>
  <path fill="#F0E5D3" d="m47.848 28.21-.285-.14-3.797 1.864.284.14 3.798-1.865Z"/>
  <path fill="#D8C9B6" d="m52.068 18.264-.284-.14.011 3.485.285.14-.012-3.485Z"/>
  <path fill="#F0E5D3" d="m56.318 15.729-.284-.141-3.792 1.862.283.14 3.793-1.861Zm-4.238 6.02-.285-.14-3.793 1.862.285.14 3.793-1.862Z"/>
  <path fill="#D8C9B6" d="m52.055 14.33-.284-.14.01 3.485.286.141-.012-3.485Zm-4.233 6.019-.285-.14.013 3.484.283.14-.011-3.484Z"/>
  <path fill="#F0E5D3" d="m52.067 17.816-.285-.14-3.792 1.862.283.14 3.794-1.862Zm-4.234 6.017-.283-.14-3.798 1.865.284.14 3.797-1.865Z"/>
  <path fill="#D8C9B6" d="m47.81 16.416-.286-.14.012 3.484.285.14-.012-3.484Z"/>
  <path fill="#F0E5D3" d="m47.82 19.9-.284-.14-3.798 1.865.285.14 3.798-1.864Zm9.818-9.526-.285-.14-15.115 7.422.285.14 15.114-7.422Z"/>
  <path fill="#8B7867" d="m42.523 17.796.06 18.144 15.114-7.422-.06-18.144-15.114 7.422Zm10.031 8.547 3.794-1.862.013 3.665-3.794 1.863-.013-3.666Zm-.012-3.928 3.793-1.862.011 3.484-3.793 1.862-.011-3.484Zm-.016-4.376 3.793-1.862.013 3.484-3.793 1.862-.013-3.484Zm-.012-3.933 3.794-1.862.011 3.485-3.793 1.862-.012-3.485ZM48.303 28.43l3.793-1.862.012 3.666-3.793 1.862-.012-3.666Zm-.013-3.928 3.793-1.862.013 3.485-3.793 1.862-.013-3.485Zm-.014-4.376 3.792-1.862.012 3.485-3.793 1.862-.011-3.485Zm-.014-3.932 3.793-1.862.012 3.484-3.793 1.863-.012-3.485Zm-4.21 14.324 3.798-1.865.013 3.666-3.798 1.865-.013-3.666Zm-.012-3.928 3.798-1.865.011 3.484-3.798 1.865-.011-3.484Zm-.016-4.377 3.799-1.864.011 3.484-3.798 1.865-.012-3.485Zm-.014-3.932 3.8-1.865.01 3.485-3.797 1.865-.013-3.485Z"/>
  <path fill="#D8C9B6" d="m42.523 17.796-.285-.14.062 18.143.283.14-.06-18.143Z"/>
  <path fill="#A74C00" d="M49.152 95.093 47.12 94.09l.002.446 2.03 1.003v-.446Z"/>
  <path fill="#BD6836" d="m57.959 90.768-2.032-1.003-8.807 4.325 2.032 1.003 8.807-4.325Z"/>
  <path fill="#642305" d="M49.152 95.093v.446l8.808-4.324-.001-.447-8.807 4.325Z"/>
  <path fill="#5D4D51" d="m47.436 87.126.024 6.92 8.63-4.24-.022-6.918-8.632 4.238Z"/>
  <path fill="#A74C00" d="m56.203 84.954-.347-.172.017 5.118.347.172-.017-5.118Zm-.006-1.762-.347-.172.005 1.345.347.172-.005-1.345Zm-2.111 2.802-.348-.172.017 5.118.347.172-.016-5.118Z"/>
  <path fill="#BD6836" d="m56.202 84.537-.347-.172-1.69.83.347.172 1.69-.83Z"/>
  <path fill="#A74C00" d="m54.08 84.232-.348-.172.004 1.345.348.171-.005-1.344Zm-2.408 2.948-.347-.173.016 5.21.349.172-.018-5.21Zm-2.414 1.184-.348-.172.018 5.118.347.172-.017-5.118Z"/>
  <path fill="#BD6836" d="m54.084 85.576-.348-.171-4.4 2.16.348.172 4.4-2.16Z"/>
  <path fill="#A74C00" d="m49.252 86.603-.347-.172.004 1.344.347.172-.004-1.344Z"/>
  <path fill="#BD6836" d="m49.256 87.947-.347-.172-1.686.828.348.171 1.685-.828Zm7.282-5.23-.347-.171-9.32 4.575.348.172 9.32-4.576Z"/>
  <path fill="#642305" d="m47.219 87.293.023 7.187.346-.17-.017-5.117 1.685-.828.018 5.118.426-.21-.017-5.117 1.987-.976.018 5.21.426-.21-.017-5.21 1.987-.975.016 5.118.428-.21-.018-5.117 1.69-.83.018 5.117.341-.168-.023-7.187-9.317 4.575Zm7.288-3.27 1.69-.831.005 1.345-1.69.829-.005-1.344Zm-4.827 2.37 4.4-2.16.005 1.344-4.401 2.161-.004-1.345Zm-2.114 1.037 1.685-.827.005 1.344-1.685.827-.005-1.344Z"/>
  <path fill="#BD6836" d="m47.219 87.293-.347-.171.024 7.186.347.172-.024-7.187Zm4.131 1.451-.248-.123-.215.106.248.123.216-.106Z"/>
  <path fill="#A74C00" d="m51.135 88.85-.248-.123.009 2.614.247.123-.008-2.614Z"/>
  <path fill="#642305" d="m51.35 88.744-.215.106.008 2.614.216-.106-.008-2.614Z"/>
  <path fill="#BD6836" d="m52.754 88.055-.248-.123-.216.107.248.122.216-.106Z"/>
  <path fill="#A74C00" d="m52.538 88.161-.248-.122.008 2.613.248.123-.008-2.614Z"/>
  <path fill="#642305" d="m52.762 90.669-.008-2.614-.216.106.008 2.614.216-.106Z"/>
  <path fill="#BD6836" d="m66.535 84.262-.977-.482-7.664 3.763.977.482 7.664-3.763Z"/>
  <path fill="#A74C00" d="m56.222 81.984.976.482c.005 1.324.02 2.646.033 3.965a704.335 704.335 0 0 1 .033 3.998l-.977-.483c-.005-1.324-.02-2.66-.034-3.998-.011-1.08-.023-2.152-.029-3.235l-.002-.73Z"/>
  <path fill="#BD6836" d="m46.396 94.15-.976-.483-7.665 3.567.097 1 8.544-4.084Z"/>
  <path fill="#A74C00" d="m46.37 86.081-.977-.483.027 8.07.976.482-.026-8.069Z"/>
  <path fill="#BD6836" d="m58.843 79.956-.977-.482-12.473 6.124.977.483 12.473-6.125Z"/>
  <path fill="#642305" d="m46.37 86.081.026 8.069-8.544 3.96.005 1.612 10.16-4.752c-.01-2.63.018-5.333.008-8l9.174-4.505c.009 2.669.058 5.334.067 7.964l9.275-4.554-.005-1.612-7.665 3.762-.027-8.069-12.474 6.125Z"/>
  <path fill="#BD6836" d="m19.401 89.418.978-.482 17.58 8.298-.098 1-18.46-8.816Z"/>
  <path fill="#A74C00" d="m19.401 89.418-.038 1.56 18.493 8.744.005-1.613-18.46-8.69Z"/>
  <path fill="#B04B05" d="m24.621 58.203.091 32.834 6.549 3.096-.092-32.737-6.548-3.193Z"/>
  <path fill="#6D3F0E" d="m40.285 14.193-9.572-4.73.006 1.846 9.572 4.73-.006-1.846Z"/>
  <path fill="#145075" d="m53.151 7.875-9.57-4.73-12.868 6.318 9.572 4.73L53.15 7.875Z"/>
  <path fill="#432606" d="m40.284 14.193.007 1.845 12.866-6.317-.006-1.846-12.867 6.318Z"/>
  <path fill="#BD6836" d="M54.394 7.049 42.91 1.373 29.472 7.971l11.483 5.676 13.439-6.598Z"/>
  <path fill="#B34B0C" d="m42.715 1.495.002.597L52.92 7.113l-.002-.597-10.203-5.021Z"/>
  <path fill="#682606" d="m30.934 7.308.002.598 11.781-5.814-.002-.597-11.78 5.813Zm23.46-.792-.013.007V6.43l-13.423 6.62.002.595-.005.003.003.953L54.397 8l-.003-1.485Z"/>
  <path fill="#B34B0C" d="m40.96 13.647-.002-.598-11.486-5.656.002.58-.002-.002.003.952L40.958 14.6l-.003-.953h.005Z"/>
  <path fill="#D29577" d="m29.472 7.393 11.487 5.656L54.381 6.43 42.893.774 29.472 7.393Zm1.462-.085 11.78-5.813 10.203 5.02-11.78 5.814-10.203-5.021Z"/>
  <path fill="#7F696B" d="m29.89 87.958-.012 3.523-3.911-1.92.012-3.524 3.91 1.921Z"/>
  <path fill="#F8F7F5" d="m25.806 89.64.326-.16 1.87.918-.326.16-1.87-.918Z"/>
  <path fill="#91806C" d="m25.819 86.117.323-.16-.01 3.522-.326.161.013-3.523Z"/>
  <path fill="#F8F7F5" d="m27.848 90.642.324-.16 1.87.918-.324.16-1.87-.918Z"/>
  <path fill="#91806C" d="m27.859 87.119.324-.16-.011 3.523-.325.16.012-3.523Zm2.077.835.324-.16-.012 3.897-.326.16.014-3.897Z"/>
  <path fill="#F8F7F5" d="m25.618 85.834.326-.16 4.316 2.12-.324.16-4.318-2.12Z"/>
  <path fill="#DAD6CD" d="m25.618 85.835-.013 3.896 4.317 2.12.014-3.897-4.318-2.119Zm2.059 4.723-1.87-.918.012-3.523 1.87.918-.012 3.523Zm2.04 1.002-1.87-.918.012-3.523 1.87.918-.011 3.523Z"/>
  <path fill="#91806C" d="M25.615 89.622v.32l-1.122.554v-.32l1.122-.554Z"/>
  <path fill="#DAD6CD" d="m29.527 91.543-.001.32-3.912-1.921.001-.32 3.912 1.92Zm-1.12.757-.001.319-4.317-2.12.001-.319 4.317 2.12Z"/>
  <path fill="#91806C" d="m29.937 91.543-.001.32-1.53.756v-.32l1.53-.756Z"/>
  <path fill="#F8F7F5" d="m25.62 89.424-1.53.756 4.317 2.12 1.53-.757-4.317-2.12Zm2.785 2.673-3.911-1.92 1.121-.555 3.912 1.92-1.122.555Z"/>
  <path fill="#91806C" d="m24.672 90.264 1.295-.642 3.742-2.92-1.389.485-3.648 3.078Z"/>
  <path fill="#DAD6CD" d="m28.085 87.027.235.362-3.591 2.958-.373-.167 3.73-3.153Z"/>
  <path fill="#EAE6DB" d="m28.085 87.027 1.389-.686.235.362-1.389.685-.235-.361Z"/>
  <path fill="#7F696B" d="m29.89 82.738-.012 3.523-3.911-1.92.012-3.523 3.91 1.92Z"/>
  <path fill="#F8F7F5" d="m25.806 84.42.326-.16 1.87.918-.326.16-1.87-.918Z"/>
  <path fill="#91806C" d="m25.819 80.897.323-.16-.01 3.523-.326.16.013-3.523Z"/>
  <path fill="#F8F7F5" d="m27.848 85.422.324-.16 1.87.918-.324.16-1.87-.918Z"/>
  <path fill="#91806C" d="m27.859 81.9.324-.161-.011 3.522-.325.16.012-3.522Zm2.077.835.324-.16-.012 3.895-.326.161.014-3.896Z"/>
  <path fill="#F8F7F5" d="m25.618 80.615.326-.16 4.316 2.12-.324.16-4.318-2.12Z"/>
  <path fill="#DAD6CD" d="m25.618 80.615-.013 3.897 4.317 2.12.014-3.897-4.318-2.12Zm2.059 4.723-1.87-.918.012-3.522 1.87.918-.012 3.522Zm2.04 1.003-1.87-.92.012-3.522 1.87.918-.011 3.524Z"/>
  <path fill="#91806C" d="M25.615 84.403v.319l-1.122.554v-.319l1.122-.554Z"/>
  <path fill="#DAD6CD" d="m29.527 86.323-.001.319-3.912-1.92.001-.32 3.912 1.921Zm-1.12.757-.001.32-4.317-2.121.001-.32 4.317 2.12Z"/>
  <path fill="#91806C" d="m29.937 86.323-.001.319-1.53.757v-.32l1.53-.756Z"/>
  <path fill="#F8F7F5" d="m25.62 84.204-1.53.757 4.317 2.12 1.53-.757-4.317-2.12Zm2.785 2.674-3.911-1.921 1.121-.554 3.912 1.92-1.122.555Z"/>
  <path fill="#91806C" d="m24.672 85.104 1.295-.642 3.742-2.92-1.389.485-3.648 3.077Z"/>
  <path fill="#DAD6CD" d="m28.085 81.866.235.362-3.591 2.958-.373-.167 3.73-3.153Z"/>
  <path fill="#EAE6DB" d="m28.085 81.866 1.389-.686.235.363-1.389.685-.235-.362Z"/>
  <path fill="#7F696B" d="m29.89 77.577-.012 3.524-3.911-1.92.012-3.524 3.91 1.92Z"/>
  <path fill="#F8F7F5" d="m25.806 79.26.326-.16 1.87.918-.326.16-1.87-.919Z"/>
  <path fill="#91806C" d="m25.819 75.737.323-.161-.01 3.524-.326.16.013-3.523Z"/>
  <path fill="#F8F7F5" d="m27.848 80.262.324-.16 1.87.917-.324.16-1.87-.917Z"/>
  <path fill="#91806C" d="m27.859 76.738.324-.16-.011 3.523-.325.16.012-3.523Zm2.077.836.324-.16-.012 3.896-.326.16.014-3.896Z"/>
  <path fill="#F8F7F5" d="m25.618 75.454.326-.16 4.316 2.12-.324.16-4.318-2.12Z"/>
  <path fill="#DAD6CD" d="m25.618 75.454-.013 3.897 4.317 2.12.014-3.897-4.318-2.12Zm2.059 4.723-1.87-.918.012-3.522 1.87.918-.012 3.522Zm2.04 1.003-1.87-.918.012-3.524 1.87.918-.011 3.524Z"/>
  <path fill="#91806C" d="M25.615 79.242v.32l-1.122.554v-.32l1.122-.554Z"/>
  <path fill="#DAD6CD" d="m29.527 81.162-.001.32-3.912-1.92.001-.32 3.912 1.92Zm-1.12.757-.001.32-4.317-2.12.001-.32 4.317 2.12Z"/>
  <path fill="#91806C" d="m29.937 81.162-.001.32-1.53.756v-.32l1.53-.756Z"/>
  <path fill="#F8F7F5" d="m25.62 79.043-1.53.756 4.317 2.12 1.53-.757-4.317-2.12Zm2.785 2.673-3.911-1.92 1.121-.554 3.912 1.92-1.122.554Z"/>
  <path fill="#91806C" d="m24.672 79.884 1.295-.642 3.742-2.92-1.389.484-3.648 3.078Z"/>
  <path fill="#DAD6CD" d="m28.085 76.647.235.362-3.591 2.957-.373-.167 3.73-3.152Z"/>
  <path fill="#EAE6DB" d="m28.085 76.647 1.389-.687.235.362-1.389.687-.235-.362Z"/>
  <path fill="#7F696B" d="m29.89 72.358-.012 3.522-3.911-1.92.012-3.523 3.91 1.92Z"/>
  <path fill="#F8F7F5" d="m25.806 74.04.326-.161 1.87.919-.326.16-1.87-.918Z"/>
  <path fill="#91806C" d="m25.819 70.517.323-.16-.01 3.522-.326.16.013-3.522Z"/>
  <path fill="#F8F7F5" d="m27.848 75.041.324-.16 1.87.918-.324.161-1.87-.919Z"/>
  <path fill="#91806C" d="m27.859 71.518.324-.16-.011 3.523-.325.16.012-3.523Zm2.077.836.324-.16-.012 3.897-.326.16.014-3.897Z"/>
  <path fill="#F8F7F5" d="m25.618 70.235.326-.16 4.316 2.118-.324.161-4.318-2.12Z"/>
  <path fill="#DAD6CD" d="m25.618 70.235-.013 3.896 4.317 2.12.014-3.897-4.318-2.12Zm2.059 4.723-1.87-.918.012-3.523 1.87.918-.012 3.523Zm2.04 1.002-1.87-.919.012-3.523 1.87.919-.011 3.523Z"/>
  <path fill="#91806C" d="M25.615 74.022v.32l-1.122.554v-.32l1.122-.554Z"/>
  <path fill="#DAD6CD" d="m29.527 75.942-.001.32-3.912-1.92.001-.32 3.912 1.92Zm-1.12.757-.001.32-4.317-2.12.001-.32 4.317 2.12Z"/>
  <path fill="#91806C" d="m29.937 75.942-.001.32-1.53.756V76.7l1.53-.757Z"/>
  <path fill="#F8F7F5" d="m25.62 73.823-1.53.756 4.317 2.12 1.53-.757-4.317-2.119Zm2.785 2.674-3.911-1.92 1.121-.555 3.912 1.92-1.122.555Z"/>
  <path fill="#91806C" d="m24.672 74.707 1.295-.642 3.742-2.92-1.389.485-3.648 3.077Z"/>
  <path fill="#DAD6CD" d="m28.085 71.47.235.362-3.591 2.957-.373-.167 3.73-3.152Z"/>
  <path fill="#EAE6DB" d="m28.085 71.47 1.389-.687.235.362-1.389.687-.235-.362Z"/>
  <path fill="#7F696B" d="m29.89 67.18-.012 3.523-3.911-1.92.012-3.523 3.91 1.92Z"/>
  <path fill="#F8F7F5" d="m25.806 68.862.326-.16 1.87.919-.326.16-1.87-.919Z"/>
  <path fill="#91806C" d="m25.819 65.34.323-.16-.01 3.522-.326.16.013-3.522Z"/>
  <path fill="#F8F7F5" d="m27.848 69.865.324-.16 1.87.917-.324.161-1.87-.918Z"/>
  <path fill="#91806C" d="m27.859 66.341.324-.16-.011 3.523-.325.16.012-3.523Zm2.077.836.324-.16-.012 3.896-.326.16.014-3.896Z"/>
  <path fill="#F8F7F5" d="m25.618 65.058.326-.16 4.316 2.118-.324.16-4.318-2.118Z"/>
  <path fill="#DAD6CD" d="m25.618 65.058-.013 3.897 4.317 2.119.014-3.897-4.318-2.12Zm2.059 4.722-1.87-.918.012-3.522 1.87.918-.012 3.523Zm2.04 1.003-1.87-.918.012-3.524 1.87.918-.011 3.524Z"/>
  <path fill="#91806C" d="M25.615 68.845v.32l-1.122.553V69.4l1.122-.554Z"/>
  <path fill="#DAD6CD" d="m29.527 70.765-.001.32-3.912-1.92.001-.32 3.912 1.92Zm-1.12.757-.001.32-4.317-2.12.001-.32 4.317 2.12Z"/>
  <path fill="#91806C" d="m29.937 70.765-.001.32-1.53.756v-.319l1.53-.757Z"/>
  <path fill="#F8F7F5" d="m25.62 68.646-1.53.757 4.317 2.119 1.53-.757-4.317-2.119Zm2.785 2.674-3.911-1.92 1.121-.555 3.912 1.92-1.122.555Z"/>
  <path fill="#91806C" d="m24.672 69.487 1.295-.642 3.742-2.92-1.389.485-3.648 3.077Z"/>
  <path fill="#DAD6CD" d="m28.085 66.25.235.361-3.591 2.959-.373-.167 3.73-3.154Z"/>
  <path fill="#EAE6DB" d="m28.085 66.249 1.389-.686.235.362-1.389.686-.235-.362Z"/>
  <path fill="#7F696B" d="m29.89 61.96-.012 3.524-3.911-1.921.012-3.523 3.91 1.92Z"/>
  <path fill="#F8F7F5" d="m25.806 63.643.326-.16 1.87.917-.326.16-1.87-.917Z"/>
  <path fill="#91806C" d="m25.819 60.12.323-.161-.01 3.523-.326.16.013-3.522Z"/>
  <path fill="#F8F7F5" d="m27.848 64.645.324-.161 1.87.919-.324.16-1.87-.918Z"/>
  <path fill="#91806C" d="m27.859 61.122.324-.161-.011 3.523-.325.161.012-3.523Zm2.077.835.324-.16-.012 3.896-.326.161.014-3.897Z"/>
  <path fill="#F8F7F5" d="m25.618 59.837.326-.16 4.316 2.12-.324.16-4.318-2.12Z"/>
  <path fill="#DAD6CD" d="m25.618 59.837-.013 3.897 4.317 2.12.014-3.897-4.318-2.12Zm2.059 4.724-1.87-.918.012-3.523 1.87.918-.012 3.523Zm2.04 1.002-1.87-.919.012-3.522 1.87.918-.011 3.523Z"/>
  <path fill="#91806C" d="M25.615 63.625v.32l-1.122.554v-.32l1.122-.554Z"/>
  <path fill="#DAD6CD" d="m29.527 65.546-.001.319-3.912-1.92.001-.32 3.912 1.92Zm-1.12.756-.001.32-4.317-2.12.001-.32 4.317 2.12Z"/>
  <path fill="#91806C" d="m29.937 65.546-.001.319-1.53.757v-.32l1.53-.756Z"/>
  <path fill="#F8F7F5" d="m25.62 63.426-1.53.757 4.317 2.12 1.53-.757-4.317-2.12Zm2.785 2.674-3.911-1.92 1.121-.555 3.912 1.92-1.122.555Z"/>
  <path fill="#7F696B" d="m33.795 63.914-.011 3.524-1.874-.961.012-3.523 1.873.96Z"/>
  <path fill="#F8F7F5" d="m31.749 66.557.325-.16 1.87.917-.325.161-1.87-.918Z"/>
  <path fill="#91806C" d="m31.761 63.033.325-.16-.012 3.523-.325.16.012-3.523Zm2.042.837.325-.16-.014 3.897-.324.16.013-3.896Z"/>
  <path fill="#F8F7F5" d="m31.562 62.751.324-.16 2.247 1.103-.318.164-2.253-1.107Z"/>
  <path fill="#DAD6CD" d="m33.79 67.56.012-3.524v-.184l-2.24-1.1-.014 3.896 2.242 1.101v-.19Zm-.171-.085-1.87-.918.012-3.524 1.87.918-.012 3.524Z"/>
  <path fill="#7F696B" d="m36.892 65.385-.011 3.524-1.875-.961.013-3.523 1.873.96Z"/>
  <path fill="#F8F7F5" d="m34.846 68.028.325-.16 1.87.917-.325.16-1.87-.917Z"/>
  <path fill="#91806C" d="m34.858 64.504.324-.16-.01 3.523-.326.16.012-3.523Zm2.042.838.324-.161-.013 3.897-.325.16.014-3.896Z"/>
  <path fill="#F8F7F5" d="m34.658 64.223.325-.162 2.246 1.104-.317.164-2.254-1.106Z"/>
  <path fill="#DAD6CD" d="M36.887 69.03h-.001l.012-3.523h.002v-.183l-2.241-1.101-.014 3.897 2.242 1.1v-.19Zm-.171-.084-1.87-.92.011-3.522 1.871.918-.012 3.524Z"/>
  <path fill="#7F696B" d="m20.756 57.677-.011 3.523-1.873-.96.011-3.524 1.873.961Z"/>
  <path fill="#F8F7F5" d="m18.71 60.319.325-.16 1.87.918-.325.16-1.87-.918Z"/>
  <path fill="#91806C" d="m18.723 56.796.324-.16-.012 3.523-.325.16.012-3.523Zm2.041.837.325-.16-.013 3.896-.325.16.013-3.896Z"/>
  <path fill="#F8F7F5" d="m18.523 56.514.325-.16 2.246 1.103-.318.163-2.253-1.106Z"/>
  <path fill="#DAD6CD" d="m20.751 61.322.012-3.523v-.183l-2.24-1.101-.013 3.897 2.241 1.1v-.19Zm-.17-.085-1.871-.918.012-3.523 1.87.918-.012 3.523Z"/>
  <path fill="#7F696B" d="m23.854 59.148-.012 3.522-1.874-.96.012-3.523 1.873.96Z"/>
  <path fill="#F8F7F5" d="m21.807 61.79.325-.16 1.87.918-.325.16-1.87-.918Z"/>
  <path fill="#91806C" d="m21.82 58.267.323-.16-.01 3.523-.326.16.012-3.523Zm2.04.837.325-.161-.012 3.897-.326.16.014-3.896Z"/>
  <path fill="#F8F7F5" d="m21.62 57.985.325-.16 2.245 1.103-.317.163-2.254-1.106Z"/>
  <path fill="#DAD6CD" d="M23.848 62.793v-.001l.012-3.523.002-.184-2.242-1.101-.013 3.897 2.241 1.1v-.188Zm-.17-.084-1.871-.919.011-3.522 1.872.918-.013 3.523Z"/>
  <path fill="#7F696B" d="m33.795 68.93-.011 3.523-1.874-.96.012-3.524 1.873.96Z"/>
  <path fill="#F8F7F5" d="m31.749 71.572.325-.16 1.87.918-.325.16-1.87-.918Z"/>
  <path fill="#91806C" d="m31.761 68.049.325-.16-.012 3.523-.325.16.012-3.523Zm2.042.836.325-.16-.014 3.897-.324.16.013-3.897Z"/>
  <path fill="#F8F7F5" d="m31.562 67.767.324-.16 2.247 1.103-.318.163-2.253-1.106Z"/>
  <path fill="#DAD6CD" d="m33.79 72.574.012-3.523v-.184l-2.24-1.101-.014 3.897 2.242 1.1v-.189Zm-.171-.084-1.87-.918.011-3.523 1.872.918-.013 3.523Z"/>
  <path fill="#7F696B" d="m36.892 70.4-.011 3.523-1.875-.96.013-3.523 1.873.96Z"/>
  <path fill="#F8F7F5" d="m34.846 73.043.325-.161 1.87.918-.325.162-1.87-.92Z"/>
  <path fill="#91806C" d="m34.858 69.52.324-.16-.01 3.522-.326.16.012-3.522Zm2.042.836.324-.16-.013 3.897-.325.16.014-3.897Z"/>
  <path fill="#F8F7F5" d="m34.658 69.238.325-.16 2.246 1.103-.317.163-2.254-1.106Z"/>
  <path fill="#DAD6CD" d="m36.887 74.045-.001-.001.012-3.523.002.001v-.184l-2.241-1.101-.014 3.897 2.242 1.1v-.19Zm-.171-.084-1.87-.918.011-3.523 1.871.918-.012 3.523Z"/>
  <path fill="#7F696B" d="m20.756 62.692-.011 3.523-1.873-.96.011-3.523 1.873.96Z"/>
  <path fill="#F8F7F5" d="m18.71 65.335.325-.161 1.87.919-.325.16-1.87-.918Z"/>
  <path fill="#91806C" d="m18.723 61.81.324-.159-.012 3.523-.325.16.012-3.523Zm2.041.838.325-.16-.013 3.897-.325.16.013-3.897Z"/>
  <path fill="#F8F7F5" d="m18.523 61.53.325-.16 2.246 1.103-.318.162-2.253-1.105Z"/>
  <path fill="#DAD6CD" d="m20.751 66.337.012-3.524v.001-.184l-2.24-1.101-.013 3.897 2.241 1.1v-.19Zm-.17-.084-1.871-.919.011-3.523 1.872.918-.013 3.524Z"/>
  <path fill="#7F696B" d="m23.854 64.162-.012 3.524-1.874-.96.012-3.523 1.873.96Z"/>
  <path fill="#F8F7F5" d="m21.807 66.805.325-.16 1.87.918-.325.16-1.87-.918Z"/>
  <path fill="#91806C" d="m21.82 63.283.323-.162-.01 3.524-.326.16.012-3.522Zm2.04.837.325-.162-.012 3.898-.326.16.014-3.897Z"/>
  <path fill="#F8F7F5" d="m21.62 63 .325-.161 2.245 1.104-.317.164L21.62 63Z"/>
  <path fill="#DAD6CD" d="m23.848 67.808.012-3.524v.001l.002-.184-2.242-1.1-.013 3.896 2.241 1.1v-.19Zm-.17-.085-1.871-.918.011-3.523 1.872.918-.013 3.523Z"/>
  <path fill="#7F696B" d="m33.795 73.955-.011 3.524-1.874-.961.012-3.523 1.873.96Z"/>
  <path fill="#F8F7F5" d="m31.749 76.598.325-.16 1.87.918-.325.16-1.87-.918Z"/>
  <path fill="#91806C" d="m31.761 73.075.325-.16-.012 3.522-.325.16.012-3.522Zm2.042.837.325-.16-.014 3.896-.324.16.013-3.896Z"/>
  <path fill="#F8F7F5" d="m31.562 72.793.324-.16 2.247 1.102-.318.164-2.253-1.106Z"/>
  <path fill="#DAD6CD" d="m33.79 77.6.012-3.523v-.184l-2.24-1.1-.014 3.896 2.242 1.101v-.19Zm-.171-.084-1.87-.919.011-3.523 1.872.919-.013 3.523Z"/>
  <path fill="#7F696B" d="m36.892 75.427-.011 3.523-1.875-.96.013-3.524 1.873.96Z"/>
  <path fill="#F8F7F5" d="m34.846 78.069.325-.16 1.87.917-.325.16-1.87-.917Z"/>
  <path fill="#91806C" d="m34.858 74.546.324-.16-.01 3.522-.326.16.012-3.522Zm2.042.836.324-.16-.013 3.897-.325.16.014-3.897Z"/>
  <path fill="#F8F7F5" d="m34.658 74.263.325-.16 2.246 1.103-.317.163-2.254-1.106Z"/>
  <path fill="#DAD6CD" d="M36.887 79.071h-.001l.012-3.523h.002v-.183l-2.241-1.101-.014 3.897 2.242 1.1v-.19Zm-.171-.084-1.87-.918.011-3.523 1.871.918-.012 3.523Z"/>
  <path fill="#7F696B" d="m20.756 67.718-.011 3.523-1.873-.96.011-3.523 1.873.96Z"/>
  <path fill="#F8F7F5" d="m18.71 70.36.325-.16 1.87.918-.325.16-1.87-.917Z"/>
  <path fill="#91806C" d="m18.723 66.837.324-.16-.012 3.523-.325.16.012-3.523Zm2.041.838.325-.161-.013 3.896-.325.16.013-3.895Z"/>
  <path fill="#F8F7F5" d="m18.523 66.555.325-.16 2.246 1.103-.318.163-2.253-1.106Z"/>
  <path fill="#DAD6CD" d="m20.751 71.362.012-3.523v-.183l-2.24-1.1-.013 3.896 2.241 1.101v-.19Zm-.17-.083-1.871-.918.011-3.523 1.872.918-.013 3.523Z"/>
  <path fill="#7F696B" d="m23.854 69.189-.012 3.523-1.874-.96.012-3.523 1.873.96Z"/>
  <path fill="#F8F7F5" d="m21.807 71.832.325-.161 1.87.918-.325.16-1.87-.917Z"/>
  <path fill="#91806C" d="m21.82 68.308.323-.16-.01 3.523-.326.16.012-3.523Zm2.04.836.325-.16-.012 3.897-.326.16.014-3.897Z"/>
  <path fill="#F8F7F5" d="m21.62 68.026.325-.16 2.245 1.103-.317.163-2.254-1.106Z"/>
  <path fill="#DAD6CD" d="m23.848 72.834.012-3.525v.001l.002-.184-2.242-1.101-.013 3.897 2.241 1.1v-.188Zm-.17-.084-1.871-.918.011-3.524 1.872.918-.013 3.524Z"/>
  <path fill="#7F696B" d="m33.795 79.566-.011 3.524-1.874-.961.012-3.523 1.873.96Z"/>
  <path fill="#F8F7F5" d="m31.749 82.209.325-.16 1.87.917-.325.16-1.87-.917Z"/>
  <path fill="#91806C" d="m31.761 78.685.325-.16-.012 3.523-.325.16.012-3.523Zm2.042.838.325-.16-.014 3.896-.324.16.013-3.896Z"/>
  <path fill="#F8F7F5" d="m31.562 78.403.324-.16 2.247 1.103-.318.164-2.253-1.107Z"/>
  <path fill="#DAD6CD" d="m33.79 83.211.012-3.523v-.184l-2.24-1.1-.014 3.896 2.242 1.101v-.19Zm-.171-.084-1.87-.919.011-3.523 1.872.918-.013 3.524Z"/>
  <path fill="#7F696B" d="m36.892 81.037-.011 3.523-1.875-.96.013-3.523 1.873.96Z"/>
  <path fill="#F8F7F5" d="m34.846 83.68.325-.161 1.87.918-.325.16-1.87-.917Z"/>
  <path fill="#91806C" d="m34.858 80.157.324-.162-.01 3.524-.326.16.012-3.522Zm2.042.836.324-.16-.013 3.896-.325.16.014-3.895Z"/>
  <path fill="#F8F7F5" d="m34.658 79.875.325-.162 2.246 1.104-.317.164-2.254-1.106Z"/>
  <path fill="#DAD6CD" d="M36.887 84.682h-.001l.012-3.524h.002v-.183l-2.241-1.101-.014 3.897 2.242 1.1v-.189Zm-.171-.084-1.87-.918.011-3.523 1.871.918-.012 3.523Z"/>
  <path fill="#7F696B" d="m20.756 73.329-.011 3.523-1.873-.96.011-3.524 1.873.961Z"/>
  <path fill="#F8F7F5" d="m18.71 75.97.325-.159 1.87.918-.325.16-1.87-.918Z"/>
  <path fill="#91806C" d="m18.723 72.448.324-.16-.012 3.523-.325.16.012-3.523Zm2.041.837.325-.161-.013 3.897-.325.16.013-3.896Z"/>
  <path fill="#F8F7F5" d="m18.523 72.166.325-.16 2.246 1.103-.318.163-2.253-1.106Z"/>
  <path fill="#DAD6CD" d="m20.751 76.974.012-3.523v-.184l-2.24-1.101-.013 3.896 2.241 1.101v-.189Zm-.17-.085-1.871-.918.011-3.523 1.872.918-.013 3.523Z"/>
  <path fill="#7F696B" d="m23.854 74.8-.012 3.522-1.874-.96.012-3.523 1.873.96Z"/>
  <path fill="#F8F7F5" d="m21.807 77.442.325-.16 1.87.918-.325.16-1.87-.918Z"/>
  <path fill="#91806C" d="m21.82 73.919.323-.16-.01 3.523-.326.16.012-3.523Zm2.04.837.325-.161-.012 3.897-.326.16.014-3.896Z"/>
  <path fill="#F8F7F5" d="m21.62 73.637.325-.16 2.245 1.103-.317.163-2.254-1.106Z"/>
  <path fill="#DAD6CD" d="m23.848 78.444.012-3.524.002-.183-2.242-1.101-.013 3.897 2.241 1.1v-.189Zm-.17-.083-1.871-.919.011-3.522 1.872.918-.013 3.523Z"/>
  <path fill="#7F696B" d="m33.795 85.284-.011 3.523-1.874-.96.012-3.523 1.873.96Z"/>
  <path fill="#F8F7F5" d="m31.749 87.926.325-.16 1.87.919-.325.16-1.87-.919Z"/>
  <path fill="#91806C" d="m31.761 84.403.325-.16-.012 3.523-.325.16.012-3.523Zm2.042.837.325-.16-.014 3.896-.324.161.013-3.897Z"/>
  <path fill="#F8F7F5" d="m31.562 84.121.324-.16 2.247 1.103-.318.164-2.253-1.107Z"/>
  <path fill="#DAD6CD" d="m33.79 88.928.012-3.523v-.184l-2.24-1.1-.014 3.897 2.242 1.1v-.19Zm-.171-.084-1.87-.918.012-3.523 1.87.919-.012 3.522Z"/>
  <path fill="#7F696B" d="m36.892 86.754-.011 3.524-1.875-.96.013-3.524 1.873.96Z"/>
  <path fill="#F8F7F5" d="m34.846 89.397.325-.16 1.87.918-.325.161-1.87-.919Z"/>
  <path fill="#91806C" d="m34.858 85.874.324-.16-.01 3.522-.326.16.012-3.522Zm2.042.836.324-.16-.013 3.897-.325.16.014-3.896Z"/>
  <path fill="#F8F7F5" d="m34.658 85.592.325-.16 2.246 1.103-.317.163-2.254-1.106Z"/>
  <path fill="#DAD6CD" d="M36.887 90.4h-.001l.012-3.523h.002v-.184l-2.241-1.1-.014 3.895 2.242 1.101v-.19Zm-.171-.084-1.87-.918.011-3.524 1.871.919-.012 3.523Z"/>
  <path fill="#7F696B" d="m20.756 79.046-.011 3.524-1.873-.96.011-3.524 1.873.96Z"/>
  <path fill="#F8F7F5" d="m18.71 81.689.325-.16 1.87.918-.325.16-1.87-.918Z"/>
  <path fill="#91806C" d="m18.723 78.165.324-.16-.012 3.523-.325.16.012-3.523Zm2.041.838.325-.16-.013 3.896-.325.16.013-3.896Z"/>
  <path fill="#F8F7F5" d="m18.523 77.883.325-.16 2.246 1.103-.318.164-2.253-1.107Z"/>
  <path fill="#DAD6CD" d="m20.751 82.691.012-3.523v-.184l-2.24-1.1-.013 3.896 2.241 1.101v-.19Zm-.17-.084-1.871-.918.012-3.524 1.87.918-.012 3.524Z"/>
  <path fill="#7F696B" d="m23.854 80.517-.012 3.524-1.874-.961.012-3.523 1.873.96Z"/>
  <path fill="#F8F7F5" d="m21.807 83.16.325-.16 1.87.917-.325.16-1.87-.917Z"/>
  <path fill="#91806C" d="m21.82 79.637.323-.161-.01 3.523-.326.16.012-3.522Zm2.04.837.325-.161-.012 3.896-.326.162.014-3.897Z"/>
  <path fill="#F8F7F5" d="m21.62 79.355.325-.16 2.245 1.102-.317.164-2.254-1.106Z"/>
  <path fill="#DAD6CD" d="m23.848 84.162.012-3.524.002-.183-2.242-1.1-.013 3.896 2.241 1.101v-.19Zm-.17-.084-1.871-.92.011-3.522 1.872.918-.013 3.524Z"/>
  <path fill="#7F696B" d="m33.795 90.3-.011 3.523-1.874-.961.012-3.523 1.873.96Z"/>
  <path fill="#F8F7F5" d="m31.749 92.942.325-.16 1.87.917-.325.16-1.87-.917Z"/>
  <path fill="#91806C" d="m31.761 89.418.325-.16-.012 3.523-.325.16.012-3.523Zm2.042.838.325-.161-.014 3.896-.324.16.013-3.895Z"/>
  <path fill="#F8F7F5" d="m31.562 89.136.324-.16 2.247 1.103-.318.164-2.253-1.107Z"/>
  <path fill="#DAD6CD" d="m33.79 93.944.012-3.523v-.183l-2.24-1.101-.014 3.897 2.242 1.1v-.19Zm-.171-.084-1.87-.918.012-3.523 1.87.918-.012 3.523Z"/>
  <path fill="#7F696B" d="m36.892 91.77-.011 3.523-1.875-.96.013-3.523 1.873.96Z"/>
  <path fill="#F8F7F5" d="m34.846 94.413.325-.161 1.87.918-.325.16-1.87-.917Z"/>
  <path fill="#91806C" d="m34.858 90.89.324-.16-.01 3.522-.326.16.012-3.522Zm2.042.836.324-.16-.013 3.896-.325.161.014-3.897Z"/>
  <path fill="#F8F7F5" d="m34.658 90.607.325-.16 2.246 1.103-.317.163-2.254-1.106Z"/>
  <path fill="#DAD6CD" d="M36.887 95.415h-.001l.012-3.524h.002v-.183l-2.241-1.101-.014 3.897 2.242 1.1v-.189Zm-.171-.084-1.87-.918.011-3.523 1.871.918-.012 3.523Z"/>
  <path fill="#7F696B" d="m20.756 84.062-.011 3.523-1.873-.96.011-3.524 1.873.96Z"/>
  <path fill="#F8F7F5" d="m18.71 86.704.325-.16 1.87.918-.325.16-1.87-.918Z"/>
  <path fill="#91806C" d="m18.723 83.181.324-.16-.012 3.523-.325.16.012-3.523Zm2.041.838.325-.162-.013 3.897-.325.16.013-3.895Z"/>
  <path fill="#F8F7F5" d="m18.523 82.899.325-.16 2.246 1.103-.318.163-2.253-1.106Z"/>
  <path fill="#DAD6CD" d="m20.751 87.706.012-3.523V84l-2.24-1.1-.013 3.896 2.241 1.101v-.19Zm-.17-.083-1.871-.918.012-3.524 1.87.92-.012 3.522Z"/>
  <path fill="#7F696B" d="m23.854 85.533-.012 3.522-1.874-.96.012-3.522 1.873.96Z"/>
  <path fill="#F8F7F5" d="m21.807 88.175.325-.161 1.87.919-.325.16-1.87-.918Z"/>
  <path fill="#91806C" d="m21.82 84.652.323-.16-.01 3.522-.326.161.012-3.523Zm2.04.836.325-.16-.012 3.897-.326.16.014-3.897Z"/>
  <path fill="#F8F7F5" d="m21.62 84.37.325-.16 2.245 1.103-.317.163-2.254-1.106Z"/>
  <path fill="#DAD6CD" d="m23.848 89.177.012-3.524.002-.184-2.242-1.101-.013 3.897 2.241 1.1v-.188Zm-.17-.083-1.871-.918.011-3.524 1.872.918-.013 3.524Z"/>
  <path fill="#B04B05" d="m30.52 11.892.049 18.117 6.549 3.233-.052-18.157-6.546-3.193Z"/>
  <path fill="#7F696B" d="m35.789 26.047-.012 3.522-3.91-1.92.01-3.523 3.912 1.92Z"/>
  <path fill="#F8F7F5" d="m31.705 27.729.324-.16 1.87.917-.324.16-1.87-.917Z"/>
  <path fill="#91806C" d="m31.716 24.206.326-.16-.013 3.522-.324.16.011-3.522Z"/>
  <path fill="#F8F7F5" d="m33.745 28.73.326-.16 1.87.919-.326.16-1.87-.919Z"/>
  <path fill="#91806C" d="m33.757 25.207.325-.16-.011 3.523-.326.16.012-3.523Zm2.077.836.325-.16-.014 3.896-.324.161.013-3.897Z"/>
  <path fill="#F8F7F5" d="m31.517 23.923.324-.16 4.318 2.12-.326.16-4.316-2.12Z"/>
  <path fill="#DAD6CD" d="m31.517 23.923-.012 3.897 4.316 2.12.014-3.897-4.318-2.12Zm2.058 4.724-1.87-.918.011-3.523 1.87.918-.01 3.523Zm2.04 1.002-1.87-.918.012-3.523 1.871.919-.013 3.522Z"/>
  <path fill="#91806C" d="m31.515 27.71-.001.32-1.122.555v-.32l1.123-.554Z"/>
  <path fill="#DAD6CD" d="m35.426 29.631-.001.32-3.911-1.92.001-.32 3.91 1.92Zm-1.122.757v.32l-4.317-2.12.001-.32 4.316 2.12Z"/>
  <path fill="#91806C" d="m35.836 29.631-.001.32-1.53.756v-.319l1.53-.757Z"/>
  <path fill="#F8F7F5" d="m31.52 27.512-1.532.757 4.317 2.12 1.532-.757-4.318-2.12Zm2.784 2.674-3.911-1.92 1.122-.554 3.91 1.92-1.12.554Z"/>
  <path fill="#91806C" d="m30.57 28.396 1.297-.642 3.741-2.92-1.39.485-3.648 3.077Z"/>
  <path fill="#DAD6CD" d="m33.983 25.159.236.362-3.592 2.957-.372-.167 3.728-3.152Z"/>
  <path fill="#EAE6DB" d="m33.983 25.159 1.388-.687.237.362-1.39.687-.235-.362Z"/>
  <path fill="#7F696B" d="m35.789 20.87-.012 3.522-3.91-1.92.01-3.523 3.912 1.92Z"/>
  <path fill="#F8F7F5" d="m31.705 22.552.324-.161 1.87.919-.324.16-1.87-.918Z"/>
  <path fill="#91806C" d="m31.716 19.029.326-.16-.013 3.522-.324.16.011-3.522Z"/>
  <path fill="#F8F7F5" d="m33.745 23.554.326-.16 1.87.918-.326.16-1.87-.918Z"/>
  <path fill="#91806C" d="m33.757 20.03.325-.16-.011 3.523-.326.161.012-3.524Zm2.077.836.325-.16-.014 3.896-.324.161.013-3.897Z"/>
  <path fill="#F8F7F5" d="m31.517 18.747.324-.16 4.318 2.119-.326.16-4.316-2.12Z"/>
  <path fill="#DAD6CD" d="m31.517 18.747-.012 3.897 4.316 2.12.014-3.898-4.318-2.12Zm2.058 4.724-1.87-.92.011-3.522 1.87.918-.01 3.524Zm2.04 1.001-1.87-.918.012-3.524 1.871.919-.013 3.523Z"/>
  <path fill="#91806C" d="m31.515 22.534-.001.32-1.122.554v-.32l1.123-.554Z"/>
  <path fill="#DAD6CD" d="m35.426 24.454-.001.32-3.911-1.92.001-.32 3.91 1.92Zm-1.122.757v.32l-4.317-2.12.001-.32 4.316 2.12Z"/>
  <path fill="#91806C" d="m35.836 24.454-.001.32-1.53.756v-.319l1.53-.757Z"/>
  <path fill="#F8F7F5" d="m31.52 22.335-1.532.757 4.317 2.12 1.532-.758-4.318-2.119Zm2.784 2.674-3.911-1.92 1.122-.555 3.91 1.92-1.12.555Z"/>
  <path fill="#91806C" d="m30.57 23.176 1.297-.642 3.741-2.92-1.39.485-3.648 3.077Z"/>
  <path fill="#DAD6CD" d="m33.983 19.938.236.362-3.592 2.959-.372-.167 3.728-3.154Z"/>
  <path fill="#EAE6DB" d="m33.983 19.938 1.388-.686.237.362-1.39.686-.235-.362Z"/>
  <path fill="#7F696B" d="m35.789 15.65-.012 3.523-3.91-1.921.01-3.523 3.912 1.92Z"/>
  <path fill="#F8F7F5" d="m31.705 17.332.324-.16 1.87.917-.324.161-1.87-.918Z"/>
  <path fill="#91806C" d="m31.716 13.808.326-.16-.013 3.523-.324.16.011-3.523Z"/>
  <path fill="#F8F7F5" d="m33.745 18.334.326-.161 1.87.919-.326.16-1.87-.918Z"/>
  <path fill="#91806C" d="m33.757 14.81.325-.16-.011 3.523-.326.161.012-3.523Zm2.077.836.325-.16-.014 3.896-.324.16.013-3.896Z"/>
  <path fill="#F8F7F5" d="m31.517 13.526.324-.16 4.318 2.12-.326.16-4.316-2.12Z"/>
  <path fill="#DAD6CD" d="m31.517 13.526-.012 3.897 4.316 2.12.014-3.897-4.318-2.12Zm2.058 4.724-1.87-.918.011-3.523 1.87.918-.01 3.523Zm2.04 1.002-1.87-.919.012-3.522 1.871.918-.013 3.523Z"/>
  <path fill="#91806C" d="m31.515 17.314-.001.32-1.122.554v-.32l1.123-.554Z"/>
  <path fill="#DAD6CD" d="m35.426 19.235-.001.319-3.911-1.92.001-.32 3.91 1.92Zm-1.122.756v.32l-4.317-2.12.001-.32 4.316 2.12Z"/>
  <path fill="#91806C" d="m35.836 19.235-.001.319-1.53.757v-.32l1.53-.756Z"/>
  <path fill="#F8F7F5" d="m31.52 17.115-1.532.757 4.317 2.12 1.532-.756-4.318-2.12Zm2.784 2.674-3.911-1.92 1.122-.554 3.91 1.92-1.12.554Z"/>
  <path fill="#7F696B" d="m39.695 17.603-.013 3.524-1.873-.96.012-3.524 1.874.96Z"/>
  <path fill="#F8F7F5" d="m37.648 20.246.324-.16 1.87.918-.324.16-1.87-.918Z"/>
  <path fill="#91806C" d="m37.659 16.722.325-.16-.012 3.523-.325.161.012-3.524Zm2.042.837.325-.16-.013 3.897-.324.16.012-3.897Z"/>
  <path fill="#F8F7F5" d="m37.46 16.44.325-.16 2.247 1.103-.32.164-2.253-1.107Z"/>
  <path fill="#DAD6CD" d="m39.69 21.248.01-3.523h.001l.001-.184-2.241-1.1-.013 3.896 2.24 1.101.002-.19Zm-.172-.084-1.87-.918.012-3.524 1.87.919-.012 3.523Z"/>
  <path fill="#7F696B" d="m29.752 12.837-.011 3.523-1.874-.96.01-3.524 1.875.96Z"/>
  <path fill="#F8F7F5" d="m27.705 15.479.325-.16 1.87.918-.325.16-1.87-.918Z"/>
  <path fill="#91806C" d="m27.717 11.956.326-.16-.013 3.523-.325.16.012-3.523Zm2.043.837.324-.161-.013 3.897-.325.16.014-3.896Z"/>
  <path fill="#F8F7F5" d="m27.518 11.674.324-.16 2.247 1.103-.318.163-2.253-1.106Z"/>
  <path fill="#DAD6CD" d="M29.747 16.482h-.001l.012-3.524.002-.184-2.242-1.1-.013 3.896 2.241 1.101.001-.189Zm-.172-.085-1.87-.918.012-3.523 1.87.918-.012 3.523Z"/>
  <path fill="#7F696B" d="m39.695 22.619-.013 3.523-1.873-.96.012-3.524 1.874.961Z"/>
  <path fill="#F8F7F5" d="m37.648 25.26.324-.159 1.87.918-.324.16-1.87-.918Z"/>
  <path fill="#91806C" d="m37.659 21.738.325-.16-.012 3.523-.325.16.012-3.523Zm2.042.837.325-.161-.013 3.897-.324.16.012-3.896Z"/>
  <path fill="#F8F7F5" d="m37.46 21.456.325-.16 2.247 1.103-.32.163-2.253-1.106Z"/>
  <path fill="#DAD6CD" d="m39.69 26.263.01-3.523h.001l.001-.184-2.241-1.1-.013 3.896 2.24 1.101.002-.19Zm-.172-.084-1.87-.918.012-3.524 1.87.92-.012 3.522Z"/>
  <path fill="#7F696B" d="m29.752 17.852-.011 3.523-1.874-.96.01-3.523 1.875.96Z"/>
  <path fill="#F8F7F5" d="m27.705 20.494.325-.16 1.87.918-.325.16-1.87-.918Z"/>
  <path fill="#91806C" d="m27.717 16.972.326-.162-.013 3.524-.325.16.012-3.522Zm2.043.836.324-.16-.013 3.897-.325.16.014-3.897Z"/>
  <path fill="#F8F7F5" d="m27.518 16.69.324-.162 2.247 1.104-.318.164-2.253-1.106Z"/>
  <path fill="#DAD6CD" d="m29.747 21.497-.001-.001.012-3.524.002-.183-2.242-1.101-.013 3.897 2.241 1.1.001-.188Zm-.172-.084-1.87-.919.012-3.523 1.87.918-.012 3.524Z"/>
  <path fill="#7F696B" d="m39.695 27.644-.013 3.524-1.873-.96.012-3.523 1.874.96Z"/>
  <path fill="#F8F7F5" d="m37.648 30.287.324-.16 1.87.918-.324.16-1.87-.918Z"/>
  <path fill="#91806C" d="m37.659 26.764.325-.161-.012 3.523-.325.161.012-3.523Zm2.042.836.325-.16-.013 3.897-.324.16.012-3.896Z"/>
  <path fill="#F8F7F5" d="m37.46 26.481.325-.16 2.247 1.103-.32.165-2.253-1.108Z"/>
  <path fill="#DAD6CD" d="m39.69 31.29.01-3.524h.001l.001-.183-2.241-1.1-.013 3.896 2.24 1.1.002-.19Zm-.172-.085-1.87-.918.012-3.523 1.87.919-.012 3.522Z"/>
  <path fill="#7F696B" d="m29.752 22.878-.011 3.523-1.874-.96.01-3.523 1.875.96Z"/>
  <path fill="#F8F7F5" d="m27.705 25.52.325-.16 1.87.918-.325.16-1.87-.917Z"/>
  <path fill="#91806C" d="m27.717 21.997.326-.16-.013 3.522-.325.162.012-3.524Zm2.043.837.324-.16-.013 3.896-.325.16.014-3.896Z"/>
  <path fill="#F8F7F5" d="m27.518 21.715.324-.16 2.247 1.103-.318.163-2.253-1.106Z"/>
  <path fill="#DAD6CD" d="M29.747 26.523h-.001l.012-3.524.002-.184-2.242-1.1-.013 3.896 2.241 1.101.001-.189Zm-.172-.084-1.87-.918.012-3.524 1.87.918-.012 3.524Z"/>
  <path fill="#D8C9B6" d="m27.614 31.756.067 24.395 6.547 3.22-.068-24.423-6.546-3.192Z"/>
  <path fill="#91806C" d="m27.664 58.656 1.295-.642 3.742-2.92-1.39.484-3.647 3.078Z"/>
  <path fill="#DAD6CD" d="m31.077 55.419.235.361-3.59 2.958-.373-.166 3.728-3.154Z"/>
  <path fill="#EAE6DB" d="m31.077 55.419 1.388-.687.236.362-1.39.686-.234-.361Z"/>
  <path fill="#7F696B" d="m32.883 51.13-.013 3.523-3.91-1.92.011-3.524 3.912 1.92Z"/>
  <path fill="#F8F7F5" d="m28.798 52.811.325-.16 1.87.919-.325.16-1.87-.919Z"/>
  <path fill="#91806C" d="m28.81 49.289.325-.16-.012 3.523-.325.16.012-3.523Z"/>
  <path fill="#F8F7F5" d="m30.84 53.814.324-.16 1.87.917-.325.16-1.87-.917Z"/>
  <path fill="#91806C" d="m30.85 50.29.325-.16-.011 3.523-.325.16.012-3.523Zm2.078.836.325-.16-.014 3.896-.324.16.013-3.896Z"/>
  <path fill="#F8F7F5" d="m28.611 49.007.325-.161 4.317 2.12-.325.16-4.317-2.12Z"/>
  <path fill="#DAD6CD" d="m28.611 49.007-.013 3.897 4.317 2.12.014-3.897-4.318-2.12Zm2.057 4.722-1.87-.918.012-3.522 1.87.918-.012 3.522Zm2.041 1.003-1.87-.918.012-3.524 1.87.918-.011 3.524Z"/>
  <path fill="#91806C" d="m28.608 52.794-.001.32-1.122.554v-.32l1.123-.553Z"/>
  <path fill="#DAD6CD" d="m32.52 54.714-.001.32-3.912-1.92.001-.32 3.912 1.92Zm-1.122.756v.32l-4.317-2.12.001-.319 4.316 2.12Z"/>
  <path fill="#91806C" d="m32.93 54.714-.002.32-1.53.756v-.32l1.532-.756Z"/>
  <path fill="#F8F7F5" d="m28.612 52.595-1.531.757 4.317 2.119 1.532-.757-4.318-2.12Zm2.784 2.674-3.91-1.921 1.121-.554 3.912 1.92-1.123.555Z"/>
  <path fill="#91806C" d="m27.664 53.436 1.295-.642 3.742-2.92-1.39.484-3.647 3.078Z"/>
  <path fill="#DAD6CD" d="m31.077 50.198.235.363-3.59 2.957-.373-.166 3.728-3.154Z"/>
  <path fill="#EAE6DB" d="m31.077 50.198 1.388-.686.236.362-1.39.687-.234-.363Z"/>
  <path fill="#7F696B" d="m32.883 45.91-.013 3.522-3.91-1.92.011-3.523 3.912 1.92Z"/>
  <path fill="#F8F7F5" d="m28.798 47.592.325-.161 1.87.918-.325.16-1.87-.917Z"/>
  <path fill="#91806C" d="m28.81 44.068.325-.16-.012 3.523-.325.16.012-3.523Z"/>
  <path fill="#F8F7F5" d="m30.84 48.593.324-.16 1.87.919-.325.16-1.87-.919Z"/>
  <path fill="#91806C" d="m30.85 45.07.325-.16-.011 3.524-.325.16.012-3.523Zm2.078.836.325-.16-.014 3.896-.324.16.013-3.896Z"/>
  <path fill="#F8F7F5" d="m28.611 43.786.325-.16 4.317 2.12-.325.16-4.317-2.12Z"/>
  <path fill="#DAD6CD" d="m28.611 43.786-.013 3.897 4.317 2.12.014-3.898-4.318-2.12Zm2.057 4.724-1.87-.918.012-3.524 1.87.918-.012 3.524Zm2.041 1.002-1.87-.918.012-3.523 1.87.919-.011 3.522Z"/>
  <path fill="#91806C" d="m28.608 47.575-.001.318-1.122.555v-.319l1.123-.554Z"/>
  <path fill="#DAD6CD" d="m32.52 49.494-.001.32-3.912-1.92.001-.32 3.912 1.92Zm-1.122.757v.32l-4.317-2.12.001-.32 4.316 2.12Z"/>
  <path fill="#91806C" d="m32.93 49.494-.002.32-1.53.756v-.319l1.532-.757Z"/>
  <path fill="#F8F7F5" d="m28.612 47.374-1.531.757 4.317 2.12 1.532-.757-4.318-2.12Zm2.784 2.675-3.91-1.92 1.121-.555 3.912 1.92-1.123.555Z"/>
  <path fill="#91806C" d="m27.664 48.26 1.295-.643 3.742-2.92-1.39.484-3.647 3.079Z"/>
  <path fill="#DAD6CD" d="m31.077 45.022.235.362-3.59 2.957-.373-.167 3.728-3.152Z"/>
  <path fill="#EAE6DB" d="m31.077 45.022 1.388-.687.236.362-1.39.687-.234-.362Z"/>
  <path fill="#7F696B" d="m32.883 40.733-.013 3.522-3.91-1.92.011-3.523 3.912 1.92Z"/>
  <path fill="#F8F7F5" d="m28.798 42.414.325-.16 1.87.919-.325.16-1.87-.919Z"/>
  <path fill="#91806C" d="m28.81 38.892.325-.16-.012 3.522-.325.16.012-3.522Z"/>
  <path fill="#F8F7F5" d="m30.84 43.417.324-.16 1.87.918-.325.16-1.87-.918Z"/>
  <path fill="#91806C" d="m30.85 39.893.325-.16-.011 3.523-.325.16.012-3.523Zm2.078.836.325-.16-.014 3.896-.324.161.013-3.897Z"/>
  <path fill="#F8F7F5" d="m28.611 38.61.325-.16 4.317 2.118-.325.161-4.317-2.12Z"/>
  <path fill="#DAD6CD" d="m28.611 38.61-.013 3.897 4.317 2.12.014-3.897-4.318-2.12Zm2.057 4.723-1.87-.919.012-3.522 1.87.918-.012 3.523Zm2.041 1.002-1.87-.919.012-3.523 1.87.919-.011 3.523Z"/>
  <path fill="#91806C" d="m28.608 42.398-.001.318-1.122.554v-.318l1.123-.554Z"/>
  <path fill="#DAD6CD" d="m32.52 44.317-.001.32-3.912-1.92.001-.32 3.912 1.92Zm-1.122.757v.32l-4.317-2.12.001-.32 4.316 2.12Z"/>
  <path fill="#91806C" d="m32.93 44.317-.002.32-1.53.756v-.319l1.532-.757Z"/>
  <path fill="#F8F7F5" d="m28.612 42.198-1.531.756 4.317 2.12 1.532-.757-4.318-2.119Zm2.784 2.674-3.91-1.92 1.121-.555 3.912 1.92-1.123.555Z"/>
  <path fill="#91806C" d="m27.664 43.039 1.295-.641 3.742-2.92-1.39.484-3.647 3.077Z"/>
  <path fill="#DAD6CD" d="m31.077 39.801.235.362-3.59 2.959-.373-.168 3.728-3.153Z"/>
  <path fill="#EAE6DB" d="m31.077 39.801 1.388-.687.236.363-1.39.686-.234-.362Z"/>
  <path fill="#7F696B" d="m32.883 35.512-.013 3.524-3.91-1.921.011-3.523 3.912 1.92Z"/>
  <path fill="#F8F7F5" d="m28.798 37.195.325-.16 1.87.917-.325.161-1.87-.918Z"/>
  <path fill="#91806C" d="m28.81 33.671.325-.16-.012 3.523-.325.16.012-3.523Z"/>
  <path fill="#F8F7F5" d="m30.84 38.196.324-.16 1.87.919-.325.16-1.87-.919Z"/>
  <path fill="#91806C" d="m30.85 34.674.325-.16-.011 3.523-.325.16.012-3.523Zm2.078.836.325-.161-.014 3.896-.324.16.013-3.896Z"/>
  <path fill="#F8F7F5" d="m28.611 33.39.325-.16 4.317 2.119-.325.16-4.317-2.12Z"/>
  <path fill="#DAD6CD" d="m28.611 33.39-.013 3.896 4.317 2.12.014-3.897-4.318-2.12Zm2.057 4.723-1.87-.918.012-3.524 1.87.918-.012 3.524Zm2.041 1.002-1.87-.919.012-3.522 1.87.918-.011 3.523Z"/>
  <path fill="#91806C" d="m28.608 37.177-.001.32-1.122.554v-.32l1.123-.554Z"/>
  <path fill="#DAD6CD" d="m32.52 39.098-.001.319-3.912-1.92.001-.32 3.912 1.92Zm-1.122.755v.32l-4.317-2.12.001-.319 4.316 2.12Z"/>
  <path fill="#91806C" d="m32.93 39.098-.002.319-1.53.757v-.32l1.532-.756Z"/>
  <path fill="#F8F7F5" d="m28.612 36.977-1.531.757 4.317 2.12 1.532-.757-4.318-2.12Zm2.784 2.675-3.91-1.92 1.121-.555 3.912 1.92-1.123.555Z"/>
  <path fill="#7F696B" d="m36.787 37.466-.01 3.524-1.875-.96.012-3.524 1.873.96Z"/>
  <path fill="#F8F7F5" d="m34.74 40.109.326-.16 1.87.918-.324.16-1.872-.918Z"/>
  <path fill="#91806C" d="m34.753 36.585.324-.16-.011 3.523-.326.16.013-3.523Zm2.041.838.326-.16-.014 3.896-.324.16.012-3.896Z"/>
  <path fill="#F8F7F5" d="m34.554 36.303.324-.16 2.247 1.103-.318.163-2.253-1.106Z"/>
  <path fill="#DAD6CD" d="M36.783 41.111h-.001l.011-3.524h.001l.001-.183-2.241-1.1-.014 3.896 2.242 1.101v-.19Zm-.171-.084-1.87-.919.012-3.523 1.87.919-.012 3.523Z"/>
  <path fill="#7F696B" d="m39.884 38.937-.012 3.523L38 41.5l.011-3.523 1.874.96Z"/>
  <path fill="#F8F7F5" d="m37.837 41.58.326-.16 1.87.917-.325.16-1.87-.917Z"/>
  <path fill="#91806C" d="m37.85 38.056.323-.16-.01 3.523-.326.16.013-3.523Zm2.041.838.326-.161-.014 3.896-.324.16.012-3.895Z"/>
  <path fill="#F8F7F5" d="m37.65 37.775.325-.16 2.247 1.102-.318.164-2.253-1.106Z"/>
  <path fill="#DAD6CD" d="M39.88 42.582h-.001l.011-3.524h.001l.001-.184-2.241-1.1-.014 3.896 2.242 1.1v-.188Zm-.172-.084-1.87-.918.012-3.523 1.87.918-.012 3.523Z"/>
  <path fill="#7F696B" d="m23.748 31.23-.01 3.522-1.875-.96.012-3.524 1.873.961Z"/>
  <path fill="#F8F7F5" d="m21.702 33.87.325-.159 1.87.918-.324.16-1.871-.918Z"/>
  <path fill="#91806C" d="m21.714 30.348.325-.16-.012 3.523-.325.16.012-3.523Zm2.042.837.325-.16-.014 3.896-.324.16.013-3.896Z"/>
  <path fill="#F8F7F5" d="m21.515 30.066.324-.16 2.247 1.103-.318.163-2.253-1.106Z"/>
  <path fill="#DAD6CD" d="M23.744 34.874h-.001l.012-3.524.002-.183-2.242-1.1-.014 3.896 2.242 1.101.001-.19Zm-.171-.085-1.87-.918.012-3.523 1.87.918-.012 3.523Z"/>
  <path fill="#7F696B" d="m26.845 32.7-.011 3.523-1.874-.96.012-3.524 1.873.96Z"/>
  <path fill="#F8F7F5" d="m24.799 35.342.325-.16 1.87.918-.325.16-1.87-.918Z"/>
  <path fill="#91806C" d="m24.811 31.819.323-.16-.01 3.523-.325.16.012-3.523Zm2.041.837.326-.16-.014 3.896-.324.16.012-3.896Z"/>
  <path fill="#F8F7F5" d="m24.612 31.537.324-.16 2.247 1.103-.318.163-2.253-1.106Z"/>
  <path fill="#DAD6CD" d="m26.84 36.344.011-3.523h.001l.002-.184-2.242-1.101-.014 3.897 2.242 1.1v-.189Zm-.171-.083-1.87-.918.012-3.524 1.87.92-.012 3.522Z"/>
  <path fill="#7F696B" d="m36.787 42.482-.01 3.523-1.875-.96.012-3.524 1.873.96Z"/>
  <path fill="#F8F7F5" d="m34.74 45.124.326-.16 1.87.918-.324.16-1.872-.918Z"/>
  <path fill="#91806C" d="m34.753 41.601.324-.16-.011 3.522-.326.16.013-3.522Zm2.041.837.326-.161-.014 3.897-.324.16.012-3.897Z"/>
  <path fill="#F8F7F5" d="m34.554 41.319.324-.16 2.247 1.103-.318.163-2.253-1.106Z"/>
  <path fill="#DAD6CD" d="M36.783 46.126h-.001l.011-3.523h.001l.001-.184-2.241-1.1-.014 3.896 2.242 1.101v-.19Zm-.171-.084-1.87-.918.012-3.524 1.87.918-.012 3.524Z"/>
  <path fill="#7F696B" d="m39.884 43.952-.012 3.523-1.873-.96.011-3.523 1.874.96Z"/>
  <path fill="#F8F7F5" d="m37.837 46.594.326-.16 1.87.919-.325.16-1.87-.919Z"/>
  <path fill="#91806C" d="m37.85 43.072.323-.16-.01 3.522-.326.16.013-3.522Zm2.041.836.326-.16-.014 3.897-.324.16.012-3.897Z"/>
  <path fill="#F8F7F5" d="m37.65 42.79.325-.16 2.247 1.103-.318.163-2.253-1.106Z"/>
  <path fill="#DAD6CD" d="m39.88 47.597.01-3.524.001.001.001-.184-2.241-1.101-.014 3.896 2.242 1.1v-.188Zm-.172-.083-1.87-.919.012-3.523 1.87.918-.012 3.524Z"/>
  <path fill="#7F696B" d="m23.748 36.244-.01 3.523-1.875-.96.012-3.523 1.873.96Z"/>
  <path fill="#F8F7F5" d="m21.702 38.886.325-.16 1.87.918-.324.16-1.871-.918Z"/>
  <path fill="#91806C" d="m21.714 35.363.325-.16-.012 3.523-.325.16.012-3.523Zm2.042.837.325-.16-.014 3.897-.324.16.013-3.897Z"/>
  <path fill="#F8F7F5" d="m21.515 35.08.324-.16 2.247 1.104-.318.164-2.253-1.107Z"/>
  <path fill="#DAD6CD" d="m23.744 39.889-.001-.001.012-3.523.002-.184-2.242-1.101-.014 3.897 2.242 1.1.001-.188Zm-.171-.084-1.87-.92.012-3.522 1.87.918-.012 3.524Z"/>
  <path fill="#7F696B" d="m26.845 37.715-.011 3.523-1.874-.96.012-3.523 1.873.96Z"/>
  <path fill="#F8F7F5" d="m24.799 40.357.325-.16 1.87.918-.325.16-1.87-.918Z"/>
  <path fill="#91806C" d="m24.811 36.835.323-.162-.01 3.524-.325.16.012-3.522Zm2.041.836.326-.16-.014 3.896-.324.161.012-3.897Z"/>
  <path fill="#F8F7F5" d="m24.612 36.552.324-.16 2.247 1.103-.318.164-2.253-1.107Z"/>
  <path fill="#DAD6CD" d="M26.84 41.36v-.001l.011-3.523.001.001.002-.184-2.242-1.1-.014 3.897 2.242 1.1v-.19Zm-.171-.084-1.87-.919.012-3.522 1.87.918-.012 3.523Z"/>
  <path fill="#7F696B" d="m36.787 47.507-.01 3.523-1.875-.96.012-3.523 1.873.96Z"/>
  <path fill="#F8F7F5" d="m34.74 50.15.326-.16 1.87.918-.324.16-1.872-.918Z"/>
  <path fill="#91806C" d="m34.753 46.627.324-.161-.011 3.523-.326.161.013-3.523Zm2.041.837.326-.16-.014 3.895-.324.162.012-3.897Z"/>
  <path fill="#F8F7F5" d="m34.554 46.344.324-.16 2.247 1.103-.318.165-2.253-1.108Z"/>
  <path fill="#DAD6CD" d="M36.783 51.152h-.001l.011-3.523h.001l.001-.183-2.241-1.1-.014 3.896 2.242 1.101v-.19Zm-.171-.084-1.87-.918.012-3.523 1.87.918-.012 3.523Z"/>
  <path fill="#7F696B" d="m39.884 48.978-.012 3.524L38 51.54l.011-3.523 1.874.96Z"/>
  <path fill="#F8F7F5" d="m37.837 51.62.326-.16 1.87.92-.325.159-1.87-.918Z"/>
  <path fill="#91806C" d="m37.85 48.097.323-.16-.01 3.523-.326.16.013-3.523Zm2.041.838.326-.16-.014 3.896-.324.16.012-3.896Z"/>
  <path fill="#F8F7F5" d="m37.65 47.816.325-.16 2.247 1.102-.318.164-2.253-1.106Z"/>
  <path fill="#DAD6CD" d="M39.88 52.623h-.001l.011-3.523h.001l.001-.184-2.241-1.1-.014 3.896 2.242 1.101v-.19Zm-.172-.084-1.87-.918.012-3.524 1.87.918-.012 3.524Z"/>
  <path fill="#7F696B" d="m23.748 41.27-.01 3.523-1.875-.96.012-3.523 1.873.96Z"/>
  <path fill="#F8F7F5" d="m21.702 43.913.325-.162 1.87.92-.324.16-1.871-.918Z"/>
  <path fill="#91806C" d="m21.714 40.39.325-.161-.012 3.522-.325.162.012-3.524Zm2.042.836.325-.16-.014 3.896-.324.16.013-3.896Z"/>
  <path fill="#F8F7F5" d="m21.515 40.107.324-.16 2.247 1.103-.318.163-2.253-1.106Z"/>
  <path fill="#DAD6CD" d="M23.744 44.915h-.001l.012-3.523.002-.184-2.242-1.1-.014 3.896 2.242 1.101.001-.19Zm-.171-.084-1.87-.918.012-3.524 1.87.918-.012 3.524Z"/>
  <path fill="#7F696B" d="m26.845 42.741-.011 3.523-1.874-.96.012-3.523 1.873.96Z"/>
  <path fill="#F8F7F5" d="m24.799 45.384.325-.16 1.87.917-.325.16-1.87-.917Z"/>
  <path fill="#91806C" d="m24.811 41.86.323-.16-.01 3.523-.325.16.012-3.523Zm2.041.837.326-.16-.014 3.896-.324.16.012-3.896Z"/>
  <path fill="#F8F7F5" d="m24.612 41.578.324-.16 2.247 1.103-.318.163-2.253-1.106Z"/>
  <path fill="#DAD6CD" d="m26.84 46.386.011-3.524h.001l.002-.184-2.242-1.1-.014 3.896 2.242 1.101v-.189Zm-.171-.084-1.87-.92.012-3.522 1.87.918-.012 3.524Z"/>
  <path fill="#7F696B" d="m36.787 53.118-.01 3.524-1.875-.961.012-3.523 1.873.96Z"/>
  <path fill="#F8F7F5" d="m34.74 55.76.326-.16 1.87.919-.324.16-1.872-.919Z"/>
  <path fill="#91806C" d="m34.753 52.237.324-.16-.011 3.523-.326.16.013-3.523Zm2.041.838.326-.16-.014 3.896-.324.16.012-3.896Z"/>
  <path fill="#F8F7F5" d="m34.554 51.955.324-.16 2.247 1.103-.318.164-2.253-1.107Z"/>
  <path fill="#DAD6CD" d="M36.783 56.763h-.001l.011-3.524h.001l.001-.183-2.241-1.1-.014 3.896 2.242 1.101v-.19Zm-.171-.084-1.87-.919.012-3.523 1.87.919-.012 3.523Z"/>
  <path fill="#7F696B" d="m39.884 54.589-.012 3.523-1.873-.96.011-3.523 1.874.96Z"/>
  <path fill="#F8F7F5" d="m37.837 57.232.326-.16 1.87.917-.325.16-1.87-.917Z"/>
  <path fill="#91806C" d="m37.85 53.708.323-.16-.01 3.523-.326.16.013-3.523Zm2.041.837.326-.16-.014 3.896-.324.16.012-3.896Z"/>
  <path fill="#F8F7F5" d="m37.65 53.426.325-.16 2.247 1.103-.318.163-2.253-1.106Z"/>
  <path fill="#DAD6CD" d="M39.88 58.234h-.001l.011-3.523h.001l.001-.184-2.241-1.101-.014 3.897 2.242 1.1v-.189Zm-.172-.084-1.87-.918.012-3.523 1.87.918-.012 3.523Z"/>
  <path fill="#7F696B" d="m23.748 46.881-.01 3.523-1.875-.96.012-3.524 1.873.961Z"/>
  <path fill="#F8F7F5" d="m21.702 49.523.325-.16 1.87.918-.324.16-1.871-.918Z"/>
  <path fill="#91806C" d="m21.714 46 .325-.16-.012 3.523-.325.16.012-3.523Zm2.042.837.325-.16-.014 3.896-.324.16.013-3.895Z"/>
  <path fill="#F8F7F5" d="m21.515 45.718.324-.16 2.247 1.103-.318.163-2.253-1.106Z"/>
  <path fill="#DAD6CD" d="M23.744 50.525h-.001l.012-3.523.002-.184-2.242-1.1-.014 3.896 2.242 1.101.001-.19Zm-.171-.084-1.87-.918.012-3.523 1.87.918-.012 3.523Z"/>
  <path fill="#7F696B" d="m26.845 48.351-.011 3.523-1.874-.96.012-3.522 1.873.959Z"/>
  <path fill="#F8F7F5" d="m24.799 50.994.325-.16 1.87.918-.325.16-1.87-.918Z"/>
  <path fill="#91806C" d="m24.811 47.471.323-.16-.01 3.522-.325.16.012-3.522Zm2.041.836.326-.16-.014 3.897-.324.16.012-3.897Z"/>
  <path fill="#F8F7F5" d="m24.612 47.189.324-.16 2.247 1.103-.318.163-2.253-1.106Z"/>
  <path fill="#DAD6CD" d="m26.84 51.996.011-3.523.001.001.002-.184-2.242-1.101-.014 3.897 2.242 1.1v-.19Zm-.171-.083-1.87-.918.012-3.524 1.87.918-.012 3.524Z"/>
  <path fill="#262626" d="m75.245 88.144.947-.47v.148l-.948.469.001-.147Z"/>
  <path fill="#5F6060" d="m74.29 87.674.948-.468.954.468-.947.47-.955-.47Z"/>
  <path fill="#434343" d="M75.245 88.144v.147l-.955-.469v-.148l.955.47Zm.418-2.333-.002.003a.146.146 0 0 1-.022.036l-.004.005a.21.21 0 0 1-.062.049c-.01.006-.02.013-.032.018a.52.52 0 0 1-.08.03l-.033.008a.926.926 0 0 1-.105.016l-.003.001a.71.71 0 0 1-.075.004h-.01l-.071-.004h-.01a.849.849 0 0 1-.067-.011l-.014-.003a.572.572 0 0 1-.133-.045c-.082-.041-.121-.095-.121-.148l-.007 1.926c0 .054.04.107.12.148.021.01.043.02.067.027v.001l.051.015c.005.001.011.003.017.003a.46.46 0 0 0 .012.002l.017.004a.784.784 0 0 0 .043.006l.01.001.01.001a.18.18 0 0 0 .022.002l.042.001h.044l.048-.002.004-.001.05-.006.013-.003a.546.546 0 0 0 .041-.009.117.117 0 0 0 .027-.005.433.433 0 0 0 .15-.07l.004-.002a.186.186 0 0 0 .03-.028l.003-.006.01-.011c.005-.007.008-.014.011-.02l.001-.003.001-.004a.074.074 0 0 0 .005-.014.074.074 0 0 0 .004-.02V87.7l.006-1.926-.012.037Z"/>
  <path fill="#5F6060" d="M75.55 85.626a.771.771 0 0 0-.605-.005c-.168.08-.173.213-.008.297a.769.769 0 0 0 .603.005c.17-.08.174-.214.01-.297Z"/>
  <path fill="#434343" d="m75.5 85.255-.001.003a.08.08 0 0 1-.014.021l-.002.004a.143.143 0 0 1-.04.03c-.007.003-.012.008-.02.011a.385.385 0 0 1-.08.026c-.005 0-.01.002-.013.003a.528.528 0 0 1-.092.008h-.002a.58.58 0 0 1-.097-.01l-.003-.001a.324.324 0 0 1-.085-.028c-.05-.026-.074-.058-.074-.09l-.002.525c0 .033.024.066.074.09.014.007.026.013.04.018l.033.008c.003.002.007.002.011.003h.005l.012.004c.009 0 .018.002.025.003a.263.263 0 0 0 .051.004h.026l.03-.002.033-.004.011-.002.012-.003a.352.352 0 0 0 .081-.026l.007-.002.013-.008c.006-.004.013-.007.018-.012l.003-.002.017-.015.002-.002.002-.004.006-.007.007-.013v-.001l.002-.003.003-.009.002-.013v-.002l.002-.525c.002.007 0 .015-.003.023Z"/>
  <path fill="#5F6060" d="M75.43 85.14a.47.47 0 0 0-.372-.002c-.104.05-.106.131-.005.183a.47.47 0 0 0 .371.002c.105-.05.107-.13.006-.182Z"/>
  <path fill="#787878" d="M75.406 82.257a.056.056 0 0 1-.013.029.113.113 0 0 1-.036.027.2.2 0 0 1-.05.016l-.007.001a.4.4 0 0 1-.057.005.26.26 0 0 1-.06-.006l-.002-.001a.184.184 0 0 1-.052-.018c-.029-.015-.044-.035-.044-.055l-.01 2.94c0 .02.015.04.045.056a.516.516 0 0 0 .024.01l.02.006h.007l.002.001.008.002.016.003h.017c.005 0 .01 0 .016.002h.016l.018-.001.02-.003c.004 0 .006 0 .008-.002h.007l.017-.004a.138.138 0 0 0 .032-.013l.005-.001.02-.014c.005-.002.008-.006.01-.008l.003-.003v-.001l.004-.005a.022.022 0 0 0 .004-.007l.003-.008.001-.008.008-2.94Z"/>
  <path fill="#676C6C" d="M75.36 82.202a.29.29 0 0 0-.226-.002c-.064.03-.065.08-.004.11a.29.29 0 0 0 .227.003c.062-.03.066-.08.003-.111Z"/>
  <path fill="#262626" d="m75.248 82.747.74-.365v.118l-.74.365v-.118Z"/>
  <path fill="#5F6060" d="m74.498 82.378.74-.365.75.369-.74.365-.75-.369Z"/>
  <path fill="#434343" d="M75.248 82.747v.118l-.75-.368v-.119l.75.37Z"/>
  <path fill="#FCB900" d="m75.427 81.81.643-.318-.24.814-.642.319.239-.814Z"/>
  <path fill="#DBB437" d="m74.48 81.346.643-.318.947.464-.643.319-.948-.465Z"/>
  <path fill="#FED140" d="m75.427 81.81-.24.815-.473-.233-.234-1.046.947.465Z"/>
  <path fill="#434343" d="m74.971 81.566-.004.959-.094-.047.003-.96.095.048Z"/>
  <path fill="#262626" d="m75.388 81.794.936-.463v.148l-.936.462v-.147Z"/>
  <path fill="#5F6060" d="m74.305 81.261.936-.462 1.083.532-.936.463-1.083-.533Z"/>
  <path fill="#434343" d="M75.388 81.794v.147l-1.084-.532.001-.148 1.083.533Z"/>
  <path fill="#515252" d="m75.192 81.164.644-.318.234.516-.643.318-.235-.516Z"/>
  <path fill="#9C9C9C" d="m74.718 80.931.643-.318.475.233-.644.318-.474-.233Z"/>
  <path fill="#787878" d="m75.192 81.164.235.516-.948-.465.24-.284.473.233Z"/>
  <path fill="#262626" d="m43.912 103.438.95-.469-.002.149-.948.468v-.148Z"/>
  <path fill="#5F6060" d="m42.958 102.969.948-.469.956.47-.95.468-.954-.469Z"/>
  <path fill="#434343" d="M43.912 103.438v.148l-.955-.469.001-.148.954.469Zm.42-2.332-.001.003a.166.166 0 0 1-.022.036l-.004.005a.265.265 0 0 1-.063.05c-.01.006-.02.013-.031.018a.428.428 0 0 1-.115.039l-.042.008a.672.672 0 0 1-.062.009h-.005a.619.619 0 0 1-.075.004h-.009l-.07-.004-.011-.001a.737.737 0 0 1-.149-.032.434.434 0 0 1-.066-.027c-.08-.041-.121-.094-.12-.146l-.008 1.925c0 .054.041.107.121.147a.636.636 0 0 0 .118.042c.006.001.01.003.016.003a.3.3 0 0 1 .014.003l.016.003a.313.313 0 0 0 .043.006l.01.001.009.001.023.002.043.002h.042l.048-.003.001-.001h.003l.052-.006.012-.003.042-.008c.008-.002.017-.003.025-.006l.008-.002a.438.438 0 0 0 .09-.035l.023-.014.028-.018.004-.003a.198.198 0 0 0 .026-.024l.003-.004.006-.005a.984.984 0 0 1 .009-.012l.011-.02.002-.003v-.004c.003-.004.004-.009.006-.014a.136.136 0 0 0 .002-.02v-.003l.007-1.926a.182.182 0 0 1-.01.037Z"/>
  <path fill="#5F6060" d="M44.218 100.92a.77.77 0 0 0-.603-.005c-.169.081-.173.214-.01.297a.768.768 0 0 0 .605.005c.17-.08.174-.212.008-.297Z"/>
  <path fill="#434343" d="m44.169 100.55-.001.002a.118.118 0 0 1-.014.021l-.003.004c-.005.007-.012.013-.02.02l-.02.011a.384.384 0 0 1-.101.036l-.011.003a.561.561 0 0 1-.093.008h-.002a.502.502 0 0 1-.096-.01l-.004-.001a.36.36 0 0 1-.085-.028c-.049-.025-.074-.058-.073-.09l-.002.526c0 .032.024.065.074.09.013.006.026.013.041.017.01.004.022.006.031.009l.012.002.004.001.013.003.026.004.025.003a.22.22 0 0 0 .025.001h.028l.028-.002.033-.003.012-.003c.004-.001.008-.001.011-.003a.284.284 0 0 0 .089-.028l.014-.008.017-.011.003-.001a.107.107 0 0 0 .016-.015l.003-.003.002-.004.006-.007c.004-.003.006-.008.008-.012v-.004c.002-.002.003-.006.004-.009a.059.059 0 0 0 .002-.013v-.001l.001-.526a.09.09 0 0 1-.003.021Z"/>
  <path fill="#5F6060" d="M44.098 100.435a.471.471 0 0 0-.37-.003c-.106.05-.108.132-.007.183a.474.474 0 0 0 .372.004c.104-.05.107-.132.005-.184Z"/>
  <path fill="#787878" d="M44.074 97.552c0 .01-.004.02-.012.03a.11.11 0 0 1-.036.026.216.216 0 0 1-.05.016c-.002 0-.005 0-.007.002a.312.312 0 0 1-.116-.002l-.002-.001a.213.213 0 0 1-.052-.018c-.03-.015-.046-.035-.046-.056l-.01 2.942c0 .02.016.04.045.055l.025.011.02.005.007.001.002.001.008.002.017.002.015.001.016.001h.018l.017-.001.021-.003h.007l.007-.001a.082.082 0 0 0 .016-.004.161.161 0 0 0 .034-.012l.004-.002a.094.094 0 0 0 .02-.013.065.065 0 0 0 .01-.008l.001-.003h.001l.004-.005.005-.008.002-.007v-.01l.01-2.941Z"/>
  <path fill="#676C6C" d="M44.03 97.497a.29.29 0 0 0-.227-.002c-.064.03-.064.08-.003.111a.29.29 0 0 0 .226.002c.063-.03.064-.08.003-.111Z"/>
  <path fill="#262626" d="m43.917 98.043.74-.367v.118l-.74.366v-.117Z"/>
  <path fill="#5F6060" d="m43.167 97.674.74-.366.75.368-.74.367-.75-.37Z"/>
  <path fill="#434343" d="M43.917 98.043v.117l-.75-.368v-.118l.75.369Z"/>
  <path fill="#FCB900" d="m44.096 97.105.643-.318-.24.815-.642.317.239-.814Z"/>
  <path fill="#DBB437" d="m43.149 96.641.642-.319.948.465-.643.318-.947-.464Z"/>
  <path fill="#FED140" d="m44.096 97.105-.239.814-.474-.232-.234-1.046.947.464Z"/>
  <path fill="#434343" d="m43.64 96.861-.004.959-.095-.047.004-.959.094.047Z"/>
  <path fill="#262626" d="m44.057 97.089.936-.462v.147l-.937.462.001-.147Z"/>
  <path fill="#5F6060" d="m42.974 96.557.935-.463 1.084.533-.936.462-1.083-.532Z"/>
  <path fill="#434343" d="M44.057 97.089v.147l-1.083-.531v-.148l1.083.532Z"/>
  <path fill="#515252" d="m43.861 96.458.643-.317.235.517-.643.317-.235-.517Z"/>
  <path fill="#9C9C9C" d="m43.387 96.226.642-.318.475.233-.643.317-.474-.232Z"/>
  <path fill="#787878" d="m43.861 96.458.235.517-.947-.465.238-.284.474.232Z"/>
  <path fill="#4B721A" d="m23.197 107.44-.005.018a.625.625 0 0 1-.089.147l-.02.026a.955.955 0 0 1-.149.138c-.036.028-.084.054-.13.081-.038.023-.07.048-.114.07a1.971 1.971 0 0 1-.33.127c-.057.018-.115.031-.175.045a2.75 2.75 0 0 1-.41.073c-.02.002-.037.005-.056.006a3.24 3.24 0 0 1-.312.015l-.05.001a3.934 3.934 0 0 1-.308-.015l-.046-.004a3.564 3.564 0 0 1-.298-.044l-.053-.011a3.83 3.83 0 0 1-.258-.067l-.045-.013c-.1-.033-.195-.07-.282-.114-.274-.134-.445-.3-.512-.473a.476.476 0 0 1-.034-.176l-.002.457c0 .235.183.47.547.649a2.063 2.063 0 0 0 .282.115l.046.012c.054.018.109.035.165.048.03.008.062.013.093.02l.053.01.048.011c.06.01.122.019.184.026l.065.008c.016 0 .03.002.046.004l.068.006c.062.005.121.007.183.009l.057-.001h.134a3.5 3.5 0 0 0 .204-.012l.024-.003.055-.006.158-.019c.024-.003.044-.01.067-.014.063-.012.125-.025.186-.04.032-.008.067-.012.1-.02.025-.007.05-.017.074-.024l.072-.023c.091-.03.179-.065.26-.105l.023-.012c.034-.018.06-.039.092-.057.045-.027.093-.053.13-.082l.013-.008a.967.967 0 0 0 .114-.104l.02-.026c.008-.008.014-.018.02-.025.013-.015.025-.028.035-.043a.865.865 0 0 0 .05-.091l.004-.014.006-.018c.007-.019.016-.038.02-.058a.43.43 0 0 0 .012-.09v-.014l.002-.457a.516.516 0 0 1-.034.161Z"/>
  <path fill="#58871F" d="M22.683 106.628c.727.356.728.937.008 1.292-.722.357-1.895.357-2.623 0-.725-.355-.73-.934-.007-1.291.72-.356 1.897-.357 2.622-.001Z"/>
  <path fill="#472500" d="M21.701 101.38c0 .019-.008.04-.023.058l-.002.002a.245.245 0 0 1-.07.052.473.473 0 0 1-.099.031l-.014.002a.579.579 0 0 1-.112.01h-.003a.537.537 0 0 1-.115-.012l-.005-.001a.47.47 0 0 1-.102-.035c-.06-.03-.09-.069-.09-.109l-.02 5.838c0 .039.03.079.09.109a.376.376 0 0 0 .05.021l.038.01.014.004.005.001.015.002a.854.854 0 0 1 .031.006l.03.002.032.002h.033l.036-.003a.536.536 0 0 0 .04-.004l.014-.004.013-.002.033-.007a.548.548 0 0 0 .065-.024l.009-.004a.306.306 0 0 0 .04-.025l.02-.018.003-.005.003-.002.007-.01.01-.015.004-.015.002-.016v-.003l.018-5.836Z"/>
  <path fill="#58871F" d="m24.827 98.615.001-.137v-.083.01-.007l-.004-.13a6.748 6.748 0 0 0-.019-.32c-.003-.025-.003-.052-.005-.078a8.14 8.14 0 0 0-.06-.496l-.003-.038-.013-.077-.008-.047-.024-.14-.03-.167a5.26 5.26 0 0 1-.022-.122l-.008-.044-.002-.005v-.006.005l-.03-.133a7.033 7.033 0 0 0-.046-.199l-.043-.186c-.045-.17-.112-.396-.161-.567l-.168-.502c-.043-.12-.084-.226-.121-.324-.626-1.82-1.609-3.363-2.46-3.53h.001l-.017-.005-.03-.008h-.006l-.026-.006h-.003a.638.638 0 0 0-.451.071 1.56 1.56 0 0 0-.115.067c-.024.016-.049.032-.07.048a2.845 2.845 0 0 0-.326.281l-.023.02-.033.037c-.033.034-.066.068-.096.102l-.005.005a5.78 5.78 0 0 0-.49.64l-.029.044c-.066.098-.135.206-.193.296l-.221.374a10.676 10.676 0 0 0-.44.861l-.013.024c-.019.04-.037.084-.058.13l-.075.173a1.878 1.878 0 0 0-.045.105l-.042.096-.036.093a13.59 13.59 0 0 0-.127.325l-.025.066-.01.028-.007.02-.013.035c-.006.02-.014.036-.019.055-.05.14-.098.28-.143.425l-.03.102c-.03.099-.06.2-.087.3-.97 3.46.079 5.686 1.626 6.52.034.018.069.039.105.056l.018.009c.02.012.046.022.07.035.034.017.069.032.105.048l.025.012.153.06c.047.018.112.038.158.055l.034.009.02.006.08.022c.037.01.09.021.128.03l.117.021c.032.006.077.012.11.016l.105.011.1.007.1.003.099-.001.1-.006c.032-.001.074-.006.106-.008l.108-.015.024-.004.022-.004.073-.012.035-.008.03-.007.055-.012c.015-.003.033-.009.052-.014a.039.039 0 0 1 .01-.002l.085-.023.137-.043a2.707 2.707 0 0 0 .19-.072l.003-.001c.055-.023.103-.045.155-.069.023-.012.044-.02.062-.03l-.002.002.005-.003c.109-.054.15-.08.336-.195l.167-.117.053-.043c.067-.052.137-.11.208-.174l.035-.029.046-.048c.025-.023.05-.049.075-.074l.04-.04.037-.042c.028-.029.056-.061.083-.093l.081-.098.024-.028.006-.006.01-.012a3.96 3.96 0 0 0 .303-.458l.12-.229c.049-.102.074-.157.104-.232v-.002l.004-.008.01-.026.012-.024.035-.097.037-.096-.018.042.038-.103a3.04 3.04 0 0 0 .1-.343l.024-.093.012-.06a.695.695 0 0 0 .015-.058l.017-.083.016-.08-.008.033.03-.156v-.004a9.698 9.698 0 0 0 .06-.504l.008-.105a.1.1 0 0 1 .002-.02v-.011l.005-.105v-.247Z"/>
  <path fill="#4B721A" d="m24.747 99.613-.043.056-.015.019a2.978 2.978 0 0 1-.344.357l-.011.009-.005.006-.028.023-.095.081-.1.077-.043.034-.047.032-.088.061-.056.039-.04.024a4.053 4.053 0 0 1-.246.141l-.061.035-.198.097c-.22.093-.269.114-.397.159l-.006.002.003-.001-.072.024c-.063.02-.118.038-.183.056l-.004.002-.012.003c-.06.017-.124.034-.21.055l-.162.035-.1.019-.012.002-.063.011-.063.01-.035.005-.042.006-.086.011-.026.004-.03.003-.125.012c-.037.001-.086.005-.124.007l-.118.004-.116.001-.116-.003a4.745 4.745 0 0 1-.12-.005l-.122-.01-.13-.013-.139-.018c-.044-.008-.106-.016-.15-.025l-.096-.018-.024-.005-.04-.009a5.571 5.571 0 0 1-.186-.043l-.183-.051a18.403 18.403 0 0 1-.152-.048c-.028-.01-.06-.019-.083-.028l-.021-.008a3.367 3.367 0 0 1-.123-.047c-.658-.246-1.237-.644-1.658-1.18.24 1.478.986 2.489 1.918 2.991.034.018.068.039.105.056l.018.009c.02.012.045.023.07.035.034.017.068.032.105.048l.025.012.153.061c.047.017.112.037.158.054l.034.009.019.006.08.022c.038.011.09.021.129.03l.116.021c.033.006.078.012.11.016l.105.011.101.007.1.003.099-.001.1-.005.106-.009.108-.015a.1.1 0 0 0 .024-.004l.021-.003.073-.013.036-.008.03-.007.055-.012a.463.463 0 0 0 .052-.014l.01-.002.085-.023.137-.043a3.525 3.525 0 0 0 .189-.072l.004-.001.155-.069.062-.03-.002.002.004-.003c.11-.054.151-.08.337-.195l.167-.117.053-.043a3.76 3.76 0 0 0 .208-.174l.034-.029.047-.048c.025-.023.05-.049.075-.074l.04-.039.037-.043c.028-.029.056-.061.083-.093l.081-.098.024-.028.006-.006.009-.012a3.397 3.397 0 0 0 .289-.436l.014-.022.12-.228c.05-.103.074-.158.105-.233v-.002l.004-.008a.282.282 0 0 0 .01-.026l.012-.024.035-.097.037-.096-.018.042.038-.103a3.04 3.04 0 0 0 .1-.343l.024-.093.012-.059.015-.06.016-.082.017-.08-.008.033.029-.156v.003ZM5.226 98.584l-.005.016a.532.532 0 0 1-.08.133l-.018.023a.838.838 0 0 1-.133.126c-.034.025-.077.05-.117.073-.035.02-.066.044-.106.063a1.757 1.757 0 0 1-.3.116c-.051.016-.104.027-.156.04a2.82 2.82 0 0 1-.373.066c-.017.002-.033.005-.05.006a3.322 3.322 0 0 1-.283.014H3.56c-.093 0-.187-.006-.279-.014l-.04-.004a2.96 2.96 0 0 1-.272-.04l-.048-.01a3.143 3.143 0 0 1-.233-.06c-.014-.004-.028-.007-.041-.012a1.908 1.908 0 0 1-.257-.103c-.248-.122-.403-.272-.464-.429a.448.448 0 0 1-.03-.159l-.002.414c0 .213.164.426.495.589.076.037.158.07.243.098l.014.005.04.011c.05.016.1.03.152.044l.083.017.048.011.044.009a2.08 2.08 0 0 0 .226.03l.042.005.063.005c.055.004.11.007.164.008h.097l.076-.001c.062-.002.124-.005.186-.01l.022-.003.05-.007c.048-.004.096-.01.143-.016l.062-.014c.057-.01.112-.022.168-.035.029-.007.061-.012.09-.02l.067-.022.066-.02c.082-.028.161-.059.236-.094l.02-.011c.033-.016.056-.035.084-.053.04-.024.083-.049.118-.075l.011-.007a.97.97 0 0 0 .105-.095l.018-.022a.52.52 0 0 1 .02-.023l.03-.039a.644.644 0 0 0 .045-.082l.004-.013.006-.016c.006-.018.013-.034.017-.052a.46.46 0 0 0 .012-.083v-.013l.002-.413a.685.685 0 0 1-.037.148Z"/>
  <path fill="#58871F" d="M4.76 97.847c.66.323.66.849.007 1.171-.655.324-1.718.324-2.377 0-.658-.323-.661-.846-.006-1.17.653-.323 1.718-.324 2.376 0Z"/>
  <path fill="#472500" d="M3.87 93.088a.08.08 0 0 1-.022.053l-.002.002a.186.186 0 0 1-.064.046.386.386 0 0 1-.101.031.545.545 0 0 1-.208-.002l-.004-.001a.407.407 0 0 1-.093-.031c-.054-.028-.081-.063-.08-.099l-.02 5.293c0 .035.028.07.082.098a.196.196 0 0 0 .045.019l.034.01.014.002.004.002a.31.31 0 0 0 .014.003l.028.004.027.003h.058a.383.383 0 0 0 .068-.006l.013-.002.012-.003.03-.006a.426.426 0 0 0 .06-.022l.007-.003a.278.278 0 0 0 .037-.023.146.146 0 0 0 .018-.017l.003-.003v-.002c.004-.004.007-.006.008-.01a.04.04 0 0 0 .008-.014c.002-.005.005-.009.006-.014a.062.062 0 0 0 0-.014v-.002l.018-5.292Z"/>
  <path fill="#58871F" d="m6.953 91.826.002-.09-.002.072-.001-.083v-.084c-.001-.033-.007-.08-.01-.125l-.002-.018c-.004-.034-.007-.068-.013-.105a.841.841 0 0 0-.003-.024 5.977 5.977 0 0 0-.032-.185c0-.005-.003-.012-.004-.017a2.846 2.846 0 0 0-.034-.146c-.004-.011-.006-.024-.009-.034l-.014-.048c-.01-.037-.021-.07-.033-.106l-.036-.119-.016-.04c-.297-.905-.95-1.79-1.904-2.444-.043-.032-.088-.063-.127-.09l-.157-.1-.063-.038-.138-.074.01.005-.01-.006c-.002 0-.003 0-.004-.002l.002.002-.082-.04-.004-.003-.08-.034-.027-.013-.004-.001-.012-.006a3.327 3.327 0 0 0-.125-.045c-.004 0-.007-.003-.01-.004l-.045-.013-.01-.002-.001-.001-.003-.001a.53.53 0 0 0-.054-.013.254.254 0 0 1-.02-.006l-.05-.01-.033-.007-.018-.002-.011-.002-.05-.007-.078-.006H3.62l-.024-.001h-.074l-.051.003-.05.006.006-.001-.011.001-.053.008a.725.725 0 0 0-.07.013l-.054.012-.048.014-.002.001-.019.006.001-.001-.01.003c-.01.003-.02.006-.028.01-1.87.569-4.404 4.182-1.888 6.055a1.883 1.883 0 0 0 .224.156c.03.02.065.04.11.068l.17.094c.067.034.16.075.23.106l.017.008c.038.016.078.031.118.046l.04.017c.037.014.082.028.126.042.045.016.092.03.14.044l.111.031c.03.008.067.017.103.024l.066.016.015.003.169.032c.029.004.063.01.1.014a.276.276 0 0 0 .04.006l.03.005.164.018.121.008h.018l.025.002.162.005.146-.001h.018l.161-.008.166-.015.015-.002.152-.019c.053-.009.124-.02.177-.03l.17-.036c.06-.014.138-.036.196-.052l.013-.003a.489.489 0 0 1 .035-.012l.128-.04.026-.01c.055-.018.107-.04.16-.059l.022-.01a.06.06 0 0 0 .012-.005l.177-.078a2.923 2.923 0 0 0 .853-.582 2.466 2.466 0 0 0 .244-.272l.026-.033.017-.021.008-.011.007-.008.03-.045a.11.11 0 0 1 .017-.025l.045-.065-.008.009.02-.028c.04-.063.06-.097.085-.148 0 0 0-.002.002-.003v-.002a.25.25 0 0 1 .01-.015l.001-.005.003-.006.037-.078.036-.079-.002.005.008-.015c.02-.05.04-.108.06-.166l.016-.041.005-.018c.003-.009.006-.02.01-.028l.02-.08.017-.07.007-.027c.002-.01.006-.02.009-.029l.004-.023.005-.023-.004.016.034-.227.005-.056.002-.086v.013l.002-.024-.002.012.004-.054v-.027a.07.07 0 0 0 .002-.014ZM3.78 87.727h-.005l-.007-.001.012.001Z"/>
  <path fill="#ACC093" d="m3.18 87.77-.005.003.035-.011-.03.008Z"/>
  <path fill="#4B721A" d="m6.953 91.725-.001-.084c0-.033-.006-.08-.01-.125v-.018l-.014-.105a.831.831 0 0 0-.004-.024 3.97 3.97 0 0 0-.032-.185l-.003-.017.001.005a4.48 4.48 0 0 0-.036-.152l-.008-.033-.005.016-.005.017a.303.303 0 0 1-.016.042c-.02.057-.038.116-.061.164l-.008.016.003-.005-.036.079-.037.079c0 .001-.003.003-.003.005l-.003.004a.108.108 0 0 1-.008.016v.001l-.002.004c-.026.05-.046.084-.085.148l-.02.028.008-.01-.045.065-.018.026-.029.044-.007.01-.008.01-.017.021a2.435 2.435 0 0 1-.202.236l-.068.069a2.91 2.91 0 0 1-.803.557c-.016.008-.029.016-.05.025l-.177.078a.045.045 0 0 0-.012.005l-.023.01a3.53 3.53 0 0 1-.16.059l-.026.01-.126.04-.036.011-.012.004-.197.052-.17.036a5.08 5.08 0 0 1-.178.03l-.152.02-.015.001c-.05.004-.116.012-.166.015l-.161.008h-.018a8.25 8.25 0 0 1-.146.002l-.163-.004a.215.215 0 0 0-.024-.002l-.018-.001c-.041-.003-.085-.006-.12-.01l-.165-.015a.327.327 0 0 0-.03-.004l-.041-.007-.1-.015-.17-.032a.382.382 0 0 0-.014-.002l-.066-.016a3.167 3.167 0 0 1-.103-.024l-.11-.031a6.3 6.3 0 0 1-.142-.044l-.125-.042-.04-.016c-.04-.016-.08-.03-.12-.048l-.017-.006c-.068-.032-.16-.074-.227-.108l-.172-.093-.11-.07c-.015-.008-.027-.017-.04-.025a2.652 2.652 0 0 1-.184-.13c-.5-.373-.8-.815-.944-1.287-.268 1.019-.084 2.075.944 2.84a1.742 1.742 0 0 0 .224.156c.03.02.065.04.11.069l.172.094c.066.033.158.075.227.106l.018.007c.04.017.08.032.119.047l.04.016c.037.014.082.028.125.043.046.016.093.03.141.044l.111.031c.03.008.067.017.103.024l.066.015.015.004.17.032a3.378 3.378 0 0 0 .17.024l.164.018.121.008.018.001a.26.26 0 0 0 .024.002l.163.004h.163l.162-.009c.05-.003.116-.01.166-.015l.015-.001.152-.02a5.08 5.08 0 0 0 .178-.03l.17-.036c.06-.014.137-.035.197-.051l.012-.004a.54.54 0 0 1 .036-.011l.126-.04.026-.01c.056-.019.108-.04.16-.06a.486.486 0 0 0 .035-.014l.176-.079c.021-.01.035-.015.051-.024a2.926 2.926 0 0 0 1.048-.83l.025-.033.017-.02.008-.011.007-.009.03-.045a.138.138 0 0 1 .017-.025l.045-.064-.008.008.02-.028c.039-.063.06-.096.085-.147 0-.001 0-.003.002-.004v-.001l.008-.015.003-.006.003-.005.037-.078.036-.08c0 .003-.002.004-.003.005l.008-.015c.022-.05.041-.107.061-.166l.016-.04.005-.018.01-.029.02-.08.017-.069.007-.027.009-.03.003-.023.006-.023-.004.016.034-.227.005-.056.003-.086-.001.014c0-.008 0-.015.002-.024l-.001.011c0-.02.002-.035.003-.054v-.026a.06.06 0 0 0 0-.015l.003-.09-.002.073a1.298 1.298 0 0 1-.002-.087Z"/>
</svg>
