<svg xmlns="http://www.w3.org/2000/svg" width="93" height="74" fill="none" viewBox="0 0 93 74">
  <path fill="#707070" fill-opacity=".5" d="M92.963 49.182 50.471 73.451.307 44.222l42.492-24.27 50.164 29.23ZM13 64l11.5 7.5 10.5-7-12-7L13 64Z"/>
  <path fill="#ADADAD" d="m32.848 52.516.814-.473-.001.227-.814.473.001-.227Z"/>
  <path fill="#EBEBEB" d="m32.021 52.039.815-.473.826.477-.814.473-.827-.477Z"/>
  <path fill="#D1CFCF" d="m32.848 52.516-.001.227-.826-.476v-.228l.827.477Z"/>
  <path fill="#E6E6E6" d="m32.82 52.366-.67-.39-.005-1.518.671.391.004 1.517Z"/>
  <path fill="#FAFAFA" d="m32.816 50.849-.671-.391.685-.395.671.39-.685.396Z"/>
  <path fill="#F0F5FF" d="m33.501 50.453.004 1.517-.685.396-.004-1.517.685-.396Z"/>
  <path fill="#B4B2B2" d="m32.223 50.328.07-.041-.076-.044-.071.041.077.044Z"/>
  <path fill="#ADADAD" d="m32.222 50.504.07-.041.001-.176-.07.041-.001.176Z"/>
  <path fill="#D1CFCF" d="m32.223 50.328-.077-.044-.001.175.077.045.001-.176Z"/>
  <path fill="#ADADAD" d="m32.815 50.847.071-.041.001-.176-.071.041-.001.176Z"/>
  <path fill="#B4B2B2" d="m32.816 50.671.071-.041-.076-.044-.07.041.075.044Z"/>
  <path fill="#D1CFCF" d="m32.815 50.847.001-.176-.075-.044-.001.176.075.044Z"/>
  <path fill="#B4B2B2" d="m32.841 49.982.07-.041-.076-.044-.07.041.076.044Z"/>
  <path fill="#706F6F" d="m32.841 50.158.07-.041v-.176l-.07.041v.176Z"/>
  <path fill="#A2A0A0" d="m32.841 49.982-.076-.044v.175l.076.045v-.176Z"/>
  <path fill="#ADADAD" d="m33.435 50.5.07-.041v-.175l-.07.041v.175Z"/>
  <path fill="#B4B2B2" d="m33.435 50.325.07-.041-.075-.044-.071.041.076.044Z"/>
  <path fill="#D1CFCF" d="M33.435 50.5v-.175l-.076-.044v.176l.076.043Z"/>
  <path fill="#F0F5FF" d="m32.646 50.392.626-.364.286.291-.719.418-.193-.345Z"/>
  <path fill="#FAFAFA" d="m32.241 50.159.626-.364.405.233-.626.364-.405-.233Z"/>
  <path fill="#E6E6E6" d="m32.753 50.331.086.406-.791-.457.301-.183.404.234Z"/>
  <path fill="#A8A8A8" d="m31.057 58.327-.008-.013c-.013-.022-.028-.041-.043-.06l-.021-.025a.401.401 0 0 0-.076-.06l3.588 2.085a.365.365 0 0 1 .076.06c.007.008.013.018.021.025.012.014.023.026.034.043l.01.017.007.013.012.022a.325.325 0 0 1 .018.043l.011.035.001.001.001.003a.754.754 0 0 1 .01.039l.008.038.006.036.001.015-3.588-2.085a.81.81 0 0 0-.025-.13v-.002a.834.834 0 0 0-.043-.1Zm-5.181 3.115a.476.476 0 0 0-.041-.1l-.008-.013a.539.539 0 0 0-.043-.06l-.02-.025a.393.393 0 0 0-.076-.06l3.588 2.085a.365.365 0 0 1 .076.06l.021.025c.012.014.024.026.034.043a.263.263 0 0 1 .009.017l.008.014.012.021a.325.325 0 0 1 .018.043l.012.035v.002l.001.003a.532.532 0 0 1 .01.038l.008.038.006.036.002.015-3.589-2.085a.81.81 0 0 0-.025-.13l-.003-.002Z"/>
  <path fill="#D3D2E0" d="m30.118 59.307.002.857-3.588-2.085-.002-.857 3.588 2.085Z"/>
  <path fill="#fff" d="m32.247 53.783.004-.002.005-.003.004-.002.005-.002.005-.002.005-.001.005-.002.005-.001.005-.001h.005l.006-.001.006.001.007.001a.03.03 0 0 1 .009.002.047.047 0 0 1 .01.005l3.588 2.085a.06.06 0 0 0-.038-.008.106.106 0 0 0-.046.016L30.24 59.1l-3.588-2.085 5.595-3.232Z"/>
  <path fill="#E9E9F0" d="m30.153 59.188-.001.001a.255.255 0 0 0-.034.118l-3.588-2.085v-.011l.001-.006v-.006l.001-.007.001-.006.002-.006.001-.007.002-.006.001-.005.001-.001.002-.007.002-.006.002-.006.003-.006.002-.006.003-.006.003-.007.004-.007.004-.008.001-.001V57.1l.01-.015a.044.044 0 0 1 .008-.011l.005-.007.005-.006.005-.006.004-.005.002-.001a.014.014 0 0 1 .003-.004l.006-.006.005-.005.005-.004.006-.005.005-.004.006-.004.005-.003.005-.003.002-.001 3.588 2.085a.187.187 0 0 0-.047.038.372.372 0 0 0-.041.055Z"/>
  <path fill="#999" d="M23.291 62.806v-.008a.99.99 0 0 1 .003-.111l.002-.02.001-.011.002-.028.007-.06.008-.058 3.589 2.085a1.485 1.485 0 0 0-.017.146l-.001.011a2.173 2.173 0 0 0-.005.138v.006c.001.045.004.088.009.129v.004c.005.042.013.082.022.12l-3.588-2.086a.634.634 0 0 1-.022-.114l-.001-.005v-.005l-.005-.039-.003-.05-.001-.039v-.005Z"/>
  <path fill="#fff" d="m27 64.153-.001.002a2.18 2.18 0 0 0-.061.22l-.001.001a1.947 1.947 0 0 0-.035.221l-3.589-2.085.005-.042.009-.059a1 1 0 0 1 .01-.058l.012-.059.001-.003.001-.003.012-.051.015-.056.015-.053.017-.049.003-.01.001-.003.012-.033a1.164 1.164 0 0 1 .032-.081l.016-.036.017-.035a.163.163 0 0 1 .011-.023l.001-.003.005-.011.021-.039.03-.054c.015-.025.029-.05.046-.073l.009-.014c.049-.07.096-.141.143-.211l.086-.129.098-.149.083-.128.094-.148.076-.121.09-.146.069-.112.089-.147.058-.096.093-.156.041-.068.115-.194.105-.178.093-.153.006-.01.077-.126.023-.038.053-.084.031-.047.039-.06.001-.002.07-.1.003-.004.001-.001.045-.06a.552.552 0 0 1 .021-.025l.008-.011a.04.04 0 0 0 .008-.01l.036-.041.022-.025.006-.007.007-.007.037-.04.026-.025.008-.008.007-.006.046-.044.021-.018.016-.015.017-.014.063-.053a.019.019 0 0 0 .004-.003.083.083 0 0 0 .015-.011l.063-.047.017-.012.054-.038.04-.029a.108.108 0 0 0 .018-.011c.051-.034.104-.07.163-.107l.004-.002a.153.153 0 0 0 .016-.011l.192-.118.063-.039.245-.146 3.588 2.085-.246.147-.061.037a9.13 9.13 0 0 0-.193.12l-.018.012a8.142 8.142 0 0 0-.222.147l-.054.038-.078.058-.016.013c-.029.022-.057.046-.083.068a2.474 2.474 0 0 0-.169.162l-.006.007-.066.077-.008.009-.064.084-.002.002-.003.005a2.079 2.079 0 0 0-.069.098l-.043.065c-.01.015-.02.029-.029.045-.02.03-.041.064-.062.099l-.013.021c-.025.041-.053.084-.08.13l-.004.007-.092.153-.106.178-.115.194-.041.068-.093.156-.058.096-.089.146-.069.112a8.325 8.325 0 0 1-.09.146l-.076.121c-.031.05-.061.099-.094.148l-.082.128c-.032.05-.064.1-.098.149l-.086.129c-.022.031-.042.063-.063.094l-.081.117c-.041.06-.077.123-.11.19l-.001.003c-.04.075-.07.145-.094.216Z"/>
  <path fill="#0A1112" d="m27.403 64.283.001-.036.003-.037.004-.036.006-.037v-.003a.433.433 0 0 1 .007-.035l.008-.039.009-.039a.467.467 0 0 1 .02-.071l.001-.002.002-.007.012-.038.014-.038.014-.037.015-.036a.24.24 0 0 1 .013-.028v-.002l.003-.006.017-.036.019-.039.023-.045c.009-.017.019-.033.027-.05l.004-.006.004-.008c.018-.031.038-.062.058-.092.016-.022.031-.045.048-.067l.033-.044.028-.035.029-.034.029-.032.006-.006.002-.003.022-.023.031-.031a.856.856 0 0 1 .066-.059l.018-.014.003-.003.013-.011.033-.025c.011-.008.021-.016.032-.022a.292.292 0 0 1 .032-.021l.031-.02a.03.03 0 0 0 .008-.004l.023-.014.031-.016.03-.015.03-.013a.572.572 0 0 1 .03-.011l.006-.002.002-.001.022-.008a.453.453 0 0 1 .03-.008l.031-.007.032-.006.022-.002h.003l.009-.001.035-.001a.482.482 0 0 1 .081.008h.002a.428.428 0 0 1 .111.042l.538.313a.347.347 0 0 0-.11-.041l-.001-.001a.443.443 0 0 0-.127-.006h-.003a.667.667 0 0 0-.139.03l-.002.001a.912.912 0 0 0-.151.069 1.103 1.103 0 0 0-.149.103l-.003.003a1.505 1.505 0 0 0-.138.128l-.002.003a1.68 1.68 0 0 0-.327.5l-.001.001c-.027.062-.05.123-.068.185l-.001.003a1.56 1.56 0 0 0-.043.186c-.01.062-.015.123-.015.183 0 .058.006.111.016.161l.001.004c.01.049.024.093.042.133l.002.001a.484.484 0 0 0 .16.179l-.538-.313a.401.401 0 0 1-.082-.067l-.021-.026c-.009-.011-.02-.021-.027-.033a.325.325 0 0 1-.028-.052l-.001-.001-.001-.002a.64.64 0 0 1-.04-.117l-.003-.016-.001-.004-.004-.017a.445.445 0 0 1-.009-.071l-.002-.035-.001-.036v-.002l.001-.034Z"/>
  <path fill="#1F2526" d="M28.688 63.336c.414-.239.75-.048.752.429.001.475-.333 1.054-.747 1.293-.413.238-.75.047-.752-.428-.002-.477.333-1.056.747-1.294Z"/>
  <path fill="#373C3D" d="M28.756 63.664c.255-.147.464-.028.465.266.001.293-.206.651-.462.799-.257.148-.464.028-.465-.265 0-.293.205-.651.462-.8Z"/>
  <path fill="#0A1112" d="m28.421 64.377.001-.016.001-.015.002-.016.002-.016.003-.016.003-.017.004-.016.005-.017a.074.074 0 0 1 .004-.014l.001-.003.005-.017a.098.098 0 0 0 .005-.016.277.277 0 0 0 .006-.016l.007-.015a.277.277 0 0 0 .006-.016l.007-.015a.089.089 0 0 0 .008-.017l.01-.019.012-.021.001-.002.003-.005.023-.037.02-.028.014-.018.013-.015.012-.015.012-.014.003-.003.01-.01.014-.014.014-.013.014-.012.014-.012.014-.01.014-.01.014-.009.013-.009.003-.001.011-.006.013-.007a.163.163 0 0 1 .025-.011l.013-.005.003-.001.01-.004.014-.003.013-.003.014-.002.01-.001.004-.001h.015l.017.001a.11.11 0 0 1 .019.002h.001l.021.006a.145.145 0 0 1 .025.012l.09.053a.123.123 0 0 0-.046-.018h-.001a.155.155 0 0 0-.053-.003h-.002a.266.266 0 0 0-.058.013h-.001a.398.398 0 0 0-.064.029.526.526 0 0 0-.121.098v.001a.78.78 0 0 0-.099.133v.001a.745.745 0 0 0-.066.152h-.001a.528.528 0 0 0-.023.154.29.29 0 0 0 .025.125v.001c.016.034.039.06.066.075l-.089-.052a.163.163 0 0 1-.067-.075l-.001-.001v-.001l-.007-.016-.005-.017-.005-.017-.003-.016-.002-.015-.002-.016-.001-.015v-.017c-.009.012-.009.007-.009.002Z"/>
  <path fill="#1F2526" d="M28.821 63.904c.173-.1.314-.021.314.178a.688.688 0 0 1-.313.541c-.172.1-.313.02-.313-.18a.693.693 0 0 1 .312-.539Z"/>
  <path fill="#0A1112" d="m32.623 61.28.002-.036.003-.037.004-.036.006-.038v-.001l.006-.036.01-.039.008-.039.011-.04a1.36 1.36 0 0 1 .01-.032v-.001l.001-.007a.568.568 0 0 0 .013-.038l.014-.038.014-.037.015-.036.012-.028.001-.002.003-.006.016-.036.02-.039.023-.045.027-.05.004-.006.004-.008a4.66 4.66 0 0 1 .058-.092c.016-.023.031-.046.047-.067h.001l.033-.044a.858.858 0 0 1 .028-.035l.03-.034c.008-.011.02-.021.028-.032a.026.026 0 0 0 .005-.006l.003-.003.022-.023.031-.031a.449.449 0 0 1 .033-.03.428.428 0 0 1 .05-.043l.004-.003.013-.011a.717.717 0 0 1 .033-.025c.011-.008.021-.016.032-.022a.292.292 0 0 1 .032-.021l.031-.02.008-.004.023-.014.031-.016.03-.015.03-.013a.363.363 0 0 1 .03-.011l.006-.002.001-.001.022-.008.031-.008a.347.347 0 0 1 .031-.007l.032-.006.022-.002h.004l.008-.001.035-.002.04.002a.551.551 0 0 1 .042.007h.002l.051.014a.552.552 0 0 1 .06.028l.538.313a.356.356 0 0 0-.11-.041l-.001-.001a.442.442 0 0 0-.127-.006H34.2a.609.609 0 0 0-.139.03l-.002.001a.912.912 0 0 0-.15.069 1.103 1.103 0 0 0-.15.103l-.003.003a1.505 1.505 0 0 0-.138.128l-.002.003a1.649 1.649 0 0 0-.235.318c0 .002-.003.004-.004.006a2.073 2.073 0 0 0-.089.176v.001c-.027.062-.05.123-.068.185v.002a1.462 1.462 0 0 0-.044.186c-.01.061-.015.123-.015.183a.813.813 0 0 0 .06.298v.001a.416.416 0 0 0 .057.088c.007.008.013.018.021.025a.37.37 0 0 0 .082.067l-.538-.313a.376.376 0 0 1-.082-.067c-.008-.008-.014-.018-.02-.026-.01-.011-.02-.021-.028-.033a.325.325 0 0 1-.028-.052v-.002l-.002-.001-.017-.04a.357.357 0 0 1-.013-.039.349.349 0 0 1-.01-.038l-.003-.016v-.005l-.005-.016-.005-.036a.396.396 0 0 1-.004-.036l-.002-.035a.41.41 0 0 1-.001-.035v-.036Z"/>
  <path fill="#1F2526" d="M33.908 60.333c.414-.239.75-.048.751.429.002.475-.332 1.054-.746 1.293-.413.238-.75.046-.752-.428 0-.477.334-1.056.747-1.294Z"/>
  <path fill="#373C3D" d="M33.977 60.661c.255-.147.464-.028.465.265.001.294-.207.652-.462.8-.257.148-.464.028-.465-.265 0-.293.205-.651.462-.8Z"/>
  <path fill="#0A1112" d="m33.642 61.374.001-.016.001-.015.002-.016.002-.016.003-.016.003-.017.004-.016.004-.017a.074.074 0 0 0 .004-.014h.001v-.002l.006-.018.005-.016.006-.016.007-.015a.277.277 0 0 0 .006-.016l.007-.015.008-.017.01-.019.012-.021.001-.001.003-.005.023-.037.02-.028.014-.018.012-.015c.004-.005.01-.01.013-.015l.012-.014.003-.003.01-.01.014-.014.014-.013.014-.012.014-.012.014-.011.014-.009.014-.009.013-.009.003-.001.01-.006.013-.007.014-.006.012-.006.013-.004.003-.001.001-.001.01-.003a.263.263 0 0 0 .012-.003l.014-.003a.059.059 0 0 1 .014-.002l.01-.002h.035l.018.003h.001l.021.006a.096.096 0 0 1 .025.012l.09.053a.107.107 0 0 0-.046-.017.155.155 0 0 0-.054-.003h-.002a.253.253 0 0 0-.058.013.398.398 0 0 0-.065.029.526.526 0 0 0-.12.098V61a.78.78 0 0 0-.1.133v.002a.74.74 0 0 0-.066.151.528.528 0 0 0-.024.154c0 .049.01.091.025.125v.001a.174.174 0 0 0 .066.075l-.09-.052a.17.17 0 0 1-.066-.075v-.002l-.008-.017a.098.098 0 0 1-.005-.016l-.005-.017-.003-.016a.077.077 0 0 1-.002-.015c0-.005 0-.011-.002-.016v-.032c-.009 0-.009-.004-.009-.009Z"/>
  <path fill="#1F2526" d="M34.042 60.901c.173-.1.314-.021.314.178a.688.688 0 0 1-.313.541c-.172.1-.313.02-.313-.18a.69.69 0 0 1 .312-.539Z"/>
  <path fill="#E9E9F0" d="M26.902 64.597a1.89 1.89 0 0 1 .295-.845c.528-.765.98-1.55 1.24-1.983.522-.868.565-.942 1.683-1.604l-.002-.857c0-.076.053-.169.12-.207l5.597-3.232c.065-.038.12-.007.12.069l.01 3.846a.265.265 0 0 1-.118.206l-.353.204-.782.451c-.043-.405-.357-.561-.743-.338-.385.223-.696.738-.737 1.192l-.262.151-2.72 1.57-.759.438c-.044-.405-.358-.56-.744-.338-.385.223-.696.738-.737 1.192l-1.1.636c-.04-.15-.04-.346-.008-.551Z"/>
  <path fill="#B4D1DB" d="m26.908 64.535-.008.057c-.031.204-.029.401.01.553l1.099-.635a1.67 1.67 0 0 1 .31-.789l-1.411.814Zm7.491-4.324c.171.039.288.19.314.429l.781-.451.352-.203a.264.264 0 0 0 .119-.208l-.001-.471-1.565.904Zm-5.221 3.014c.172.038.288.19.313.429l.757-.438 2.723-1.571.26-.15a1.66 1.66 0 0 1 .31-.789l-4.363 2.519Z"/>
  <path fill="#262626" d="m23.266 62.483 3.683 2.133c-.071.241-.027.593.009.642l-3.682-2.133c-.059-.064-.086-.504-.01-.642Z"/>
  <path fill="#086E96" d="m28.233 61.909-.108.183a2.148 2.148 0 0 1-.038.064l-.088.147-.055.09a7.212 7.212 0 0 1-.147.243l-.085.137-.07.114-.089.139-.078.12c-.03.047-.06.094-.092.141l-.08.121-.059.088a1.001 1.001 0 0 1-.024.034l-3.373-1.954.086-.127.081-.12c.03-.048.061-.094.092-.141l.077-.12a10.766 10.766 0 0 0 .16-.253l.084-.137.064-.106c.03-.047.057-.092.084-.137.018-.03.036-.062.054-.09l.088-.146.038-.064.108-.183c.035-.061.07-.116.1-.167.03-.051.06-.099.086-.145l.006-.009.072-.118.022-.036c.017-.026.033-.054.05-.078l.03-.045.03-.048 3.373 1.954-.037.056-.027.041-.058.093-.013.021-.075.122c0 .002-.002.004-.004.006l-.087.145-.098.165Z"/>
  <path fill="#B4D1DB" d="m30.123 60.18-.142.086.005 1.814.142-.081-.005-1.819Zm.233-.445a.435.435 0 0 0-.064.219l.005 1.947.081-.047-.005-1.948a.29.29 0 0 1 .042-.138.276.276 0 0 1 .099-.104l1.755-1.013c.038-.022.073-.025.1-.011.024.016.041.046.041.091l.006 1.947.083-.048-.006-1.947c0-.071-.026-.12-.067-.143-.039-.024-.096-.02-.156.015l-1.755 1.014a.462.462 0 0 0-.159.166Zm.026 3.17-.003-.764-.08.048.001.764c.001.07.026.119.065.143.041.023.092-.052.152-.087l1.755-1.014c.06-.034.121-.025.162-.094a.462.462 0 0 0 .066-.22l-.003-.764-.083.048.003.764a.29.29 0 0 1-.04.137c-.026.045-.068.013-.106.034l-1.756 1.014c-.037.021-.066.095-.093.08-.025-.014-.04-.044-.04-.089Z"/>
  <path fill="#EF1C22" d="m27.29 63.638-.09.131a1.527 1.527 0 0 0-.16.302l2.947-1.702.142-.082.17-.097.08-.048 2.036-1.175.083-.048 3.467-2.002v-.287l-3.467 2.001-.083.048-2.037 1.176-.08.047-.17.098-.142.081-2.697 1.557Z"/>
  <path fill="#B4D1DB" d="m30.132 63.091-.003-.805-.142.082.003.942.26-.15c-.065.038-.118.005-.118-.069Z"/>
  <path fill="#086E96" d="M29.418 61.009c-.243.14-.538.327-.643.491a7.783 7.783 0 0 0-.602 1.153c-.086.21-.106.42.081.312l1.46-.849a.273.273 0 0 0 .12-.209l-.003-.994c0-.076-.056-.107-.122-.069-.064.038-.172.095-.291.165Zm1.199-.681a.353.353 0 0 0-.16.278l.001.9c.001.102.074.144.162.092l1.49-.86a.35.35 0 0 0 .16-.277l-.003-.9c0-.103-.072-.143-.16-.093l-1.49.86Z"/>
  <path fill="#094C75" d="m34.621 59.025-.143-.422-.134.582.277-.16Z"/>
  <path fill="#fff" d="m33.971 59.844.252-.145.066-.279.39-.225.067.202.232-.134-.376-.986-.267.154-.364 1.413Zm.373-.659.135-.583.143.423-.278.16Z"/>
  <path fill="#094C75" d="m33.731 58.529.005 1.701 1.48-.855-.005-1.701-1.48.855Zm.24 1.315.365-1.413.267-.154.376.986-.232.134-.067-.202-.39.225-.066.279-.253.145Z"/>
  <path fill="#F1F1F5" d="m28.074 59.071-.307-.178.003-.002.004-.002.003-.002.003-.001.004-.001.004-.002h.003l.004-.001.003-.001h.012a.02.02 0 0 1 .005.001l.007.001.008.004.307.179a.05.05 0 0 0-.027-.007.095.095 0 0 0-.036.012Z"/>
  <path fill="#DFDFEA" d="M27.285 59.446v-.003l.001-.003v-.006l.001-.004v-.002l.308.178a.07.07 0 0 0 .001.041.044.044 0 0 0 .02.024l-.307-.179a.034.034 0 0 1-.015-.014l-.003-.005-.002-.004v-.002l-.001-.001-.001-.004v-.003l-.001-.004-.001-.003v-.006Z"/>
  <path fill="#E9E9F0" d="m27.322 59.268.307.179-.034.159-.307-.178.034-.16Z"/>
  <path fill="#F9F9FB" d="m27.768 58.893.306.178-.343.199-.306-.178.343-.199Z"/>
  <path fill="#F1F1F5" d="M27.665 59.344a.544.544 0 0 0-.036.104l-.307-.179a.036.036 0 0 0 .002-.011l.005-.016a.074.074 0 0 1 .004-.014l.003-.011.001-.002v-.001l.003-.008.003-.008.003-.008a2360160403.144 2360160403.144 0 0 1 .007-.014l.003-.007.003-.005v-.001l.001-.001a.047.047 0 0 1 .005-.01l.007-.011.006-.009.004-.005.003-.004.003-.003v-.001l.004-.003.003-.004.004-.003.003-.003a.014.014 0 0 1 .004-.004l.004-.003.004-.003.004-.003.004-.002.004-.003.308.178a.126.126 0 0 0-.038.031.254.254 0 0 0-.031.047Z"/>
  <path fill="#D7D7DF" d="M27.731 59.27c-.058.033-.086.105-.103.178l-.034.159c-.016.07.046.09.103.057l.413-.238c.057-.032.118-.122.103-.176l-.037-.118c-.016-.054-.046-.092-.102-.06l-.343.198Z"/>
  <path fill="#262626" d="m2.905 45.012.908-.529v.167l-.909.529.001-.167Z"/>
  <path fill="#5F6060" d="m1.989 44.483.909-.528.915.528-.908.529-.916-.529Z"/>
  <path fill="#434343" d="m2.905 45.012-.001.167-.915-.529v-.167l.916.529Zm.402-2.629-.002.003a.14.14 0 0 1-.021.04l-.004.006c-.009.013-.021.024-.033.036l-.026.02c-.011.007-.02.015-.031.021a.446.446 0 0 1-.077.033l-.032.009a.584.584 0 0 1-.101.019l-.003.001a.885.885 0 0 1-.072.003h-.009a.775.775 0 0 1-.069-.004l-.009-.001a.678.678 0 0 1-.065-.012l-.013-.004a.436.436 0 0 1-.128-.052c-.078-.046-.116-.106-.116-.166l-.006 2.171c0 .06.038.12.115.166a.538.538 0 0 0 .064.031c.016.006.032.012.05.017l.015.003.012.003.017.004a.475.475 0 0 0 .04.007l.009.001.01.001.022.002.04.002h.042c.016 0 .03-.001.046-.003l.004-.001.048-.006.012-.003a.611.611 0 0 0 .041-.01c.008-.002.017-.003.024-.006l.008-.004a.383.383 0 0 0 .087-.039l.021-.015a.38.38 0 0 0 .027-.02l.005-.003c.009-.009.018-.018.024-.027l.004-.005.004-.006.009-.013c.005-.008.008-.016.011-.023l.001-.002a.01.01 0 0 0 .001-.004l.005-.017a.097.097 0 0 0 .003-.023v-.003l.006-2.171-.01.044Z"/>
  <path fill="#5F6060" d="M3.198 42.174a.639.639 0 0 0-.579-.006c-.162.091-.166.241-.008.335a.637.637 0 0 0 .578.006c.163-.091.166-.241.009-.335Z"/>
  <path fill="#434343" d="M3.149 41.756a.094.094 0 0 1-.014.026.008.008 0 0 1-.002.004.145.145 0 0 1-.038.034l-.019.013a.33.33 0 0 1-.09.032.43.43 0 0 1-.088.009h-.002a.393.393 0 0 1-.092-.011H2.8a.293.293 0 0 1-.081-.033c-.048-.028-.071-.065-.071-.102l-.002.593c0 .037.023.074.071.102.013.007.025.014.04.019l.03.011.011.003.004.001.012.003.024.004.025.002.024.001h.026l.028-.002a.31.31 0 0 0 .032-.004l.011-.003a.42.42 0 0 0 .089-.031l.006-.004.013-.009.017-.013.002-.001a.14.14 0 0 0 .017-.018l.002-.003.003-.004.005-.008.007-.015.001-.001v-.002c.001-.004.003-.007.003-.011l.002-.014v-.003l.002-.593a.066.066 0 0 1-.004.028Z"/>
  <path fill="#5F6060" d="M3.083 41.627a.389.389 0 0 0-.356-.003c-.1.056-.102.148-.005.206.097.058.257.06.356.004.1-.057.102-.149.005-.207Z"/>
  <path fill="#787878" d="M3.06 38.376a.064.064 0 0 1-.012.034l-.001.001a.11.11 0 0 1-.034.029.17.17 0 0 1-.048.018l-.006.002a.331.331 0 0 1-.055.005c-.018-.001-.039-.002-.057-.007l-.002-.001a.159.159 0 0 1-.05-.02c-.028-.017-.043-.04-.043-.062l-.01 3.315c0 .022.015.045.044.062l.023.012c.006.003.013.004.019.006l.007.001h.002l.008.002.015.003.015.001.016.001h.016l.017-.001.021-.003.006-.002.007-.002.016-.004a.146.146 0 0 0 .031-.014l.004-.002a.115.115 0 0 0 .02-.015l.01-.01.001-.001.001-.002a.021.021 0 0 0 .004-.006.025.025 0 0 0 .004-.009l.003-.008a.028.028 0 0 0 .001-.009v-.001l.007-3.313Z"/>
  <path fill="#676C6C" d="M3.016 38.314a.238.238 0 0 0-.216-.002c-.061.034-.063.09-.004.125a.24.24 0 0 0 .217.002c.06-.033.062-.089.003-.125Z"/>
  <path fill="#262626" d="m2.909 38.929.709-.412v.133l-.71.412.001-.133Z"/>
  <path fill="#5F6060" d="m2.189 38.514.709-.412.72.415-.709.412-.72-.415Z"/>
  <path fill="#434343" d="m2.909 38.929-.001.133-.72-.416.001-.132.72.415Z"/>
  <path fill="#FCB900" d="m3.08 37.873.616-.358-.229.918-.616.358.229-.918Z"/>
  <path fill="#DBB437" d="m2.173 37.349.616-.358.907.524-.616.358-.907-.524Z"/>
  <path fill="#FED140" d="m3.08 37.873-.229.918-.455-.262-.223-1.18.907.524Z"/>
  <path fill="#434343" d="m2.644 37.597-.003 1.082-.092-.053.003-1.082.092.053Z"/>
  <path fill="#262626" d="m3.043 37.854.897-.521-.001.167-.896.521v-.167Z"/>
  <path fill="#5F6060" d="m2.005 37.254.896-.521 1.039.6-.897.521-1.038-.6Z"/>
  <path fill="#434343" d="M3.043 37.854v.167l-1.039-.6.001-.167 1.038.6Z"/>
  <path fill="#515252" d="m2.855 37.145.617-.359.224.582-.616.359-.225-.582Z"/>
  <path fill="#9C9C9C" d="m2.4 36.882.617-.359.455.263-.617.359-.455-.263Z"/>
  <path fill="#787878" d="m2.855 37.145.225.582-.907-.524.227-.321.455.263Z"/>
  <path fill="#262626" d="m50.334 72.459.909-.527-.001.166-.908.528v-.167Z"/>
  <path fill="#5F6060" d="m49.418 71.931.909-.529.916.53-.909.527-.916-.528Z"/>
  <path fill="#434343" d="M50.334 72.459v.167l-.916-.528v-.167l.916.528Zm.401-2.629-.001.004a.214.214 0 0 1-.02.04l-.005.006a.178.178 0 0 1-.032.035c-.008.008-.02.014-.027.02-.01.007-.018.015-.03.022a.609.609 0 0 1-.078.033l-.032.009-.04.011-.061.01h-.002c-.025.003-.049.003-.073.003h-.009c-.023 0-.046-.002-.069-.004l-.01-.001a.467.467 0 0 1-.064-.013l-.013-.003c-.022-.006-.044-.012-.065-.02a.41.41 0 0 1-.063-.031c-.077-.046-.116-.105-.116-.165l-.006 2.171c0 .06.038.119.116.166.02.012.04.021.064.03a.424.424 0 0 0 .065.021c.004.001.008.003.013.003l.016.004a.471.471 0 0 0 .05.009l.009.001a.163.163 0 0 0 .02.002l.04.002h.043c.016 0 .03-.001.046-.003h.004a.692.692 0 0 0 .048-.007c.005-.001.008-.003.013-.003l.04-.011c.008-.002.017-.003.024-.006l.008-.003a.542.542 0 0 0 .077-.034l.01-.005c.008-.005.014-.011.02-.016.01-.007.019-.013.027-.021l.005-.003a.205.205 0 0 0 .025-.027l.003-.005a.021.021 0 0 0 .004-.006c.003-.005.007-.009.009-.014a.127.127 0 0 0 .012-.023v-.003l.002-.004a.098.098 0 0 1 .005-.016l.002-.023v-.004l.007-2.171c-.004.015-.006.029-.011.043Z"/>
  <path fill="#5F6060" d="M50.627 69.621a.639.639 0 0 0-.579-.006c-.162.091-.165.241-.008.335a.636.636 0 0 0 .579.007c.162-.092.165-.241.008-.336Z"/>
  <path fill="#434343" d="M50.578 69.203v.003c-.003.008-.008.016-.013.024l-.003.003a.145.145 0 0 1-.021.022l-.017.013c-.006.004-.012.009-.02.013a.278.278 0 0 1-.077.028l-.011.003a.379.379 0 0 1-.09.009h-.001a.394.394 0 0 1-.092-.011l-.004-.001a.342.342 0 0 1-.081-.032c-.047-.028-.071-.065-.071-.102l-.002.592c0 .037.025.074.072.103a.202.202 0 0 0 .039.019l.03.011a.164.164 0 0 1 .015.004l.012.003.025.004.024.003a.2.2 0 0 0 .024.001h.025a.31.31 0 0 0 .06-.006l.01-.003.012-.003a.257.257 0 0 0 .084-.032l.013-.01.018-.012.002-.002.016-.017.002-.003.003-.004a.055.055 0 0 0 .006-.008l.006-.015v-.003c.003-.004.004-.008.005-.011v-.016l.003-.594a.05.05 0 0 1-.003.027Z"/>
  <path fill="#5F6060" d="M50.512 69.074a.392.392 0 0 0-.356-.003c-.1.056-.102.148-.005.206.097.058.257.06.356.004.099-.056.1-.148.005-.207Z"/>
  <path fill="#787878" d="M50.488 65.824a.054.054 0 0 1-.012.033v.001a.103.103 0 0 1-.035.029.176.176 0 0 1-.054.02.319.319 0 0 1-.054.005h-.002a.215.215 0 0 1-.056-.007h-.002a.194.194 0 0 1-.049-.02c-.029-.018-.044-.04-.044-.063l-.009 3.315c0 .022.014.045.043.062a.134.134 0 0 0 .024.012l.018.007.007.002h.003l.007.002.016.003.015.001.015.001h.016l.017-.001.02-.003.006-.002.007-.001.016-.004c.012-.004.022-.009.032-.014l.003-.002a.19.19 0 0 0 .021-.015l.009-.011.001-.001.002-.002.003-.006.005-.009a.03.03 0 0 0 .002-.009l.001-.009v-.001l.008-3.313Z"/>
  <path fill="#676C6C" d="M50.445 65.762a.24.24 0 0 0-.217-.002c-.06.034-.063.091-.003.126a.238.238 0 0 0 .216.002c.061-.035.063-.09.004-.126Z"/>
  <path fill="#262626" d="m50.338 66.377.709-.412v.133l-.709.412v-.133Z"/>
  <path fill="#5F6060" d="m49.618 65.961.709-.412.72.416-.709.412-.72-.416Z"/>
  <path fill="#434343" d="M50.338 66.377v.133l-.72-.415v-.134l.72.416Z"/>
  <path fill="#FCB900" d="m50.509 65.32.616-.358-.23.918-.616.358.23-.918Z"/>
  <path fill="#DBB437" d="m49.602 64.797.616-.359.907.524-.616.358-.907-.523Z"/>
  <path fill="#FED140" d="m50.509 65.32-.23.918-.453-.261-.224-1.18.907.523Z"/>
  <path fill="#434343" d="m50.072 65.045-.003 1.081-.092-.053.004-1.081.09.053Z"/>
  <path fill="#262626" d="m50.473 65.302.896-.522-.001.167-.896.522v-.167Z"/>
  <path fill="#5F6060" d="m49.434 64.702.896-.521 1.039.599-.896.522-1.039-.6Z"/>
  <path fill="#434343" d="m50.473 65.302-.001.167-1.038-.601v-.166l1.039.6Z"/>
  <path fill="#515252" d="m50.284 64.592.616-.359.225.582-.616.359-.225-.582Z"/>
  <path fill="#9C9C9C" d="m49.829 64.329.616-.358.455.262-.616.359-.455-.263Z"/>
  <path fill="#787878" d="m50.284 64.592.225.582-.907-.524.227-.321.455.263Z"/>
  <path fill="#928A6B" d="m46.563 14.195 7.611-4.423-.081 28.767-7.61 4.422.08-28.766Z"/>
  <path fill="#FFFCF0" d="m34.025 6.956 7.611-4.423 12.538 7.239-7.61 4.423-12.539-7.239Z"/>
  <path fill="#C2BA9B" d="m46.563 14.195-.08 28.766-12.539-7.238.081-28.767 12.538 7.239Z"/>
  <path fill="#182C4D" d="m46.563 14.263-.08 28.394-12.538-7.239.08-28.394 12.538 7.239Z"/>
  <path fill="#928A6B" d="m34.225 31.912.506-.295-.008 3.153-.507.294.01-3.152Z"/>
  <path fill="#FFFCF0" d="m34.216 35.064.507-.294 2.798 1.616-.506.295-2.799-1.617Z"/>
  <path fill="#928A6B" d="m37.29 33.682.507-.295-.009 3.152-.507.295.009-3.152Z"/>
  <path fill="#FFFCF0" d="m37.281 36.834.507-.295 2.799 1.616-.507.295-2.799-1.616Z"/>
  <path fill="#928A6B" d="m34.235 27.945.508-.295-.009 3.156-.507.295.008-3.156Z"/>
  <path fill="#FFFCF0" d="m34.227 31.101.507-.295 2.8 1.616-.509.295-2.798-1.616Z"/>
  <path fill="#928A6B" d="m40.357 35.453.508-.295-.009 3.152-.507.295.008-3.152Z"/>
  <path fill="#FFFCF0" d="m40.349 38.605.507-.295 2.799 1.617-.508.295-2.798-1.617Z"/>
  <path fill="#928A6B" d="m37.301 29.715.508-.295-.009 3.156-.508.295.009-3.156Z"/>
  <path fill="#FFFCF0" d="m37.292 32.871.508-.295 2.799 1.616-.508.295-2.799-1.616Z"/>
  <path fill="#928A6B" d="m34.247 23.982.507-.295-.009 3.153-.507.295.009-3.153Z"/>
  <path fill="#FFFCF0" d="m34.238 27.135.507-.295 2.799 1.616-.507.295-2.799-1.616Z"/>
  <path fill="#928A6B" d="m43.426 37.224.507-.295-.009 3.153-.507.295.009-3.153Z"/>
  <path fill="#FFFCF0" d="m43.417 40.377.507-.295 2.799 1.616-.507.295-2.799-1.616Z"/>
  <path fill="#928A6B" d="m40.369 31.486.507-.294-.009 3.155-.507.295.009-3.156Z"/>
  <path fill="#FFFCF0" d="m40.36 34.642.507-.295 2.799 1.616-.507.295-2.799-1.616Z"/>
  <path fill="#928A6B" d="m37.313 25.752.506-.295-.009 3.153-.506.295.009-3.153Z"/>
  <path fill="#FFFCF0" d="m37.304 28.905.506-.295 2.8 1.616-.508.294-2.798-1.615Z"/>
  <path fill="#928A6B" d="m34.258 20.016.508-.295-.009 3.153-.508.294.009-3.152Z"/>
  <path fill="#FFFCF0" d="m34.249 23.168.508-.294 2.799 1.616-.508.295-2.799-1.617Z"/>
  <path fill="#928A6B" d="m43.436 33.258.508-.295-.009 3.156-.507.294.008-3.155Z"/>
  <path fill="#FFFCF0" d="m43.428 36.413.507-.294 2.799 1.615-.507.295-2.799-1.616Z"/>
  <path fill="#928A6B" d="m40.38 27.523.508-.295-.009 3.153-.508.295.009-3.153Z"/>
  <path fill="#FFFCF0" d="m40.371 30.676.508-.295 2.799 1.616-.508.295-2.799-1.616Z"/>
  <path fill="#928A6B" d="m37.323 21.786.508-.295-.009 3.152-.508.295.009-3.152Z"/>
  <path fill="#FFFCF0" d="m37.314 24.938.508-.295 2.799 1.617-.507.295-2.8-1.617Z"/>
  <path fill="#928A6B" d="m34.27 16.052.506-.295-.008 3.153-.507.295.009-3.153Z"/>
  <path fill="#FFFCF0" d="m34.261 19.205.507-.295 2.798 1.616-.506.295-2.799-1.616Z"/>
  <path fill="#928A6B" d="m43.448 29.294.507-.295-.009 3.153-.507.295.009-3.153Z"/>
  <path fill="#FFFCF0" d="m43.439 32.447.507-.295 2.799 1.616-.507.295-2.799-1.616Z"/>
  <path fill="#928A6B" d="m40.392 23.557.506-.295-.008 3.153-.507.295.01-3.153Z"/>
  <path fill="#FFFCF0" d="m40.383 26.71.507-.295 2.8 1.616-.508.295-2.799-1.616Z"/>
  <path fill="#928A6B" d="m37.335 17.822.507-.295-.009 3.153-.507.295.01-3.153Z"/>
  <path fill="#FFFCF0" d="m37.326 20.975.507-.295 2.799 1.616-.507.295-2.799-1.616Z"/>
  <path fill="#928A6B" d="m34.28 12.086.508-.295-.009 3.153-.508.295.009-3.153Z"/>
  <path fill="#FFFCF0" d="m34.271 15.239.508-.295 2.799 1.616-.508.295-2.799-1.616Z"/>
  <path fill="#928A6B" d="m43.46 25.328.507-.295-.009 3.153-.508.295.01-3.153Z"/>
  <path fill="#FFFCF0" d="m43.45 28.481.508-.295 2.799 1.616-.508.295-2.799-1.616Z"/>
  <path fill="#928A6B" d="m40.402 19.593.508-.295-.009 3.154-.507.294.008-3.153Z"/>
  <path fill="#FFFCF0" d="m40.394 22.746.507-.294 2.799 1.615-.507.295-2.799-1.616Z"/>
  <path fill="#928A6B" d="m37.346 13.856.507-.295-.008 3.153-.508.295.009-3.153Z"/>
  <path fill="#FFFCF0" d="m37.337 17.009.508-.295 2.799 1.616-.508.295-2.799-1.616Zm-3.054-5.734.507-.295 2.799 1.617-.507.295-2.799-1.617Zm-.258-4.319.508-.295.269.155-.507.295-.27-.155Z"/>
  <path fill="#928A6B" d="m34.295 7.111.507-.295-.012 4.164-.507.295.012-4.164Zm9.176 14.254.507-.295-.009 3.153-.507.295.009-3.153Z"/>
  <path fill="#FFFCF0" d="m43.462 24.518.507-.295 2.799 1.616-.507.294-2.799-1.615Z"/>
  <path fill="#928A6B" d="m40.414 15.627.508-.294-.01 3.152-.507.295.009-3.153Z"/>
  <path fill="#FFFCF0" d="m40.405 18.78.507-.295 2.799 1.616-.507.295-2.799-1.616Zm-3.056-5.735.506-.295 2.799 1.616-.507.295-2.798-1.616Z"/>
  <path fill="#928A6B" d="m37.36 8.881.507-.295-.012 4.164-.506.295.011-4.164Z"/>
  <path fill="#FFFCF0" d="m37.094 8.727.508-.295.265.154-.507.295-.266-.154Z"/>
  <path fill="#928A6B" d="m43.481 17.398.508-.294-.009 3.152-.507.295.008-3.153Z"/>
  <path fill="#FFFCF0" d="m43.473 20.551.507-.295 2.799 1.616-.508.295-2.798-1.616Zm-3.057-5.735.508-.295 2.799 1.617-.508.295-2.799-1.617Zm-.256-4.319.507-.295.268.155-.507.295-.269-.155Z"/>
  <path fill="#928A6B" d="m40.428 10.652.507-.295-.011 4.164-.508.295.012-4.164Z"/>
  <path fill="#FFFCF0" d="m43.484 16.588.507-.295 2.799 1.616-.507.295-2.799-1.616Z"/>
  <path fill="#928A6B" d="m43.496 12.423.507-.295-.012 4.165-.507.295.012-4.165Z"/>
  <path fill="#FFFCF0" d="m43.227 12.268.507-.294.27.154-.508.295-.269-.155Zm3.068 1.772.508-.295.268.155-.508.295-.268-.155Z"/>
  <path fill="#C2BA9B" d="m46.295 14.04-.012 4.164-2.799-1.616.012-4.165-.269-.155-.013 4.164-2.799-1.616.012-4.164-.269-.155-.012 4.164-2.799-1.616.012-4.164-.267-.154-.012 4.165-2.799-1.616.012-4.164-.27-.155-.081 28.767 12.538 7.239.081-28.767-.266-.156Zm-9.28 22.641-2.799-1.616.009-3.153 2.799 1.616-.009 3.153Zm.01-3.964-2.799-1.616.009-3.156 2.799 1.616-.009 3.156Zm.012-3.966-2.799-1.616.009-3.153 2.799 1.616-.009 3.153Zm.011-3.966-2.799-1.616.009-3.153 2.799 1.616-.009 3.153Zm.012-3.964-2.799-1.616.009-3.153 2.799 1.616-.009 3.153Zm.01-3.966-2.799-1.616.009-3.153 2.8 1.616-.01 3.153Zm3.01 21.595-2.799-1.616.009-3.153 2.799 1.616-.009 3.153Zm.011-3.963-2.799-1.616.009-3.156 2.8 1.616-.01 3.156Zm.011-3.967-2.799-1.616.009-3.153 2.799 1.616-.009 3.153Zm.012-3.965-2.8-1.616.009-3.153 2.8 1.616-.009 3.153Zm.011-3.964-2.799-1.616.009-3.153 2.799 1.616-.009 3.153Zm.011-3.966-2.799-1.616.009-3.153 2.8 1.616-.01 3.153Zm3.011 21.597-2.799-1.616.009-3.153 2.8 1.616-.01 3.153Zm.012-3.964-2.799-1.616.009-3.156 2.799 1.616-.009 3.156Zm.011-3.966-2.799-1.616.009-3.153 2.8 1.616-.01 3.153Zm.012-3.966-2.799-1.616.009-3.153 2.799 1.616-.009 3.153Zm.011-3.964-2.8-1.616.009-3.153 2.8 1.616-.009 3.153Zm.011-3.966-2.799-1.616.009-3.153 2.799 1.616-.009 3.153Zm3.012 21.597-2.799-1.616.009-3.153 2.799 1.616-.009 3.153Zm.011-3.964-2.799-1.616.009-3.155 2.8 1.616-.01 3.155Zm.011-3.966-2.799-1.616.009-3.153 2.799 1.616-.009 3.153Zm.011-3.966-2.799-1.616.009-3.153 2.799 1.616-.009 3.153Zm.012-3.964-2.799-1.616.009-3.153 2.799 1.616-.009 3.153Zm.01-3.966-2.799-1.616.009-3.153 2.8 1.616-.01 3.153Z"/>
  <path fill="#928A6B" d="m46.563 14.195.508-.295-.082 28.767-.507.294.081-28.766Zm-.253-1.61 7.864-4.57-.005 1.758-7.864 4.571.005-1.759Z"/>
  <path fill="#FFFCF0" d="m33.04 4.923 7.863-4.57 13.271 7.662-7.864 4.57-13.27-7.662Z"/>
  <path fill="#C2BA9B" d="m46.31 12.585-.005 1.759-13.27-7.662.004-1.759 13.271 7.662Z"/>
  <path fill="#928A6B" d="m27.822 26.373 10.147-5.897-.051 18.062-10.148 5.897.052-18.062Z"/>
  <path fill="#FFFCF0" d="m15.17 19.068 10.146-5.897 12.653 7.305-10.147 5.897-12.653-7.305Z"/>
  <path fill="#C2BA9B" d="m27.822 26.373-.052 18.062-12.652-7.306.051-18.061 12.653 7.305Z"/>
  <path fill="#928A6B" d="m24.798 28.093-.366.212.008-2.962.366-.213-.008 2.963Z"/>
  <path fill="#FFFCF0" d="m27.375 29.581-.365.212-2.578-1.488.366-.212 2.577 1.488Z"/>
  <path fill="#203A66" d="m24.798 28.093.008-2.963 2.578 1.489-.009 2.962-2.577-1.488Z"/>
  <path fill="#928A6B" d="m24.788 31.479-.365.212.008-2.962.365-.213-.008 2.963Z"/>
  <path fill="#FFFCF0" d="m27.366 32.967-.366.212-2.577-1.488.365-.212 2.578 1.488Z"/>
  <path fill="#203A66" d="m24.788 31.479.008-2.963 2.578 1.488-.008 2.963-2.578-1.488Z"/>
  <path fill="#928A6B" d="m24.778 34.864-.365.213.008-2.963.366-.212-.009 2.962Z"/>
  <path fill="#FFFCF0" d="m27.356 36.353-.365.212-2.578-1.488.365-.213 2.578 1.489Z"/>
  <path fill="#203A66" d="m24.778 34.864.009-2.962 2.577 1.488-.008 2.963-2.578-1.489Z"/>
  <path fill="#928A6B" d="m24.769 38.247-.366.213.008-2.96.366-.212-.008 2.959Z"/>
  <path fill="#FFFCF0" d="m27.347 39.736-.366.212-2.578-1.488.366-.213 2.578 1.489Z"/>
  <path fill="#203A66" d="m24.769 38.247.008-2.959 2.578 1.488-.008 2.96-2.578-1.489Z"/>
  <path fill="#928A6B" d="m24.759 41.633-.365.213.008-2.963.366-.212-.009 2.962Z"/>
  <path fill="#FFFCF0" d="m27.337 43.121-.365.213-2.578-1.488.365-.213 2.578 1.488Z"/>
  <path fill="#203A66" d="m24.759 41.633.009-2.962 2.578 1.488-.009 2.962-2.578-1.488Z"/>
  <path fill="#928A6B" d="m21.851 26.392-.366.212.009-2.962.365-.213-.008 2.963Z"/>
  <path fill="#FFFCF0" d="m24.429 27.88-.366.212-2.578-1.488.366-.212 2.578 1.488Z"/>
  <path fill="#203A66" d="m21.851 26.392.008-2.963 2.579 1.488-.009 2.963-2.578-1.488Z"/>
  <path fill="#928A6B" d="m21.842 29.777-.366.213.008-2.963.366-.212-.008 2.962Z"/>
  <path fill="#FFFCF0" d="m24.419 31.266-.365.212-2.578-1.488.366-.213 2.577 1.489Z"/>
  <path fill="#203A66" d="m21.842 29.777.008-2.962 2.578 1.488-.009 2.963-2.577-1.489Z"/>
  <path fill="#928A6B" d="m21.832 33.163-.366.212.009-2.962.365-.212-.008 2.962Z"/>
  <path fill="#FFFCF0" d="m24.409 34.651-.365.213-2.578-1.489.366-.212 2.577 1.488Z"/>
  <path fill="#203A66" d="m21.832 33.163.008-2.962 2.578 1.488-.009 2.962-2.577-1.488Z"/>
  <path fill="#928A6B" d="m21.822 36.546-.365.212.008-2.959.365-.213-.008 2.96Z"/>
  <path fill="#FFFCF0" d="m24.4 38.035-.366.212-2.577-1.489.365-.212 2.578 1.489Z"/>
  <path fill="#203A66" d="m21.822 36.546.008-2.96 2.578 1.489-.008 2.96-2.578-1.489Z"/>
  <path fill="#928A6B" d="m21.813 39.932-.366.213.008-2.963.366-.212-.008 2.962Z"/>
  <path fill="#FFFCF0" d="m24.391 41.42-.366.213-2.578-1.488.366-.213 2.578 1.488Z"/>
  <path fill="#203A66" d="m21.813 39.932.008-2.962 2.577 1.488-.007 2.962-2.578-1.488Z"/>
  <path fill="#928A6B" d="m18.906 24.691-.365.213.009-2.962.365-.212-.009 2.961Z"/>
  <path fill="#FFFCF0" d="m21.484 26.18-.365.213-2.578-1.489.365-.213 2.578 1.489Z"/>
  <path fill="#203A66" d="m18.906 24.691.009-2.961 2.578 1.488-.009 2.962-2.578-1.489Z"/>
  <path fill="#928A6B" d="m18.897 28.077-.366.213.009-2.962.365-.213-.008 2.962Z"/>
  <path fill="#FFFCF0" d="m21.475 29.566-.366.212-2.578-1.488.366-.213 2.578 1.489Z"/>
  <path fill="#203A66" d="m18.897 28.077.008-2.962 2.578 1.489-.008 2.962-2.578-1.489Z"/>
  <path fill="#928A6B" d="m18.888 31.463-.366.213.008-2.963.365-.212-.007 2.962Z"/>
  <path fill="#FFFCF0" d="m21.466 32.952-.366.212-2.578-1.488.366-.213 2.578 1.489Z"/>
  <path fill="#203A66" d="m18.888 31.463.007-2.962 2.579 1.488-.008 2.963-2.578-1.489Z"/>
  <path fill="#928A6B" d="m18.878 34.846-.365.213.007-2.96.367-.212-.009 2.959Z"/>
  <path fill="#FFFCF0" d="m21.456 36.334-.366.213-2.577-1.488.365-.213 2.578 1.488Z"/>
  <path fill="#203A66" d="m18.878 34.846.009-2.959 2.577 1.488-.008 2.959-2.578-1.488Z"/>
  <path fill="#928A6B" d="m18.868 38.232-.365.212.008-2.962.366-.212-.009 2.962Z"/>
  <path fill="#FFFCF0" d="m21.446 39.72-.365.213-2.578-1.489.365-.212 2.578 1.488Z"/>
  <path fill="#203A66" d="m18.868 38.232.009-2.962 2.578 1.488-.009 2.962-2.578-1.488Z"/>
  <path fill="#928A6B" d="m15.96 22.99-.365.213.008-2.962.366-.213-.009 2.962Z"/>
  <path fill="#FFFCF0" d="m18.538 24.479-.365.212-2.578-1.488.365-.213 2.578 1.489Z"/>
  <path fill="#203A66" d="m15.96 22.99.009-2.962 2.578 1.489-.009 2.962-2.578-1.489Z"/>
  <path fill="#928A6B" d="m15.95 26.376-.365.212.009-2.962.365-.212-.009 2.962Z"/>
  <path fill="#FFFCF0" d="m18.528 27.865-.365.212-2.578-1.489.365-.212 2.578 1.489Z"/>
  <path fill="#203A66" d="m15.95 26.376.009-2.962 2.578 1.488-.009 2.963-2.578-1.489Z"/>
  <path fill="#928A6B" d="m15.941 29.762-.366.212.009-2.962.365-.212-.008 2.962Z"/>
  <path fill="#FFFCF0" d="m18.519 31.25-.366.212-2.578-1.488.366-.212 2.578 1.488Z"/>
  <path fill="#203A66" d="m15.941 29.762.008-2.962 2.578 1.488-.008 2.962-2.578-1.488Z"/>
  <path fill="#928A6B" d="m15.932 33.145-.366.212.008-2.959.365-.212-.007 2.959Z"/>
  <path fill="#FFFCF0" d="m18.51 34.633-.366.213-2.578-1.489.366-.212 2.578 1.488Z"/>
  <path fill="#203A66" d="m15.932 33.145.007-2.959 2.579 1.488-.008 2.959-2.578-1.488Z"/>
  <path fill="#928A6B" d="m15.922 36.531-.365.212.007-2.962.366-.212-.008 2.962Z"/>
  <path fill="#FFFCF0" d="m18.5 38.019-.366.212-2.577-1.488.365-.212 2.578 1.488Z"/>
  <path fill="#203A66" d="m15.922 36.531.008-2.962 2.578 1.488-.008 2.962-2.578-1.488Z"/>
  <path fill="#C2BA9B" d="m17.737 17.706 7.058-4.101 10.3 5.946-7.058 4.101-10.3-5.946Z"/>
  <path fill="#C2BA9B" d="m28.037 23.652-.008 1.437-10.3-5.946.008-1.437 10.3 5.946Z"/>
  <path fill="#928A6B" d="m25.006 13.803-.003.816-5.568 3.236.003-.817 5.568-3.235Z"/>
  <path fill="#C2BA9B" d="m33.403 18.651-.002.817-8.398-4.849.003-.816 8.397 4.848Zm-5.361 4.219-.002.816-10.303-5.948.002-.816 10.303 5.948Z"/>
  <path fill="#928A6B" d="m35.102 18.768-7.06 4.102-.002.78-.003.002-.008 1.437 7.058-4.102.007-1.4.006-.003.002-.816Z"/>
  <path fill="#FFFCF0" d="m24.8 12.819-7.061 4.102 10.303 5.948 7.06-4.103L24.8 12.819Zm3.036 9.068-8.397-4.849 5.567-3.235 8.397 4.849-5.567 3.235Z"/>
  <path fill="#FFFCF0" d="m21.555 16.021 4.198-2.439 6.126 3.537-4.197 2.439-6.127-3.537Z"/>
  <path fill="#C2BA9B" d="m27.682 19.558-.005 1.462-6.126-3.537.004-1.462 6.127 3.537ZM25.878 13.7v.486l-3.313 1.924.001-.486 3.312-1.924Z"/>
  <path fill="#C2BA9B" d="M30.873 16.584v.485l-4.996-2.883.001-.486 4.995 2.884Zm-3.188 2.509-.002.486-6.128-3.539.002-.485 6.128 3.538Z"/>
  <path fill="#928A6B" d="m31.884 16.653-4.199 2.44v.464l-.003.001-.005 1.462 4.197-2.439.005-1.44.004-.002.001-.486Z"/>
  <path fill="#FFFCF0" d="m25.756 13.115-4.199 2.44 6.128 3.538 4.2-2.44-6.129-3.538Zm1.805 5.393-4.995-2.884 3.312-1.925 4.995 2.884-3.312 1.925Z"/>
  <path fill="#2E7D84" d="m64.06 49.348 15.221-8.846-.041 14.629-15.22 8.846.04-14.629Z"/>
  <path fill="#348C93" d="m37.314 33.905 15.221-8.845 26.746 15.442-15.221 8.846-26.746-15.443Z"/>
  <path fill="#203A66" d="m64.06 49.348-.04 14.629-26.748-15.443.042-14.629L64.06 49.348Z"/>
  <path fill="#7B7B7B" d="m37.925 46.289.381-.222-.009 3.084-.381.221.009-3.083Z"/>
  <path fill="#FFFCF0" d="m36.914 44.892.38-.221.687.397-.38.221-.687-.397Zm.009-3.073.38-.221.687.397-.381.221-.686-.397Z"/>
  <path fill="#7B7B7B" d="m37.935 42.766.38-.222-.007 2.712-.38.222.007-2.712Z"/>
  <path fill="#FFFCF0" d="m37.928 45.478.38-.222 4.247 2.452-.381.222-4.246-2.452Z"/>
  <path fill="#7B7B7B" d="m42.174 47.93.381-.222-.003.811-.38.221.002-.81Zm-4.229-8.8.381-.221-.01 3.274-.38.221.01-3.274Z"/>
  <path fill="#FFFCF0" d="m36.934 37.942.38-.22.687.396-.381.221-.686-.397Z"/>
  <path fill="#7B7B7B" d="m37.956 35.274.381-.221-.01 3.254-.38.221.009-3.254Z"/>
  <path fill="#FFFCF0" d="m37.63 35.086.381-.221.326.188-.381.221-.326-.188Z"/>
  <path fill="#7B7B7B" d="m43.695 42.449.38-.221-.006 2.001-.38.222.006-2.002Z"/>
  <path fill="#FFFCF0" d="m37.947 38.528.38-.221 5.426 3.132-.381.221-5.425-3.132Z"/>
  <path fill="#7B7B7B" d="m43.706 38.594.38-.221-.009 3.253-.381.221.01-3.253Z"/>
  <path fill="#FFFCF0" d="m43.382 38.407.381-.221.323.187-.38.221-.324-.187Z"/>
  <path fill="#7B7B7B" d="m49.831 45.992.38-.221-.006 2.094-.381.221.007-2.094Zm6.306 10.811.381-.221-.009 3.084-.38.222.008-3.085Z"/>
  <path fill="#FFFCF0" d="m43.696 41.847.381-.221 5.81 3.354-.381.221-5.81-3.354ZM54.59 55.098l.381-.221 1.222.706-.38.221-1.223-.706ZM37.935 42.404l.381-.221 17.886 10.326-.38.221-17.887-10.326Z"/>
  <path fill="#7B7B7B" d="m56.146 53.28.381-.22-.007 2.711-.381.221.007-2.712Z"/>
  <path fill="#FFFCF0" d="m49.516 41.948.379-.221.327.188-.38.221-.326-.188Z"/>
  <path fill="#7B7B7B" d="m49.842 42.136.38-.221-.009 3.253-.381.222.01-3.254Z"/>
  <path fill="#FFFCF0" d="m56.139 55.992.381-.221 5.312 3.068-.38.221-5.313-3.068Z"/>
  <path fill="#7B7B7B" d="m61.452 59.06.38-.221-.002.81-.38.221.002-.81Zm-5.295-9.415.38-.222-.009 3.275-.381.22.01-3.273Z"/>
  <path fill="#FFFCF0" d="m49.832 45.39.381-.222 6 3.465-.381.221-6-3.464Zm6.315 7.528.381-.22 5.313 3.067-.38.221-5.314-3.068Z"/>
  <path fill="#7B7B7B" d="m61.461 55.986.38-.221-.001.362-.38.221.001-.362Z"/>
  <path fill="#FFFCF0" d="m55.842 45.6.38-.221.327.189-.381.221-.326-.189Z"/>
  <path fill="#7B7B7B" d="m56.168 45.789.381-.221-.01 3.253-.38.221.01-3.253Z"/>
  <path fill="#FFFCF0" d="m56.16 49.042.38-.221 5.312 3.068-.38.221-5.313-3.068Z"/>
  <path fill="#C2BA9B" d="m61.47 52.712.002-.602-5.313-3.068.009-3.253-.326-.189-.01 3.254-6-3.464.01-3.253-.326-.188-.01 3.253-5.81-3.354.01-3.253-.324-.187-.009 3.253-5.426-3.132.009-3.253-.326-.189-.01 3.253-.686-.397-.002.602.688.397-.01 3.274-.686-.397-.001.362.687.397-.008 2.712-.686-.397-.003.811.688.397-.009 3.084.326.189.009-3.085 4.247 2.452.002-.811-4.246-2.452.007-2.711 17.886 10.326-.008 2.712-1.223-.706-.002.811 1.223.706-.009 3.085.326.189.009-3.085 5.314 3.067.002-.811-5.313-3.067.008-2.712 5.314 3.067.001-.361-5.313-3.068.01-3.274 5.308 3.066Zm-5.649.018L37.935 42.404l.01-3.275 5.426 3.132-.006 2.001.324.188.006-2.002 5.809 3.354-.006 2.094.326.189.006-2.094 6.001 3.464-.01 3.275Z"/>
  <path fill="#7B7B7B" d="m61.472 52.11.38-.221-.001.602-.381.221.002-.602Z"/>
  <path fill="#FFFCF0" d="m36.383 27.267 17.757-10.32 24.54 14.167-17.758 10.32-24.538-14.167Z"/>
  <path fill="#928A6B" d="m64.37 43.425-.021 7.492-.04 14.098 17.757-10.32.04-14.098.022-7.491L64.37 43.425Z"/>
  <path fill="#FFFCF0" d="m60.921 41.434 17.758-10.32 3.449 1.992L64.37 43.425l-3.449-1.991Z"/>
  <path fill="#C2BA9B" d="m64.37 43.425-.021 7.492-.039 14.098-3.45-1.992.039-14.098-24.538-14.167.022-7.491 24.538 14.167 3.449 1.991Z"/>
  <path fill="#707070" d="m62.088 39.096 15.221-8.846-.004 1.482-15.221 8.845.004-1.481Z"/>
  <path fill="#A9A9A9" d="m41.145 27.003 15.219-8.845L77.309 30.25l-15.221 8.846-20.943-12.093Z"/>
  <path fill="#8D8D8D" d="m62.088 39.096-.004 1.481L41.14 28.485l.005-1.482 20.943 12.093Z"/>
  <path fill="#A9A9A9" d="m43.531 45.969.761-.442-.021 7.05-.76.443.02-7.051Z"/>
  <path fill="#928A6B" d="m55.811 49.089-.011 3.964-.02 7.05.761-.442.019-7.051.012-3.963-.761.442Z"/>
  <path fill="#FFFCF0" d="m53.123 46.655-8.82-5.092-3.45-1.991-.76.442 3.449 1.991 8.82 5.093 3.449 1.991.761-.442-3.449-1.992Z"/>
  <path fill="#C2BA9B" d="m55.811 49.089-.011 3.964-.02 7.05-3.449-1.992.02-7.05-8.82-5.092-.02 7.051-3.45-1.992.02-7.05.012-3.964 3.449 1.991 8.82 5.093 3.449 1.991Z"/>
  <path fill="#928A6B" d="m44.663 48.659.394-.228-.014 4.587-.393.229.013-4.588Zm.006-2.089.394-.228-.005 1.603-.394.228.005-1.603Z"/>
  <path fill="#BFBFBF" d="m43.92 46.138.393-.228.75.432-.394.228-.749-.432Z"/>
  <path fill="#928A6B" d="m48.353 50.79.394-.229-.013 4.588-.393.229.012-4.588Z"/>
  <path fill="#BFBFBF" d="m44.664 48.173.394-.228 6.856 3.958-.394.229-6.856-3.959Z"/>
  <path fill="#928A6B" d="m52.273 50.961.394-.229-.019 6.677-.393.229.018-6.677Z"/>
  <path fill="#BFBFBF" d="m51.525 50.529.393-.229.749.432-.394.229-.748-.432Z"/>
  <path fill="#928A6B" d="m52.273 50.961-.018 6.677-.749-.433.013-4.587-3.166-1.828-.012 4.588-.423-.244.013-4.588-3.268-1.887-.013 4.588-.749-.432.019-6.677.749.432-.005 1.603 6.856 3.959.005-1.603.748.432Z"/>
  <path fill="#C2BA9B" d="m42.739 49.882.381-.221-.009 3.084-.381.221.009-3.084Z"/>
  <path fill="#F0F5FF" d="m40.055 48.332.38-.221 2.685 1.55-.381.221-2.684-1.55Z"/>
  <path fill="#E6E6E6" d="m42.739 49.882-.009 3.084-2.683-1.549.008-3.085 2.684 1.55Z"/>
  <path fill="#C2BA9B" d="m42.749 46.357.381-.221-.009 3.084-.381.221.009-3.084Z"/>
  <path fill="#F0F5FF" d="m40.065 44.807.38-.221 2.685 1.55-.381.221-2.684-1.55Z"/>
  <path fill="#E6E6E6" d="m42.749 46.357-.009 3.084-2.683-1.55.008-3.084 2.684 1.55Z"/>
  <path fill="#C2BA9B" d="m55.009 56.966.38-.222-.009 3.084-.38.222.009-3.084Z"/>
  <path fill="#F0F5FF" d="m52.324 55.416.381-.222 2.684 1.55-.38.222-2.685-1.55Z"/>
  <path fill="#E6E6E6" d="M55.009 56.966 55 60.05l-2.685-1.55.009-3.084 2.685 1.55Z"/>
  <path fill="#C2BA9B" d="m55.019 53.44.379-.221-.007 3.085-.381.22.009-3.084Z"/>
  <path fill="#F0F5FF" d="m52.334 51.891.381-.222 2.683 1.55-.379.221-2.685-1.549Z"/>
  <path fill="#E6E6E6" d="m55.019 53.44-.009 3.084-2.685-1.549.009-3.084 2.685 1.549Z"/>
  <path fill="#C2BA9B" d="m42.76 42.832.38-.222-.009 3.085-.381.22.01-3.083Z"/>
  <path fill="#F0F5FF" d="m40.075 41.282.381-.222 2.684 1.55-.38.222-2.685-1.55Z"/>
  <path fill="#E6E6E6" d="m42.76 42.832-.01 3.083-2.684-1.549.009-3.084 2.685 1.55Z"/>
  <path fill="#C2BA9B" d="m45.827 44.603.381-.221-.009 3.084-.381.221.009-3.084Z"/>
  <path fill="#F0F5FF" d="m43.144 43.053.379-.221 2.685 1.55-.381.221-2.683-1.55Z"/>
  <path fill="#E6E6E6" d="m45.827 44.603-.009 3.084-2.683-1.55.009-3.084 2.683 1.55Z"/>
  <path fill="#C2BA9B" d="m48.895 46.374.38-.221-.008 3.084-.38.221.008-3.084Z"/>
  <path fill="#F0F5FF" d="m46.211 44.824.381-.221 2.683 1.55-.38.221-2.684-1.55Z"/>
  <path fill="#E6E6E6" d="m48.895 46.374-.008 3.084-2.685-1.549.009-3.085 2.684 1.55Z"/>
  <path fill="#C2BA9B" d="m51.963 48.145.381-.221-.009 3.084-.381.221.009-3.084Z"/>
  <path fill="#F0F5FF" d="m49.278 46.596.381-.221 2.685 1.549-.38.221-2.686-1.549Z"/>
  <path fill="#E6E6E6" d="m51.963 48.145-.009 3.084-2.684-1.549.008-3.084 2.685 1.549Z"/>
  <path fill="#C2BA9B" d="m55.028 49.915.381-.221-.009 3.084-.38.222.008-3.085Z"/>
  <path fill="#F0F5FF" d="m52.345 48.365.38-.22 2.684 1.549-.381.221-2.683-1.55Z"/>
  <path fill="#E6E6E6" d="M55.028 49.915 55.02 53l-2.684-1.55.009-3.085 2.683 1.55Z"/>
  <path fill="#C2BA9B" d="m38.923 33.114.381-.221-.009 3.084-.38.221.008-3.084Z"/>
  <path fill="#F0F5FF" d="m36.239 31.564.38-.221 2.685 1.55-.381.221-2.684-1.55Z"/>
  <path fill="#E6E6E6" d="m38.923 33.114-.009 3.084-2.684-1.55.009-3.084 2.684 1.55Z"/>
  <path fill="#C2BA9B" d="m38.934 29.589.379-.221-.008 3.084-.38.221.009-3.084Z"/>
  <path fill="#F0F5FF" d="m36.249 28.039.381-.221 2.683 1.55-.379.221-2.685-1.55Z"/>
  <path fill="#E6E6E6" d="m38.934 29.589-.009 3.084-2.685-1.549.009-3.085 2.685 1.55Z"/>
  <path fill="#C2BA9B" d="m41.991 34.885.38-.221-.008 3.084-.38.221.008-3.084Z"/>
  <path fill="#F0F5FF" d="m39.307 33.335.381-.221 2.683 1.55-.38.221-2.684-1.55Z"/>
  <path fill="#E6E6E6" d="m41.991 34.885-.009 3.084-2.684-1.549.009-3.085 2.684 1.55Z"/>
  <path fill="#C2BA9B" d="m42.001 31.36.381-.221-.009 3.084-.38.221L42 31.36Z"/>
  <path fill="#F0F5FF" d="m39.317 29.811.38-.222 2.685 1.55-.381.221-2.684-1.549Z"/>
  <path fill="#E6E6E6" d="m42.001 31.36-.009 3.084-2.683-1.549.008-3.084 2.684 1.549Z"/>
  <path fill="#C2BA9B" d="m45.06 36.656.38-.221-.009 3.085-.381.221.01-3.085Z"/>
  <path fill="#F0F5FF" d="m42.375 35.107.38-.221 2.684 1.549-.38.221-2.684-1.549Z"/>
  <path fill="#E6E6E6" d="m45.059 36.656-.009 3.085-2.684-1.55.009-3.084 2.684 1.549Z"/>
  <path fill="#C2BA9B" d="m45.07 33.131.38-.221-.01 3.084-.38.221.01-3.084Z"/>
  <path fill="#F0F5FF" d="m42.385 31.581.381-.221 2.683 1.55-.38.221-2.684-1.55Z"/>
  <path fill="#E6E6E6" d="m45.069 33.131-.009 3.084-2.684-1.55.009-3.084 2.684 1.55Z"/>
  <path fill="#C2BA9B" d="m48.127 38.428.38-.221-.009 3.083-.38.222.009-3.084Z"/>
  <path fill="#F0F5FF" d="m45.442 36.878.381-.221 2.684 1.55-.38.221-2.685-1.55Z"/>
  <path fill="#E6E6E6" d="m48.127 38.428-.009 3.084-2.684-1.55.008-3.084 2.685 1.55Z"/>
  <path fill="#C2BA9B" d="m48.137 34.902.381-.221-.009 3.085-.38.221.008-3.085Z"/>
  <path fill="#F0F5FF" d="m45.452 33.353.381-.221 2.685 1.549-.381.221-2.685-1.549Z"/>
  <path fill="#E6E6E6" d="m48.137 34.902-.009 3.085-2.684-1.55.008-3.084 2.685 1.549Z"/>
  <path fill="#C2BA9B" d="m51.192 40.198.381-.221-.009 3.083-.38.222.008-3.084Z"/>
  <path fill="#F0F5FF" d="m48.508 38.648.381-.221 2.684 1.55-.381.221-2.684-1.55Z"/>
  <path fill="#E6E6E6" d="m51.192 40.198-.008 3.084-2.685-1.55.009-3.084 2.684 1.55Z"/>
  <path fill="#C2BA9B" d="m51.202 36.672.381-.221-.009 3.085-.381.22.009-3.084Z"/>
  <path fill="#F0F5FF" d="m48.519 35.122.379-.221 2.685 1.55-.381.221-2.683-1.55Z"/>
  <path fill="#E6E6E6" d="m51.202 36.672-.009 3.084-2.683-1.549.009-3.085 2.683 1.55Z"/>
  <path fill="#C2BA9B" d="m54.26 41.969.381-.222-.009 3.085-.381.221.009-3.084Z"/>
  <path fill="#F0F5FF" d="m51.576 40.419.38-.221 2.685 1.549-.38.222-2.685-1.55Z"/>
  <path fill="#E6E6E6" d="m54.26 41.969-.009 3.084-2.684-1.55.009-3.084 2.684 1.55Z"/>
  <path fill="#C2BA9B" d="m54.27 38.443.38-.22-.008 3.084-.38.221.008-3.085Z"/>
  <path fill="#F0F5FF" d="m51.586 36.894.381-.221 2.683 1.55-.38.22-2.684-1.549Z"/>
  <path fill="#E6E6E6" d="m54.27 38.443-.008 3.085-2.685-1.55.009-3.084 2.684 1.549Z"/>
  <path fill="#C2BA9B" d="m57.328 43.74.381-.222-.009 3.085-.381.221.009-3.084Z"/>
  <path fill="#F0F5FF" d="m54.644 42.19.38-.221 2.685 1.549-.381.222-2.684-1.55Z"/>
  <path fill="#E6E6E6" d="m57.328 43.74-.009 3.084-2.684-1.55.009-3.084 2.684 1.55Z"/>
  <path fill="#C2BA9B" d="m57.338 40.215.381-.221-.009 3.084-.381.221.009-3.084Z"/>
  <path fill="#F0F5FF" d="m54.654 38.665.38-.221 2.685 1.55-.38.221-2.685-1.55Z"/>
  <path fill="#E6E6E6" d="m57.338 40.215-.009 3.084-2.684-1.549.009-3.085 2.684 1.55Z"/>
  <path fill="#C2BA9B" d="m60.395 45.511.381-.221-.008 3.084-.381.221.008-3.084Z"/>
  <path fill="#F0F5FF" d="m57.712 43.961.38-.221 2.684 1.55-.381.221-2.683-1.55Z"/>
  <path fill="#E6E6E6" d="m60.395 45.511-.008 3.084-2.684-1.549.009-3.085 2.683 1.55Z"/>
  <path fill="#C2BA9B" d="m60.406 41.986.38-.221-.009 3.084-.38.221.009-3.084Z"/>
  <path fill="#F0F5FF" d="m57.722 40.436.38-.221 2.684 1.55-.38.221-2.684-1.55Z"/>
  <path fill="#E6E6E6" d="m60.406 41.986-.009 3.084-2.684-1.549.009-3.085 2.684 1.55Z"/>
  <path fill="#C2BA9B" d="m63.422 61.379.38-.221-.009 3.084-.381.222.01-3.085Z"/>
  <path fill="#F0F5FF" d="m60.737 59.829.381-.221 2.684 1.55-.38.221-2.685-1.55Z"/>
  <path fill="#E6E6E6" d="m63.422 61.379-.01 3.085-2.684-1.55.009-3.085 2.685 1.55Z"/>
  <path fill="#C2BA9B" d="m63.432 57.854.381-.221-.01 3.084-.38.221.009-3.084Z"/>
  <path fill="#F0F5FF" d="m60.747 56.305.381-.222 2.685 1.55-.38.221-2.686-1.549Z"/>
  <path fill="#E6E6E6" d="m63.432 57.854-.009 3.084-2.685-1.549.009-3.084 2.685 1.549Z"/>
  <path fill="#C2BA9B" d="m63.441 54.329.381-.222-.009 3.085-.38.221.008-3.084Z"/>
  <path fill="#F0F5FF" d="m60.757 52.779.381-.221 2.684 1.549-.38.222-2.685-1.55Z"/>
  <path fill="#E6E6E6" d="m63.441 54.329-.008 3.084-2.685-1.55.009-3.084 2.684 1.55Z"/>
  <path fill="#C2BA9B" d="m63.451 50.806.381-.221-.009 3.082-.381.221.009-3.082Z"/>
  <path fill="#F0F5FF" d="m60.768 49.256.38-.22 2.684 1.549-.381.221-2.683-1.55Z"/>
  <path fill="#E6E6E6" d="m63.451 50.806-.009 3.082-2.683-1.55.009-3.082 2.683 1.55Z"/>
  <path fill="#C2BA9B" d="m63.461 47.281.381-.221-.009 3.084-.381.221.009-3.084Z"/>
  <path fill="#F0F5FF" d="m60.777 45.731.381-.221 2.684 1.55-.381.221-2.684-1.55Z"/>
  <path fill="#E6E6E6" d="m63.461 47.281-.009 3.084-2.683-1.55.008-3.084 2.684 1.55Z"/>
  <path fill="#C2BA9B" d="m63.472 43.756.38-.221-.009 3.084-.38.221.009-3.084Z"/>
  <path fill="#F0F5FF" d="m60.787 42.206.381-.221 2.684 1.55-.38.221-2.685-1.55Z"/>
  <path fill="#E6E6E6" d="m63.472 43.756-.009 3.084-2.685-1.55.009-3.084 2.685 1.55Z"/>
  <path fill="#C9CACE" d="m79.339 38.695-.662-.391-.006-1.908.662.391.006 1.908Z"/>
  <path fill="#FCFCFC" d="m79.333 36.787-.662-.391 2.465-1.423.662.391-2.465 1.423Z"/>
  <path fill="#D1D2D4" d="m81.798 35.364-2.465 1.423.006 1.908 2.464-1.423-.005-1.908Z"/>
  <path fill="#000" d="M80.211 36.509c-.374.216-.676.739-.674 1.168.001.429.305.603.678.387.374-.216.676-.738.675-1.168-.001-.43-.306-.603-.679-.387Zm.003 1.141c-.175.101-.317.02-.317-.181a.697.697 0 0 1 .315-.547c.175-.101.317-.02.318.181a.694.694 0 0 1-.316.547Z"/>
  <path fill="#164B55" d="m73.4 15.657.359-.209-.033.133-.36.209.034-.133Z"/>
  <path fill="#A7A092" d="m72.454 15.112.361-.209.944.545-.359.209-.946-.545Z"/>
  <path fill="#1D6470" d="m73.366 15.79.36-.209.233.135-.359.209-.234-.135Z"/>
  <path fill="#164B55" d="m73.632 15.792.36-.209-.033.133-.359.209.032-.133Z"/>
  <path fill="#48443B" d="m73.835 14.975.36-.209-.203.817-.36.209.203-.817Z"/>
  <path fill="#164B55" d="m73.651 14.646.359-.209-.048.195-.36.208.049-.194Zm.232.134.36-.209-.048.195-.36.209.048-.195Z"/>
  <path fill="#1D6470" d="m73.651 14.646.359-.209.233.134-.36.209-.232-.134Z"/>
  <path fill="#A7A092" d="m73.632 15.792.36-.209 4.24 2.447-.36.209-4.24-2.447Z"/>
  <path fill="#1E6572" d="m77.872 18.239.36-.209.036.194-.36.209-.036-.194Z"/>
  <path fill="#1D6470" d="m77.909 18.433.359-.209.233.134-.36.209-.232-.134Z"/>
  <path fill="#1E6572" d="m78.105 18.374.359-.209.037.193-.36.209-.036-.193Zm-.473-1.41.359-.209.043.228-.359.209-.043-.228Z"/>
  <path fill="#48443B" d="m77.908 17.326.359-.209.197 1.048-.36.209-.196-1.048Z"/>
  <path fill="#1E6572" d="m77.865 17.099.36-.209.042.227-.359.209-.043-.227Z"/>
  <path fill="#1D6470" d="m77.632 16.964.359-.209.234.135-.36.209-.233-.135Z"/>
  <path fill="#A7A092" d="M79.921 18.802a.294.294 0 0 1-.053.014l-.009.001a.312.312 0 0 1-.055.005h-.005a.58.58 0 0 1-.07-.004h-.001a.89.89 0 0 1-.081-.016l-.006-.001c-.026-.007-.055-.017-.085-.027l-.009-.003a1.707 1.707 0 0 1-.216-.105l-.868-.501-.359.209.868.501.046.026.058.03a.036.036 0 0 1 .009.004l.009.004.031.015.048.02.015.006a.126.126 0 0 1 .01.003l.018.007a.647.647 0 0 0 .041.013l.026.007.006.001a.013.013 0 0 0 .006.001l.036.008.036.006.002.001h.002l.03.003.036.001h.009l.026-.001.028-.004.009-.001.003-.001c.018-.003.033-.008.048-.013l.001-.001a.343.343 0 0 0 .051-.024l.36-.209a.201.201 0 0 1-.051.025Z"/>
  <path fill="#6D6659" d="m79.131 17.738.36-.209-.001.294-.36.209.001-.294Z"/>
  <path fill="#A7A092" d="m73.007 14.203.359-.209 6.125 3.535-.36.209-6.124-3.535Z"/>
  <path fill="#6D6659" d="m78.973 18.875-.868-.501-.197-1.048 1.223.706.001-.294-6.124-3.536.184.4.41.237-.201.817-.945-.545-.001.292 6.519 3.763c.244.141.466.153.628.063.162-.092.262-.29.263-.57-.101.068-.148.646-.892.216Zm-5.341-3.083.203-.817 3.84 2.217.197 1.047-4.24-2.447Z"/>
  <path fill="#48443B" d="m80.222 18.45-.359.209a.961.961 0 0 1-.019.192l-.001.005a.714.714 0 0 1-.051.158l-.001.001a.521.521 0 0 1-.067.103l-.025.031a.42.42 0 0 1-.099.08l.359-.209a.475.475 0 0 0 .1-.08l.025-.031c.011-.014.023-.026.033-.042a.35.35 0 0 0 .033-.06l.001-.001c.007-.016.015-.032.021-.049a.648.648 0 0 0 .016-.047l.012-.044.004-.017.001-.005.004-.021.006-.042.005-.042a.59.59 0 0 0 .002-.042l.001-.042v-.005h-.001Z"/>
  <path fill="#164B55" d="m76.829 13.655.36-.209-.033.133-.36.209.033-.133Z"/>
  <path fill="#A7A092" d="m75.884 13.11.36-.209.945.545-.36.209-.945-.545Z"/>
  <path fill="#1D6470" d="m76.796 13.788.36-.209.233.135-.36.209-.233-.135Z"/>
  <path fill="#164B55" d="m77.062 13.79.36-.209-.033.133-.36.209.033-.133Z"/>
  <path fill="#48443B" d="m77.264 12.973.36-.209-.203.817-.359.209.202-.817Z"/>
  <path fill="#164B55" d="m77.08 12.643.36-.209-.049.196-.359.209.048-.196Zm.233.135.359-.209-.048.195-.36.209.049-.195Z"/>
  <path fill="#1D6470" d="m77.08 12.643.36-.209.232.135-.359.209-.233-.135Z"/>
  <path fill="#A7A092" d="m77.062 13.79.359-.209 4.24 2.447-.36.209-4.239-2.447Z"/>
  <path fill="#1E6572" d="m81.301 16.237.36-.209.037.194-.36.209-.037-.194Z"/>
  <path fill="#1D6470" d="m81.338 16.431.36-.209.232.135-.359.208-.233-.134Z"/>
  <path fill="#1E6572" d="m81.534 16.372.36-.209.036.194-.359.208-.037-.193Zm-.472-1.41.359-.209.043.228-.36.209-.042-.228Z"/>
  <path fill="#1E6572" d="m81.337 15.324.36-.209.197 1.048-.36.209-.197-1.048Z"/>
  <path fill="#1E6572" d="m81.294 15.097.36-.209.043.227-.36.209-.043-.227Z"/>
  <path fill="#1D6470" d="m81.062 14.962.359-.209.233.135-.36.209-.232-.135Z"/>
  <path fill="#A7A092" d="M83.35 16.8a.263.263 0 0 1-.052.014l-.009.001a.449.449 0 0 1-.055.005h-.005a.515.515 0 0 1-.152-.02l-.006-.001c-.026-.007-.055-.017-.085-.027l-.01-.004a1.173 1.173 0 0 1-.094-.041l-.009-.004a1.798 1.798 0 0 1-.112-.06l-.868-.501-.359.209.868.501.046.026.057.029a.03.03 0 0 0 .01.004l.01.004.03.015.047.02.016.005.01.004.018.006.04.013.027.008a.01.01 0 0 0 .005.001.017.017 0 0 0 .007.001l.036.008.036.006h.004l.03.003.036.001h.009l.026-.001a.236.236 0 0 0 .028-.004l.01-.001h.002a.672.672 0 0 0 .048-.013l.001-.001a.398.398 0 0 0 .051-.024l.36-.209a.157.157 0 0 1-.052.027Z"/>
  <path fill="#6D6659" d="m82.561 15.736.36-.209-.002.294-.359.209.001-.294Z"/>
  <path fill="#A7A092" d="m76.437 12.201.359-.209 6.124 3.535-.359.209-6.124-3.535Z"/>
  <path fill="#6D6659" d="m82.403 16.873-.868-.501-.197-1.048 1.223.706.001-.294-6.124-3.536.184.4.411.238-.202.817-.945-.545-.001.292 6.519 3.763c.244.141.466.153.628.063.161-.092.262-.29.263-.57-.101.067-.148.645-.892.215Zm-5.341-3.083.202-.816 3.84 2.217.197 1.047-4.239-2.448Z"/>
  <path fill="#48443B" d="m83.652 16.448-.359.209c0 .069-.007.133-.018.192l-.001.005a.59.59 0 0 1-.119.261l-.025.031a.446.446 0 0 1-.099.08l.359-.209a.446.446 0 0 0 .124-.111c.012-.014.024-.026.034-.042a.576.576 0 0 0 .033-.06v-.001h.001l.021-.05a.648.648 0 0 0 .016-.047l.012-.044.003-.018.001-.005.005-.021.006-.042.004-.042.003-.042.001-.043-.002-.001ZM65.696 8.031l.223-.129-.141.621-.224.13.142-.622Z"/>
  <path fill="#1D6470" d="m64.468 7.323.223-.13 1.228.709-.223.129-1.228-.708Z"/>
  <path fill="#6D6659" d="m65.696 8.031-.142.622-.95-.549-.136-.781 1.228.708Z"/>
  <path fill="#EDE9DE" d="m65.991 6.416-.003.001a.555.555 0 0 1-.163.007.784.784 0 0 1-.176-.038l-.003-.001a1.064 1.064 0 0 1-.19-.088 1.516 1.516 0 0 1-.189-.13l-.005-.004A1.77 1.77 0 0 1 65.088 6l-.003-.002a2.132 2.132 0 0 1-.159-.192l-.001-.001a2.294 2.294 0 0 1-.137-.21l-.006-.01a2.173 2.173 0 0 1-.111-.221l-.002-.002a2.115 2.115 0 0 1-.086-.233v-.002a1.938 1.938 0 0 1-.055-.235v-.001a1.208 1.208 0 0 1-.018-.23c0-.074.007-.142.018-.205l.002-.005a.69.69 0 0 1 .054-.168l.001-.002a.577.577 0 0 1 .071-.11c.009-.011.017-.023.026-.032a.462.462 0 0 1 .103-.085l-.273.159a.467.467 0 0 0-.13.118c-.012.014-.024.027-.035.042a.448.448 0 0 0-.035.065l-.001.003-.001.002a.5.5 0 0 0-.038.098.854.854 0 0 0-.013.048l-.005.021-.001.005-.004.021-.007.045-.005.046a.678.678 0 0 0-.002.045l-.001.046v.045l.002.045.004.046.005.046.007.047.001.002v.001l.008.045a.706.706 0 0 0 .01.049l.012.05.013.05.012.04.001.003.002.007.016.049.018.049c.006.015.011.031.018.046a.632.632 0 0 0 .019.046l.015.036.001.002a.03.03 0 0 1 .004.008l.021.046.024.05.029.057.034.061.006.01.007.013c.022.039.047.076.071.113l.059.084h.001l.001.001.042.055a.887.887 0 0 0 .036.045l.037.043.037.041.006.007.003.003.029.031.04.04a113235000880.591 113235000880.591 0 0 0 .084.076.313.313 0 0 1 .021.017l.005.004.017.014a1.533 1.533 0 0 0 .083.061l.039.026.04.024.01.005.03.017.038.02.038.018a.615.615 0 0 0 .038.016l.038.014.008.003.003.001.027.009.039.011.038.008a.735.735 0 0 0 .071.01l.003.001.01.001.045.001a.77.77 0 0 0 .105-.01h.001l.003-.001a.449.449 0 0 0 .14-.053l.273-.159a.53.53 0 0 1-.141.052Z"/>
  <path fill="#EDE9DE" d="m67.469 6.278-.004-.098-.008-.098a1.67 1.67 0 0 0-.012-.099l-.014-.102-.001-.003-.017-.1-.022-.105-.024-.105a4.212 4.212 0 0 1-.028-.107l-.024-.081-.001-.006-.006-.019-.033-.104-.036-.103-.037-.099-.039-.098-.031-.071-.002-.006-.008-.018-.045-.098c-.017-.036-.033-.071-.051-.106-.021-.041-.041-.081-.063-.121-.022-.042-.047-.083-.07-.125a.267.267 0 0 1-.013-.023l-.016-.028a5.293 5.293 0 0 0-.275-.416l-.002-.002-.001-.001a3.59 3.59 0 0 0-.089-.117l-.077-.096a3.352 3.352 0 0 0-.078-.09l-.078-.087-.015-.016-.006-.006-.061-.064a2.227 2.227 0 0 0-.085-.083c-.028-.028-.059-.056-.088-.083l-.09-.078a.804.804 0 0 0-.045-.037l-.01-.008-.034-.028-.089-.067a2.723 2.723 0 0 0-.278-.183l-.064-.036a1.59 1.59 0 0 0-.148-.073l-.017-.007-.08-.034-.081-.031a.057.057 0 0 1-.014-.004l-.013-.004a3.605 3.605 0 0 0-.138-.041l-.039-.009-.018-.004-.025-.006a1.624 1.624 0 0 0-.088-.015l-.053-.005-.019-.002-.018-.001a1.507 1.507 0 0 0-.095-.003l-.04.002-.031.001-.032.001a1.08 1.08 0 0 0-.116.017l-.001.001-.024.007a1.08 1.08 0 0 0-.115.031l-.008.004a.957.957 0 0 0-.152.07l-.002.001-.273.159a.893.893 0 0 1 .275-.106l.025-.007c.05-.01.099-.015.15-.019l.031-.001a1.31 1.31 0 0 1 .338.03l.017.004c.058.013.117.029.178.05l.012.004c.063.021.126.047.19.076l.014.006a3.056 3.056 0 0 1 .599.382l.01.008c.128.104.251.22.369.345l.006.006a4.616 4.616 0 0 1 .63.853l.013.022c.087.152.166.309.235.467l.003.006c.071.163.132.328.182.493l.003.008c.049.166.088.333.114.497v.001c.026.166.04.33.04.489-.001.077-.004.15-.011.221l-.002.019a2.656 2.656 0 0 1-.027.188l-.005.024a1.629 1.629 0 0 1-.043.167l-.01.029c-.017.05-.035.098-.057.144l-.006.016c-.024.051-.052.1-.081.145a1.025 1.025 0 0 1-.177.209 1.05 1.05 0 0 1-.169.129l.273-.159a1.05 1.05 0 0 0 .169-.129c.014-.012.025-.024.038-.037.051-.052.098-.108.139-.172l.003-.003a1.2 1.2 0 0 0 .075-.137l.002-.005.007-.016c.015-.03.027-.061.04-.093l.017-.05.01-.029.009-.027c.01-.033.019-.067.026-.103l.008-.038.005-.023.007-.037c.006-.031.011-.064.015-.096l.006-.055.002-.019.002-.023c.003-.031.005-.063.006-.095.002-.032.002-.064.003-.097v-.006a.539.539 0 0 0 .002-.09Z"/>
  <path fill="#F8F7F5" d="M65.193 3.052c-1.112-.642-2.015-.126-2.018 1.153-.003 1.275.893 2.83 2.005 3.472 1.112.642 2.015.126 2.019-1.15.001-1.277-.894-2.832-2.006-3.475Zm-.01 3.405c-.522-.302-.947-1.038-.945-1.638.001-.604.429-.844.951-.542.523.302.947 1.035.945 1.638-.001.6-.429.843-.95.542Z"/>
  <path fill="#48443B" d="m64.972 1.627.224-.13.961 1.988-.224.13-.961-1.988Z"/>
  <path fill="#A7A092" d="m64.007 1.13.224-.13.965.497-.224.13-.965-.497Z"/>
  <path fill="#6D6659" d="m64.972 1.627.961 1.988-1.681-.97-.245-1.515.965.497Z"/>
  <path fill="#6F6F6F" d="m64.337 5.7.224-.13.422-.24-.224.13-.422.24Z"/>
  <path fill="#959595" d="m65.211 5.937.224-.129-.002.683-.224.13.002-.684Z"/>
  <path fill="#C9C9C9" d="m64.119 4.732.223-.13.595.343-.224.13-.594-.343Z"/>
  <path fill="#959595" d="m65.465 5.867.223-.13.42.727-.224.129-.419-.726Zm-.981-1.7.222-.13.42.726-.223.13-.419-.726Z"/>
  <path fill="#6F6F6F" d="m64.341 4.248.224-.13.141-.081-.222.13-.143.081Z"/>
  <path fill="#727272" d="M65.512 5.766a.286.286 0 0 1-.047.101l.223-.13.011-.016c.007-.009.012-.02.017-.03l.01-.023.007-.02.003-.012-.224.13Z"/>
  <path fill="#959595" d="m65.225 4.771-.016-.004-.017-.003-.018-.002-.021-.001-.025.001h-.001l-.225.13a.291.291 0 0 1 .111.011l.224-.13a.06.06 0 0 1-.012-.002Z"/>
  <path fill="#B8B8B8" d="m65.732 5.388-.005-.02c0-.007-.003-.014-.005-.021l-.007-.021-.007-.022-.008-.023-.01-.024-.001-.004-.224.13a.786.786 0 0 1 .046.155l.224-.13a.064.064 0 0 0-.003-.02Z"/>
  <path fill="#C9C9C9" d="m65.533 4.988-.018-.021-.017-.019a.281.281 0 0 0-.017-.018l-.017-.017-.018-.016-.01-.009-.224.129a.89.89 0 0 1 .111.118l.223-.13-.013-.017Z"/>
  <path fill="#959595" d="m66.107 5.88.223-.13v.23l-.223.13v-.23Z"/>
  <path fill="#C9C9C9" d="m65.512 5.536.224-.13.594.344-.223.13-.595-.344Z"/>
  <path fill="#959595" d="m65.216 4.336.224-.13-.002.684-.224.129.002-.683Z"/>
  <path fill="#C9C9C9" d="m65.016 4.22.224-.129.2.115-.224.13-.2-.116Z"/>
  <path fill="#6F6F6F" d="m65.325 5.137.223-.13.422-.24-.223.13-.422.24Z"/>
  <path fill="#B8B8B8" d="M66.107 6.11v-.23l-.595-.343a.786.786 0 0 0-.046-.155l.422-.24-.141-.245-.422.241a.89.89 0 0 0-.11-.118l.001-.683-.2-.116-.002.684a.291.291 0 0 0-.111-.011l-.419-.727-.143.081.419.727a.256.256 0 0 0-.047.101l-.594-.343-.001.23.595.343c.01.053.023.103.046.155l-.422.241.141.244.423-.24c.034.045.07.083.11.118l-.002.683.2.116.002-.684a.244.244 0 0 0 .111.011l.42.727.142-.081-.419-.726a.315.315 0 0 0 .047-.101l.595.341Z"/>
  <path fill="#959595" d="m65.747 4.897.223-.13.142.244-.224.13-.14-.244Z"/>
  <path fill="#EDE9DE" d="m65.817 6.473-.003.001a.555.555 0 0 1-.159.008l-.004-.001a.784.784 0 0 1-.176-.038l-.003-.001a1.096 1.096 0 0 1-.19-.087 1.55 1.55 0 0 1-.188-.131l-.005-.004a2.026 2.026 0 0 1-.174-.162l-.003-.003a2.131 2.131 0 0 1-.297-.403l-.006-.01a2.173 2.173 0 0 1-.111-.221l-.002-.002a2.116 2.116 0 0 1-.086-.233v-.002a1.938 1.938 0 0 1-.055-.235 1.208 1.208 0 0 1-.018-.23c0-.074.007-.142.018-.205l.001-.005a.736.736 0 0 1 .055-.168l.001-.002a.62.62 0 0 1 .071-.111l.026-.032a.476.476 0 0 1 .104-.086l-.273.159a.467.467 0 0 0-.104.085c-.01.01-.018.022-.026.033-.012.014-.024.027-.035.043a.448.448 0 0 0-.035.065l-.001.003-.001.001a.656.656 0 0 0-.021.049c-.007.016-.012.033-.017.05a.7.7 0 0 0-.013.049l-.004.021-.002.006-.004.02-.007.045-.005.046a.677.677 0 0 0-.002.045l-.002.046v.002l.001.043.002.046.004.046.005.046.007.048v.002l.001.001.008.045.01.049c.004.016.007.033.012.049l.013.05.012.04.001.003a.014.014 0 0 1 .002.007l.016.049.018.048a.366.366 0 0 0 .018.046.633.633 0 0 0 .02.046l.015.036.001.002a.05.05 0 0 1 .003.007l.021.046.024.05.029.057.034.061.006.01.007.013c.022.038.047.076.071.113.018.028.039.057.059.084l.001.001.001.001.042.055.036.046a1.364 1.364 0 0 0 .074.084l.006.007.003.003.029.031.04.04.042.039.042.037.02.017.005.004.017.013a1.526 1.526 0 0 0 .083.061l.04.026.039.024.01.005.03.017.038.02c.013.006.025.013.038.018a.615.615 0 0 0 .038.016l.038.014.008.003.002.001.028.009.04.011.037.008a.735.735 0 0 0 .042.007c.01.001.019.003.029.003h.004l.009.001.045.002a.771.771 0 0 0 .105-.01h.004a.495.495 0 0 0 .14-.053l.273-.159a.666.666 0 0 1-.142.05Z"/>
  <path fill="#EDE9DE" d="M67.294 6.335a3.21 3.21 0 0 0-.004-.098l-.008-.098-.012-.099-.014-.101-.001-.002v-.001l-.017-.099-.021-.105-.024-.105a4.216 4.216 0 0 1-.028-.107l-.024-.081a.019.019 0 0 0-.002-.007.133.133 0 0 0-.005-.019l-.033-.104-.036-.102a3.975 3.975 0 0 0-.037-.099c-.013-.033-.025-.066-.039-.098a2.23 2.23 0 0 0-.031-.072l-.002-.006-.008-.018-.045-.098c-.017-.035-.033-.071-.051-.105-.021-.041-.041-.081-.063-.121-.022-.042-.047-.083-.07-.125a.267.267 0 0 1-.013-.023l-.017-.028a5.258 5.258 0 0 0-.273-.416l-.002-.003-.001-.001a3.59 3.59 0 0 0-.089-.117l-.077-.096c-.025-.031-.052-.061-.078-.091l-.078-.087-.015-.016-.006-.006-.061-.064-.085-.083c-.028-.028-.059-.056-.088-.083l-.09-.078-.045-.037-.01-.008-.034-.028a2.954 2.954 0 0 0-.262-.186l-.085-.052-.02-.011c-.021-.013-.043-.024-.064-.036l-.082-.043-.054-.025-.012-.006-.017-.008-.08-.034a1.627 1.627 0 0 0-.081-.03l-.014-.004a.05.05 0 0 0-.013-.004l-.055-.018c-.027-.009-.056-.016-.083-.023l-.039-.009-.018-.004-.025-.006c-.03-.006-.06-.01-.088-.014l-.053-.006-.02-.001-.017-.002a1.006 1.006 0 0 0-.095-.004l-.04.002-.031.002-.032.002a.876.876 0 0 0-.116.017l-.002.001-.023.007a1.08 1.08 0 0 0-.115.031l-.008.004a.92.92 0 0 0-.152.071l-.002.001-.273.159a.975.975 0 0 1 .275-.106l.025-.007a1.06 1.06 0 0 1 .15-.019l.031-.001c.05-.002.101-.002.153.003l.018.002c.055.005.11.014.167.026l.018.003a1.923 1.923 0 0 1 .38.131l.014.006a2.727 2.727 0 0 1 .599.382l.01.008c.128.104.251.22.369.345l.006.007c.119.127.232.263.338.407l.001.001c.104.142.202.291.291.445l.013.023c.087.152.166.309.236.467l.002.006c.071.163.132.328.182.493l.003.008c.05.166.088.333.114.497v.001c.026.166.04.33.04.49a3.085 3.085 0 0 1-.011.22l-.002.019a2.575 2.575 0 0 1-.027.188l-.005.025a1.629 1.629 0 0 1-.043.167l-.01.029a1.54 1.54 0 0 1-.057.144l-.007.016a1.123 1.123 0 0 1-.219.317l-.038.037a.994.994 0 0 1-.169.129l.273-.159c.061-.036.116-.081.17-.129l.037-.037c.051-.051.098-.108.139-.172l.002-.002c.028-.043.054-.089.076-.138l.002-.005.007-.016c.015-.03.027-.061.04-.093l.017-.05a.247.247 0 0 1 .01-.029l.009-.027c.01-.033.019-.067.026-.103l.008-.038.005-.023.007-.037c.006-.031.011-.064.015-.096l.006-.055.002-.019.002-.022c.003-.031.005-.063.006-.095.002-.032.002-.064.003-.097v-.006c.001-.036 0-.067-.001-.097Z"/>
  <path fill="#F8F7F5" d="M65.018 3.11c-1.112-.642-2.015-.125-2.018 1.153-.003 1.275.893 2.831 2.005 3.473 1.112.642 2.015.125 2.019-1.15.002-1.279-.894-2.834-2.006-3.476Zm-.01 3.404c-.522-.302-.947-1.038-.946-1.638.002-.604.43-.844.952-.542.522.302.947 1.034.945 1.638-.001.6-.428.843-.951.542Z"/>
  <path fill="#A9A9A9" d="m74.025 10.119 1.342-.78-.004 1.795-1.343.78.005-1.795Z"/>
  <path fill="#F8F7F5" d="m66.967 6.089.471-.201 7.929 3.451-1.342.78-7.058-4.03Z"/>
  <path fill="#EDE9DE" d="m74.025 10.119-.005 1.795-6.993-5.327-.056-.518 7.054 4.05Z"/>
  <path fill="#F8F7F5" d="M72.757 8.055s-1.868 1.05-1.984 1.196c-.003.004 6.266 2.93 6.266 2.93l3.597-2.09s-5.37-3.004-7.879-2.036Z"/>
  <path fill="#F8F7F5" d="m80.635 10.091-3.597 2.09c.421.119 3.881 5.373 4.229 5.157.536-.332 1.354-.838 2.041-1.265.543-.337.905-3.502-2.673-5.982Z"/>
  <path fill="#F8F7F5" d="m77.038 12.181-5.564-2.815c-.588-.336-.767-.214-.936.342-.077.257 1.752 3.492 3.134 4.725.663.592 2.084 1.702 3.977 2.381 1.79.642 2.968.756 3.55.529.83-.323-2.263-3.847-4.161-5.162Z"/>
  <path fill="#EDE9DE" d="m76.829 12.181-5.355-2.815c-.588-.336-.767-.214-.936.342-.077.257 1.752 3.492 3.134 4.725.663.592 2.084 1.702 3.977 2.381 1.79.642 2.968.756 3.55.529.83-.323-2.472-3.847-4.37-5.162Z"/>
  <path fill="#203A66" d="M76.394 12.49a.843.843 0 0 1 .382.659l-.006 2.143c-.001.242-.174.341-.385.219l-1.101-.635a.846.846 0 0 1-.382-.661l.006-2.143c.001-.24.174-.338.385-.216l1.101.634Zm4.33 4.394c-.089.703-3.346-.801-3.346-.801a.839.839 0 0 1-.379-.66l.006-2.143c0-.24.173-.338.382-.217 0 0 .136-.162 1.417 1.311 1.097 1.262 1.92 2.51 1.92 2.51Z"/>
  <path fill="#182C4D" d="M79.902 11.16s-2.274 1.021-1.51 2.063c.915.85 1.823 1.854 2.897 3.418.239-.053 1.67-.739 1.994-1.072.316-.324.098-2.077-1.286-3.881-.991-1.293-2.095-.528-2.095-.528Z"/>
  <path fill="#48443B" d="M78.161 9.833a.558.558 0 0 0 .001-.071V9.76l-.001-.008c-.002-.02-.004-.042-.008-.063l-.01-.042-.021-.08-.019-.068-.002-.007-.023-.084-.015-.057-.006-.023-.033-.124-.009-.034-.147-.555a.438.438 0 0 1 .014.087l.001.006a.44.44 0 0 1-.003.081l-.003.019a.375.375 0 0 1-.02.08l-.002.007a.767.767 0 0 1-.046.094.465.465 0 0 1-.041.061l-.014.019a.92.92 0 0 1-.068.073l-.006.005-.004.004a1.031 1.031 0 0 1-.204.146 1.445 1.445 0 0 1-.203.093c-.022.009-.048.015-.071.023a1.621 1.621 0 0 1-.155.045l-.063.014c-.07.014-.141.026-.213.034l-.004.001a2.275 2.275 0 0 1-.248.011h-.02a2.187 2.187 0 0 1-.243-.016h-.007a2.08 2.08 0 0 1-.472-.117l-.016-.006a1.443 1.443 0 0 1-.286-.154.735.735 0 0 1-.044-.034c-.017-.013-.032-.027-.048-.041l-.037-.035a.744.744 0 0 1-.038-.044c-.01-.012-.021-.024-.029-.036a.389.389 0 0 1-.029-.046.195.195 0 0 1-.021-.037.301.301 0 0 1-.021-.049l-.015-.036a.538.538 0 0 1-.011-.052.206.206 0 0 1-.007-.034c-.002-.02-.002-.039-.002-.058v-.029a.419.419 0 0 1 .015-.086v-.001l-.018.067-.01.036-.015.052c-.008.031-.02.072-.027.103l-.023.086-.006.022a3.935 3.935 0 0 0-.041.149c-.008.031-.02.072-.027.103l-.015.052-.021.078-.027.1-.008.028-.014.052-.028.103a.419.419 0 0 0-.017.105v.035a.548.548 0 0 0 .001.07l.009.042c.004.021.007.041.014.063.004.015.011.029.017.044l.025.059c.007.015.017.029.025.044.012.019.022.038.036.056l.034.043c.016.018.03.036.048.053l.044.042a.72.72 0 0 0 .111.089l.036.027.061.039a1.82 1.82 0 0 0 .232.115l.017.006.019.007a3.402 3.402 0 0 0 .259.082l.023.006.045.011.117.023.117.018.008.001.008.001a3.315 3.315 0 0 0 .226.018l.068.001h.023a.386.386 0 0 0 .034.001l.132-.004c.044-.002.089-.006.133-.01h.005l.004-.001a2.65 2.65 0 0 0 .159-.021c.032-.005.063-.013.093-.019l.076-.016.049-.01c.048-.012.092-.029.138-.045.029-.01.06-.017.088-.028a1.873 1.873 0 0 0 .348-.176l.013-.01c.048-.033.091-.067.13-.103l.004-.003v-.001l.008-.008a.941.941 0 0 0 .076-.08l.005-.007.017-.022a.818.818 0 0 0 .037-.051l.014-.023.015-.026.014-.025c.011-.021.018-.042.026-.063 0-.003.002-.005.003-.008v-.002a.483.483 0 0 0 .02-.072l.004-.024.003-.022.003-.026Z"/>
  <path fill="#A7A092" d="M77.218 8.074c-.37-.221-.978-.227-1.357-.014-.38.213-.389.565-.02.786.37.221.978.227 1.358.014.379-.212.388-.564.019-.786Z"/>
  <path fill="#6D6659" d="M77.883 8.704a2.017 2.017 0 0 0-.002-.032l-.001-.009-.006-.032.003.013a.726.726 0 0 0-.019-.08l.001.006-.006-.019a.008.008 0 0 1 .002.005l-.012-.039-.003-.008-.002-.007-.007-.018-.007-.018a.056.056 0 0 1 .004.012l-.01-.025-.009-.018-.016-.031-.023-.044-.012-.018-.029-.044-.011-.014-.031-.037a.44.44 0 0 1-.022-.027l-.029-.029-.002-.002-.018-.018a.923.923 0 0 0-.063-.051l-.018-.015a2.603 2.603 0 0 1-.034-.026l-.064-.04.006.003-.01-.006-.014-.007-.036-.021-.009-.003-.026-.015-.02-.009-.043-.02-.015-.006-.087-.035-.013-.004a.448.448 0 0 0-.034-.011l-.038-.013a3.019 3.019 0 0 0-.09-.025l-.01-.002a.258.258 0 0 0-.024-.005l-.056-.012a1.046 1.046 0 0 0-.025-.005l-.067-.011h-.006a.352.352 0 0 0-.034-.004l-.053-.006-.063-.005-.031-.002-.006-.001-.048-.001-.025-.001.025.001a.548.548 0 0 0-.04-.001l-.012.001a.109.109 0 0 0-.018-.001l-.088.002-.028.001c-.331.016-.658.108-.894.299l-.005.003-.076.065-.049.051a1.074 1.074 0 0 0-.066.085l-.001.001-.002.002-.031.051c-.011.02-.016.034-.024.051-.007.015-.015.029-.021.044a.761.761 0 0 0-.025.072c-.005.015-.01.028-.013.042l-.006.02a.99.99 0 0 0-.012.058c-.037.222.088.452.378.625l.042.024-.004-.004c.034.019.068.038.105.054l.002.001.012.004.009.005.01.003a.049.049 0 0 0 .007.003l-.001-.001.013.005.011.004a.049.049 0 0 1 .007.003l.016.005.017.007.015.005a.159.159 0 0 0 .02.007l.021.008.003.001.002.001.022.006.021.007.028.007.033.009.009.003-.002-.002.009.002.023.007.008.001a.03.03 0 0 0 .009.002l.029.006.023.005.01.003-.002-.001.017.004.018.003.03.005h.004l.033.006a.02.02 0 0 0 .008.001l.041.005.024.004.02.002.022.003v-.001l.031.002.029.003.035.002.014.001-.002-.001h.019l.043.002a.59.59 0 0 0 .042.002h.007l.005.001-.001-.001h.01l.084-.002.026.001-.006-.002.029-.001c.021-.001.041-.001.061-.003l.033-.003.005-.001h.007l.034-.005c.038-.004.075-.008.111-.014l.066-.014.078-.018c.017-.004.037-.007.055-.012l-.025.003c.14-.036.272-.084.389-.149a1.12 1.12 0 0 0 .096-.06l-.003.003.004-.004a.959.959 0 0 0 .122-.1l-.005.006.014-.015.007-.008.02-.02c.014-.014.025-.029.036-.043l-.004.007.014-.02.019-.025a.479.479 0 0 0 .017-.025c.004-.005.005-.01.009-.016l.008-.012.001-.003.007-.016.011-.022v.002l.001-.003a.035.035 0 0 1 .004-.009l.002-.004.002-.007.006-.019.009-.027-.001.005c.002-.004.002-.009.003-.013l.005-.019.002-.012.002-.014.002-.008v.002l.001-.008.001-.014.002-.013v-.008l.001-.009a.184.184 0 0 1-.007-.042Zm-1.382-.797.061-.001c.044.001.087.004.13.009.014.001.027.001.04.003.057.007.111.017.165.03.014.003.025.008.039.012.103.028.198.065.282.115a.82.82 0 0 1 .132.102c.009.008.015.017.023.025.02.022.041.044.056.068.01.014.015.029.021.043.01.022.021.043.026.065.005.016.005.031.007.046a.28.28 0 0 1 .003.065c-.011.136-.104.27-.287.372-.234.132-.555.179-.854.145a1.435 1.435 0 0 1-.238-.049l-.052-.017a1.116 1.116 0 0 1-.214-.093.55.55 0 0 1-.251-.278l-.006-.015a.34.34 0 0 1-.014-.094l.002-.024a.332.332 0 0 1 .015-.075l.007-.023a.361.361 0 0 1 .063-.106.518.518 0 0 1 .056-.06l.02-.019.017-.015a.757.757 0 0 1 .112-.077 1.093 1.093 0 0 1 .261-.102 1.473 1.473 0 0 1 .378-.052Zm1.369.705-.001-.002.001.002Z"/>
  <path fill="#E6A1A1" d="M76.897 7.842h-.001l.004.001-.003-.001Z"/>
  <path fill="#769AA1" d="M76.677 7.692a.308.308 0 0 0-.279-.002c-.078.044-.08.116-.004.162a.308.308 0 0 0 .279.003c.078-.045.08-.118.004-.163Z"/>
  <path fill="#769AA1" d="M77.017 8.005v-.034l-.002-.002v-.007l-.002-.01-.001-.004v-.01l-.002-.003a.224.224 0 0 0-.01-.037v-.003a.305.305 0 0 0-.01-.027v-.001c-.002-.001-.003-.002-.003-.004-.008-.017-.016-.034-.026-.049-.01-.017-.022-.031-.034-.046l-.006-.007-.018-.02-.003-.002-.017-.014a.552.552 0 0 1-.025-.021l-.01-.008-.024-.016.004.002-.005-.003-.004-.002h-.001a.596.596 0 0 1-.026-.015l-.026-.012-.029-.012h-.001l-.017-.006-.007-.002-.003-.001-.029-.007-.027-.006-.02-.003-.009-.001-.027-.004a.228.228 0 0 1-.027-.002h-.023.007l-.012-.001h-.008v.001h-.02l-.028.001-.027.003-.025.004h-.003l-.028.006-.027.007-.027.008.005-.002-.008.003-.005.002-.008.003-.014.005-.032.014-.026.014-.033.021-.023.017-.034.03-.021.02-.004.005a.28.28 0 0 0-.027.036l-.015.024a.41.41 0 0 0-.025.052l-.009.027a.326.326 0 0 0-.014.097c-.001.07.045.141.136.195a.58.58 0 0 0 .075.037l-.002-.002.019.008.012.003.006.003c.004.001.009.001.013.003l.01.004.001.001.011.002.013.004.012.002.001.001.01.003.006.001.034.005.014.003c.009.002.018.001.027.002.007.001.013.003.02.003h.016a.263.263 0 0 0 .027.002h.005-.002.052l-.003-.001.017-.002.039-.001-.002-.001.031-.005c.011-.002.022-.001.032-.003l-.012-.001.005-.001a.425.425 0 0 0 .062-.013c.012-.003.025-.004.037-.008-.008.002-.015.001-.022.002.043-.013.086-.025.122-.045.012-.007.021-.015.032-.023a.193.193 0 0 0-.02.017l.03-.022c.007-.006.017-.012.024-.019l.009-.009-.003.004.004-.005c.007-.006.012-.013.017-.019.004-.004.01-.008.013-.013l-.003.005.003-.005a.027.027 0 0 1 .005-.006l.011-.02.002-.003v.005l.001-.005.005-.012c.002-.003.005-.006.006-.01v-.002l.002-.004a.16.16 0 0 0 .006-.021c-.006-.011-.005-.021-.005-.032v.004-.004Zm-.619-.316a.308.308 0 0 1 .279.002c.02.012.033.025.043.039a.078.078 0 0 1 .012.039v.011a.075.075 0 0 1-.014.034l-.016.015c-.009.008-.017.018-.029.025a.305.305 0 0 1-.279-.003c-.076-.046-.074-.118.004-.162Zm.234-.077.013.002-.013-.002Zm-.2.001.022-.004-.022.004Z"/>
  <path fill="#769AA1" d="m77.008 8.056-.001.004a.225.225 0 0 1-.024.046l-.005.007a.253.253 0 0 1-.071.065c-.012.009-.021.017-.035.025a.654.654 0 0 1-.171.061.798.798 0 0 1-.17.018h-.005a.846.846 0 0 1-.175-.021l-.007-.002a.576.576 0 0 1-.155-.061c-.091-.055-.137-.125-.136-.195l-.002.474c0 .07.045.141.137.195a.58.58 0 0 0 .134.057l.021.005.008.002.023.005.048.008.047.005.047.003h.016l.034-.001.054-.003.062-.008.02-.005.021-.005c.017-.004.033-.007.049-.012a.613.613 0 0 0 .101-.043l.012-.006c.01-.006.016-.012.024-.019l.032-.023.005-.004a.179.179 0 0 0 .034-.038l.005-.007.011-.016.013-.027.001-.003.001-.004.006-.019.003-.028v-.004l.001-.474c-.004.014-.007.031-.013.048Z"/>
  <path fill="#48443B" d="m83.9 3.651-.001.436-6.628 3.852.001-.436L83.9 3.651Z"/>
  <path fill="#6D6659" d="m75.779 7.505-.001.435-6.672-3.851.001-.436 6.672 3.852ZM83.2 11.79l-.001.435-6.673-3.853.001-.435L83.2 11.79Z"/>
  <path fill="#48443B" d="m83.946 11.357-.001.435-.746.433.001-.435.746-.433Z"/>
  <path fill="#6D6659" d="m69.898 11.789-.001.435-.748-.432.002-.435.747.432Z"/>
  <path fill="#48443B" d="m76.527 7.937-.001.435-6.629 3.852.001-.435 6.629-3.852Z"/>
  <path fill="#A7A092" d="m83.9 3.651-6.628 3.852 6.674 3.854-.746.433-6.673-3.853-6.629 3.852-.747-.432 6.628-3.852-6.672-3.852.745-.433 6.672 3.852 6.629-3.852.747.431Z"/>
</svg>
