<svg xmlns="http://www.w3.org/2000/svg" width="200" height="200" fill="none" viewBox="0 0 200 200">
  <path fill="#000" d="M157.895 134.889c8.375 0 16.407 3.43 22.329 9.535 5.923 6.105 9.25 14.386 9.25 23.02 0 8.635-3.327 16.915-9.25 23.021-5.922 6.105-13.954 9.535-22.329 9.535-6.537.019-12.918-2.06-18.256-5.949-5.338-3.89-9.369-9.396-11.534-15.755H115.79v-21.704h12.315c4.316-12.696 16-21.703 29.79-21.703Zm0 21.703c-2.792 0-5.469 1.144-7.443 3.179-1.975 2.035-3.084 4.795-3.084 7.673s1.109 5.639 3.084 7.674c1.974 2.035 4.651 3.178 7.443 3.178s5.469-1.143 7.443-3.178c1.974-2.035 3.083-4.796 3.083-7.674s-1.109-5.638-3.083-7.673c-1.974-2.035-4.651-3.179-7.443-3.179Zm0-97.666c3.992 0 7.821-1.635 10.644-4.546 2.822-2.91 4.408-6.857 4.408-10.973 0-4.115-1.586-8.062-4.408-10.972-2.823-2.91-6.652-4.546-10.644-4.546s-7.821 1.635-10.644 4.546c-2.823 2.91-4.409 6.857-4.409 10.972 0 4.116 1.586 8.063 4.409 10.974 2.823 2.91 6.652 4.545 10.644 4.545Zm0-58.926c11.167 0 21.876 4.573 29.773 12.714C195.564 20.854 200 31.895 200 43.408c0 32.447-42.105 80.629-42.105 80.629s-42.105-48.183-42.105-80.63c0-11.512 4.436-22.553 12.332-30.693C136.018 4.574 146.728 0 157.895 0ZM61.368 156.592h12.316v21.704H61.368c-2.164 6.359-6.195 11.865-11.533 15.755-5.339 3.889-11.72 5.968-18.256 5.949-8.375 0-16.407-3.43-22.33-9.535C3.327 184.359 0 176.079 0 167.444c0-14.216 8.737-26.261 21.053-30.71v-12.697h21.052v12.697c8.948 3.255 16.106 10.634 19.264 19.858Zm-29.789 0c-2.792 0-5.47 1.144-7.443 3.179-1.974 2.035-3.083 4.795-3.083 7.673s1.109 5.639 3.083 7.674c1.974 2.035 4.651 3.178 7.443 3.178s5.47-1.143 7.443-3.178c1.974-2.035 3.083-4.796 3.083-7.674s-1.109-5.638-3.083-7.673c-1.974-2.035-4.651-3.179-7.443-3.179Zm0-151.926c8.375 0 16.407 3.43 22.33 9.536 5.922 6.105 9.249 14.386 9.249 23.02 0 14.216-8.737 26.261-21.053 30.71V80.63H21.053V67.933C14.885 65.7 9.543 61.545 5.77 56.043 1.998 50.538-.02 43.96 0 37.221c0-8.634 3.326-16.915 9.248-23.02 5.923-6.106 13.955-9.536 22.33-9.536Zm0 21.704c-2.792 0-5.47 1.143-7.443 3.178-1.974 2.036-3.083 4.796-3.083 7.674s1.109 5.638 3.083 7.673c1.974 2.035 4.651 3.179 7.443 3.179s5.47-1.144 7.443-3.179c1.974-2.035 3.083-4.795 3.083-7.673s-1.109-5.638-3.083-7.674c-1.974-2.035-4.651-3.178-7.443-3.178Zm52.632 151.926v-21.704h21.052v21.704H84.211Zm-42.106-65.111H21.053V91.481h21.052v21.704Z"/>
</svg>
