<svg xmlns="http://www.w3.org/2000/svg" width="200" height="200" fill="none" viewBox="0 0 200 200">
  <path fill="#000" d="M0 132.964V66.701C0 54.59 6.664 43.395 17.483 37.34L76.072 4.544c11.197-6.269 25.048-6.037 36.012.607l8.463 5.132-6.175 9.58-8.462-5.127c-7.31-4.43-16.546-4.586-24.01-.408l-58.59 32.8c-7.21 4.038-11.655 11.498-11.655 19.573v66.263c0 8.075 4.444 15.536 11.655 19.573l59.181 33.132c7.212 4.037 16.098 4.037 23.31 0l59.181-33.132c7.212-4.037 11.655-11.498 11.655-19.573V82.881h11.656v50.083c-.001 12.113-6.665 23.306-17.483 29.363l-59.181 33.131c-10.818 6.056-24.148 6.056-34.966 0l-59.18-33.131C6.664 156.27 0 145.077 0 132.964Z"/>
  <path fill="#000" d="m172.074 29.024-5.163-17.511c-1.935-6.555-11.515-6.555-13.45 0l-5.158 17.511a6.735 6.735 0 0 1-1.778 2.931 7.05 7.05 0 0 1-3.023 1.725l-18.06 5.001c-6.76 1.876-6.76 11.166 0 13.042l18.06 5a7.05 7.05 0 0 1 3.023 1.726 6.734 6.734 0 0 1 1.778 2.931l5.158 17.511c1.935 6.555 11.515 6.555 13.45 0l5.157-17.511a6.745 6.745 0 0 1 1.779-2.931 7.05 7.05 0 0 1 3.023-1.725l18.06-5.001c6.76-1.876 6.76-11.166 0-13.042l-18.06-5a7.05 7.05 0 0 1-3.023-1.725 6.747 6.747 0 0 1-1.779-2.932M75.715 65.945c3.028 0 5.996.76 8.604 2.23l1.138.7 1.076.784a16.627 16.627 0 0 1 5.327 7.323c.028.076.054.155.08.231l17.027 51.094c1.484 4.454-1.035 9.233-5.628 10.672-4.594 1.439-9.522-1.009-11.007-5.463l-3.693-11.081H62.455l-3.694 11.081c-1.484 4.454-6.413 6.901-11.006 5.463-4.593-1.439-7.117-6.219-5.635-10.672l17.034-51.093.08-.232c1.203-3.287 3.443-6.123 6.402-8.106l1.138-.701a17.532 17.532 0 0 1 8.6-2.23v-.01c.056-.002.113.005.17.005.059 0 .117-.007.176-.006l-.005.011Zm47.571 64.966V74.405c.001-4.68 3.914-8.476 8.741-8.476s8.74 3.795 8.741 8.476v56.506c0 4.682-3.913 8.476-8.741 8.476-4.828 0-8.741-3.794-8.741-8.476Zm-55.18-25.428h14.882l-7.444-22.332-7.438 22.332Z"/>
</svg>
