<?xml version="1.0" encoding="utf-8"?>
<!-- Generator: Adobe Illustrator 27.9.6, SVG Export Plug-In . SVG Version: 9.03 Build 54986)  -->
<svg version="1.2" baseProfile="tiny" id="Layer_1" xmlns="http://www.w3.org/2000/svg" xmlns:xlink="http://www.w3.org/1999/xlink"
	 x="0px" y="0px" viewBox="0 0 24 24" overflow="visible" xml:space="preserve">
<g id="Iconly_x2F_Curved_x2F_Profile">
	<g id="Profile">
		<path id="Stroke_1" fill="none" stroke="#130F26" stroke-width="1.5" stroke-linecap="round" stroke-linejoin="round" d="
			M11.844,21.662C8.153,21.662,5,21.087,5,18.787c0-2.301,3.133-4.425,6.844-4.425c3.692,0,6.845,2.103,6.845,4.404
			C18.689,21.066,15.556,21.662,11.844,21.662z"/>
		<path id="Stroke_3" fill="none" stroke="#130F26" stroke-width="1.5" stroke-linecap="round" stroke-linejoin="round" d="
			M11.837,11.174c2.423,0,4.386-1.964,4.386-4.386c0-2.423-1.964-4.387-4.386-4.387C9.415,2.4,7.45,4.364,7.45,6.787
			c-0.008,2.415,1.942,4.378,4.356,4.386C11.817,11.174,11.827,11.174,11.837,11.174z"/>
	</g>
</g>
</svg>
