<?xml version="1.0" encoding="utf-8"?>
<!-- Generator: Adobe Illustrator 27.9.6, SVG Export Plug-In . SVG Version: 9.03 Build 54986)  -->
<svg version="1.2" baseProfile="tiny" id="Layer_1" xmlns="http://www.w3.org/2000/svg" xmlns:xlink="http://www.w3.org/1999/xlink"
	 x="0px" y="0px" viewBox="0 0 24 24" overflow="visible" xml:space="preserve">
<g id="Iconly_x2F_Curved_x2F_Setting">
	<g id="Setting">
		<path id="Stroke_1" fill="none" stroke="#130F26" stroke-width="1.5" stroke-linecap="round" stroke-linejoin="round" d="M12,9.5
			c1.381,0,2.5,1.119,2.5,2.5s-1.119,2.5-2.5,2.5S9.5,13.381,9.5,12S10.619,9.5,12,9.5z"/>
		<path id="Stroke_3" fill="none" stroke="#130F26" stroke-width="1.5" stroke-linecap="round" stroke-linejoin="round" d="
			M20.168,7.25L20.168,7.25c-0.683-1.192-2.197-1.6-3.379-0.912c-1.029,0.598-2.314-0.15-2.314-1.346
			C14.474,3.616,13.366,2.5,12,2.5l0,0c-1.366,0-2.474,1.116-2.474,2.492c0,1.196-1.286,1.944-2.313,1.346
			C6.028,5.65,4.515,6.058,3.832,7.25c-0.683,1.192-0.278,2.716,0.906,3.404c1.028,0.599,1.028,2.093,0,2.692
			c-1.184,0.688-1.589,2.213-0.906,3.404c0.684,1.192,2.197,1.6,3.379,0.913h0.001c1.028-0.599,2.313,0.149,2.313,1.345l0,0
			c0,1.376,1.108,2.492,2.474,2.492l0,0c1.366,0,2.474-1.116,2.474-2.492l0,0c0-1.196,1.286-1.944,2.314-1.345
			c1.183,0.688,2.696,0.279,3.379-0.913c0.684-1.191,0.278-2.715-0.905-3.404h-0.001c-1.028-0.599-1.028-2.093,0.001-2.692
			C20.445,9.967,20.851,8.443,20.168,7.25z"/>
	</g>
</g>
</svg>
