<?xml version="1.0" encoding="utf-8"?>
<!-- Generator: Adobe Illustrator 27.9.6, SVG Export Plug-In . SVG Version: 9.03 Build 54986)  -->
<svg version="1.2" baseProfile="tiny" id="Layer_1" xmlns="http://www.w3.org/2000/svg" xmlns:xlink="http://www.w3.org/1999/xlink"
	 x="0px" y="0px" viewBox="0 0 24 24" overflow="visible" xml:space="preserve">
<g id="Iconly_x2F_Curved_x2F_Star">
	<g id="Star">
		<path id="Stroke_1" fill="none" stroke="#130F26" stroke-width="1.5" stroke-linecap="round" stroke-linejoin="round" d="M12,3
			C9.964,3,9.771,6.547,8.559,7.8C7.347,9.053,3.578,7.62,3.055,9.844c-0.523,2.225,2.868,2.98,3.286,4.889
			c0.42,1.909-1.651,4.591,0.119,5.926c1.77,1.334,3.675-1.685,5.541-1.685c1.866,0,3.771,3.019,5.541,1.685
			c1.77-1.335-0.3-4.017,0.119-5.926c0.419-1.909,3.808-2.664,3.286-4.889C20.423,7.62,16.653,9.053,15.442,7.8
			C14.23,6.547,14.036,3,12,3z"/>
	</g>
</g>
</svg>
